<?xml version="1.0" encoding="utf-8"?>
<!-- Generator: Adobe Illustrator 26.5.0, SVG Export Plug-In . SVG Version: 6.00 Build 0)  -->
<svg version="1.1" id="Layer_1" xmlns="http://www.w3.org/2000/svg" xmlns:xlink="http://www.w3.org/1999/xlink" x="0px" y="0px"
	 viewBox="0 0 950 200" style="enable-background:new 0 0 950 200;" xml:space="preserve">
<style type="text/css">
	.st0{fill:#25AB7C;}
	.st1{fill:#141F39;}
</style>
<g>
	<g>
		<path class="st0" d="M175.27,129.16c-2.33,27.2-25.22,48.61-53,48.61s-50.67-21.41-53-48.61l-20.09-11.93l-1.83-1.09
			c-0.31,2.76-0.47,5.57-0.47,8.41c0,41.64,33.75,75.39,75.39,75.39s75.39-33.76,75.39-75.39c0-2.84-0.16-5.65-0.47-8.41
			L175.27,129.16z"/>
		<polygon class="st0" points="229.07,82.62 245.47,72.89 122.73,0.05 0,72.89 22.56,86.28 123.6,26.32 198.87,70.99 170.93,87.57 
			123.59,59.48 102.72,71.87 150.05,99.97 122.11,116.55 74.78,88.46 50.5,102.86 122.73,145.73 219.52,88.29 219.52,129.88 
			210.78,134.76 210.78,166.22 224.3,158.67 237.82,166.22 237.82,134.76 229.07,129.87 		"/>
	</g>
	<g>
		<polygon class="st1" points="316.95,143.33 337.13,143.33 337.13,111.76 377.11,111.76 377.11,95.67 337.13,95.67 337.13,72.77 
			382.44,72.77 382.44,56.68 316.95,56.68 		"/>
		<path class="st1" d="M429.48,56.68l-38.5,86.65h20.55l7.72-18.57h40.14l7.72,18.57h21.04l-38.87-86.65H429.48z M425.58,109.53
			l13.74-33.03l13.74,33.03H425.58z"/>
		<path class="st1" d="M528.5,79.95c2.48-2.48,5.41-4.39,8.79-5.76c3.38-1.36,7.1-2.04,11.14-2.04c4.29,0,8.27,0.87,11.95,2.6
			c3.67,1.73,6.95,4.29,9.84,7.67l13-11.88c-4.13-5.03-9.24-8.85-15.35-11.45c-6.11-2.6-12.92-3.9-20.42-3.9
			c-6.68,0-12.9,1.09-18.63,3.28c-5.74,2.19-10.73,5.3-14.98,9.35c-4.25,4.04-7.55,8.79-9.9,14.24c-2.35,5.45-3.53,11.43-3.53,17.95
			c0,6.52,1.18,12.5,3.53,17.95c2.35,5.45,5.63,10.19,9.84,14.24c4.21,4.04,9.18,7.16,14.92,9.35c5.74,2.19,11.95,3.28,18.63,3.28
			c7.59,0,14.44-1.32,20.55-3.96c6.11-2.64,11.22-6.48,15.35-11.51l-13-11.88c-2.89,3.38-6.17,5.96-9.84,7.74
			c-3.67,1.78-7.66,2.66-11.95,2.66c-4.04,0-7.76-0.68-11.14-2.04c-3.38-1.36-6.31-3.28-8.79-5.76c-2.47-2.48-4.39-5.4-5.76-8.79
			c-1.36-3.38-2.04-7.14-2.04-11.26c0-4.13,0.68-7.88,2.04-11.26C524.11,85.35,526.03,82.42,528.5,79.95z"/>
		<path class="st1" d="M663.93,104.58c0,8.17-1.69,14.09-5.08,17.76c-3.38,3.67-8.13,5.51-14.23,5.51c-6.03,0-10.73-1.84-14.11-5.51
			c-3.38-3.67-5.08-9.59-5.08-17.76V56.68h-20.18v48.4c0,12.79,3.47,22.61,10.4,29.46c6.93,6.85,16.54,10.27,28.84,10.27
			c12.21,0,21.79-3.42,28.72-10.27c6.93-6.85,10.4-16.67,10.4-29.46v-48.4h-19.68V104.58z"/>
		<polygon class="st1" points="733.62,56.68 713.44,56.68 713.44,143.33 776.82,143.33 776.82,126.99 733.62,126.99 		"/>
		<polygon class="st1" points="780.29,73.01 808.02,73.01 808.02,143.33 828.07,143.33 828.07,73.01 855.8,73.01 855.8,56.68 
			780.29,56.68 		"/>
		<polygon class="st1" points="950,56.68 930.44,56.68 907.24,95.04 884.15,56.68 862.73,56.68 896.4,112.47 896.4,143.33 
			916.58,143.33 916.58,112.42 		"/>
	</g>
</g>
</svg>
