<svg width="296" height="276" viewBox="0 0 296 276" fill="none" xmlns="http://www.w3.org/2000/svg">
<g opacity="0.36">
<path d="M17.017 159.032C4.34661 136.742 -4.11224 110.146 3.94661 86.369C11.5951 63.8036 33.7804 52.2648 55.5912 46.8366C78.3983 41.1602 102.343 40.5129 125.394 35.6882C149.577 30.6274 173.348 23.569 196.333 14.5017C206.758 10.3896 217.066 5.85125 227.928 3.09021C247.509 -1.88713 271.535 1.25482 284.326 18.4596C297.682 36.4246 298.288 62.4278 288.643 82.2123C277.625 104.815 257.861 122.537 250.604 147.085C246.205 161.965 247.241 178.133 242.049 192.732C236.963 207.031 229.272 220.529 218.723 231.508C206.684 244.039 190.806 253.145 173.628 255.769C149.91 259.393 126.024 250.683 104.742 239.606C76.2862 224.795 49.7605 205.004 30.3395 179.232C25.7351 173.122 21.1514 166.307 17.017 159.032Z" fill="#E9E9F2"/>
</g>
<path d="M289.383 245.578H6.61397C4.9599 245.578 3.61914 244.237 3.61914 242.583C3.61914 240.929 4.9599 239.588 6.61397 239.588H289.383C291.037 239.588 292.378 240.929 292.378 242.583C292.378 244.237 291.037 245.578 289.383 245.578Z" fill="#141921"/>
<path d="M162.24 276H36.183C35.3559 276 34.6855 275.33 34.6855 274.503C34.6855 273.676 35.3559 273.005 36.183 273.005H162.24C163.067 273.005 163.738 273.676 163.738 274.503C163.738 275.33 163.067 276 162.24 276Z" fill="#141921"/>
<path d="M283.22 266.46H216.611C215.784 266.46 215.113 265.789 215.113 264.962C215.113 264.135 215.784 263.465 216.611 263.465H283.22C284.047 263.465 284.717 264.135 284.717 264.962C284.717 265.789 284.047 266.46 283.22 266.46Z" fill="#141921"/>
<path d="M92.7441 193.214C92.7441 192.343 99.0145 175.622 109.639 171.79C105.458 189.556 97.4463 196.255 94.1374 197.608C93.0925 196 92.7441 193.214 92.7441 193.214Z" fill="#6DC38D"/>
<path d="M97.6211 193.368C97.6211 193.368 103.021 183.44 114.516 184.834C107.897 189.014 97.6211 195.224 97.6211 195.224V193.368Z" fill="#6DC38D"/>
<path d="M92.3881 196.574C92.3881 196.574 86.9885 183.336 92.3881 176.718C95.0004 180.724 94.6521 190.651 92.3881 196.574Z" fill="#6DC38D"/>
<path d="M91.7173 197.328C91.7173 197.328 72.907 185.659 61.9336 186.356C70.1197 181.13 86.666 186.356 91.7173 197.328Z" fill="#6DC38D"/>
<path d="M90.496 195.734C90.496 195.734 81.7875 190.991 79.5234 178.973C86.1413 179.322 91.8892 191.42 90.496 195.734Z" fill="#6DC38D"/>
<path d="M91.3366 194.669C91.3366 194.669 86.4594 185.438 88.3759 180.038C91.1624 184.022 92.2073 191.186 91.3366 194.669Z" fill="#6DC38D"/>
<path d="M108.826 201.238H76.7549C76.5895 201.238 76.4551 201.103 76.4551 200.938V193.718C76.4551 193.553 76.5895 193.418 76.7549 193.418H108.826C108.991 193.418 109.125 193.553 109.125 193.718V200.938C109.125 201.103 108.991 201.238 108.826 201.238Z" fill="#FEC253"/>
<path d="M99.5259 219.551H86.0587C85.0965 219.551 84.2543 218.904 84.0046 217.974L79.5195 201.237H106.065L101.58 217.974C101.331 218.905 100.488 219.551 99.5259 219.551Z" fill="#F9A145"/>
<path d="M81.3414 208.034L106.065 201.238H79.5195L81.3414 208.034Z" fill="#F18421"/>
<path d="M268.867 130.431H257.528L247.174 190.009H199.844V200.918H257.035L268.867 130.431Z" fill="#E8E8F1"/>
<path d="M235.588 130.431H257.528L247.174 190.009H199.844L235.588 130.431Z" fill="#D9D9E7"/>
<path d="M164.854 234.645L172.972 234.611L176.91 221.697L169.337 219.941L164.854 234.645Z" fill="#FBC9BE"/>
<path d="M173.266 232.933C171.355 233.443 167.031 235.11 165.002 232.17L151.291 239.6L175.495 239.441L174.367 233.66C174.29 233.137 173.776 232.796 173.266 232.933Z" fill="#0C0E0E"/>
<path d="M151.301 241.692L175.506 241.533L175.492 239.435L151.287 239.594L151.301 241.692Z" fill="white"/>
<path d="M200.723 172.502L185.369 177.696C181.344 179.057 178.204 182.248 176.908 186.295L163.104 226.528L177.644 228.251L193.592 188.906L200.723 172.502Z" fill="#E9E9F2"/>
<path d="M205.707 234.628L213.825 234.594L209.609 221.715L201.49 221.749L205.707 234.628Z" fill="#FBC9BE"/>
<path d="M213.406 232.933C211.496 233.443 207.172 235.11 205.143 232.17L191.432 239.6L215.636 239.441L214.508 233.66C214.431 233.136 213.918 232.796 213.406 232.933Z" fill="#0C0E0E"/>
<path d="M191.441 241.692L215.646 241.533L215.633 239.435L191.428 239.594L191.441 241.692Z" fill="white"/>
<path d="M238.572 170.689C238.572 170.689 244.418 184.946 233.128 189.606C233.128 189.606 224.509 192.347 203.237 191.182L214.332 226.308L200.78 227.797L186.736 189.971C185.051 185.435 186.905 180.346 191.113 177.956L203.913 170.689H238.572Z" fill="white"/>
<path d="M203.983 159.52C205 161.817 207.707 162.837 210.033 161.812C212.353 160.79 213.412 158.103 212.394 155.808C211.378 153.52 208.67 152.498 206.348 153.52C204.022 154.545 202.969 157.233 203.983 159.52Z" fill="#F79F8C"/>
<path d="M189.098 169.253L186.477 164.321C195.967 158.215 199.692 156.081 205.522 153.116L210.054 161.077C207.091 163.11 197.164 167.741 189.098 169.253Z" fill="#F79F8C"/>
<path d="M206.79 131.108C208.09 126.802 217.646 127.564 216.979 132.869C216.19 139.152 213.647 154.721 212.594 158.569L203.514 157.456C203.514 157.456 204.7 138.022 206.79 131.108Z" fill="#F79F8C"/>
<path d="M212.117 159.857C210.892 162.053 208.102 162.819 205.88 161.586C203.667 160.354 202.858 157.58 204.084 155.389C205.304 153.205 208.093 152.433 210.314 153.666C212.534 154.9 213.341 157.672 212.117 159.857Z" fill="#F79F8C"/>
<path d="M213.201 126.761C209.437 126.121 205.662 129.365 205.024 133.129L201.832 149.873C201.674 150.794 204.602 152.06 208.366 152.701C212.132 153.342 215.309 153.113 215.467 152.192L218.657 135.449C219.297 131.681 216.967 127.4 213.201 126.761Z" fill="#6DC38D"/>
<path d="M183.287 162.872C183.671 162.853 184.086 162.849 184.536 162.865C185.042 162.885 187.082 163.055 188.354 164.467C188.638 164.784 186.649 165.354 185.395 165.675L183.287 162.872Z" fill="#F79F8C"/>
<path d="M184.346 164.279C185.803 163.567 187.33 163.131 188.449 164.425C189.853 166.049 190.507 168.346 188.838 170.254L184.346 164.279Z" fill="#F79F8C"/>
<path d="M213.291 144.33C213.26 144.33 213.26 144.382 213.291 144.382C213.325 144.381 213.325 144.33 213.291 144.33Z" fill="#010101"/>
<path d="M210.619 170.58C210.61 173.703 215.009 175.952 221.703 176.033C229.154 176.124 238.961 173.718 238.772 170.213C238.578 166.592 237.734 163.888 237.682 161.711C237.505 154.336 240.416 131.241 240.416 131.241C240.416 127.275 236.992 124.352 224.638 124.352C211.575 124.352 210.334 128.393 210.334 132.358C210.334 132.358 210.771 147.301 210.718 157.697C210.697 161.936 210.626 168.231 210.619 170.58Z" fill="#6DC38D"/>
<path d="M240.368 155.317C238.96 157.397 239.532 160.234 241.636 161.66C243.733 163.084 246.573 162.553 247.977 160.475C249.376 158.399 248.806 155.56 246.707 154.136C244.604 152.708 241.767 153.241 240.368 155.317Z" fill="#F79F8C"/>
<path d="M224.666 168.353L222.467 163.218C232.445 157.94 234.984 157.35 242.399 153.671L246.238 161.987C243.113 163.763 232.827 167.533 224.666 168.353Z" fill="#F79F8C"/>
<path d="M243.645 130.587C242.131 126.351 232.59 127.721 233.584 132.975C234.76 139.197 238.262 154.578 239.551 158.357L248.545 156.683C248.59 153.425 246.666 139.037 243.645 130.587Z" fill="#F79F8C"/>
<path d="M240.109 159.61C241.467 161.724 244.297 162.317 246.439 160.95C248.571 159.583 249.208 156.765 247.851 154.652C246.497 152.548 243.666 151.952 241.526 153.319C239.385 154.688 238.752 157.506 240.109 159.61Z" fill="#F79F8C"/>
<path d="M236.978 126.645C240.695 125.773 244.662 128.777 245.532 132.494L249.753 149.008C249.966 149.919 247.125 151.364 243.406 152.235C239.688 153.107 236.5 153.075 236.289 152.166L232.068 135.652C231.196 131.933 233.257 127.516 236.978 126.645Z" fill="#6DC38D"/>
<path d="M213.864 163.825C214.187 164.837 215.805 164.402 216.713 164.429C217.606 164.454 220.244 164.946 220.244 164.946C220.741 164.808 224.456 163.745 224.053 163.336C222.719 161.985 220.675 161.909 220.167 161.914C218.368 161.93 217.158 162.256 216.163 162.414C215.21 162.564 213.468 162.572 213.864 163.825Z" fill="#F79F8C"/>
<path d="M217.827 166.569L211.885 168.075C211.349 168.217 210.823 167.995 210.703 167.491C210.58 166.989 211.01 166.594 211.551 166.453L218.874 164.135C219.415 163.993 218.367 166.425 217.827 166.569Z" fill="#F79F8C"/>
<path d="M221.067 169.39C221.323 169.842 221.968 170.421 221.473 170.678L215.419 173.402C214.92 173.658 214.108 173.59 213.851 173.138C213.596 172.687 213.827 172.21 214.32 171.955L219.784 169.185C220.278 168.927 220.809 168.938 221.067 169.39Z" fill="#F79F8C"/>
<path d="M219.207 166.713C219.394 167.257 219.046 167.867 218.436 168.081L211.708 170.283C211.099 170.494 210.504 170.343 210.32 169.8C210.137 169.255 210.595 168.779 211.205 168.568L217.77 166.116C218.384 165.9 219.025 166.169 219.207 166.713Z" fill="#F79F8C"/>
<path d="M220.338 168.019C220.56 168.545 220.657 169.311 220.059 169.556L213.163 171.906C212.565 172.152 211.858 172.112 211.633 171.582C211.407 171.055 211.823 170.603 212.418 170.359L218.846 167.506C219.443 167.261 220.11 167.491 220.338 168.019Z" fill="#F79F8C"/>
<path d="M217.381 164.748C219.302 164.223 222.614 161.526 224.369 163.63C226.126 165.735 226.396 169.014 221.289 170.837C217.599 172.08 217.381 164.748 217.381 164.748Z" fill="#F79F8C"/>
<path d="M220.928 126.329C221.541 128.097 223.432 128.456 225.09 128.386C226.92 128.309 229.326 127.812 229.916 125.787C230.322 124.391 229.949 122.814 229.898 121.39C229.863 120.444 229.864 119.495 229.911 118.549C229.939 117.967 229.985 117.387 230.05 116.809C230.103 116.342 230.165 115.875 230.237 115.411C230.285 115.098 230.338 114.786 230.396 114.476C230.436 114.258 230.677 113.669 230.422 113.528C230.186 113.397 229.724 113.821 229.534 113.944C226.745 115.736 223.825 117.325 220.803 118.69C220.684 118.743 220.56 118.802 220.492 118.914C220.428 119.019 220.429 119.15 220.433 119.275C220.463 120.269 220.494 121.264 220.524 122.258C220.535 122.645 220.537 123.033 220.543 123.419C220.554 124.402 220.599 125.384 220.928 126.329Z" fill="#F79F8C"/>
<path d="M220.542 123.419C223.177 122.604 225.698 121.433 227.984 119.901C228.62 119.475 229.275 119.025 229.911 118.549C229.939 117.967 229.985 117.387 230.05 116.809C230.103 116.342 230.165 115.875 230.237 115.411C230.285 115.098 230.338 114.786 230.396 114.476C230.436 114.258 230.677 113.669 230.422 113.528C230.186 113.397 229.724 113.821 229.534 113.944C226.745 115.736 223.825 117.325 220.803 118.69C220.684 118.743 220.56 118.802 220.492 118.914C220.428 119.019 220.429 119.15 220.433 119.275C220.463 120.269 220.494 121.264 220.524 122.258C220.533 122.644 220.535 123.032 220.542 123.419Z" fill="#D8887C"/>
<path d="M215.902 114.195C217.294 114.181 218.411 113.041 218.396 111.649C218.382 110.257 217.242 109.14 215.85 109.155C214.458 109.169 213.342 110.309 213.356 111.7C213.37 113.092 214.51 114.209 215.902 114.195Z" fill="#F79F8C"/>
<path d="M215.731 103.754C215.731 103.754 213.912 112.205 215.068 115.545C216.224 118.886 218.958 120.958 223.317 120.032C223.317 120.032 228.38 119.698 229.527 112.157C231.255 100.806 220.907 97.6405 215.731 103.754Z" fill="#F79F8C"/>
<path d="M231.784 112.721C231.467 113.831 230.312 114.475 229.201 114.158C228.091 113.842 227.448 112.686 227.764 111.576C228.081 110.465 229.236 109.822 230.347 110.138C231.457 110.455 232.101 111.611 231.784 112.721Z" fill="#F79F8C"/>
<path d="M230.706 111.522C230.706 111.522 229.166 111.108 228.787 112.8" stroke="#ED8B62" stroke-width="1.5418" stroke-miterlimit="10" stroke-linecap="round" stroke-linejoin="round"/>
<path d="M217.695 109.684C217.603 110.061 217.224 110.291 216.847 110.199C216.471 110.107 216.241 109.727 216.333 109.351C216.425 108.975 216.804 108.744 217.181 108.837C217.558 108.929 217.788 109.308 217.695 109.684Z" fill="#121212"/>
<path d="M223.621 109.704C223.529 110.08 223.149 110.311 222.773 110.219C222.397 110.127 222.166 109.747 222.259 109.371C222.351 108.995 222.73 108.764 223.106 108.856C223.483 108.948 223.713 109.328 223.621 109.704Z" fill="#121212"/>
<path d="M219.226 110.343L217.98 112.169L219.088 112.83" stroke="#88514F" stroke-width="4" stroke-miterlimit="10"/>
<path d="M217.409 105.298C217.253 105.218 217.16 105.297 216.413 105.381C216.12 105.413 216.043 105.415 215.996 105.423C215.766 105.462 215.262 105.843 214.919 109.163C214.438 108.391 213.795 107.159 213.446 105.536C213.22 104.485 212.687 101.827 214.004 98.9845C215.455 95.8513 218.205 94.5439 218.958 94.1996C222.172 92.7292 226.819 92.6378 229.131 94.765C229.819 95.398 231.204 97.0585 233.887 98.8676C233.932 98.8978 233.925 98.8923 233.938 98.9018C236.341 100.545 236.345 104.285 236.347 106.46C236.349 107.791 236.352 112.295 233.918 114.938C233.731 115.14 233.399 115.46 232.734 116.101C229.846 118.881 229.455 118.862 229.259 118.799C228.502 118.556 228.037 116.812 228.465 115.711C228.663 115.201 228.862 114.69 229.06 114.181C229.626 114.308 230.399 114.385 230.782 113.936C230.793 113.923 230.804 113.909 230.822 113.884C231.094 113.531 232.252 111.938 231.529 110.863C231.125 110.261 230.204 109.932 229.536 110.198C228.794 110.495 228.601 111.431 228.29 112.607C228.401 113.332 228.586 115.216 227.529 117.07C226.089 119.598 222.851 121.18 219.746 120.311C217.35 119.64 215.502 117.641 214.909 115.134C215.53 114.794 216.599 114.294 217.99 114.103C221.065 113.679 222.907 115.147 224.733 114.115C225.951 113.427 226.711 112.359 226.711 112.359C226.84 112.178 226.941 112.013 227.117 111.725C227.397 111.264 227.768 110.602 228.123 109.784C228.624 108.632 228.608 108.289 228.456 108.122C228.032 107.658 226.613 108.636 226.13 108.122C225.844 107.819 226.242 107.372 225.964 106.71C225.646 105.955 224.762 105.669 224.635 105.63C223.568 105.302 223.203 106.076 222.06 105.879C220.892 105.679 220.745 104.781 219.9 104.883C218.968 104.994 218.492 106.165 217.99 105.963C217.722 105.854 217.787 105.489 217.409 105.298Z" fill="#10133B"/>
<path d="M218.476 115.899L221.713 116.132C221.713 116.132 221.664 117.134 220.014 117.025C218.364 116.918 218.476 115.899 218.476 115.899Z" fill="white"/>
<path d="M218.666 162.013L218.909 164.699C219.675 164.825 220.327 164.947 220.327 164.947C220.824 164.808 224.54 163.745 224.136 163.337C222.803 161.986 220.758 161.91 220.251 161.915C219.664 161.92 219.141 161.958 218.666 162.013Z" fill="#F79F8C"/>
<path d="M217.909 166.569L211.967 168.076C211.431 168.217 210.905 167.996 210.785 167.491C210.662 166.99 211.092 166.594 211.633 166.454L218.956 164.135C219.497 163.993 218.449 166.425 217.909 166.569Z" fill="#F79F8C"/>
<path d="M221.149 169.39C221.405 169.843 222.05 170.422 221.555 170.679L215.501 173.402C215.002 173.658 214.19 173.59 213.933 173.138C213.678 172.687 213.909 172.21 214.402 171.956L219.865 169.185C220.361 168.927 220.892 168.939 221.149 169.39Z" fill="#F79F8C"/>
<path d="M219.29 166.713C219.476 167.257 219.128 167.867 218.518 168.081L211.79 170.283C211.181 170.495 210.587 170.343 210.402 169.801C210.219 169.256 210.677 168.779 211.287 168.568L217.852 166.116C218.466 165.901 219.107 166.17 219.29 166.713Z" fill="#F79F8C"/>
<path d="M220.42 168.019C220.642 168.545 220.739 169.311 220.141 169.556L213.245 171.906C212.647 172.152 211.94 172.112 211.715 171.582C211.489 171.055 211.906 170.603 212.5 170.359L218.928 167.506C219.525 167.261 220.193 167.491 220.42 168.019Z" fill="#F79F8C"/>
<path d="M217.463 164.748C219.384 164.224 222.696 161.526 224.451 163.63C226.208 165.735 226.478 169.014 221.371 170.838C217.681 172.08 217.463 164.748 217.463 164.748Z" fill="#F79F8C"/>
<path d="M229.585 239.02H225.036C224.511 239.02 224.082 238.59 224.082 238.065V201.33C224.082 200.806 224.511 200.376 225.036 200.376H229.585C230.11 200.376 230.539 200.806 230.539 201.33V238.065C230.539 238.59 230.11 239.02 229.585 239.02Z" fill="#383A50"/>
<path d="M193.478 141.875H161.533L173.513 173.918H205.9L193.478 141.875Z" fill="#383A50"/>
<path d="M230.964 173.918V171.467H208.78L197.467 141.875H193.475L205.897 173.918H230.964Z" fill="#2C2F44"/>
<path d="M187.644 158.842C188.156 156.673 186.813 154.5 184.645 153.988C182.476 153.476 180.303 154.819 179.791 156.987C179.278 159.156 180.621 161.329 182.79 161.842C184.959 162.354 187.132 161.011 187.644 158.842Z" fill="white"/>
<path d="M254.643 237.115C254.643 236.192 261.29 218.466 272.554 214.403C268.123 233.238 259.629 240.34 256.12 241.775C255.012 240.07 254.643 237.115 254.643 237.115Z" fill="#6DC38D"/>
<path d="M254.643 221.235C254.643 221.235 260.367 210.71 272.554 212.187C265.537 216.619 254.643 223.203 254.643 223.203V221.235Z" fill="#6DC38D"/>
<path d="M255.703 198.856C255.703 198.856 258.152 181.719 273.847 179.134C264.245 192.244 255.703 198.856 255.703 198.856Z" fill="#6DC38D"/>
<path d="M255.163 206.958C255.163 206.958 275.443 195.568 275.443 189.66C274.151 198.892 268.796 206.833 254.762 210.341C254.394 209.971 255.163 206.958 255.163 206.958Z" fill="#6DC38D"/>
<path d="M265.353 165.285C265.353 165.285 259.629 151.252 265.353 144.235C268.122 148.481 267.753 159.007 265.353 165.285Z" fill="#6DC38D"/>
<path d="M267.295 159.93C267.295 159.93 271.817 150.513 279.756 148.482C276.063 157.899 267.295 159.93 267.295 159.93Z" fill="#6DC38D"/>
<path d="M251.505 175.995C251.505 175.995 244.303 168.793 243.75 159.93C250.028 164.547 251.505 175.995 251.505 175.995Z" fill="#6DC38D"/>
<path d="M240.425 182.827C240.425 182.827 226.577 171.933 225.469 159.93C234.148 163.992 240.425 182.827 240.425 182.827Z" fill="#6DC38D"/>
<path d="M242.826 188.09C242.826 188.09 234.147 187.998 227.684 178.396C234.701 179.873 242.826 188.09 242.826 188.09Z" fill="#6DC38D"/>
<path d="M249.288 209.602C249.288 209.602 229.346 197.23 217.713 197.968C226.391 192.429 243.933 197.968 249.288 209.602Z" fill="#6DC38D"/>
<path d="M253.536 241.774C253.536 241.774 244.303 236.745 241.902 224.005C248.919 224.374 255.012 237.201 253.536 241.774Z" fill="#6DC38D"/>
<path d="M254.641 213.664C254.641 213.664 249.471 203.877 251.502 198.153C254.457 202.377 255.564 209.971 254.641 213.664Z" fill="#6DC38D"/>
<path d="M245.41 195.806C245.41 195.806 249.842 184.489 257.597 182.827C255.382 187.997 245.41 195.806 245.41 195.806Z" fill="#6DC38D"/>
<path d="M239.811 181.119C239.811 181.119 252.323 211.818 254.961 240.07C249.29 195.014 267.295 159.93 267.295 159.93" stroke="#109490" stroke-width="2.4752" stroke-miterlimit="10"/>
<path d="M251.215 174.318C251.215 174.318 252.106 185.334 256.723 193.067L251.215 174.318Z" fill="#6DC38D"/>
<path d="M271.717 245.623H237.681C237.515 245.623 237.381 245.488 237.381 245.323V237.633C237.381 237.467 237.515 237.333 237.681 237.333H271.717C271.883 237.333 272.017 237.467 272.017 237.633V245.323C272.017 245.488 271.883 245.623 271.717 245.623Z" fill="#FEC253"/>
<path d="M261.839 265.037H247.562C246.541 265.037 245.648 264.352 245.384 263.366L240.629 245.622H268.772L264.017 263.366C263.753 264.352 262.86 265.037 261.839 265.037Z" fill="#F9A145"/>
<path d="M242.56 252.827L268.771 245.622H240.629L242.56 252.827Z" fill="#F18421"/>
<path d="M184.523 129.528H35.3195C34.5028 129.528 33.834 128.859 33.834 128.042V20.8184C33.834 20.0017 34.5028 19.3329 35.3195 19.3329H184.523C185.339 19.3329 186.008 20.0017 186.008 20.8184V128.042C186.007 128.859 185.339 129.528 184.523 129.528Z" fill="#E8E8F1"/>
<path d="M186.007 28.2713V20.9687C186.007 20.0693 185.271 19.3329 184.372 19.3329H35.4698C34.5704 19.3329 33.834 20.0693 33.834 20.9687V28.2713H186.007Z" fill="#D9D9E7"/>
<path d="M169.928 23.9212C170.126 23.0856 169.609 22.2476 168.773 22.0495C167.938 21.8514 167.1 22.3681 166.902 23.2037C166.704 24.0393 167.22 24.8773 168.056 25.0754C168.892 25.2735 169.729 24.7567 169.928 23.9212Z" fill="white"/>
<path d="M174.863 24.6598C175.47 24.0526 175.47 23.068 174.863 22.4608C174.256 21.8536 173.271 21.8536 172.664 22.4608C172.057 23.068 172.057 24.0526 172.664 24.6598C173.271 25.267 174.256 25.267 174.863 24.6598Z" fill="white"/>
<path d="M180.617 23.921C180.815 23.0854 180.298 22.2474 179.463 22.0493C178.627 21.8512 177.789 22.368 177.591 23.2035C177.393 24.0391 177.91 24.8771 178.745 25.0752C179.581 25.2733 180.419 24.7566 180.617 23.921Z" fill="white"/>
<path d="M87.4452 30.4103H52.5187C51.702 30.4103 51.0332 29.7415 51.0332 28.9248V19.2143C51.0332 18.3976 51.702 17.7288 52.5187 17.7288H87.446C88.2627 17.7288 88.9314 18.3976 88.9314 19.2143V28.9248C88.9306 29.7423 88.2619 30.4103 87.4452 30.4103Z" fill="#E8E8F1"/>
<path d="M180.869 33.3798H37.5664V124.334H180.869V33.3798Z" fill="white"/>
<path d="M164.117 127.039L173.463 139.01V127.039H164.117Z" fill="#E8E8F1"/>
<path d="M93.2208 95.2675C92.1027 97.794 89.1286 98.9144 86.5711 97.7868C84.0216 96.6631 82.8574 93.7097 83.9763 91.188C85.0928 88.6727 88.0686 87.549 90.6228 88.6727C93.1787 89.7987 94.3365 92.7546 93.2208 95.2675Z" fill="#8E5B59"/>
<path d="M90.2366 117.504L96.3018 116.549C95.3984 104.176 94.8115 99.4942 93.5662 92.4127L83.5781 93.689C83.7483 97.6373 86.2382 109.419 90.2366 117.504Z" fill="#8E5B59"/>
<path d="M90.1312 64.0373C88.7014 59.3041 78.1972 60.1423 78.9312 65.9737C79.7996 72.8787 82.5941 89.9944 83.7511 94.2242L93.7328 93.0004C93.7328 93.0004 92.4279 71.6365 90.1312 64.0373Z" fill="#8E5B59"/>
<path d="M84.276 95.6389C85.6231 98.0524 88.6895 98.8954 91.1317 97.5395C93.5643 96.186 94.4533 93.1363 93.1062 90.7268C91.7647 88.326 88.6991 87.4791 86.2585 88.8333C83.8187 90.19 82.9313 93.2381 84.276 95.6389Z" fill="#8E5B59"/>
<path d="M83.0823 59.2588C87.2199 58.555 91.3694 62.1208 92.0716 66.2592L95.5793 84.6639C95.7535 85.6771 92.5352 87.0687 88.3968 87.7733C84.2577 88.4779 80.765 88.2258 80.5909 87.2126L77.0847 68.8087C76.3809 64.6671 78.9432 59.9617 83.0823 59.2588Z" fill="#FEC354"/>
<path d="M101.655 123.974C100.572 124.412 99.8074 122.736 99.1481 121.981C98.5024 121.245 96.2344 119.353 96.2344 119.353C96.0054 118.84 94.302 114.946 94.9319 115.001C97.0122 115.185 98.508 116.865 98.8603 117.297C100.104 118.833 100.677 120.085 101.24 121.042C101.78 121.955 102.995 123.433 101.655 123.974Z" fill="#8E5B59"/>
<path d="M96.3053 122.654L98.7204 128.953C98.9359 129.53 99.499 129.856 100.082 129.639C100.659 129.426 100.767 128.788 100.551 128.213L98.0302 120.149C97.8147 119.57 96.0922 122.079 96.3053 122.654Z" fill="#8E5B59"/>
<path d="M91.3982 121.187C90.7827 121.181 89.8205 120.867 89.8125 121.485L90.1704 128.792C90.164 129.408 90.6745 130.159 91.2924 130.165C91.9103 130.168 92.2896 129.691 92.2976 129.08L92.3071 122.318C92.3151 121.702 92.0137 121.198 91.3982 121.187Z" fill="#8E5B59"/>
<path d="M94.9199 121.674C94.2567 121.859 93.8797 122.564 94.0714 123.248L96.3163 130.701C96.508 131.384 97.0495 131.82 97.7064 131.636C98.3672 131.448 98.5374 130.732 98.3473 130.046L96.4587 122.579C96.2694 121.893 95.5799 121.49 94.9199 121.674Z" fill="#8E5B59"/>
<path d="M93.3707 121.213C92.6963 121.311 91.8494 121.667 91.9472 122.368L93.5957 130.205C93.6951 130.91 94.1508 131.552 94.8339 131.453C95.5106 131.357 95.7309 130.704 95.6339 130.002L94.783 122.313C94.6812 121.61 94.0514 121.12 93.3707 121.213Z" fill="#8E5B59"/>
<path d="M98.3996 121.879C97.6545 119.816 98.1491 115.109 94.907 114.888C91.6633 114.667 88.2358 116.538 89.7873 122.291C90.9841 126.406 98.3988 121.879 98.3996 121.879Z" fill="#8E5B59"/>
<path d="M83.9624 103.807C86.3616 106.479 86.554 124.407 86.554 124.407H70.6598L54.7297 124.134C54.7297 124.134 54.2017 105.406 57.4041 102.941C62.286 99.1816 79.785 99.149 83.9624 103.807Z" fill="#3A3C50"/>
<path d="M82.9849 78.5707C83.0197 78.5707 83.0197 78.6277 82.9849 78.6277C82.9477 78.6277 82.9477 78.5707 82.9849 78.5707Z" fill="#030303"/>
<path d="M85.9246 107.426C85.9342 110.859 81.0984 113.331 73.7409 113.421C65.5493 113.52 54.7699 110.875 54.9775 107.023C55.1906 103.042 56.1194 100.071 56.1759 97.677C56.3699 89.5705 53.1699 64.1828 53.1699 64.1828C53.1699 59.8233 56.9337 56.6098 70.5139 56.6098C84.8725 56.6098 86.2371 61.052 86.2371 65.4106C86.2371 65.4106 85.756 81.8368 85.8149 93.2643C85.8387 97.9243 85.9167 104.843 85.9246 107.426Z" fill="#FEC354"/>
<path d="M53.22 90.6481C54.7667 92.9344 54.1392 96.0525 51.8251 97.6207C49.5198 99.1849 46.3985 98.6028 44.8541 96.3173C43.3162 94.0358 43.9436 90.9145 46.2506 89.3487C48.5631 87.7805 51.6812 88.3666 53.22 90.6481Z" fill="#8E5B59"/>
<path d="M70.4755 104.979L72.8922 99.3335C61.9244 93.5315 59.1331 92.8842 50.9812 88.8389L46.7617 97.98C50.1979 99.9323 61.5029 104.077 70.4755 104.979Z" fill="#8E5B59"/>
<path d="M49.6186 63.464C51.2822 58.8071 61.7713 60.3141 60.6779 66.0882C59.3856 72.928 55.5359 89.8354 54.1196 93.9889L44.2333 92.1487C44.1824 88.5686 46.2977 72.7531 49.6186 63.464Z" fill="#8E5B59"/>
<path d="M53.5059 95.3671C52.0141 97.6915 48.9024 98.3428 46.5485 96.8398C44.2042 95.3376 43.5036 92.2386 44.9954 89.9174C46.4833 87.6048 49.5966 86.948 51.9489 88.4518C54.3012 89.9563 54.997 93.0545 53.5059 95.3671Z" fill="#8E5B59"/>
<path d="M56.9468 59.1307C52.8601 58.1732 48.4998 61.4742 47.5432 65.5601L42.903 83.7128C42.6684 84.714 45.7913 86.3029 49.8804 87.2603C53.967 88.2186 57.4708 88.1844 57.7038 87.184L62.344 69.0321C63.3014 64.9438 61.035 60.0889 56.9468 59.1307Z" fill="#FEC354"/>
<path d="M82.3559 100.001C82.0012 101.113 80.2231 100.635 79.2251 100.665C78.2438 100.693 75.3436 101.234 75.3436 101.234C74.7972 101.081 70.7129 99.9132 71.1567 99.4647C72.6231 97.9792 74.8704 97.8957 75.4286 97.9021C77.4064 97.9196 78.736 98.2782 79.8294 98.4524C80.8776 98.6162 82.7917 98.625 82.3559 100.001Z" fill="#8E5B59"/>
<path d="M77.9985 103.016L84.5297 104.672C85.1206 104.827 85.6971 104.584 85.8291 104.029C85.9643 103.478 85.492 103.043 84.8971 102.889L76.847 100.34C76.253 100.184 77.4053 102.857 77.9985 103.016Z" fill="#8E5B59"/>
<path d="M74.4381 106.118C74.1574 106.615 73.4489 107.252 73.9928 107.533L80.6481 110.527C81.196 110.808 82.0898 110.733 82.3713 110.237C82.6513 109.741 82.3976 109.217 81.8552 108.937L75.8497 105.892C75.3041 105.609 74.722 105.621 74.4381 106.118Z" fill="#8E5B59"/>
<path d="M76.4848 103.175C76.2805 103.773 76.6622 104.444 77.3325 104.679L84.729 107.1C85.3978 107.332 86.0514 107.166 86.2542 106.568C86.4554 105.969 85.952 105.446 85.2809 105.213L78.0642 102.518C77.3898 102.281 76.6852 102.578 76.4848 103.175Z" fill="#8E5B59"/>
<path d="M75.2417 104.611C74.9976 105.188 74.891 106.031 75.5487 106.301L83.1288 108.883C83.7864 109.152 84.5642 109.109 84.8107 108.526C85.0588 107.948 84.6008 107.451 83.9463 107.182L76.8807 104.047C76.2254 103.777 75.4922 104.03 75.2417 104.611Z" fill="#8E5B59"/>
<path d="M78.4869 101.015C76.3756 100.439 72.7342 97.4743 70.805 99.7868C68.8734 102.101 68.5776 105.705 74.1911 107.709C78.2475 109.075 78.4869 101.015 78.4869 101.015Z" fill="#8E5B59"/>
<path d="M74.582 58.7838C73.9085 60.7273 71.829 61.1226 70.0063 61.0454C67.9952 60.9611 65.3494 60.4132 64.7013 58.1874C64.256 56.6526 64.6655 54.9198 64.722 53.354C64.761 52.3138 64.7602 51.2705 64.7077 50.2311C64.6767 49.5925 64.6274 48.9548 64.555 48.3186C64.4969 47.8049 64.4286 47.2927 64.3498 46.7814C64.2965 46.4371 64.2385 46.0943 64.1749 45.7532C64.1311 45.5138 63.8663 44.8665 64.1462 44.7106C64.4055 44.5667 64.9136 45.0327 65.122 45.1679C68.1876 47.1385 71.3979 48.8848 74.7196 50.3854C74.85 50.4434 74.9868 50.5086 75.0616 50.6303C75.1323 50.7464 75.1307 50.8904 75.1268 51.0271C75.0942 52.1206 75.06 53.214 75.0274 54.3067C75.0162 54.7313 75.0138 55.1583 75.0067 55.583C74.9932 56.6645 74.9431 57.7444 74.5836 58.7822L74.582 58.7838Z" fill="#8E5B59"/>
<path d="M75.0059 55.5839C72.1097 54.6876 69.3383 53.401 66.8254 51.7167C66.1264 51.2491 65.4067 50.7552 64.7077 50.2304C64.6767 49.5918 64.6274 48.954 64.555 48.3179C64.4969 47.8041 64.4286 47.292 64.3498 46.7807C64.2965 46.4363 64.2385 46.0936 64.1749 45.7524C64.1311 45.5131 63.8663 44.8658 64.1462 44.7099C64.4055 44.566 64.9136 45.032 65.122 45.1672C68.1876 47.1377 71.3979 48.8841 74.7196 50.3847C74.85 50.4427 74.9868 50.5079 75.0616 50.6296C75.1323 50.7457 75.1307 50.8896 75.1268 51.0264C75.0942 52.1198 75.06 53.2133 75.0274 54.3059C75.0162 54.7314 75.0138 55.1584 75.0059 55.5839Z" fill="#895251"/>
<path d="M77.466 43.4503C77.8851 44.9214 79.4175 45.7747 80.8887 45.3556C82.3607 44.9366 83.2131 43.4042 82.7941 41.933C82.375 40.461 80.8426 39.6085 79.3714 40.0276C77.9002 40.4459 77.0469 41.9791 77.466 43.4503Z" fill="#895251"/>
<path d="M74.541 53.9306C74.541 53.9306 69.7759 53.673 69.8746 48.0825L75.0356 50.9978L74.541 53.9306Z" fill="#895251"/>
<path d="M80.2929 33.9687C80.2929 33.9687 82.2929 43.2578 81.0214 46.9302C79.7498 50.6025 76.7462 52.8801 71.9534 51.8622C71.9534 51.8622 66.3892 51.4948 65.1271 43.2061C63.2289 30.7274 74.6047 27.2483 80.2929 33.9687Z" fill="#8E5B59"/>
<path d="M62.6447 43.8246C62.9923 45.0446 64.2633 45.7525 65.4834 45.4049C66.7035 45.0574 67.4114 43.7864 67.0638 42.5663C66.7162 41.3462 65.4452 40.6383 64.2251 40.9859C63.0058 41.3335 62.298 42.6053 62.6447 43.8246Z" fill="#8E5B59"/>
<path d="M63.8281 42.5071C63.8281 42.5071 65.5199 42.0514 65.9374 43.9125" stroke="#ED8B62" stroke-width="1.54" stroke-linecap="round" stroke-linejoin="round"/>
<path d="M78.1371 40.4875C78.239 40.9011 78.6557 41.154 79.0701 41.053C79.4837 40.9512 79.7366 40.5344 79.6356 40.12C79.5338 39.7064 79.117 39.4535 78.7034 39.5545C78.2899 39.6563 78.0369 40.0739 78.1371 40.4875Z" fill="#161616"/>
<path d="M71.6219 40.5099C71.7237 40.9235 72.1404 41.1764 72.5548 41.0754C72.9684 40.9736 73.2213 40.5568 73.1203 40.1424C73.0185 39.7288 72.6018 39.4759 72.1874 39.5769C71.773 39.6787 71.5209 40.0955 71.6219 40.5099Z" fill="#161616"/>
<path d="M76.457 41.211L77.8266 43.2185L76.6089 43.9447" stroke="#ED8B62" stroke-width="2.74" stroke-linecap="round" stroke-linejoin="round"/>
<path d="M78.4516 35.6658C78.6241 35.5783 78.7251 35.6642 79.5474 35.7572C79.8695 35.7938 79.9545 35.7954 80.0054 35.8033C80.2591 35.8471 80.8118 36.2654 81.1895 39.9155C81.7184 39.0662 82.4253 37.7127 82.8094 35.9282C83.0583 34.7735 83.6428 31.851 82.1955 28.7274C80.6003 25.2832 77.5776 23.8455 76.7506 23.4669C73.2174 21.851 68.1088 21.75 65.5681 24.088C64.8126 24.7838 63.2889 26.6097 60.3394 28.597C60.2909 28.6304 60.2989 28.624 60.283 28.6351C57.642 30.4411 57.6372 34.5524 57.6348 36.9437C57.6333 38.4069 57.6285 43.358 60.3044 46.2622C60.5096 46.4848 60.8754 46.8363 61.6062 47.5409C64.7808 50.597 65.211 50.5755 65.4257 50.5063C66.2575 50.2391 66.7689 48.3218 66.2981 47.1107C66.0802 46.5501 65.8623 45.9894 65.6436 45.4288C65.0225 45.5679 64.1716 45.6538 63.7518 45.1608C63.739 45.1457 63.7271 45.1298 63.7072 45.1035C63.4082 44.7155 62.1358 42.9644 62.9295 41.7827C63.3748 41.121 64.3871 40.7584 65.1203 41.0518C65.9355 41.3779 66.1486 42.4069 66.4897 43.7C66.3681 44.4976 66.1637 46.5676 67.3247 48.6065C68.9072 51.3843 72.4667 53.1242 75.8814 52.1683C78.5144 51.4312 80.5454 49.2332 81.1975 46.4785C80.5152 46.1047 79.3398 45.5552 77.8106 45.3445C74.4301 44.8785 72.4054 46.492 70.3983 45.3572C69.0599 44.601 68.2241 43.4272 68.2241 43.4272C68.0826 43.2284 67.9712 43.0471 67.7788 42.7306C67.471 42.2248 67.0631 41.4964 66.6718 40.597C66.1215 39.331 66.1398 38.954 66.3068 38.7711C66.7728 38.2606 68.3323 39.3349 68.8635 38.7711C69.1768 38.4371 68.7402 37.9465 69.0464 37.2188C69.3955 36.3886 70.3681 36.0753 70.5072 36.0316C71.6794 35.6705 72.0802 36.5214 73.3374 36.3051C74.6209 36.0848 74.7832 35.098 75.7112 35.2093C76.7355 35.3318 77.2587 36.6192 77.8114 36.3966C78.1072 36.2773 78.0357 35.8773 78.4508 35.6658H78.4516Z" fill="#11163B"/>
<path d="M77.2815 47.319L73.7246 47.5759C73.7246 47.5759 73.7771 48.6767 75.5913 48.5574C77.4056 48.438 77.2823 47.319 77.2815 47.319Z" fill="white"/>
<path d="M96.6251 88.7791L94.9233 107.588L94.866 108.218C94.866 109.602 93.744 110.724 92.3587 110.724H78.7507C77.3662 110.724 76.2441 109.602 76.2441 108.218L76.9002 100.961L77.1674 98.0085L78.0024 88.7799C78.0024 87.6316 78.7746 86.6638 79.8266 86.3671C80.0437 86.3059 80.272 86.2733 80.509 86.2733H94.1177C95.503 86.2725 96.6251 87.3954 96.6251 88.7791Z" fill="#6EC38E"/>
<path d="M77.1694 98.0085L76.9022 100.961C76.0601 101.1 75.3436 101.233 75.3436 101.233C74.7972 101.081 70.7129 99.9122 71.1567 99.4637C72.6231 97.9783 74.8704 97.8947 75.4279 97.9003C76.072 97.9059 76.6477 97.948 77.1694 98.0085Z" fill="#8E5B59"/>
<path d="M77.9985 103.016L84.5297 104.672C85.1206 104.827 85.6971 104.584 85.8291 104.029C85.9643 103.478 85.492 103.043 84.8971 102.889L76.847 100.34C76.253 100.184 77.4053 102.857 77.9985 103.016Z" fill="#8E5B59"/>
<path d="M74.4381 106.117C74.1574 106.614 73.4489 107.251 73.9928 107.533L80.6481 110.527C81.196 110.808 82.0898 110.733 82.3713 110.237C82.6513 109.741 82.3976 109.216 81.8552 108.937L75.8497 105.892C75.3041 105.609 74.722 105.621 74.4381 106.117Z" fill="#8E5B59"/>
<path d="M76.4848 103.175C76.2805 103.773 76.6622 104.444 77.3325 104.679L84.729 107.1C85.3978 107.332 86.0514 107.166 86.2542 106.568C86.4554 105.969 85.952 105.446 85.2809 105.213L78.0642 102.518C77.3898 102.281 76.6852 102.578 76.4848 103.175Z" fill="#8E5B59"/>
<path d="M75.2417 104.611C74.9976 105.188 74.891 106.031 75.5487 106.3L83.1288 108.883C83.7864 109.152 84.5642 109.109 84.8107 108.526C85.0588 107.948 84.6008 107.451 83.9463 107.182L76.8807 104.047C76.2254 103.777 75.4922 104.03 75.2417 104.611Z" fill="#8E5B59"/>
<path d="M78.4869 101.015C76.3756 100.439 72.7342 97.4741 70.805 99.7867C68.8734 102.101 68.5776 105.705 74.1911 107.709C78.2475 109.075 78.4869 101.015 78.4869 101.015Z" fill="#8E5B59"/>
<path d="M96.6234 88.7792L94.9216 107.588C86.1511 104.685 79.8242 96.419 79.8242 86.675C79.8242 86.5724 79.825 86.4691 79.8266 86.3665C80.0437 86.3044 80.2719 86.2726 80.5089 86.2726H94.1169C95.5006 86.2726 96.6226 87.3947 96.6234 88.7792Z" fill="#6EC38E"/>
<path d="M190.716 103.589H115.769C115.244 103.589 114.814 103.159 114.814 102.635V44.2878C114.814 43.763 115.244 43.3336 115.769 43.3336H190.716C191.241 43.3336 191.67 43.763 191.67 44.2878V102.635C191.67 103.159 191.241 103.589 190.716 103.589Z" fill="#6DC38D"/>
<path d="M135.692 57.8958V59.1698H130.588V58.1567L133.193 55.6962C133.791 55.1268 133.898 54.7793 133.898 54.4517C133.898 53.9213 133.531 53.6119 132.817 53.6119C132.238 53.6119 131.746 53.8338 131.418 54.2871L130.279 53.5539C130.8 52.7913 131.746 52.2998 132.962 52.2998C134.467 52.2998 135.471 53.072 135.471 54.2974C135.471 54.9535 135.287 55.5515 134.341 56.4302L132.787 57.8966H135.692V57.8958Z" fill="white"/>
<path d="M142.685 59.1698L141.546 57.5778L140.369 59.1698H138.729L140.726 56.5551L138.796 53.9786H140.484L141.584 55.4935L142.713 53.9786H144.315L142.385 56.5162L144.392 59.1698H142.685Z" fill="white"/>
<path d="M150.143 52.4152V59.1699H148.58V53.6701H147.229V52.416H150.143V52.4152Z" fill="white"/>
<path d="M151.322 55.7925C151.322 53.5635 152.557 52.2999 154.217 52.2999C155.886 52.2999 157.112 53.5643 157.112 55.7925C157.112 58.0207 155.886 59.2852 154.217 59.2852C152.557 59.286 151.322 58.0215 151.322 55.7925ZM155.539 55.7925C155.539 54.2585 154.999 53.6215 154.217 53.6215C153.445 53.6215 152.905 54.2585 152.905 55.7925C152.905 57.3265 153.445 57.9635 154.217 57.9635C154.999 57.9635 155.539 57.3273 155.539 55.7925Z" fill="white"/>
<path d="M160.822 54.0079H165.416V55.1851H160.822V54.0079ZM160.822 56.4012H165.416V57.5783H160.822V56.4012Z" fill="white"/>
<path d="M174.159 57.8959V59.1698H169.055V58.1567L171.66 55.6963C172.258 55.1269 172.364 54.7794 172.364 54.4518C172.364 53.9213 171.998 53.612 171.284 53.612C170.705 53.612 170.212 53.8339 169.885 54.2871L168.746 53.5539C169.267 52.7913 170.212 52.2999 171.428 52.2999C172.934 52.2999 173.937 53.072 173.937 54.2975C173.937 54.9535 173.754 55.5516 172.808 56.4303L171.254 57.8967H174.159V57.8959Z" fill="white"/>
<path d="M174.787 55.7925C174.787 53.5635 176.022 52.2999 177.682 52.2999C179.351 52.2999 180.576 53.5643 180.576 55.7925C180.576 58.0207 179.351 59.2852 177.682 59.2852C176.022 59.286 174.787 58.0215 174.787 55.7925ZM179.003 55.7925C179.003 54.2585 178.463 53.6215 177.682 53.6215C176.91 53.6215 176.37 54.2585 176.37 55.7925C176.37 57.3265 176.91 57.9635 177.682 57.9635C178.463 57.9635 179.003 57.3273 179.003 55.7925Z" fill="white"/>
<path d="M135.692 69.4744V70.7483H130.588V69.7352L133.193 67.2748C133.791 66.7054 133.898 66.3579 133.898 66.0302C133.898 65.4998 133.531 65.1905 132.817 65.1905C132.238 65.1905 131.746 65.4124 131.418 65.8656L130.279 65.1324C130.8 64.3698 131.746 63.8784 132.962 63.8784C134.467 63.8784 135.471 64.6505 135.471 65.876C135.471 66.532 135.287 67.13 134.341 68.0088L132.787 69.4752H135.692V69.4744Z" fill="white"/>
<path d="M136.316 67.371C136.316 65.142 137.551 63.8784 139.211 63.8784C140.88 63.8784 142.106 65.1428 142.106 67.371C142.106 69.6 140.88 70.8636 139.211 70.8636C137.551 70.8644 136.316 69.6 136.316 67.371ZM140.534 67.371C140.534 65.837 139.994 65.2 139.212 65.2C138.44 65.2 137.9 65.837 137.9 67.371C137.9 68.905 138.44 69.542 139.212 69.542C139.993 69.542 140.534 68.9058 140.534 67.371Z" fill="white"/>
<path d="M145.727 67.429H148.458V68.6356H145.727V67.429Z" fill="white"/>
<path d="M157.16 68.6259C157.16 69.8227 156.282 70.8644 154.352 70.8644C153.416 70.8644 152.431 70.6036 151.775 70.1408L152.393 68.944C152.905 69.3296 153.609 69.5515 154.314 69.5515C155.095 69.5515 155.578 69.2231 155.578 68.6736C155.578 68.1432 155.231 67.7956 154.005 67.7956H152.278L152.625 63.9937H156.746V65.2477H153.928L153.822 66.5312H154.373C156.369 66.532 157.16 67.429 157.16 68.6259Z" fill="white"/>
<path d="M160.75 65.5857H165.344V66.7628H160.75V65.5857ZM160.75 67.9797H165.344V69.1569H160.75V67.9797Z" fill="white"/>
<path d="M171.641 63.9937V70.7483H170.078V65.2485H168.727V63.9944H171.641V63.9937Z" fill="white"/>
<path d="M177.92 68.6259C177.92 69.8227 177.042 70.8644 175.112 70.8644C174.176 70.8644 173.191 70.6036 172.535 70.1408L173.153 68.944C173.664 69.3296 174.369 69.5515 175.074 69.5515C175.855 69.5515 176.338 69.2231 176.338 68.6736C176.338 68.1432 175.99 67.7956 174.765 67.7956H173.038L173.385 63.9937H177.505V65.2477H174.688L174.582 66.5312H175.132C177.128 66.532 177.92 67.429 177.92 68.6259Z" fill="white"/>
<path d="M136.221 80.1941C136.221 81.5738 135.092 82.4422 133.665 82.4422C131.802 82.4422 130.645 81.2748 130.645 79.0943C130.645 76.7595 132.053 75.4569 134.089 75.4569C134.804 75.4569 135.499 75.6207 135.971 75.9197L135.392 77.068C135.016 76.8175 134.582 76.7301 134.128 76.7301C132.998 76.7301 132.275 77.3957 132.227 78.6887C132.622 78.2935 133.192 78.0907 133.896 78.0907C135.199 78.0907 136.221 78.9209 136.221 80.1941ZM134.707 80.2712C134.707 79.6533 134.253 79.2581 133.558 79.2581C132.874 79.2581 132.391 79.6828 132.391 80.2712C132.391 80.8502 132.825 81.2748 133.577 81.2748C134.244 81.2748 134.707 80.8891 134.707 80.2712Z" fill="white"/>
<path d="M144.337 79.5385H142.658V81.1794H141.414V79.5385H139.744V78.3614H141.414V76.7206H142.658V78.3614H144.337V79.5385Z" fill="white"/>
<path d="M153.606 80.1941C153.606 81.5738 152.477 82.4422 151.05 82.4422C149.187 82.4422 148.029 81.2748 148.029 79.0943C148.029 76.7595 149.438 75.4569 151.474 75.4569C152.188 75.4569 152.883 75.6207 153.356 75.9197L152.777 77.068C152.401 76.8175 151.966 76.7301 151.513 76.7301C150.384 76.7301 149.66 77.3957 149.613 78.6887C150.008 78.2935 150.577 78.0907 151.282 78.0907C152.584 78.0907 153.606 78.9209 153.606 80.1941ZM152.091 80.2712C152.091 79.6533 151.638 79.2581 150.943 79.2581C150.258 79.2581 149.776 79.6828 149.776 80.2712C149.776 80.8502 150.21 81.2748 150.962 81.2748C151.628 81.2748 152.091 80.8891 152.091 80.2712Z" fill="white"/>
<path d="M157.131 77.1642H161.725V78.3414H157.131V77.1642ZM157.131 79.5583H161.725V80.7354H157.131V79.5583Z" fill="white"/>
<path d="M168.024 75.5722V82.3269H166.46V76.8271H165.109V75.573H168.024V75.5722Z" fill="white"/>
<path d="M174.249 81.0529V82.3269H169.144V81.3138L171.75 78.8533C172.348 78.2839 172.454 77.9364 172.454 77.6088C172.454 77.0784 172.088 76.769 171.374 76.769C170.795 76.769 170.302 76.9909 169.975 77.4442L168.836 76.711C169.357 75.9484 170.302 75.4569 171.518 75.4569C173.024 75.4569 174.027 76.2291 174.027 77.4545C174.027 78.1106 173.844 78.7086 172.898 79.5873L171.344 81.0537H174.249V81.0529Z" fill="white"/>
<path d="M135.633 91.8402C135.633 92.9789 134.755 94.0207 132.834 94.0207C131.889 94.0207 130.914 93.7598 130.258 93.297L130.865 92.1002C131.377 92.4859 132.091 92.7078 132.795 92.7078C133.577 92.7078 134.059 92.3897 134.059 91.8394C134.059 91.328 133.683 91.0091 132.795 91.0091H132.081V89.9769L133.471 88.404H130.595V87.1499H135.323V88.163L133.799 89.8998C135.015 90.0938 135.633 90.8469 135.633 91.8402Z" fill="white"/>
<path d="M142.704 93.9055L141.566 92.3134L140.389 93.9055H138.748L140.746 91.2908L138.816 88.7142H140.504L141.604 90.2291L142.733 88.7142H144.335L142.405 91.2518L144.412 93.9055H142.704Z" fill="white"/>
<path d="M152.608 92.6315V93.9054H147.504V92.8923L150.109 90.4319C150.707 89.8625 150.814 89.515 150.814 89.1874C150.814 88.6569 150.447 88.3476 149.733 88.3476C149.154 88.3476 148.662 88.5695 148.334 89.0227L147.195 88.2895C147.716 87.5269 148.662 87.0355 149.878 87.0355C151.383 87.0355 152.387 87.8076 152.387 89.0331C152.387 89.6891 152.203 90.2872 151.257 91.1659L149.703 92.6323H152.608V92.6315Z" fill="white"/>
<path d="M156.203 88.7428H160.797V89.9199H156.203V88.7428ZM156.203 91.1361H160.797V92.3132H156.203V91.1361Z" fill="white"/>
<path d="M170.071 91.7726C170.071 93.1524 168.942 94.0208 167.514 94.0208C165.652 94.0208 164.494 92.8534 164.494 90.6728C164.494 88.338 165.902 87.0355 167.939 87.0355C168.653 87.0355 169.348 87.1993 169.821 87.4983L169.242 88.6466C168.866 88.3953 168.431 88.3086 167.977 88.3086C166.848 88.3086 166.124 88.9742 166.077 90.2673C166.472 89.8712 167.041 89.6693 167.746 89.6693C169.048 89.6693 170.071 90.4995 170.071 91.7726ZM168.556 91.8498C168.556 91.2319 168.103 90.8367 167.408 90.8367C166.723 90.8367 166.24 91.2613 166.24 91.8498C166.24 92.4287 166.675 92.8534 167.427 92.8534C168.093 92.8534 168.556 92.4677 168.556 91.8498Z" fill="white"/>
<path d="M84.1193 232.802H43.9618C42.089 232.802 40.5566 231.27 40.5566 229.397C40.5566 229.213 40.5717 229.032 40.5996 228.856C40.8588 230.475 42.272 231.723 43.9618 231.723H81.6382C81.6573 231.744 81.6771 231.765 81.697 231.784C81.7598 231.849 81.8251 231.91 81.8934 231.969C81.9284 231.999 81.9634 232.029 82 232.057C82.0938 232.133 82.1909 232.203 82.2927 232.267C82.3165 232.283 82.3404 232.298 82.365 232.312C82.4143 232.343 82.4636 232.371 82.5145 232.398C82.5392 232.411 82.5646 232.425 82.5901 232.437C82.6672 232.476 82.7451 232.513 82.8255 232.545C82.8517 232.557 82.8787 232.567 82.9058 232.577C82.9312 232.588 82.9567 232.597 82.9829 232.606C82.9853 232.607 82.9885 232.608 82.9909 232.609C83.0171 232.619 83.0434 232.627 83.0696 232.635C83.0966 232.645 83.1245 232.654 83.1523 232.662C83.1801 232.67 83.208 232.678 83.2366 232.685C83.2644 232.693 83.293 232.701 83.3217 232.707C83.3503 232.714 83.3789 232.721 83.4076 232.727C83.4362 232.733 83.4648 232.739 83.4934 232.744C83.5157 232.748 83.5372 232.752 83.5594 232.755C83.6581 232.772 83.7583 232.785 83.8593 232.792C83.8879 232.794 83.9157 232.797 83.9443 232.798C83.9523 232.798 83.9602 232.798 83.9682 232.798C84.0183 232.802 84.0684 232.802 84.1193 232.802Z" fill="#5CA073"/>
<path d="M84.1232 225.991C83.1864 225.991 82.3348 226.374 81.7177 226.992C81.6946 227.015 81.6715 227.039 81.6493 227.062C81.6357 227.076 81.623 227.089 81.6111 227.104C81.5141 227.209 81.425 227.32 81.3423 227.437C81.3153 227.474 81.289 227.512 81.2644 227.551C81.2039 227.644 81.1475 227.741 81.0966 227.84C81.0791 227.874 81.0616 227.908 81.0449 227.943C81.0091 228.019 80.9757 228.096 80.9455 228.175C80.9383 228.192 80.932 228.209 80.9256 228.227C80.9153 228.255 80.9049 228.284 80.8954 228.313C80.8874 228.336 80.8803 228.358 80.8731 228.381C80.8556 228.436 80.8397 228.492 80.8254 228.549C80.8198 228.569 80.8143 228.591 80.8095 228.612L80.7928 228.686C80.7888 228.705 80.7849 228.723 80.7817 228.742C80.7737 228.78 80.7674 228.818 80.761 228.856V228.857C80.7538 228.899 80.7483 228.942 80.7427 228.985C80.7419 228.988 80.7411 228.992 80.7411 228.996C80.7363 229.035 80.7324 229.074 80.7292 229.113C80.7284 229.12 80.7276 229.128 80.7276 229.136C80.7244 229.177 80.722 229.218 80.7204 229.26C80.718 229.306 80.7173 229.351 80.7173 229.397C80.7173 229.433 80.718 229.47 80.7188 229.505C80.7196 229.528 80.7204 229.55 80.722 229.572C80.7284 229.708 80.7435 229.842 80.7666 229.975C80.7753 230.023 80.7841 230.071 80.7944 230.118C80.8016 230.149 80.8087 230.18 80.8167 230.211C80.8222 230.236 80.8286 230.261 80.8357 230.285C80.8906 230.488 80.9646 230.684 81.0544 230.87C81.0664 230.895 81.0783 230.919 81.091 230.944C81.2015 231.159 81.3344 231.361 81.487 231.547C81.5037 231.567 81.5204 231.586 81.5371 231.606C81.5538 231.626 81.5705 231.646 81.5888 231.665C81.6055 231.685 81.6238 231.704 81.6421 231.723H43.9657C42.2759 231.723 40.8628 230.475 40.6035 228.856C40.7204 228.134 41.0655 227.487 41.561 226.992C42.1781 226.374 43.029 225.991 43.9657 225.991H84.1232Z" fill="#6DC38D"/>
<path d="M84.1232 231.723H43.9657C42.2759 231.723 40.8628 230.475 40.6035 228.856C40.7204 228.134 41.0655 227.487 41.561 226.992C42.1781 226.374 43.029 225.991 43.9657 225.991H81.6421C81.0695 226.6 80.7173 227.42 80.7173 228.318C80.7173 228.501 80.7316 228.681 80.761 228.856V228.857C81.0202 230.476 82.4334 231.723 84.1232 231.723Z" fill="#6DC38D"/>
<path d="M126.19 232.802H84.1189C84.068 232.802 84.0179 232.802 83.9678 232.798C83.9598 232.798 83.9519 232.798 83.9439 232.798C83.9153 232.797 83.8866 232.794 83.8588 232.792C83.7578 232.785 83.6576 232.772 83.559 232.755C83.5375 232.752 83.5153 232.748 83.493 232.744C83.4644 232.739 83.4358 232.733 83.4071 232.727C83.3785 232.72 83.3499 232.714 83.3212 232.707C83.2926 232.701 83.264 232.693 83.2362 232.685C83.2083 232.678 83.1797 232.67 83.1519 232.662C83.124 232.654 83.0962 232.645 83.0692 232.635C83.0429 232.627 83.0167 232.618 82.9904 232.609C82.988 232.608 82.9849 232.607 82.9825 232.606C82.957 232.597 82.9308 232.588 82.9053 232.577C82.8783 232.567 82.8513 232.557 82.825 232.545C82.7447 232.513 82.6668 232.476 82.5896 232.437C82.5642 232.425 82.5387 232.411 82.5141 232.398C82.4632 232.37 82.4139 232.343 82.3646 232.312C82.3407 232.297 82.3161 232.282 82.2922 232.267C82.1904 232.203 82.0934 232.133 81.9996 232.057C81.963 232.029 81.928 231.999 81.893 231.969C81.8246 231.91 81.7594 231.849 81.6966 231.784C81.6767 231.765 81.6568 231.744 81.6377 231.723C81.6202 231.704 81.602 231.685 81.5845 231.665C81.5662 231.646 81.5495 231.626 81.5328 231.606C81.5161 231.586 81.4994 231.567 81.4827 231.547C81.33 231.361 81.1972 231.159 81.0866 230.944C81.0747 230.919 81.062 230.895 81.0501 230.87C80.9602 230.684 80.8862 230.488 80.8314 230.285C80.8242 230.261 80.8179 230.236 80.8123 230.211C80.8043 230.18 80.7972 230.149 80.79 230.118C80.7797 230.071 80.7709 230.023 80.7622 229.974C80.7391 229.842 80.724 229.708 80.7177 229.572C80.7161 229.55 80.7153 229.528 80.7145 229.505C80.7137 229.47 80.7129 229.433 80.7129 229.397C80.7129 229.351 80.7137 229.306 80.7161 229.26C80.7177 229.218 80.72 229.177 80.7232 229.136C80.7232 229.128 80.724 229.12 80.7248 229.113C80.728 229.073 80.732 229.035 80.7367 228.996C80.7367 228.992 80.7375 228.988 80.7383 228.985C80.7439 228.943 80.7495 228.9 80.7566 228.859C80.7582 228.871 80.7598 228.883 80.7622 228.895C80.7709 228.944 80.7797 228.992 80.79 229.039C80.7972 229.07 80.8043 229.101 80.8123 229.132C80.8179 229.157 80.8242 229.182 80.8314 229.206C80.8862 229.409 80.9602 229.605 81.0501 229.791C81.062 229.815 81.0747 229.84 81.0866 229.865C81.1972 230.079 81.33 230.281 81.4827 230.468C81.4994 230.487 81.5161 230.507 81.5328 230.527C81.5495 230.547 81.5662 230.567 81.5845 230.586C81.602 230.606 81.6202 230.625 81.6377 230.644C81.6568 230.665 81.6767 230.685 81.6966 230.705C81.7594 230.77 81.8246 230.831 81.893 230.89C81.928 230.92 81.963 230.95 81.9996 230.978C82.0934 231.054 82.1904 231.124 82.2922 231.188C82.3161 231.203 82.3407 231.218 82.3646 231.233C82.4139 231.264 82.4632 231.291 82.5141 231.318C82.5387 231.332 82.5642 231.345 82.5896 231.358C82.6668 231.397 82.7447 231.434 82.825 231.466C82.8513 231.477 82.8783 231.488 82.9053 231.498C82.9308 231.508 82.957 231.518 82.9825 231.527C82.9849 231.528 82.988 231.529 82.9904 231.53C83.0167 231.539 83.0429 231.548 83.0692 231.556C83.0962 231.566 83.124 231.574 83.1519 231.582C83.1797 231.59 83.2083 231.599 83.2362 231.606C83.264 231.614 83.2926 231.621 83.3212 231.628C83.3499 231.635 83.3785 231.641 83.4071 231.648C83.4358 231.654 83.4644 231.66 83.493 231.665C83.5153 231.669 83.5375 231.673 83.559 231.676C83.6576 231.693 83.7578 231.706 83.8588 231.713C83.8866 231.715 83.9153 231.718 83.9439 231.718C83.9519 231.719 83.9598 231.719 83.9678 231.719C84.0179 231.722 84.068 231.723 84.1189 231.723H123.709C124.33 232.386 125.214 232.802 126.19 232.802Z" fill="#EAEAEA"/>
<path d="M122.826 228.856C122.798 229.032 122.783 229.213 122.783 229.397C122.783 230.294 123.135 231.114 123.708 231.723H84.1181C84.0672 231.723 84.0171 231.722 83.967 231.719C83.959 231.719 83.9511 231.719 83.9431 231.718C83.9145 231.718 83.8859 231.715 83.858 231.713C83.7571 231.706 83.6569 231.693 83.5582 231.676C83.5368 231.673 83.5145 231.669 83.4922 231.665C83.4636 231.66 83.435 231.654 83.4064 231.648C83.3777 231.641 83.3491 231.635 83.3205 231.628C83.2918 231.621 83.2632 231.614 83.2354 231.606C83.2076 231.599 83.1789 231.59 83.1511 231.582C83.1233 231.575 83.0954 231.566 83.0684 231.556C83.0421 231.548 83.0159 231.539 82.9897 231.53C82.9873 231.529 82.9841 231.528 82.9817 231.527C82.9563 231.518 82.93 231.509 82.9046 231.498C82.8775 231.488 82.8505 231.477 82.8243 231.466C82.7439 231.434 82.666 231.397 82.5889 231.358C82.5634 231.345 82.538 231.332 82.5133 231.318C82.4624 231.291 82.4131 231.264 82.3638 231.233C82.34 231.218 82.3153 231.203 82.2915 231.188C82.1897 231.124 82.0926 231.054 81.9988 230.978C81.9622 230.95 81.9272 230.92 81.8922 230.89C81.8239 230.831 81.7586 230.77 81.6958 230.705C81.6759 230.685 81.6561 230.665 81.637 230.644C81.6195 230.625 81.6012 230.606 81.5837 230.586C81.5654 230.567 81.5487 230.547 81.532 230.527C81.5153 230.507 81.4986 230.487 81.4819 230.468C81.3292 230.281 81.1964 230.079 81.0859 229.865C81.074 229.84 81.0612 229.815 81.0493 229.791C80.9594 229.605 80.8855 229.409 80.8306 229.206C80.8235 229.182 80.8171 229.157 80.8115 229.132C80.8036 229.101 80.7964 229.07 80.7893 229.039C80.7789 228.992 80.7702 228.944 80.7614 228.895C80.759 228.883 80.7574 228.871 80.7559 228.859C80.7559 228.858 80.7559 228.858 80.7559 228.857V228.856C80.7622 228.818 80.7686 228.78 80.7765 228.742C80.7797 228.723 80.7837 228.705 80.7877 228.686L80.8044 228.612C80.8091 228.591 80.8147 228.569 80.8203 228.549C80.8346 228.492 80.8505 228.436 80.868 228.381C80.8751 228.359 80.8823 228.336 80.8903 228.313C80.8998 228.284 80.9101 228.255 80.9205 228.227C80.9268 228.209 80.934 228.192 80.9404 228.175C80.9706 228.096 81.004 228.019 81.0398 227.943C81.0565 227.908 81.0739 227.874 81.0914 227.84C81.1423 227.741 81.1988 227.644 81.2592 227.551C81.2847 227.512 81.3101 227.474 81.3372 227.437C81.4199 227.32 81.5089 227.209 81.606 227.104C81.6179 227.089 81.6314 227.076 81.6441 227.062C81.6664 227.039 81.6895 227.015 81.7125 226.992C82.3296 226.374 83.1813 225.991 84.1181 225.991H126.189C125.252 225.991 124.4 226.374 123.783 226.992C123.288 227.487 122.943 228.134 122.826 228.856Z" fill="white"/>
<path d="M126.189 231.723H84.1181C84.0672 231.723 84.0171 231.722 83.967 231.719C83.959 231.719 83.9511 231.719 83.9431 231.718C83.9145 231.718 83.8859 231.715 83.858 231.713C83.7571 231.706 83.6569 231.693 83.5582 231.676C83.5368 231.673 83.5145 231.669 83.4922 231.665C83.4636 231.66 83.435 231.654 83.4064 231.648C83.3777 231.641 83.3491 231.635 83.3205 231.628C83.2918 231.621 83.2632 231.614 83.2354 231.606C83.2076 231.599 83.1789 231.59 83.1511 231.582C83.1233 231.575 83.0954 231.566 83.0684 231.556C83.0421 231.548 83.0159 231.539 82.9897 231.53C82.9873 231.529 82.9841 231.528 82.9817 231.527C82.9563 231.518 82.93 231.509 82.9046 231.498C82.8775 231.488 82.8505 231.477 82.8243 231.466C82.7439 231.434 82.666 231.397 82.5889 231.358C82.5634 231.345 82.538 231.332 82.5133 231.318C82.4624 231.291 82.4131 231.264 82.3638 231.233C82.34 231.218 82.3153 231.203 82.2915 231.188C82.1897 231.124 82.0926 231.054 81.9988 230.978C81.9622 230.95 81.9272 230.92 81.8922 230.89C81.8239 230.831 81.7586 230.77 81.6958 230.705C81.6759 230.685 81.6561 230.665 81.637 230.644C81.6195 230.625 81.6012 230.606 81.5837 230.586C81.5654 230.567 81.5487 230.547 81.532 230.527C81.5153 230.507 81.4986 230.487 81.4819 230.468C81.3292 230.281 81.1964 230.079 81.0859 229.865C81.074 229.84 81.0612 229.815 81.0493 229.791C80.9594 229.605 80.8855 229.409 80.8306 229.206C80.8235 229.182 80.8171 229.157 80.8115 229.132C80.8036 229.101 80.7964 229.07 80.7893 229.039C80.7789 228.992 80.7702 228.944 80.7614 228.895C80.759 228.883 80.7574 228.871 80.7559 228.859C80.7559 228.858 80.7559 228.858 80.7559 228.857V228.856C80.7622 228.818 80.7686 228.78 80.7765 228.742C80.7797 228.723 80.7837 228.705 80.7877 228.686L80.8044 228.612C80.8091 228.591 80.8147 228.569 80.8203 228.549C80.8346 228.492 80.8505 228.436 80.868 228.381C80.8751 228.359 80.8823 228.336 80.8903 228.313C80.8998 228.284 80.9101 228.255 80.9205 228.227C80.9268 228.209 80.934 228.192 80.9404 228.175C80.9706 228.096 81.004 228.019 81.0398 227.943C81.0565 227.908 81.0739 227.874 81.0914 227.84C81.1423 227.741 81.1988 227.644 81.2592 227.551C81.2847 227.512 81.3101 227.474 81.3372 227.437C81.4199 227.32 81.5089 227.209 81.606 227.104C81.6179 227.089 81.6314 227.076 81.6441 227.062C81.6664 227.039 81.6895 227.015 81.7125 226.992C82.3296 226.374 83.1813 225.991 84.1181 225.991H123.708C123.135 226.6 122.783 227.42 122.783 228.318C122.783 228.501 122.797 228.681 122.826 228.856C123.085 230.475 124.498 231.723 126.189 231.723Z" fill="white"/>
<path d="M83.291 227.531H120.92" stroke="#E9E9F2" stroke-width="4" stroke-miterlimit="10"/>
<path d="M83.291 228.771H120.92" stroke="#E9E9F2" stroke-width="4" stroke-miterlimit="10"/>
<path d="M83.291 230.002H120.92" stroke="#E9E9F2" stroke-width="4" stroke-miterlimit="10"/>
<path d="M91.1387 238.349H128.767" stroke="#E9E9F2" stroke-width="4" stroke-miterlimit="10"/>
<path d="M93.5822 226.177H53.4247C51.5519 226.177 50.0195 224.644 50.0195 222.771C50.0195 222.587 50.0346 222.406 50.0625 222.23C50.3217 223.85 51.7348 225.098 53.4247 225.098H91.1011C91.1202 225.118 91.14 225.139 91.1599 225.159C91.2227 225.223 91.2879 225.284 91.3563 225.343C91.3913 225.373 91.4263 225.404 91.4629 225.432C91.5567 225.507 91.6538 225.577 91.7555 225.641C91.7794 225.657 91.8033 225.672 91.8279 225.687C91.8772 225.717 91.9265 225.745 91.9774 225.772C92.0021 225.785 92.0275 225.799 92.053 225.812C92.1301 225.851 92.208 225.887 92.2883 225.92C92.3146 225.931 92.3416 225.941 92.3687 225.952C92.3941 225.962 92.4196 225.971 92.4458 225.98C92.4482 225.982 92.4514 225.983 92.4538 225.983C92.48 225.993 92.5062 226.002 92.5325 226.01C92.5595 226.019 92.5874 226.028 92.6152 226.036C92.643 226.044 92.6709 226.053 92.6995 226.06C92.7273 226.068 92.7559 226.075 92.7846 226.081C92.8132 226.088 92.8418 226.096 92.8705 226.101C92.8991 226.107 92.9277 226.113 92.9563 226.119C92.9786 226.123 93.0001 226.127 93.0224 226.13C93.121 226.146 93.2211 226.159 93.3221 226.166C93.3508 226.169 93.3786 226.171 93.4072 226.172C93.4152 226.173 93.4231 226.173 93.4311 226.173C93.4812 226.176 93.5313 226.177 93.5822 226.177Z" fill="#5CA073"/>
<path d="M93.5861 219.366C92.6493 219.366 91.7976 219.749 91.1805 220.366C91.1575 220.389 91.1344 220.413 91.1122 220.437C91.0986 220.45 91.0859 220.464 91.074 220.478C90.977 220.583 90.8879 220.694 90.8052 220.811C90.7782 220.849 90.7519 220.887 90.7273 220.926C90.6668 221.019 90.6104 221.115 90.5595 221.215C90.542 221.249 90.5245 221.283 90.5078 221.318C90.472 221.393 90.4386 221.471 90.4084 221.549C90.4012 221.566 90.3949 221.583 90.3885 221.601C90.3782 221.63 90.3678 221.658 90.3583 221.688C90.3503 221.71 90.3432 221.732 90.336 221.755C90.3185 221.81 90.3026 221.867 90.2883 221.923C90.2827 221.944 90.2772 221.965 90.2724 221.987L90.2557 222.061C90.2517 222.079 90.2477 222.097 90.2446 222.116C90.2366 222.154 90.2302 222.193 90.2239 222.231V222.232C90.2167 222.274 90.2112 222.317 90.2056 222.36C90.2048 222.363 90.204 222.367 90.204 222.37C90.1992 222.409 90.1953 222.448 90.1921 222.488C90.1913 222.495 90.1905 222.503 90.1905 222.511C90.1873 222.551 90.1849 222.593 90.1833 222.635C90.1809 222.68 90.1801 222.725 90.1801 222.772C90.1801 222.807 90.1809 222.844 90.1817 222.88C90.1825 222.902 90.1833 222.924 90.1849 222.947C90.1913 223.083 90.2064 223.217 90.2295 223.349C90.2382 223.397 90.2469 223.445 90.2573 223.493C90.2644 223.524 90.2716 223.555 90.2795 223.586C90.2851 223.611 90.2915 223.635 90.2986 223.66C90.3535 223.863 90.4275 224.058 90.5173 224.244C90.5293 224.269 90.5412 224.294 90.5539 224.318C90.6644 224.533 90.7972 224.735 90.9499 224.921C90.9666 224.941 90.9833 224.961 91 224.981C91.0167 225.001 91.0334 225.02 91.0517 225.04C91.0684 225.059 91.0867 225.079 91.105 225.098H53.4286C51.7388 225.098 50.3257 223.85 50.0664 222.23C50.1833 221.509 50.5284 220.861 51.0239 220.366C51.641 219.749 52.4919 219.366 53.4286 219.366H93.5861Z" fill="#6DC38D"/>
<path d="M93.5861 225.098H53.4286C51.7388 225.098 50.3257 223.85 50.0664 222.23C50.1833 221.509 50.5284 220.861 51.0239 220.366C51.641 219.749 52.4919 219.366 53.4286 219.366H91.105C90.5324 219.975 90.1801 220.795 90.1801 221.692C90.1801 221.875 90.1945 222.055 90.2239 222.231V222.232C90.4831 223.851 91.8962 225.098 93.5861 225.098Z" fill="#6DC38D"/>
<path d="M135.653 226.177H93.5817C93.5308 226.177 93.4808 226.176 93.4307 226.173C93.4227 226.173 93.4147 226.173 93.4068 226.172C93.3782 226.171 93.3495 226.169 93.3217 226.166C93.2207 226.159 93.1205 226.146 93.0219 226.13C93.0004 226.127 92.9782 226.123 92.9559 226.119C92.9273 226.113 92.8986 226.108 92.87 226.101C92.8414 226.095 92.8128 226.088 92.7841 226.081C92.7555 226.075 92.7269 226.068 92.699 226.06C92.6712 226.053 92.6426 226.044 92.6148 226.036C92.5869 226.028 92.5591 226.019 92.532 226.01C92.5058 226.002 92.4796 225.992 92.4533 225.983C92.4509 225.983 92.4478 225.982 92.4454 225.98C92.4199 225.972 92.3937 225.962 92.3682 225.952C92.3412 225.941 92.3141 225.931 92.2879 225.92C92.2076 225.887 92.1297 225.851 92.0525 225.812C92.0271 225.799 92.0016 225.785 91.977 225.772C91.9261 225.745 91.8768 225.717 91.8275 225.687C91.8036 225.672 91.779 225.657 91.7551 225.641C91.6533 225.577 91.5563 225.507 91.4625 225.432C91.4259 225.404 91.3909 225.374 91.3559 225.343C91.2875 225.284 91.2223 225.223 91.1595 225.159C91.1396 225.139 91.1197 225.118 91.1006 225.098C91.0831 225.078 91.0648 225.059 91.0473 225.04C91.0291 225.02 91.0124 225.001 90.9957 224.981C90.979 224.961 90.9623 224.941 90.9456 224.921C90.7929 224.735 90.6601 224.533 90.5495 224.318C90.5376 224.294 90.5249 224.269 90.513 224.244C90.4231 224.058 90.3491 223.863 90.2943 223.66C90.2871 223.635 90.2808 223.61 90.2752 223.586C90.2672 223.555 90.2601 223.524 90.2529 223.493C90.2426 223.445 90.2338 223.397 90.2251 223.349C90.202 223.217 90.1869 223.082 90.1805 222.946C90.179 222.924 90.1782 222.902 90.1774 222.88C90.1766 222.844 90.1758 222.807 90.1758 222.772C90.1758 222.725 90.1766 222.68 90.179 222.635C90.1806 222.593 90.1829 222.551 90.1861 222.511C90.1861 222.503 90.1869 222.495 90.1877 222.488C90.1909 222.448 90.1949 222.409 90.1996 222.37C90.1996 222.367 90.2004 222.363 90.2012 222.36C90.2068 222.317 90.2124 222.275 90.2195 222.233C90.2211 222.245 90.2227 222.258 90.2251 222.27C90.2338 222.318 90.2426 222.366 90.2529 222.414C90.2601 222.445 90.2672 222.476 90.2752 222.507C90.2808 222.531 90.2871 222.556 90.2943 222.581C90.3491 222.783 90.4231 222.979 90.513 223.165C90.5249 223.19 90.5376 223.214 90.5495 223.239C90.6601 223.454 90.7929 223.656 90.9456 223.842C90.9623 223.862 90.979 223.882 90.9957 223.902C91.0124 223.921 91.0291 223.941 91.0473 223.96C91.0648 223.98 91.0831 223.999 91.1006 224.018C91.1197 224.039 91.1396 224.06 91.1595 224.08C91.2223 224.144 91.2875 224.205 91.3559 224.264C91.3909 224.294 91.4259 224.325 91.4625 224.352C91.5563 224.428 91.6533 224.498 91.7551 224.562C91.779 224.577 91.8036 224.593 91.8275 224.608C91.8768 224.638 91.9261 224.666 91.977 224.693C92.0016 224.706 92.0271 224.72 92.0525 224.733C92.1297 224.772 92.2076 224.808 92.2879 224.841C92.3141 224.852 92.3412 224.862 92.3682 224.873C92.3937 224.883 92.4199 224.892 92.4454 224.901C92.4478 224.903 92.4509 224.904 92.4533 224.904C92.4796 224.913 92.5058 224.923 92.532 224.931C92.5591 224.94 92.5869 224.949 92.6148 224.957C92.6426 224.965 92.6712 224.973 92.699 224.981C92.7269 224.989 92.7555 224.996 92.7841 225.002C92.8128 225.009 92.8414 225.016 92.87 225.022C92.8986 225.028 92.9273 225.034 92.9559 225.04C92.9782 225.043 93.0004 225.047 93.0219 225.051C93.1205 225.067 93.2207 225.08 93.3217 225.087C93.3495 225.09 93.3782 225.092 93.4068 225.093C93.4147 225.094 93.4227 225.094 93.4307 225.094C93.4808 225.097 93.5308 225.098 93.5817 225.098H133.171C133.793 225.761 134.677 226.177 135.653 226.177Z" fill="#EAEAEA"/>
<path d="M132.289 222.23C132.261 222.406 132.246 222.587 132.246 222.772C132.246 223.669 132.598 224.488 133.171 225.098H93.581C93.5301 225.098 93.48 225.097 93.4299 225.094C93.4219 225.094 93.414 225.094 93.406 225.093C93.3774 225.092 93.3488 225.09 93.3209 225.087C93.2199 225.08 93.1197 225.067 93.0211 225.051C92.9997 225.047 92.9774 225.043 92.9551 225.039C92.9265 225.034 92.8979 225.028 92.8692 225.022C92.8406 225.016 92.812 225.009 92.7834 225.002C92.7547 224.996 92.7261 224.989 92.6983 224.981C92.6704 224.973 92.6418 224.965 92.614 224.957C92.5861 224.949 92.5583 224.94 92.5313 224.931C92.505 224.923 92.4788 224.913 92.4525 224.904C92.4502 224.904 92.447 224.903 92.4446 224.901C92.4191 224.892 92.3929 224.883 92.3675 224.873C92.3404 224.862 92.3134 224.852 92.2871 224.841C92.2068 224.808 92.1289 224.772 92.0517 224.733C92.0263 224.72 92.0009 224.706 91.9762 224.693C91.9253 224.666 91.876 224.638 91.8267 224.608C91.8028 224.593 91.7782 224.577 91.7543 224.562C91.6525 224.498 91.5555 224.428 91.4617 224.352C91.4251 224.325 91.3901 224.294 91.3551 224.264C91.2867 224.205 91.2215 224.144 91.1587 224.08C91.1388 224.06 91.1189 224.039 91.0999 224.018C91.0824 223.999 91.0641 223.98 91.0466 223.96C91.0283 223.941 91.0116 223.921 90.9949 223.902C90.9782 223.882 90.9615 223.862 90.9448 223.842C90.7921 223.656 90.6593 223.454 90.5488 223.239C90.5368 223.214 90.5241 223.19 90.5122 223.165C90.4223 222.979 90.3484 222.783 90.2935 222.581C90.2863 222.556 90.28 222.531 90.2744 222.507C90.2665 222.476 90.2593 222.445 90.2521 222.414C90.2418 222.366 90.2331 222.318 90.2243 222.27C90.2219 222.258 90.2203 222.245 90.2188 222.233C90.2188 222.232 90.2188 222.232 90.2188 222.232V222.231C90.2251 222.193 90.2315 222.154 90.2394 222.116C90.2426 222.097 90.2466 222.079 90.2506 222.061L90.2673 221.987C90.272 221.965 90.2776 221.944 90.2832 221.923C90.2975 221.867 90.3134 221.81 90.3309 221.755C90.338 221.733 90.3452 221.71 90.3531 221.688C90.3627 221.658 90.373 221.63 90.3834 221.601C90.3897 221.583 90.3969 221.566 90.4032 221.549C90.4335 221.471 90.4669 221.393 90.5026 221.318C90.5193 221.283 90.5368 221.249 90.5543 221.214C90.6052 221.115 90.6617 221.019 90.7221 220.926C90.7476 220.887 90.773 220.849 90.8001 220.811C90.8828 220.694 90.9718 220.583 91.0688 220.478C91.0808 220.464 91.0943 220.45 91.107 220.437C91.1293 220.413 91.1523 220.389 91.1754 220.366C91.7925 219.749 92.6442 219.366 93.581 219.366H135.652C134.715 219.366 133.863 219.749 133.246 220.366C132.751 220.861 132.406 221.509 132.289 222.23Z" fill="white"/>
<path d="M135.652 225.098H93.581C93.5301 225.098 93.48 225.097 93.4299 225.094C93.4219 225.094 93.414 225.094 93.406 225.093C93.3774 225.092 93.3488 225.09 93.3209 225.087C93.2199 225.08 93.1197 225.067 93.0211 225.051C92.9997 225.047 92.9774 225.043 92.9551 225.039C92.9265 225.034 92.8979 225.028 92.8692 225.022C92.8406 225.016 92.812 225.009 92.7834 225.002C92.7547 224.996 92.7261 224.989 92.6983 224.981C92.6704 224.973 92.6418 224.965 92.614 224.957C92.5861 224.949 92.5583 224.94 92.5313 224.931C92.505 224.923 92.4788 224.913 92.4525 224.904C92.4502 224.904 92.447 224.903 92.4446 224.901C92.4191 224.892 92.3929 224.883 92.3675 224.873C92.3404 224.862 92.3134 224.852 92.2871 224.841C92.2068 224.808 92.1289 224.772 92.0517 224.733C92.0263 224.72 92.0009 224.706 91.9762 224.693C91.9253 224.666 91.876 224.638 91.8267 224.608C91.8028 224.593 91.7782 224.577 91.7543 224.562C91.6525 224.498 91.5555 224.428 91.4617 224.352C91.4251 224.325 91.3901 224.294 91.3551 224.264C91.2867 224.205 91.2215 224.144 91.1587 224.08C91.1388 224.06 91.1189 224.039 91.0999 224.018C91.0824 223.999 91.0641 223.98 91.0466 223.96C91.0283 223.941 91.0116 223.921 90.9949 223.902C90.9782 223.882 90.9615 223.862 90.9448 223.842C90.7921 223.656 90.6593 223.454 90.5488 223.239C90.5368 223.214 90.5241 223.19 90.5122 223.165C90.4223 222.979 90.3484 222.783 90.2935 222.581C90.2863 222.556 90.28 222.531 90.2744 222.507C90.2665 222.476 90.2593 222.445 90.2521 222.414C90.2418 222.366 90.2331 222.318 90.2243 222.27C90.2219 222.258 90.2203 222.245 90.2188 222.233C90.2188 222.232 90.2188 222.232 90.2188 222.232V222.231C90.2251 222.193 90.2315 222.154 90.2394 222.116C90.2426 222.097 90.2466 222.079 90.2506 222.061L90.2673 221.987C90.272 221.965 90.2776 221.944 90.2832 221.923C90.2975 221.867 90.3134 221.81 90.3309 221.755C90.338 221.733 90.3452 221.71 90.3531 221.688C90.3627 221.658 90.373 221.63 90.3834 221.601C90.3897 221.583 90.3969 221.566 90.4032 221.549C90.4335 221.471 90.4669 221.393 90.5026 221.318C90.5193 221.283 90.5368 221.249 90.5543 221.214C90.6052 221.115 90.6617 221.019 90.7221 220.926C90.7476 220.887 90.773 220.849 90.8001 220.811C90.8828 220.694 90.9718 220.583 91.0688 220.478C91.0808 220.464 91.0943 220.45 91.107 220.437C91.1293 220.413 91.1523 220.389 91.1754 220.366C91.7925 219.749 92.6442 219.366 93.581 219.366H133.171C132.598 219.975 132.246 220.795 132.246 221.692C132.246 221.875 132.26 222.055 132.289 222.23C132.548 223.85 133.961 225.098 135.652 225.098Z" fill="white"/>
<path d="M92.75 220.905H130.379" stroke="#E9E9F2" stroke-width="4" stroke-miterlimit="10"/>
<path d="M92.75 222.145H130.379" stroke="#E9E9F2" stroke-width="4" stroke-miterlimit="10"/>
<path d="M92.75 223.377H130.379" stroke="#E9E9F2" stroke-width="4" stroke-miterlimit="10"/>
<path d="M91.7541 239.52H51.5966C49.7238 239.52 48.1914 237.988 48.1914 236.115C48.1914 235.93 48.2065 235.75 48.2344 235.573C48.4936 237.193 49.9067 238.441 51.5966 238.441H89.2729C89.292 238.462 89.3119 238.482 89.3318 238.502C89.3946 238.567 89.4598 238.628 89.5282 238.687C89.5632 238.717 89.5982 238.747 89.6348 238.775C89.7286 238.85 89.8256 238.92 89.9274 238.985C89.9513 239.001 89.9751 239.016 89.9998 239.03C90.0491 239.06 90.0984 239.088 90.1493 239.115C90.1739 239.129 90.1994 239.142 90.2248 239.155C90.302 239.194 90.3799 239.231 90.4602 239.263C90.4865 239.274 90.5135 239.285 90.5405 239.295C90.566 239.305 90.5914 239.315 90.6177 239.324C90.6201 239.325 90.6232 239.326 90.6256 239.327C90.6519 239.336 90.6781 239.345 90.7044 239.353C90.7314 239.363 90.7592 239.371 90.7871 239.379C90.8149 239.387 90.8427 239.396 90.8714 239.403C90.8992 239.411 90.9278 239.418 90.9565 239.425C90.9851 239.432 91.0137 239.439 91.0423 239.444C91.071 239.451 91.0996 239.456 91.1282 239.462C91.1505 239.466 91.172 239.47 91.1942 239.473C91.2928 239.49 91.393 239.503 91.494 239.51C91.5226 239.512 91.5505 239.514 91.5791 239.515C91.5871 239.516 91.595 239.516 91.603 239.516C91.6531 239.519 91.7032 239.52 91.7541 239.52Z" fill="#5CA073"/>
<path d="M91.756 232.709C90.8193 232.709 89.9676 233.092 89.3505 233.709C89.3274 233.732 89.3043 233.756 89.2821 233.78C89.2686 233.793 89.2558 233.807 89.2439 233.821C89.1469 233.926 89.0578 234.038 88.9751 234.154C88.9481 234.192 88.9218 234.23 88.8972 234.269C88.8368 234.362 88.7803 234.458 88.7294 234.558C88.7119 234.592 88.6944 234.626 88.6777 234.661C88.6419 234.737 88.6085 234.814 88.5783 234.892C88.5711 234.909 88.5648 234.927 88.5584 234.944C88.5481 234.973 88.5377 235.001 88.5282 235.031C88.5202 235.053 88.5131 235.075 88.5059 235.098C88.4884 235.153 88.4725 235.21 88.4582 235.266C88.4527 235.287 88.4471 235.308 88.4423 235.33L88.4256 235.404C88.4216 235.422 88.4177 235.44 88.4145 235.459C88.4065 235.498 88.4002 235.536 88.3938 235.574V235.575C88.3867 235.617 88.3811 235.66 88.3755 235.703C88.3747 235.706 88.3739 235.71 88.3739 235.713C88.3692 235.752 88.3652 235.791 88.362 235.831C88.3612 235.838 88.3604 235.846 88.3604 235.854C88.3572 235.894 88.3548 235.936 88.3533 235.978C88.3509 236.023 88.3501 236.069 88.3501 236.115C88.3501 236.15 88.3509 236.187 88.3517 236.223C88.3525 236.245 88.3532 236.267 88.3548 236.29C88.3612 236.426 88.3763 236.56 88.3994 236.692C88.4081 236.741 88.4169 236.788 88.4272 236.836C88.4344 236.867 88.4415 236.898 88.4495 236.929C88.455 236.954 88.4614 236.978 88.4686 237.003C88.5234 237.206 88.5974 237.401 88.6872 237.587C88.6992 237.612 88.7111 237.637 88.7238 237.661C88.8344 237.876 88.9672 238.078 89.1199 238.264C89.1366 238.284 89.1532 238.304 89.1699 238.324C89.1866 238.344 89.2033 238.364 89.2216 238.383C89.2383 238.403 89.2566 238.422 89.2749 238.441H51.5986C49.9087 238.441 48.4956 237.193 48.2363 235.573C48.3532 234.852 48.6984 234.205 49.1938 233.709C49.8109 233.092 50.6618 232.709 51.5986 232.709H91.756Z" fill="#6DC38D"/>
<path d="M91.756 238.441H51.5986C49.9087 238.441 48.4956 237.193 48.2363 235.573C48.3532 234.852 48.6984 234.205 49.1938 233.709C49.8109 233.092 50.6618 232.709 51.5986 232.709H89.2749C88.7024 233.318 88.3501 234.138 88.3501 235.036C88.3501 235.218 88.3644 235.398 88.3938 235.574V235.575C88.6531 237.194 90.0662 238.441 91.756 238.441Z" fill="#6DC38D"/>
<path d="M133.824 239.52H91.7536C91.7027 239.52 91.6526 239.519 91.6025 239.516C91.5946 239.516 91.5866 239.516 91.5787 239.515C91.55 239.514 91.5214 239.512 91.4936 239.51C91.3926 239.503 91.2924 239.49 91.1938 239.473C91.1723 239.47 91.15 239.466 91.1278 239.462C91.0991 239.456 91.0705 239.451 91.0419 239.444C91.0133 239.438 90.9846 239.432 90.956 239.425C90.9274 239.418 90.8987 239.411 90.8709 239.403C90.8431 239.396 90.8145 239.387 90.7866 239.379C90.7588 239.371 90.731 239.363 90.7039 239.353C90.6777 239.345 90.6514 239.336 90.6252 239.327C90.6228 239.326 90.6196 239.325 90.6172 239.324C90.5918 239.315 90.5655 239.305 90.5401 239.295C90.5131 239.285 90.486 239.274 90.4598 239.263C90.3795 239.231 90.3015 239.194 90.2244 239.155C90.1989 239.142 90.1735 239.129 90.1489 239.115C90.098 239.088 90.0487 239.06 89.9993 239.03C89.9755 239.015 89.9508 239 89.927 238.985C89.8252 238.92 89.7282 238.85 89.6343 238.775C89.5978 238.747 89.5628 238.717 89.5278 238.687C89.4594 238.628 89.3942 238.567 89.3314 238.502C89.3115 238.482 89.2916 238.462 89.2725 238.441C89.255 238.422 89.2367 238.403 89.2192 238.383C89.2009 238.364 89.1842 238.344 89.1675 238.324C89.1508 238.304 89.1341 238.284 89.1174 238.264C88.9648 238.078 88.8319 237.876 88.7214 237.662C88.7095 237.637 88.6968 237.612 88.6848 237.588C88.595 237.402 88.521 237.206 88.4661 237.003C88.459 236.978 88.4526 236.954 88.4471 236.929C88.4391 236.898 88.4319 236.867 88.4248 236.836C88.4145 236.788 88.4057 236.741 88.397 236.692C88.3739 236.56 88.3588 236.426 88.3524 236.29C88.3508 236.268 88.35 236.245 88.3492 236.223C88.3485 236.187 88.3477 236.151 88.3477 236.115C88.3477 236.069 88.3485 236.023 88.3508 235.978C88.3524 235.936 88.3548 235.895 88.358 235.854C88.358 235.846 88.3588 235.838 88.3596 235.831C88.3628 235.791 88.3667 235.752 88.3715 235.713C88.3715 235.71 88.3723 235.706 88.3731 235.703C88.3787 235.661 88.3842 235.618 88.3914 235.576C88.393 235.588 88.3946 235.601 88.397 235.613C88.4057 235.662 88.4145 235.709 88.4248 235.757C88.4319 235.788 88.4391 235.819 88.4471 235.85C88.4526 235.875 88.459 235.899 88.4661 235.924C88.521 236.127 88.595 236.322 88.6848 236.509C88.6968 236.533 88.7095 236.558 88.7214 236.582C88.8319 236.797 88.9648 236.999 89.1174 237.185C89.1341 237.205 89.1508 237.225 89.1675 237.245C89.1842 237.265 89.2009 237.285 89.2192 237.304C89.2367 237.324 89.255 237.343 89.2725 237.362C89.2916 237.382 89.3115 237.403 89.3314 237.423C89.3942 237.487 89.4594 237.549 89.5278 237.607C89.5628 237.638 89.5978 237.668 89.6343 237.696C89.7282 237.771 89.8252 237.841 89.927 237.906C89.9508 237.921 89.9755 237.936 89.9993 237.951C90.0487 237.981 90.098 238.009 90.1489 238.036C90.1735 238.05 90.1989 238.063 90.2244 238.076C90.3015 238.115 90.3795 238.151 90.4598 238.184C90.486 238.195 90.5131 238.206 90.5401 238.216C90.5655 238.226 90.5918 238.236 90.6172 238.244C90.6196 238.246 90.6228 238.247 90.6252 238.248C90.6514 238.256 90.6777 238.266 90.7039 238.274C90.731 238.283 90.7588 238.292 90.7866 238.3C90.8145 238.308 90.8431 238.317 90.8709 238.324C90.8987 238.332 90.9274 238.339 90.956 238.345C90.9846 238.353 91.0133 238.359 91.0419 238.365C91.0705 238.372 91.0991 238.377 91.1278 238.383C91.15 238.387 91.1723 238.391 91.1938 238.394C91.2924 238.411 91.3926 238.423 91.4936 238.431C91.5214 238.433 91.55 238.435 91.5787 238.436C91.5866 238.437 91.5946 238.437 91.6025 238.437C91.6526 238.44 91.7027 238.441 91.7536 238.441H131.343C131.965 239.104 132.849 239.52 133.824 239.52Z" fill="#EAEAEA"/>
<path d="M130.461 235.573C130.433 235.75 130.418 235.93 130.418 236.115C130.418 237.012 130.77 237.832 131.343 238.441H91.7528C91.702 238.441 91.6519 238.44 91.6018 238.437C91.5938 238.437 91.5859 238.437 91.5779 238.436C91.5493 238.435 91.5206 238.433 91.4928 238.431C91.3918 238.423 91.2916 238.411 91.193 238.394C91.1715 238.391 91.1493 238.387 91.127 238.383C91.0984 238.377 91.0697 238.372 91.0411 238.365C91.0125 238.359 90.9839 238.353 90.9552 238.345C90.9266 238.339 90.898 238.332 90.8701 238.324C90.8423 238.317 90.8137 238.308 90.7859 238.3C90.758 238.292 90.7302 238.283 90.7031 238.274C90.6769 238.266 90.6507 238.256 90.6244 238.248C90.622 238.247 90.6189 238.246 90.6165 238.244C90.591 238.236 90.5648 238.226 90.5393 238.216C90.5123 238.205 90.4853 238.195 90.459 238.184C90.3787 238.151 90.3008 238.115 90.2236 238.076C90.1982 238.063 90.1727 238.05 90.1481 238.036C90.0972 238.009 90.0479 237.981 89.9986 237.951C89.9747 237.936 89.9501 237.921 89.9262 237.906C89.8244 237.841 89.7274 237.771 89.6336 237.696C89.597 237.668 89.562 237.638 89.527 237.607C89.4586 237.549 89.3934 237.487 89.3306 237.423C89.3107 237.403 89.2908 237.382 89.2717 237.362C89.2542 237.343 89.2359 237.324 89.2185 237.304C89.2002 237.285 89.1835 237.265 89.1668 237.245C89.1501 237.225 89.1334 237.205 89.1167 237.185C88.964 236.999 88.8312 236.797 88.7206 236.582C88.7087 236.558 88.696 236.533 88.6841 236.508C88.5942 236.322 88.5202 236.127 88.4654 235.924C88.4582 235.899 88.4519 235.875 88.4463 235.85C88.4383 235.819 88.4312 235.788 88.424 235.757C88.4137 235.709 88.4049 235.662 88.3962 235.613C88.3938 235.601 88.3922 235.588 88.3906 235.576C88.3906 235.576 88.3906 235.576 88.3906 235.575V235.574C88.397 235.536 88.4033 235.498 88.4113 235.46C88.4145 235.44 88.4185 235.422 88.4224 235.404L88.4391 235.33C88.4439 235.308 88.4495 235.287 88.455 235.266C88.4693 235.21 88.4853 235.153 88.5027 235.099C88.5099 235.076 88.5171 235.053 88.525 235.031C88.5346 235.002 88.5449 234.973 88.5552 234.944C88.5616 234.927 88.5688 234.909 88.5751 234.893C88.6053 234.814 88.6387 234.737 88.6745 234.661C88.6912 234.626 88.7087 234.592 88.7262 234.558C88.7771 234.458 88.8336 234.362 88.894 234.269C88.9194 234.23 88.9449 234.192 88.9719 234.155C89.0546 234.038 89.1437 233.926 89.2407 233.821C89.2526 233.807 89.2662 233.794 89.2789 233.78C89.3012 233.756 89.3242 233.732 89.3473 233.709C89.9644 233.092 90.8161 232.709 91.7528 232.709H133.824C132.887 232.709 132.035 233.092 131.418 233.709C130.923 234.205 130.578 234.852 130.461 235.573Z" fill="white"/>
<path d="M133.824 238.441H91.7528C91.702 238.441 91.6519 238.44 91.6018 238.437C91.5938 238.437 91.5859 238.437 91.5779 238.436C91.5493 238.435 91.5206 238.433 91.4928 238.431C91.3918 238.423 91.2916 238.411 91.193 238.394C91.1715 238.391 91.1493 238.387 91.127 238.383C91.0984 238.377 91.0697 238.372 91.0411 238.365C91.0125 238.359 90.9839 238.353 90.9552 238.345C90.9266 238.339 90.898 238.332 90.8701 238.324C90.8423 238.317 90.8137 238.308 90.7859 238.3C90.758 238.292 90.7302 238.283 90.7031 238.274C90.6769 238.266 90.6507 238.256 90.6244 238.248C90.622 238.247 90.6189 238.246 90.6165 238.244C90.591 238.236 90.5648 238.226 90.5393 238.216C90.5123 238.205 90.4853 238.195 90.459 238.184C90.3787 238.151 90.3008 238.115 90.2236 238.076C90.1982 238.063 90.1727 238.05 90.1481 238.036C90.0972 238.009 90.0479 237.981 89.9986 237.951C89.9747 237.936 89.9501 237.921 89.9262 237.906C89.8244 237.841 89.7274 237.771 89.6336 237.696C89.597 237.668 89.562 237.638 89.527 237.607C89.4586 237.549 89.3934 237.487 89.3306 237.423C89.3107 237.403 89.2908 237.382 89.2717 237.362C89.2542 237.343 89.2359 237.324 89.2185 237.304C89.2002 237.285 89.1835 237.265 89.1668 237.245C89.1501 237.225 89.1334 237.205 89.1167 237.185C88.964 236.999 88.8312 236.797 88.7206 236.582C88.7087 236.558 88.696 236.533 88.6841 236.508C88.5942 236.322 88.5202 236.127 88.4654 235.924C88.4582 235.899 88.4519 235.875 88.4463 235.85C88.4383 235.819 88.4312 235.788 88.424 235.757C88.4137 235.709 88.4049 235.662 88.3962 235.613C88.3938 235.601 88.3922 235.588 88.3906 235.576C88.3906 235.576 88.3906 235.576 88.3906 235.575V235.574C88.397 235.536 88.4033 235.498 88.4113 235.46C88.4145 235.44 88.4185 235.422 88.4224 235.404L88.4391 235.33C88.4439 235.308 88.4495 235.287 88.455 235.266C88.4693 235.21 88.4853 235.153 88.5027 235.099C88.5099 235.076 88.5171 235.053 88.525 235.031C88.5346 235.002 88.5449 234.973 88.5552 234.944C88.5616 234.927 88.5688 234.909 88.5751 234.893C88.6053 234.814 88.6387 234.737 88.6745 234.661C88.6912 234.626 88.7087 234.592 88.7262 234.558C88.7771 234.458 88.8336 234.362 88.894 234.269C88.9194 234.23 88.9449 234.192 88.9719 234.155C89.0546 234.038 89.1437 233.926 89.2407 233.821C89.2526 233.807 89.2662 233.794 89.2789 233.78C89.3012 233.756 89.3242 233.732 89.3473 233.709C89.9644 233.092 90.8161 232.709 91.7528 232.709H131.343C130.77 233.318 130.418 234.138 130.418 235.036C130.418 235.219 130.432 235.398 130.461 235.573C130.72 237.193 132.133 238.441 133.824 238.441Z" fill="white"/>
<path d="M90.9238 234.247H128.552" stroke="#E9E9F2" stroke-width="4" stroke-miterlimit="10"/>
<path d="M90.9238 235.487H128.552" stroke="#E9E9F2" stroke-width="4" stroke-miterlimit="10"/>
<path d="M90.9238 236.72H128.552" stroke="#E9E9F2" stroke-width="4" stroke-miterlimit="10"/>
</svg>
