<svg width="294" height="231" viewBox="0 0 294 231" fill="none" xmlns="http://www.w3.org/2000/svg">
<path d="M11.2964 230.997C11.3104 231.014 282.917 230.946 282.917 230.946C291.859 201.792 291.844 187.548 292.861 170.837C298.478 78.4733 244.362 71.5294 231.029 67.678C190.204 55.8854 217.389 -9.71978 111.005 1.22655C101.256 2.22931 78.2657 10.3304 70.3428 15.578C64.7854 19.2564 43.8487 35.7137 37.7064 63.5521C35.7664 72.3382 35.301 82.2587 37.2572 93.2676C44.1805 132.227 26.1307 129.988 12.9413 148.554C-4.66253 173.335 -2.82265 213.858 11.2964 230.997Z" fill="#F7F7FA"/>
<path d="M173.92 230.283H173.966C174.233 230.283 174.446 230.063 174.441 229.798L173.722 198.627L171.604 198.38L173.41 229.799C173.423 230.07 173.648 230.283 173.92 230.283Z" fill="#B0D4FF"/>
<path d="M186.262 230.283H186.308C186.575 230.283 186.788 230.063 186.782 229.798L186.063 198.627L183.945 198.38L185.752 229.799C185.767 230.07 185.991 230.283 186.262 230.283Z" fill="#95C0F4"/>
<path d="M152.198 230.283H152.152C151.886 230.283 151.673 230.063 151.678 229.798L152.397 198.627L154.515 198.38L152.708 229.799C152.695 230.07 152.47 230.283 152.198 230.283Z" fill="#B0D4FF"/>
<path d="M187.667 196.693V175.333C187.667 171.574 184.621 168.528 180.862 168.528H165.473C161.714 168.528 158.668 171.574 158.668 175.333V197.509L187.667 196.693Z" fill="#B0D4FF"/>
<path d="M155.906 200.065H185.619C186.748 200.065 187.663 199.15 187.663 198.022V196.693H155.906V200.065Z" fill="#95C0F4"/>
<path d="M152.347 200.065H174.826C175.661 200.065 176.338 199.389 176.338 198.554V198.203C176.338 197.369 175.662 196.692 174.826 196.692H152.347C151.513 196.692 150.836 197.368 150.836 198.203V198.554C150.836 199.389 151.513 200.065 152.347 200.065Z" fill="#CAE5FF"/>
<path d="M204.146 84.2748H115.432V160.857H204.146V84.2748Z" fill="#23A462"/>
<path d="M202.42 85.5509H117.119V159.33H202.42V85.5509Z" fill="#6DC38D"/>
<path d="M146.935 117.651H128.242V94.3108L131.413 91.454H146.935V117.651Z" fill="white"/>
<path d="M128.242 94.3108H131.311L131.413 91.454L128.242 94.3108Z" fill="#B0D4FF"/>
<path d="M140.582 93.725H134.598V94.0101H140.582V93.725Z" fill="#B0D4FF"/>
<path d="M141.989 94.5801H133.186V94.8652H141.989V94.5801Z" fill="#B0D4FF"/>
<path d="M145.075 100.071H130.459V100.438H145.075V100.071Z" fill="#B0D4FF"/>
<path d="M145.075 101.184H130.459V101.55H145.075V101.184Z" fill="#B0D4FF"/>
<path d="M145.075 102.298H130.459V102.664H145.075V102.298Z" fill="#B0D4FF"/>
<path d="M145.075 103.411H130.459V103.777H145.075V103.411Z" fill="#B0D4FF"/>
<path d="M145.075 115.319H130.459V115.685H145.075V115.319Z" fill="#B0D4FF"/>
<path d="M168.516 150.034H149.824V126.694L152.993 123.837H168.516V150.034Z" fill="white"/>
<path d="M149.824 126.694H152.892L152.993 123.837L149.824 126.694Z" fill="#B0D4FF"/>
<path d="M162.161 126.108H156.176V126.393H162.161V126.108Z" fill="#B0D4FF"/>
<path d="M163.571 126.963H154.768V127.248H163.571V126.963Z" fill="#B0D4FF"/>
<path d="M166.657 132.454H152.041V132.82H166.657V132.454Z" fill="#B0D4FF"/>
<path d="M166.657 133.567H152.041V133.933H166.657V133.567Z" fill="#B0D4FF"/>
<path d="M166.657 134.68H152.041V135.046H166.657V134.68Z" fill="#B0D4FF"/>
<path d="M166.657 135.794H152.041V136.16H166.657V135.794Z" fill="#B0D4FF"/>
<path d="M166.657 139.218H152.041V139.584H166.657V139.218Z" fill="#B0D4FF"/>
<path d="M166.657 140.331H152.041V140.697H166.657V140.331Z" fill="#B0D4FF"/>
<path d="M166.657 141.621H152.041V141.987H166.657V141.621Z" fill="#B0D4FF"/>
<path d="M179.067 91.454H168.746V100.554H179.067V91.454Z" fill="#B0D4FF"/>
<path d="M173.451 92.5365C173.451 92.2868 173.654 92.0842 173.904 92.0842C174.153 92.0842 174.356 92.2868 174.356 92.5365C174.356 92.7863 174.153 92.9889 173.904 92.9889C173.654 92.9889 173.451 92.7863 173.451 92.5365Z" fill="#FFA412"/>
<path d="M178.738 103.425L168.441 104.144L169.075 113.222L179.371 112.503L178.738 103.425Z" fill="white"/>
<path d="M173.255 105.446C173.238 105.198 173.425 104.981 173.675 104.964C173.923 104.947 174.14 105.134 174.157 105.384C174.174 105.633 173.987 105.849 173.737 105.866C173.488 105.883 173.272 105.696 173.255 105.446Z" fill="#B0D4FF"/>
<path d="M144.433 136.948L134.137 137.666L134.77 146.744L145.066 146.026L144.433 136.948Z" fill="white"/>
<path d="M138.95 138.969C138.933 138.721 139.12 138.504 139.37 138.487C139.618 138.47 139.835 138.657 139.852 138.907C139.869 139.155 139.682 139.372 139.433 139.389C139.183 139.406 138.967 139.219 138.95 138.969Z" fill="#B0D4FF"/>
<path d="M131.476 143.45L121.156 143.556L121.25 152.655L131.57 152.549L131.476 143.45Z" fill="white"/>
<path d="M125.883 145.171C125.88 144.921 126.08 144.717 126.33 144.714C126.58 144.712 126.784 144.912 126.786 145.161C126.789 145.411 126.589 145.615 126.339 145.618C126.089 145.62 125.885 145.42 125.883 145.171Z" fill="#B0D4FF"/>
<path d="M194.367 110.716L184.207 108.901L182.606 117.859L192.766 119.674L194.367 110.716Z" fill="#EEF6FF"/>
<path d="M188.682 110.961C188.72 110.748 188.924 110.606 189.138 110.643C189.353 110.681 189.494 110.885 189.456 111.1C189.418 111.313 189.214 111.455 189 111.417C188.785 111.378 188.644 111.174 188.682 110.961Z" fill="#78ACEA"/>
<path d="M162.654 103.232L152.393 104.343L153.372 113.39L163.633 112.28L162.654 103.232Z" fill="#EEF6FF"/>
<path d="M157.264 105.055C157.241 104.84 157.396 104.646 157.613 104.623C157.829 104.599 158.022 104.755 158.046 104.97C158.069 105.186 157.914 105.38 157.698 105.403C157.482 105.427 157.288 105.271 157.264 105.055Z" fill="#78ACEA"/>
<path d="M135.86 124.748L125.766 126.9L127.663 135.799L137.757 133.647L135.86 124.748Z" fill="#BAE8E3"/>
<path d="M130.861 127.349C130.679 127.231 130.627 126.988 130.745 126.805C130.862 126.623 131.105 126.571 131.288 126.688C131.47 126.806 131.522 127.049 131.405 127.232C131.287 127.415 131.043 127.468 130.861 127.349Z" fill="#FFA412"/>
<path d="M162.924 100.552H153.1V93.9525L155.82 91.4539H162.924V100.552Z" fill="white"/>
<path d="M153.047 93.9525H155.73L155.82 91.4539L153.047 93.9525Z" fill="#B0D4FF"/>
<path d="M158.047 92.2959C158.047 92.1181 158.192 91.973 158.37 91.973C158.548 91.973 158.693 92.1181 158.693 92.2959C158.693 92.4737 158.548 92.6188 158.37 92.6188C158.192 92.6188 158.047 92.4737 158.047 92.2959Z" fill="#B0D4FF"/>
<path d="M191.628 154.584H181.805V147.983L184.524 145.484H191.628V154.584Z" fill="white"/>
<path d="M181.752 147.983H184.435L184.524 145.484L181.752 147.983Z" fill="#B0D4FF"/>
<path d="M186.752 146.326C186.752 146.149 186.897 146.003 187.075 146.003C187.254 146.003 187.398 146.149 187.398 146.326C187.398 146.504 187.253 146.649 187.075 146.649C186.897 146.649 186.752 146.504 186.752 146.326Z" fill="#B0D4FF"/>
<path d="M196.111 141.485H186.287V134.885L189.007 132.385H196.111V141.485Z" fill="white"/>
<path d="M186.234 134.885H188.917L189.006 132.385L186.234 134.885Z" fill="#B0D4FF"/>
<path d="M191.234 133.227C191.234 133.05 191.379 132.904 191.557 132.904C191.735 132.904 191.88 133.05 191.88 133.227C191.88 133.405 191.735 133.55 191.557 133.55C191.379 133.55 191.234 133.406 191.234 133.227Z" fill="#B0D4FF"/>
<path d="M183.149 141.485H173.326V134.885L176.046 132.385H183.149V141.485Z" fill="#BAE8E3"/>
<path d="M173.273 134.885H175.956L176.045 132.385L173.273 134.885Z" fill="#A1D6CE"/>
<path d="M178.271 133.227C178.271 133.05 178.417 132.904 178.594 132.904C178.772 132.904 178.917 133.05 178.917 133.227C178.917 133.405 178.772 133.55 178.594 133.55C178.417 133.55 178.271 133.406 178.271 133.227Z" fill="#F99746"/>
<path d="M198.881 98.2749H189.059V91.6749L191.778 89.1764H198.881V98.2749Z" fill="#BAE8E3"/>
<path d="M189.006 91.6749H191.69L191.779 89.1764L189.006 91.6749Z" fill="#A1D6CE"/>
<path d="M194.008 90.0171C194.008 89.8393 194.153 89.6942 194.331 89.6942C194.509 89.6942 194.654 89.8393 194.654 90.0171C194.654 90.1949 194.509 90.34 194.331 90.34C194.153 90.34 194.008 90.1962 194.008 90.0171Z" fill="#F99746"/>
<path d="M101.74 82.4219H83.0539C82.1962 82.4219 81.4941 81.7198 81.4941 80.8622V62.8272C81.4941 61.9695 82.1962 61.2674 83.0539 61.2674H101.74C102.598 61.2674 103.3 61.9695 103.3 62.8272V80.8622C103.3 81.7198 102.598 82.4219 101.74 82.4219Z" fill="#C0D8FB"/>
<path d="M100.93 81.5055H83.8626C83.0795 81.5055 82.4375 80.8648 82.4375 80.0803V63.6091C82.4375 62.8259 83.0782 62.184 83.8626 62.184H100.93C101.713 62.184 102.355 62.8246 102.355 63.6091V80.0817C102.354 80.8648 101.713 81.5055 100.93 81.5055Z" fill="#DFEBFD"/>
<path d="M91.9414 64.1151C91.9414 63.8654 92.1441 63.664 92.3925 63.664C92.6422 63.664 92.8436 63.8667 92.8436 64.1151C92.8436 64.3648 92.6409 64.5661 92.3925 64.5661C92.1441 64.5661 91.9414 64.3635 91.9414 64.1151Z" fill="#B7D3F3"/>
<path d="M95.5846 64.7531C95.7062 64.5347 95.9807 64.4563 96.1991 64.5779C96.4174 64.6995 96.4959 64.974 96.3743 65.1924C96.2527 65.4107 95.9781 65.4892 95.7598 65.3676C95.5414 65.246 95.463 64.9714 95.5846 64.7531Z" fill="#B7D3F3"/>
<path d="M98.7104 67.2334C98.9196 67.0987 99.1994 67.1589 99.3354 67.3681C99.47 67.5773 99.4099 67.857 99.2007 67.993C98.9915 68.1277 98.7117 68.0675 98.5757 67.8584C98.4411 67.6492 98.5012 67.3694 98.7104 67.2334Z" fill="#B7D3F3"/>
<path d="M100.256 71.0734C100.505 71.0734 100.707 71.276 100.707 71.5244C100.707 71.7742 100.504 71.9755 100.256 71.9755C100.006 71.9755 99.8047 71.7729 99.8047 71.5244C99.8047 71.276 100.006 71.0734 100.256 71.0734Z" fill="#B7D3F3"/>
<path d="M99.4631 75.5291C99.6396 75.7056 99.6396 75.9919 99.4631 76.1684C99.2866 76.345 99.0003 76.345 98.8238 76.1684C98.6473 75.9919 98.6473 75.7056 98.8238 75.5291C99.0016 75.3526 99.2866 75.3526 99.4631 75.5291Z" fill="#B7D3F3"/>
<path d="M96.6291 78.3741C96.8057 78.5506 96.8057 78.8369 96.6291 79.0134C96.4526 79.1899 96.1663 79.1899 95.9898 79.0134C95.8133 78.8369 95.8133 78.5506 95.9898 78.3741C96.1663 78.1976 96.4526 78.1976 96.6291 78.3741Z" fill="#B7D3F3"/>
<path d="M91.9414 79.8398C91.9414 79.5901 92.1441 79.3887 92.3925 79.3887C92.6422 79.3887 92.8436 79.5914 92.8436 79.8398C92.8436 80.0882 92.6409 80.2909 92.3925 80.2909C92.1441 80.2909 91.9414 80.0882 91.9414 79.8398Z" fill="#B7D3F3"/>
<path d="M89.1888 64.753C89.0672 64.5347 88.7926 64.4562 88.5742 64.5778C88.3559 64.6994 88.2775 64.974 88.399 65.1923C88.5206 65.4107 88.7952 65.4891 89.0135 65.3675C89.2306 65.2459 89.309 64.9714 89.1888 64.753Z" fill="#B7D3F3"/>
<path d="M86.0679 67.2333C85.8587 67.0987 85.5789 67.1588 85.4429 67.368C85.3083 67.5772 85.3684 67.857 85.5776 67.993C85.7868 68.1276 86.0666 68.0675 86.2026 67.8583C86.3385 67.6491 86.2784 67.3693 86.0679 67.2333Z" fill="#B7D3F3"/>
<path d="M84.5194 71.0733C84.2697 71.0733 84.0684 71.276 84.0684 71.5244C84.0684 71.7741 84.271 71.9754 84.5194 71.9754C84.7691 71.9754 84.9718 71.7728 84.9718 71.5244C84.9718 71.276 84.7691 71.0733 84.5194 71.0733Z" fill="#B7D3F3"/>
<path d="M85.3082 75.5289C85.1317 75.7054 85.1317 75.9918 85.3082 76.1683C85.4847 76.3448 85.771 76.3448 85.9475 76.1683C86.124 75.9918 86.124 75.7054 85.9475 75.5289C85.771 75.3524 85.4847 75.3524 85.3082 75.5289Z" fill="#B7D3F3"/>
<path d="M88.1441 78.3741C87.9676 78.5506 87.9676 78.8369 88.1441 79.0134C88.3206 79.1899 88.6069 79.1899 88.7834 79.0134C88.9599 78.8369 88.9599 78.5506 88.7834 78.3741C88.6056 78.1976 88.3206 78.1976 88.1441 78.3741Z" fill="#B7D3F3"/>
<path d="M92.2734 71.5258C92.2734 71.2761 92.4761 71.0748 92.7258 71.0748C92.9755 71.0748 93.1769 71.2774 93.1769 71.5258C93.1769 71.7756 92.9742 71.9769 92.7258 71.9769C92.4748 71.9769 92.2734 71.7743 92.2734 71.5258Z" fill="#B7D3F3"/>
<path d="M92.785 65.8829H92.6621V71.5259H92.785V65.8829Z" fill="#B7D3F3"/>
<path d="M95.546 69.0203L92.5547 71.3693L92.7832 71.6603L95.7746 69.3113L95.546 69.0203Z" fill="#B7D3F3"/>
<path d="M216.768 229.168C216.679 230.381 214.966 230.394 213.023 230.169C211.08 229.944 211.597 230.436 208.876 230.474C206.155 230.512 205.218 229.612 205.085 229.224C204.968 228.879 206.278 228.589 207.679 228.247C207.856 228.205 208.033 228.161 208.209 228.115C209.79 227.714 210.836 226.531 212.189 225.498C213.47 224.52 215.121 220.978 215.121 220.978L218.837 220.811C218.837 220.811 217.272 223.985 216.684 225.353C216.339 226.158 216.485 227.146 216.636 227.906C216.719 228.318 216.799 228.74 216.768 229.168Z" fill="#FFB27D"/>
<path d="M213.023 230.168C211.08 229.943 211.597 230.435 208.876 230.473C206.155 230.511 205.218 229.611 205.085 229.223C204.968 228.878 206.278 228.587 207.679 228.246L207.697 228.272C207.697 228.272 209.448 229.212 211.688 228.987C213.515 228.804 215.378 228.042 216.637 227.906C216.718 228.319 216.798 228.742 216.765 229.169C216.679 230.381 214.966 230.394 213.023 230.168Z" fill="#233862"/>
<path d="M242.436 229.419C242.349 230.632 240.636 230.648 238.693 230.424C236.75 230.201 237.267 230.692 234.547 230.733C231.826 230.773 230.887 229.875 230.755 229.487C230.638 229.142 231.948 228.85 233.349 228.508C233.526 228.464 233.702 228.42 233.879 228.376C235.46 227.973 236.504 226.788 237.856 225.754C239.136 224.775 237.857 218.974 237.857 218.974L241.945 218.576C241.945 218.576 241.748 223.459 241.751 225.68C241.752 226.556 242.155 227.398 242.307 228.157C242.387 228.569 242.468 228.991 242.436 229.419Z" fill="#FFB27D"/>
<path d="M238.693 230.424C236.75 230.201 237.267 230.692 234.547 230.733C231.826 230.773 230.887 229.875 230.755 229.487C230.638 229.142 231.948 228.85 233.349 228.508L233.366 228.534C233.366 228.534 235.118 229.473 237.359 229.245C239.185 229.061 241.048 228.296 242.307 228.159C242.388 228.572 242.469 228.993 242.436 229.42C242.347 230.632 240.636 230.648 238.693 230.424Z" fill="#233862"/>
<path d="M230.505 129.173C229.802 126.278 230.822 124.931 231.742 124.213C232.179 123.148 232.677 122.38 233.186 122.091C234.115 121.563 235.228 121.506 236.007 121.551C235.807 121.345 235.412 121.269 235.412 121.269C235.895 121.197 236.973 121.676 236.973 121.676C243.69 119.088 244.746 128.978 244.605 131.275C244.465 133.572 244.483 136.279 247.978 138.088C254.646 141.542 245.762 154.558 245.762 154.558C245.932 152.701 237.364 142.903 232.895 139.97C231.808 138.368 231.421 135.539 231.392 135.315C231.58 137.559 231.963 138.818 232.307 139.526C230.267 137.651 229.965 133.15 230.505 129.173Z" fill="#A9453D"/>
<path d="M233.156 140.116C233.134 140.126 235.315 141.259 236.955 140.81C238.497 140.389 239.505 138.389 239.484 138.385C238.831 138.255 238.642 137.357 238.657 133.499L238.361 133.556L233.396 134.54C233.396 134.54 233.508 136.102 233.512 137.574C233.515 138.811 233.44 139.984 233.156 140.116Z" fill="#FFB27D"/>
<path d="M233.396 134.54C233.396 134.54 233.509 136.102 233.513 137.574C236.291 137.496 237.761 134.961 238.362 133.555L233.396 134.54Z" fill="#ED975D"/>
<path d="M213.193 222.946C212.95 223.709 213.496 224.495 214.298 224.533L216.238 224.623L218.291 224.686C218.805 224.702 219.295 224.478 219.619 224.079C221.257 222.07 226.302 215.369 229.361 205.635C229.447 205.362 229.537 205.086 229.634 204.806C231.654 198.915 235.843 191.52 238.05 184.827C238.402 183.761 238.717 182.757 239 181.808C239.09 181.503 239.179 181.205 239.262 180.911C240.889 175.259 241.359 171.548 241.794 167.584L225.854 167.712C225.854 167.711 222.499 193.792 213.193 222.946Z" fill="#2A4E96"/>
<path d="M228.087 158.552C228.127 166.137 226.974 169.391 226.974 169.391C226.974 169.391 233.799 172.859 241.909 170.306C242.004 170.276 248.624 168.765 248.624 168.765C248.488 168.458 247.281 163.347 247.149 163.064C245.436 159.387 244.137 157.774 243.933 156.644C243.556 154.533 243.547 152.349 243.735 150.289C244.23 144.837 245.702 140.311 245.702 140.311C243.492 139.807 241.423 138.925 239.123 138.062C238.593 138.721 236.976 139.41 235.573 139.379C233.957 139.343 233.434 138.652 233.518 137.896C231.796 138.854 230.422 139.759 230.422 139.759C228.959 142.301 225.991 144.769 225.776 148.668C225.724 149.628 228.085 158.341 228.087 158.552Z" fill="white"/>
<path d="M241.792 159.398C242.489 160.384 243.825 166.377 247.147 167.132C245.434 162.86 244.135 160.987 243.931 159.674C243.554 157.223 243.545 154.686 243.733 152.294C242.621 150.344 241.791 149.007 241.791 149.007C241.703 148.692 240.023 143.494 239.484 148.14C238.948 152.785 241.013 158.295 241.792 159.398Z" fill="#5F9AA8"/>
<path d="M232.47 135.933C232.47 135.933 239.045 136.042 239.049 131.946C239.053 127.851 239.905 125.106 235.707 124.863C231.509 124.621 230.692 126.182 230.358 127.549C230.023 128.918 230.76 135.8 232.47 135.933Z" fill="#FFB27D"/>
<path d="M232.713 124.764C232.713 124.764 234.513 129.569 237.276 130.279C240.039 130.989 241.237 130.249 241.237 130.249C241.237 130.249 239.118 128.565 238.679 125.627C238.677 125.628 234.07 122.477 232.713 124.764Z" fill="#A9453D"/>
<path d="M233.159 125.155C233.159 125.155 231.815 126.228 231.487 127.27C231.159 128.314 231.012 130.46 230.386 130.387C230.386 130.387 229.03 127.121 230.553 125.274C232.169 123.315 233.159 125.155 233.159 125.155Z" fill="#A9453D"/>
<path d="M222.121 163.818L219.016 173.285L220.786 173.995L225.922 165.63L222.121 163.818Z" fill="#FFB27D"/>
<path d="M230.5 139.202C230.5 139.202 226.838 140.655 225.779 142.92C224.718 145.186 223.114 160.381 222.475 161.941C221.835 163.501 221.355 164.737 221.355 164.737C221.355 164.737 223.202 166.292 225.058 166.406C226.915 166.52 230.5 139.202 230.5 139.202Z" fill="#F99746"/>
<path d="M233.519 137.897C233.519 137.897 229.715 147.295 229.603 149.196C229.49 151.099 229.156 180.297 229.156 180.297C229.156 180.297 229.379 181.639 226.806 181.08C224.233 180.52 223.562 179.961 223.562 179.961C223.562 179.961 226.023 161.949 225.352 155.684C224.682 149.419 230.499 139.201 230.499 139.201L233.519 137.897Z" fill="#F99746"/>
<path d="M216.236 224.623L218.466 224.691C218.864 224.703 219.245 224.532 219.5 224.224C220.998 222.41 226.223 215.619 229.361 205.636C229.447 205.363 229.537 205.087 229.634 204.807C231.654 198.916 235.843 191.521 238.05 184.828C238.402 183.763 238.717 182.759 238.999 181.809C239.089 181.505 239.178 181.207 239.262 180.912L236.915 179.132C236.915 179.132 229.868 190.543 227.687 201.281C225.79 210.607 218.2 221.832 216.236 224.623Z" fill="#1E3D70"/>
<path d="M236.667 202.28C236.629 207.221 236.863 218.232 237.464 223.615C237.519 224.108 237.936 224.479 238.432 224.479H240.095C240.796 224.479 241.32 224.474 241.669 224.469C241.971 224.465 242.228 224.248 242.286 223.952C243.94 215.536 245.123 208.545 245.99 202.504C246.714 197.446 247.359 193.112 247.854 189.379C248.354 185.624 248.7 182.479 248.825 179.822C248.844 179.404 248.859 178.997 248.866 178.602C248.874 178.205 248.877 177.819 248.873 177.444L235.102 176.101C235.273 185.252 236.689 199.244 236.667 202.28Z" fill="#2A4E96"/>
<path d="M240.096 224.479C240.726 224.479 241.212 224.475 241.557 224.47C241.924 224.465 242.237 224.203 242.308 223.844C243.95 215.476 245.128 208.519 245.991 202.504C246.715 197.446 247.36 193.112 247.855 189.379C248.355 185.624 248.701 182.479 248.826 179.822L243.772 182.795C243.772 182.795 246.998 183.933 245.767 192.547C244.536 201.161 241.808 223.259 240.096 224.479Z" fill="#1E3D70"/>
<path d="M239.445 179.738C239.445 179.738 240.415 183.244 243.771 182.795C247.127 182.348 251.899 180.334 251.899 180.334C251.899 180.334 250.465 175.803 248.682 169.849C246.523 162.641 243.849 153.349 242.59 147.487C242.237 145.845 241.995 144.474 241.905 143.492L239.12 138.089C239.12 138.089 234.969 147.408 234.746 149.757C234.522 152.107 239.445 179.738 239.445 179.738Z" fill="#F99746"/>
<path d="M242.799 149.405L239.123 138.088C239.134 138.093 243.765 139.466 246.095 140.643C246.095 140.643 247.551 142.52 248.452 146.852C248.452 146.852 249.404 157.251 247.278 161.055C247.278 161.055 240.566 162.398 229.826 158.705V156.245C229.826 156.245 241.572 156.86 243.978 157.139L242.799 149.405Z" fill="#FFB27D"/>
<path d="M239.597 154.678C239.747 158.482 240.641 165.866 248.622 169.819C248.643 169.829 248.664 169.84 248.686 169.849C246.528 162.641 243.854 153.349 242.595 147.487C241.128 149.677 239.514 152.584 239.597 154.678Z" fill="#ED7D2B"/>
<path d="M239.121 138.088C239.121 138.088 245.933 138.568 247.573 142.222C249.214 145.877 249.736 158.033 247.648 161.613C247.648 161.613 244.773 162.431 239.688 161.481C239.625 161.469 239.563 161.457 239.5 161.446C239.5 161.446 237.877 157.474 239.333 156.69C239.333 156.69 243.621 156.914 243.174 155.497C242.727 154.081 239.121 138.088 239.121 138.088Z" fill="#F99746"/>
<path d="M222.043 157.765L222.244 158.41L233.423 154.932C233.423 154.932 233.572 154.762 233.499 154.537C233.418 154.287 233.223 154.287 233.223 154.287L222.043 157.765Z" fill="#A9453D"/>
<path d="M221.234 158.375L222.044 157.765L222.244 158.41L221.234 158.375Z" fill="#A9453D"/>
<path d="M219.46 173.026C219.46 173.026 216.624 174.593 216.251 175.787C215.879 176.981 216.135 179.481 216.585 179.444C217.035 179.406 217.707 176.757 218.079 176.572C218.452 176.386 218.975 175.826 218.975 176.236C218.975 176.645 218.602 177.391 218.788 177.504C218.973 177.616 219.571 176.459 219.982 176.236C220.392 176.012 220.565 174.166 220.963 173.672C221.364 173.175 219.46 173.026 219.46 173.026Z" fill="#FFB27D"/>
<path d="M229.826 156.245C229.826 156.245 227.289 154.682 226.227 154.923C225.162 155.163 222.452 157.127 223.755 157.552C225.059 157.977 226.115 157.531 226.617 157.84C227.119 158.148 227.49 158.713 229.826 158.705C232.164 158.698 229.826 156.245 229.826 156.245Z" fill="#FFB27D"/>
<path d="M30.3947 139.465C29.9697 138.645 39.6697 135.693 39.8227 143.785C39.8227 143.785 57.9936 143.338 49.3174 133.21C46.3142 129.703 46.6227 126.805 46.713 124.106C46.8045 121.408 44.842 113.564 38.1165 114.354C38.1165 114.354 36.3553 113.638 34.1575 114.778C29.1578 117.37 17.9595 142.448 30.3947 139.465Z" fill="#163560"/>
<path d="M60.0996 148.511C60.0996 148.511 61.2829 146.711 62.236 146.675C63.1891 146.64 64.9542 146.146 64.813 146.499C64.6718 146.852 63.5774 146.887 63.4715 147.099C63.3656 147.311 65.0954 147.629 65.5896 147.664C66.0838 147.699 67.2487 147.664 67.2134 147.911C67.1781 148.158 65.1137 149.182 63.6572 149.041C62.2007 148.899 60.4003 149.464 60.4003 149.464L60.0996 148.511Z" fill="#FFB27D"/>
<path d="M42.9941 149.094C42.9941 149.094 43.6374 150.368 44.8037 151.829C46.2092 153.589 48.3756 155.624 51.0977 156.025C52.3973 156.217 53.6682 155.937 54.837 155.418C54.8396 155.417 54.841 155.417 54.841 155.417C58.1449 153.95 60.6303 150.577 60.6303 150.577C61.2135 148.988 60.2603 147.911 60.2603 147.911C60.2603 147.911 53.5871 149.412 52.9517 149.094C52.3163 148.777 48.6096 138.097 47.7271 136.755C46.8433 135.413 43.8361 134.716 43.8361 134.716L42.9941 149.094Z" fill="#6DC38D"/>
<path d="M44.7993 151.829C46.2048 153.589 48.3712 155.624 51.0934 156.025C52.393 156.217 53.6638 155.937 54.8327 155.418C54.7032 155.435 51.4032 155.843 50.0879 153.49C48.7465 151.088 47.2952 147.276 45.3014 148.546C44.4411 149.094 44.479 150.458 44.7993 151.829Z" fill="#23A462"/>
<path d="M18.0979 221.122C18.0979 221.122 16.0622 222.98 16.4597 224.3C16.8571 225.621 18.6941 226.501 18.9425 228.114C19.1909 229.727 20.1846 230.607 21.0776 230.607C21.9706 230.607 25.3399 230.607 25.3399 230.607C25.3399 230.607 25.9975 229.471 24.409 229.13C22.8204 228.787 22.2203 226.892 22.3197 225.13C22.419 223.371 22.1706 221.022 22.1706 221.022L18.7935 220.241L18.0979 221.122Z" fill="#233862"/>
<path d="M35.3314 221.911C35.3314 221.911 34.5992 229.784 35.4922 230.223L46.9324 230.199C46.9324 230.199 46.9324 228.879 45.0954 228.586C43.2584 228.293 40.0303 227.217 39.4838 224.821C38.9373 222.424 35.3314 221.911 35.3314 221.911Z" fill="#233862"/>
<path d="M27.1807 165.437C29.5354 160.158 30.9749 158.643 30.7003 157.004C30.4951 155.785 31.324 134.265 31.324 134.265C31.6038 134.179 32.1634 134.102 32.4693 134.034C33.4355 133.819 34.2344 133.141 34.5665 132.21C34.9665 131.088 35.2856 129.43 35.2777 127.354L35.5797 127.413L40.65 128.417C40.65 128.417 40.535 130.012 40.531 131.516C40.531 131.529 40.531 131.54 40.531 131.554C40.5245 132.86 41.3809 134.012 42.636 134.374C43.2767 134.558 43.8337 134.716 43.8337 134.716C43.8337 134.716 45.6955 140.032 46.0511 145.492C46.4067 150.953 42.6648 153.325 46.0799 164.237C49.5642 175.383 25.8798 168.354 27.1807 165.437Z" fill="#FFB27D"/>
<path d="M40.6484 128.417C40.6484 128.417 40.5334 130.012 40.5294 131.516C37.6923 131.436 36.1926 128.847 35.5781 127.413L40.6484 128.417Z" fill="#E8945B"/>
<path d="M41.5962 129.839C41.5962 129.839 34.8824 129.951 34.8785 125.768C34.8733 121.587 34.0038 118.785 38.2897 118.537C42.5755 118.289 43.4096 119.883 43.7509 121.28C44.0921 122.676 43.3416 129.703 41.5962 129.839Z" fill="#FFB27D"/>
<path d="M41.3489 118.436C41.3489 118.436 39.5106 123.341 36.6904 124.067C33.8703 124.793 32.6465 124.037 32.6465 124.037C32.6465 124.037 34.8103 122.318 35.2588 119.318C35.2575 119.317 39.9617 116.101 41.3489 118.436Z" fill="#163560"/>
<path d="M40.8906 118.833C40.8906 118.833 42.253 119.343 42.8152 120.337C43.3643 121.31 43.8311 122.596 43.7226 124.176C43.7226 124.176 45.1072 120.842 43.5513 118.955C41.9 116.956 40.8906 118.833 40.8906 118.833Z" fill="#163560"/>
<path d="M40.1328 127.245C40.1328 127.245 40.5957 127.855 41.5226 127.812C42.2692 127.776 42.5568 127.129 42.5568 127.129C42.5568 127.129 41.1866 126.798 40.1328 127.245Z" fill="#EBF3FA"/>
<path d="M26.5326 143.783C26.5326 143.783 26.3626 146.187 26.5326 149.071C26.6463 150.982 28.58 153.544 28.8546 154.176C29.5436 155.765 30.319 156.024 30.319 156.024L36.3254 157.496L38.4369 158.012L45.0971 156.024C45.0971 156.024 48.1304 147.557 46.9131 142.791C45.6946 138.025 43.8341 134.715 43.8341 134.715C43.8341 134.715 38.399 140.036 31.3231 134.264L26.5326 143.783Z" fill="#6DC38D"/>
<path d="M28.291 149.853C28.4048 151.764 28.58 153.545 28.8545 154.178C29.5436 155.766 30.3189 156.025 30.3189 156.025L36.3253 157.497L38.9337 156.73C38.9337 156.73 30.2247 155.411 31.1896 147.918L28.291 149.853Z" fill="#F2CCAA"/>
<path d="M44.6733 157.31C44.6733 157.31 47.972 167.576 48.1838 171.071C48.3957 174.566 41.8793 220.724 41.6165 222.335C41.3694 223.853 39.4841 224.821 39.4841 224.821C39.4841 224.821 38.6172 225.332 37.3791 224.983C35.6624 224.498 35.1198 223.917 35.1198 223.917C35.1198 223.917 32.5533 190.998 34.1418 179.239C35.7304 167.48 35.7487 157.31 35.7487 157.31H44.6733Z" fill="#ED7D2B"/>
<path d="M30.7006 157.004C30.7006 157.004 25.6695 163.755 25.2001 168.318C24.7307 172.881 24.464 188.91 23.4651 193.358C22.4662 197.806 18.7949 206.367 18.7949 220.242C18.7949 220.242 19.1767 221.037 20.3547 221.46C20.7313 221.596 21.2359 221.727 21.7262 221.84C22.6977 222.062 23.6952 221.587 24.1385 220.694C26.62 215.697 34.5275 199.579 34.9328 196.233C35.2191 193.865 37.7163 178.195 43.1619 169C44.4693 166.793 42.3591 158.014 42.3591 158.014L30.7006 157.004Z" fill="#F99746"/>
<path d="M40.2871 127.358C40.2871 127.358 40.4035 127.851 41.6286 127.775C41.6286 127.775 42.6575 127.711 42.6261 127.17C42.6261 127.17 41.6286 126.784 40.2871 127.358Z" fill="white"/>
<path d="M45.1983 155.726C45.1983 155.726 43.8739 156.773 41.2433 156.826C38.1015 156.889 30.3169 156.025 30.3169 156.025C30.3169 156.025 29.9704 156.991 29.9848 158.012C29.9848 158.012 39.4926 160.41 45.0022 158.363C45.0022 158.361 45.7121 157.025 45.1983 155.726Z" fill="#233862"/>
<path d="M40.5684 157.91C40.5684 157.016 41.2116 156.288 42.0013 156.288C42.7923 156.288 43.4356 157.016 43.4356 157.91C43.4356 158.805 42.7923 159.533 42.0013 159.533C41.2116 159.533 40.5684 158.805 40.5684 157.91ZM41.043 157.91C41.043 158.543 41.4731 159.058 42.0013 159.058C42.5295 159.058 42.9597 158.543 42.9597 157.91C42.9597 157.278 42.5295 156.762 42.0013 156.762C41.4731 156.762 41.043 157.278 41.043 157.91Z" fill="white"/>
<path d="M20.0778 157.575L29.8203 166.058L41.4321 152.722L31.6896 144.239L20.0778 157.575Z" fill="#B5453C"/>
<path d="M32.5171 157.614C32.5171 157.614 36.0864 158.031 36.0747 158.878C36.0629 159.725 35.1856 161.465 34.745 161.542C34.3044 161.62 31.8398 159.189 31.8398 159.189L32.5171 157.614Z" fill="#FFB27D"/>
<path d="M31.3203 134.264C31.3203 134.264 26.5546 134.599 24.7281 139.039C22.9016 143.479 19.4355 150.935 19.4355 152.189C19.4355 153.443 21.3719 157.31 31.7687 159.533C31.7687 159.533 32.8448 158.402 32.7794 157.508C32.7794 157.508 26.2892 151.933 26.3062 151.282C26.3389 150.049 27.3705 148.422 33.0683 142.722C34.6177 141.171 31.3203 134.264 31.3203 134.264Z" fill="#6DC38D"/>
<path d="M83.9736 230.365H83.9278C83.6611 230.365 83.448 230.146 83.4532 229.88L84.1723 198.709L86.2904 198.462L84.4835 229.882C84.4691 230.154 84.2442 230.365 83.9736 230.365Z" fill="#B0D4FF"/>
<path d="M71.6259 230.365H71.5802C71.3134 230.365 71.1003 230.146 71.1056 229.88L71.8247 198.709L73.9427 198.462L72.1358 229.882C72.1215 230.154 71.8966 230.365 71.6259 230.365Z" fill="#95C0F4"/>
<path d="M105.696 230.365H105.741C106.008 230.365 106.221 230.146 106.216 229.88L105.497 198.709L103.379 198.462L105.186 229.882C105.2 230.154 105.424 230.365 105.696 230.365Z" fill="#B0D4FF"/>
<path d="M70.2246 196.777V175.417C70.2246 171.658 73.271 168.612 77.0299 168.612H92.4186C96.1775 168.612 99.2239 171.658 99.2239 175.417V197.593L70.2246 196.777Z" fill="#B0D4FF"/>
<path d="M101.981 200.149H72.2682C71.1398 200.149 70.2246 199.234 70.2246 198.105V196.777H101.981V200.149Z" fill="#95C0F4"/>
<path d="M105.539 200.149H83.0602C82.2261 200.149 81.5488 199.473 81.5488 198.638V198.287C81.5488 197.453 82.2248 196.776 83.0602 196.776H105.539C106.373 196.776 107.051 197.452 107.051 198.287V198.638C107.051 199.473 106.373 200.149 105.539 200.149Z" fill="#B0D4FF"/>
<path d="M104.671 191.455C102.467 195.292 99.6938 196.773 99.6938 196.773H88.1582C88.1582 196.773 106.353 188.527 104.671 191.455Z" fill="#233862"/>
<path d="M95.8135 221.143C95.5128 221.488 95.4748 221.872 95.6239 222.283C95.6239 222.284 95.6252 222.287 95.6265 222.288C95.9011 223.048 96.811 223.898 97.8662 224.745C98.0008 224.853 98.1211 224.953 98.2257 225.044C98.2532 225.068 98.2806 225.093 98.3068 225.116C98.3277 225.134 98.3486 225.154 98.3682 225.172C99.3527 226.08 98.9827 226.288 100.752 228.13C102.769 230.228 104.158 230.266 104.552 230.075C104.887 229.912 104.207 228.799 103.456 227.548C103.419 227.488 103.384 227.426 103.346 227.365C103.245 227.199 103.146 227.03 103.046 226.863C102.165 225.357 102.391 224.651 102.6 222.41C102.77 220.588 105.434 212.238 105.434 212.238L101.569 211.572C101.569 211.572 100.405 218.222 99.1226 219.247C98.4362 219.792 97.6687 219.8 97.0098 220.204C96.9627 220.232 96.917 220.262 96.8725 220.29C96.4973 220.54 96.1155 220.796 95.8135 221.143Z" fill="#FFB27D"/>
<path d="M95.8135 221.143C95.5128 221.488 95.4748 221.872 95.6239 222.283C95.6239 222.284 95.6252 222.287 95.6265 222.288C95.9638 223.048 96.849 223.892 97.8701 224.737C98.0034 224.848 98.1211 224.949 98.2257 225.044C98.2532 225.068 98.2806 225.093 98.3068 225.116C98.3277 225.134 98.3486 225.154 98.3682 225.172C99.3527 226.08 98.9827 226.288 100.752 228.13C102.769 230.228 104.158 230.266 104.552 230.075C104.887 229.912 104.207 228.799 103.456 227.548C103.063 227.404 101.239 226.663 99.86 224.899C98.6454 223.35 97.8361 221.359 97.0085 220.204C96.9614 220.231 96.9156 220.262 96.8712 220.29C96.4973 220.54 96.1155 220.796 95.8135 221.143Z" fill="#233862"/>
<path d="M126.979 218.728C127.219 219.922 128.918 219.722 130.819 219.257C132.719 218.793 132.268 219.345 134.972 219.046C137.676 218.746 138.496 217.738 138.578 217.336C138.651 216.979 137.316 216.853 135.882 216.688C135.701 216.669 135.521 216.645 135.339 216.623C133.721 216.42 132.536 215.376 131.067 214.518C129.674 213.706 127.597 210.397 127.597 210.397L123.889 210.691C123.889 210.691 125.834 213.647 126.587 214.932C127.03 215.688 127.007 216.688 126.951 217.46C126.922 217.879 126.895 218.308 126.979 218.728Z" fill="#FFB27D"/>
<path d="M130.818 219.257C132.717 218.793 132.266 219.345 134.97 219.046C137.674 218.746 138.494 217.738 138.576 217.335C138.649 216.979 137.314 216.853 135.88 216.688L135.867 216.716C135.867 216.716 134.246 217.865 131.994 217.92C130.16 217.964 128.217 217.439 126.95 217.46C126.921 217.879 126.894 218.308 126.979 218.728C127.217 219.922 128.917 219.723 130.818 219.257Z" fill="#233862"/>
<path d="M112.767 195.015L109.3 204.343L104.773 216.524C104.773 216.524 103.546 216.643 102.369 216.304C101.286 215.991 100.043 215.172 100.043 215.172C100.043 215.172 101.299 202.093 103.644 194.586C104.245 192.659 104.918 191.1 105.661 190.223C109.297 185.928 112.767 195.015 112.767 195.015Z" fill="#233862"/>
<path d="M109.245 180.2C106.974 179.468 100.496 180.408 93.9887 181.681L92.6263 179.434L78.5713 178.336C78.5713 178.336 73.9337 188.621 76.4728 195.174C76.8454 196.138 77.5881 196.755 78.851 196.776H79.0563C79.0563 196.776 87.4214 196.771 90.1383 196.771C97.1279 196.771 104.931 191.966 105.941 191.764C107.594 191.434 108.254 194.739 109.907 198.208C111.56 201.677 125.438 213.574 125.438 213.574C125.438 213.574 127.571 213.595 128.452 213.264C129.4 212.908 129.746 212.447 129.746 212.447C129.746 212.447 114.368 181.853 109.245 180.2Z" fill="#2B478B"/>
<path d="M92.0705 138.508C90.2701 137.563 87.5297 137.435 87.0852 137.374C81.7586 136.659 78.5541 144.398 78.3645 146.744C78.0167 151.066 75.73 151.725 72.5123 154.433C66.0587 159.86 67.9519 166.167 71.4794 168.511C73.5962 169.917 77.329 168.511 77.329 168.511C77.3813 168.548 87.5349 162.836 92.5399 160.08C100.045 159.011 96.6596 140.918 92.0705 138.508Z" fill="#233862"/>
<path d="M88.3475 157.733C88.3697 157.747 85.8855 158.596 84.2238 157.86C82.6614 157.169 81.4768 154.597 81.5003 154.596C82.2116 154.563 82.9921 153.942 83.5936 149.863L83.8969 149.972L88.9868 151.803C88.9868 151.803 88.6181 153.436 88.3788 154.992C88.1775 156.297 88.0703 157.547 88.3475 157.733Z" fill="#FFB27D"/>
<path d="M88.9838 151.803C88.9838 151.803 88.6151 153.436 88.3758 154.992C85.4524 154.465 84.3044 151.552 83.8926 149.972L88.9838 151.803Z" fill="#ED975D"/>
<path d="M89.7437 153.423C89.7437 153.423 82.7789 152.488 83.4274 148.161C84.0759 143.833 83.6143 140.797 88.0884 141.21C92.5625 141.625 93.1771 143.406 93.3117 144.903C93.4477 146.4 91.5728 153.555 89.7437 153.423Z" fill="#FFB27D"/>
<path d="M93.0564 142.531C93.0564 142.531 88.598 146.374 85.566 146.682C82.534 146.992 81.3848 146.018 81.3848 146.018C81.3848 146.018 83.1721 144.534 84.2481 142.139C84.5645 141.433 85.2352 140.949 86.0066 140.882C88.1704 140.695 92.2758 140.61 93.0564 142.531Z" fill="#233862"/>
<path d="M90.2676 142.186C90.2676 142.186 91.7594 143.628 92.2288 144.698C92.6824 145.729 92.8184 148.199 92.4576 149.18C92.4576 149.18 94.7809 144.661 93.4656 142.466C92.0705 140.137 90.2676 142.186 90.2676 142.186Z" fill="#233862"/>
<path d="M94.2101 167.992C93.9996 182.091 94.1526 179.145 92.6098 180.482C92.2385 180.804 91.1938 180.996 89.8184 181.088C85.4959 181.374 77.8957 180.663 77.6068 179.864C76.6092 177.1 77.3139 176.241 76.4824 172.009C76.3961 171.559 76.2889 171.071 76.162 170.54C75.4678 167.634 74.7931 166.644 77.2538 161.975C79.4856 157.746 81.8037 154.312 82.0129 154.437C87.9003 157.931 88.3749 154.994 88.3749 154.994C88.3749 154.994 94.3134 161.115 94.2101 167.992Z" fill="white"/>
<path d="M109.3 204.343L104.773 216.523C104.773 216.523 103.546 216.642 102.369 216.304C101.286 215.991 100.043 215.172 100.043 215.172C100.043 215.172 101.299 202.093 103.644 194.586L109.3 204.343Z" fill="#2B478B"/>
<path d="M88.375 154.991C88.375 154.991 94.4337 156.019 95.145 158.627C95.8562 161.235 100.043 176.57 100.043 176.57C100.043 176.57 96.9623 177.123 95.5398 175.701C94.1173 174.278 90.5885 162.501 90.5885 162.501L88.375 154.991Z" fill="white"/>
<path d="M89.8204 181.086C85.4979 181.373 77.8977 180.662 77.6088 179.863C76.6112 177.099 77.3159 176.24 76.4844 172.008L78.5698 166.136C78.5698 166.136 78.2246 172.674 80.1531 174.394C82.079 176.113 88.0475 177.713 88.9849 179.15C89.436 179.839 89.7328 180.531 89.8204 181.086Z" fill="#EBF3FF"/>
<path d="M84.8652 178.337C84.8652 178.337 89.1301 177.388 89.8179 177.765C90.5056 178.143 92.1883 179.523 92.3988 180.002C92.6093 180.482 90.8664 179.638 90.3003 179.486C89.9329 179.388 88.9667 179.723 88.4882 179.882C86.4747 180.553 85.2418 180.208 85.2418 180.208L84.8652 178.337Z" fill="#FFB27D"/>
<path d="M82.0104 154.432C82.0104 154.432 76.2838 154.785 74.3017 157.548C71.5116 161.441 65.9758 178.028 69.1477 180.241C72.721 182.731 85.4085 180.892 85.4085 180.892C85.4085 180.892 85.8308 178.919 85.2437 177.963C84.6567 177.009 75.1097 175.466 74.6691 175.025C74.2284 174.585 80.1773 166.433 80.1773 165.111C80.176 163.792 82.0104 154.432 82.0104 154.432Z" fill="white"/>
<path d="M90.0254 178.953C90.0254 178.953 90.9184 180.106 91.2126 180.243C91.5054 180.38 91.695 180.346 91.695 180.346L91.0923 179.263L90.0254 178.953Z" fill="#FFB27D"/>
<path d="M89.8184 177.766L92.4163 179.027C92.4163 179.027 92.3051 179.208 91.9861 179.193C91.6658 179.179 90.8591 178.883 90.8591 178.883L89.8184 177.766Z" fill="#FFB27D"/>
<path d="M91.2109 182.008H111.763L117.944 166.635H97.4253L91.2109 182.008Z" fill="#F99746"/>
<path d="M112.002 181.409H84.8633V182.008H111.761L112.002 181.409Z" fill="#ED7D2B"/>
<path d="M106.573 174.322C106.729 173.782 106.416 173.344 105.875 173.344C105.335 173.344 104.772 173.782 104.616 174.322C104.461 174.862 104.773 175.3 105.314 175.3C105.854 175.301 106.418 174.862 106.573 174.322Z" fill="white"/>
<path d="M198.545 230.935H198.605C198.957 230.935 199.241 230.628 199.233 230.255L198.282 186.613L195.48 186.266L197.869 230.258C197.889 230.639 198.186 230.935 198.545 230.935Z" fill="#78ACEA"/>
<path d="M84.9633 230.935H84.9031C84.5514 230.935 84.2677 230.628 84.2755 230.255L85.2261 186.613L88.0279 186.266L85.6392 230.258C85.6196 230.639 85.3228 230.935 84.9633 230.935Z" fill="#78ACEA"/>
<path d="M201.92 187.416H82.0594C81.0775 187.416 80.2812 186.619 80.2812 185.637V183.926C80.2812 182.944 81.0775 182.148 82.0594 182.148H201.92C202.902 182.148 203.698 182.944 203.698 183.926V185.637C203.698 186.619 202.902 187.416 201.92 187.416Z" fill="#78ACEA"/>
<path d="M55.9376 107.35C55.4852 96.1439 64.8779 91.1651 74.4812 91.1651C84.0844 91.1651 94.5361 93.6532 95.4422 108.554C96.0253 118.14 90.9145 124.038 76.1991 124.038C71.2361 124.038 67.3791 123.255 64.4256 121.86L57.0698 128.396L60.6849 119.362C57.483 116.386 56.1337 112.186 55.9376 107.35Z" fill="#DFEDFB"/>
<path d="M274.215 230.887C274.215 230.887 274.485 228.782 275.11 227.531C275.737 226.28 279.719 227.076 279.719 227.076C279.719 227.076 280.515 227.758 280.687 230.945L274.215 230.887Z" fill="#233862"/>
<path d="M260.647 230.858C261.583 230.287 261.05 226.026 261.05 226.026C261.05 226.026 256.689 222.538 256.089 225.209C255.489 227.88 251.947 229.079 249.93 229.406C248.538 229.632 248.107 230.402 247.973 230.858H260.647Z" fill="#233862"/>
<path d="M269.677 199.866C269.5 200.844 269.387 201.647 269.357 202.221C268.952 210.128 262.701 228.207 261.583 228.629C259.853 229.281 257.128 227.894 255.703 227.44C255.112 227.252 254.714 226.656 254.846 226.052C257.94 211.822 259.079 191.331 259.492 179.201C259.702 173.09 260.75 168.869 260.75 168.869C260.75 168.869 275.995 164.802 276.085 169.947C276.168 174.499 271.037 192.355 269.677 199.866Z" fill="#213F7A"/>
<path d="M269.678 199.866L259.494 179.2C259.703 173.088 260.752 168.868 260.752 168.868C260.752 168.868 275.997 164.801 276.087 169.945C276.168 174.499 271.038 192.355 269.678 199.866Z" fill="#233862"/>
<path d="M266.287 169.965L274.346 228.374C274.346 228.374 277.886 229.228 280.638 228.545C280.638 228.545 282.998 197.482 282.8 189.972C282.604 182.462 284.493 169.876 282.369 168.488C280.244 167.098 266.287 169.965 266.287 169.965Z" fill="#213F7A"/>
<path d="M283.94 168.991C283.979 169.519 283.641 169.999 283.133 170.147C282.009 170.474 280.713 170.7 278.214 171.218C275.865 171.705 272.707 172.137 268.826 172.16C262.654 172.2 260.316 170.072 260.316 170.072C260.05 170.078 260.456 168.786 260.822 162.642C260.946 160.561 261.065 157.923 261.151 154.589C261.23 151.59 261.282 148.026 261.287 143.799C261.294 138.713 269.166 133.243 269.311 133.243L269.312 133.245C269.312 133.978 270.467 135.329 272.244 135.446C274.354 135.584 276.941 134.533 276.941 133.319C276.941 133.307 280.755 139.419 282.11 145.933C282.794 149.212 282.518 149.124 283.94 168.991Z" fill="#6DC38D"/>
<path d="M269.31 133.244C269.31 133.244 261.991 133.181 260.229 135.652C258.468 138.123 254.605 151.414 256.62 155.835C258.636 160.257 262.407 154.006 264.5 151.297C266.595 148.588 269.31 133.244 269.31 133.244Z" fill="#6DC38D"/>
<path d="M269.234 132.126L269.238 132.883C269.238 132.883 269.032 135.25 271.946 135.595C274.86 135.941 277.023 135.153 276.943 133.326C276.68 131.913 276.437 130.461 276.418 129.29C276.411 128.855 276.44 128.395 276.521 127.873L270.874 127.761L269.211 128.033L269.234 132.126Z" fill="#FFB27D"/>
<path d="M269.213 128.034L269.235 132.127C269.835 132.406 270.511 132.576 271.271 132.576C273.866 132.576 275.544 130.674 276.42 129.292C276.413 128.856 276.442 128.396 276.523 127.874L270.876 127.762L269.213 128.034Z" fill="#E2915A"/>
<path d="M276.955 126.966C276.3 130.492 271.75 130.375 269.785 130.154C269.232 130.093 268.884 130.022 268.884 130.022C268.26 129.856 267.913 128.873 267.75 127.587C267.429 125.04 267.835 121.3 268.266 120.343C268.913 118.904 270.133 117.348 274.715 118.471C279.295 119.594 277.796 122.448 276.955 126.966Z" fill="#FFB27D"/>
<path d="M261.826 143.148C261.826 143.148 258.996 149.4 259.078 151.274C259.078 151.274 260.48 151.225 261.826 151.627C264.038 152.287 261.826 143.148 261.826 143.148Z" fill="#23A462"/>
<path d="M266.862 116.987C266.862 116.987 268.878 116.832 271.258 115.797C273.187 114.958 275.623 115.882 276.414 116.299C276.393 116.173 276.342 115.999 276.222 115.824C276.222 115.824 276.576 116.075 276.63 116.428C276.667 116.455 276.682 116.473 276.673 116.48C276.673 116.48 277.076 116.407 277.335 116.523C277.335 116.523 277.154 116.497 277.089 116.613C277.082 116.625 277.072 116.635 277.06 116.646C280.071 118.101 280.35 122.86 279.381 123.961C278.215 125.286 276.455 128.284 276.455 128.284C276.455 128.284 276.307 127.564 276.52 126.398C276.732 125.232 275.725 125.232 274.453 124.702C273.181 124.173 274.241 122.689 273.129 121.788C272.016 120.887 267.935 121.417 267.988 120.728C266.47 120.175 266.862 117.141 266.862 116.987Z" fill="#233862"/>
<path d="M277.879 154.86C276.684 159.658 263.76 162.139 260.822 162.643C260.946 160.562 261.065 157.925 261.152 154.591L277.879 154.86Z" fill="#23A462"/>
<path d="M275.042 156.42C275.165 156.42 277.916 156.009 278.408 155.764C278.899 155.518 281.153 152.316 279.677 151.495C278.202 150.674 274.242 153.957 274.242 153.957L275.042 156.42Z" fill="#FFB27D"/>
<path d="M258.316 157.37C258.316 157.37 268.952 157.947 276.09 156.419C276.09 156.419 276.27 154.357 274.027 153.44C274.027 153.44 262.903 151.083 260.229 151.739C257.558 152.397 258.316 157.37 258.316 157.37Z" fill="#6DC38D"/>
<path d="M282.742 149.024C280.535 151.686 277.65 153.857 274.469 154.367L274.467 154.366C274.441 154.325 273.504 152.904 273.68 150.814C273.761 149.846 274.08 148.736 274.839 147.553C275.071 147.189 275.279 146.764 275.464 146.292C277.201 141.86 276.942 133.319 276.942 133.319C276.942 133.319 284.319 134.091 286.618 137.374C288.026 139.386 286.231 144.816 282.742 149.024Z" fill="#6DC38D"/>
<path d="M269.786 130.154C269.233 130.093 268.886 130.022 268.886 130.022C268.262 129.856 267.914 128.873 267.752 127.587C268.922 127.874 269.458 128.779 269.68 129.163C269.781 129.336 269.802 129.724 269.786 130.154Z" fill="#E2915A"/>
<path d="M266.815 132.148C266.815 132.148 264.267 127.945 266.249 127.762C268.23 127.579 269.026 128.92 269.312 129.412C269.599 129.905 269.238 132.126 269.238 132.126L266.815 132.148Z" fill="#FFB27D"/>
<path d="M276.524 150.674C276.445 151.207 276.287 151.696 276.089 152.133C275.467 153.515 274.467 154.367 274.467 154.367L274.466 154.366C267.849 151.38 266.51 141.124 266.286 135.489C266.196 133.224 266.286 131.705 266.286 131.705C269.271 130.717 270.11 132.435 270.11 132.435C270.11 132.435 273.634 140.816 275.463 146.292C276.163 148.388 276.614 150.06 276.524 150.674Z" fill="#6DC38D"/>
<path d="M282.741 149.024C280.534 151.686 277.649 153.857 274.468 154.367L274.467 154.366C267.85 151.38 266.511 141.124 266.287 135.489C266.287 135.489 269.418 146.844 273.679 150.814C274.45 151.531 275.258 152.009 276.089 152.131C276.089 152.131 281.463 150.612 282.59 149.183C282.671 149.081 282.719 149.03 282.741 149.024Z" fill="#23A462"/>
<path d="M162.23 182.149H141.678L135.496 166.775H156.017L162.23 182.149Z" fill="#2B478B"/>
<path d="M141.438 181.55H168.576V182.149H141.678L141.438 181.55Z" fill="#2B478B"/>
<path d="M146.864 174.463C146.709 173.923 147.021 173.485 147.562 173.485C148.102 173.485 148.666 173.923 148.821 174.463C148.977 175.003 148.663 175.441 148.123 175.441C147.583 175.441 147.02 175.003 146.864 174.463Z" fill="white"/>
<path d="M287.541 230.453V230.593C287.541 230.816 287.398 231 287.224 231H8.17583C8.00163 231 7.85938 230.816 7.85938 230.593V230.453C7.85938 230.23 8.0026 230.045 8.17583 230.045H287.224C287.398 230.045 287.541 230.23 287.541 230.453Z" fill="#2E3552"/>
</svg>
