<svg width="294" height="257" viewBox="0 0 294 257" fill="none" xmlns="http://www.w3.org/2000/svg">
<g opacity="0.36">
<path d="M16.5261 157.183C3.92791 135.019 -4.48277 108.574 3.53019 84.9333C11.1351 62.4963 33.1941 51.0233 54.8806 45.626C77.5579 39.9819 101.366 39.3383 124.286 34.5411C148.331 29.5091 171.967 22.4909 194.821 13.4753C205.186 9.38658 215.436 4.87405 226.236 2.12874C245.705 -2.82026 269.595 0.303804 282.313 17.4106C295.593 35.2733 296.195 61.1284 286.606 80.8003C275.65 103.274 255.998 120.895 248.783 145.303C244.409 160.099 245.439 176.175 240.276 190.691C235.22 204.908 227.572 218.329 217.083 229.246C205.113 241.705 189.325 250.76 172.245 253.369C148.662 256.971 124.912 248.312 103.751 237.297C75.4578 222.57 49.0832 202.892 29.7727 177.267C25.1946 171.192 20.637 164.416 16.5261 157.183Z" fill="#E9E9F2"/>
</g>
<path d="M287.343 257H6.18383C4.53918 257 3.20605 255.667 3.20605 254.022C3.20605 252.378 4.53918 251.044 6.18383 251.044H287.343C288.987 251.044 290.32 252.378 290.32 254.022C290.32 255.667 288.987 257 287.343 257Z" fill="#141921"/>
<path d="M171.657 150.029H222.295V147.348H168.977C168.977 148.828 170.177 150.029 171.657 150.029Z" fill="#383A50"/>
<path d="M254.944 147.348L254.469 150.028H218.466C217.726 150.028 217.056 149.728 216.571 149.243C216.086 148.758 215.786 148.088 215.786 147.348H254.944Z" fill="#6DC38D"/>
<path d="M261.925 108.005L254.944 147.348L254.469 150.029H252.115L252.59 147.348L259.571 108.005H261.925Z" fill="#6DC38D"/>
<path d="M259.57 108.005L252.582 147.348H195.038L202.287 108.005H259.57Z" fill="white"/>
<path d="M259.57 108.005L252.582 147.348H195.038L202.287 108.005H259.57Z" fill="white"/>
<path d="M256.556 109.843L250.222 145.51H198.053L204.625 109.843H256.556Z" fill="#E9E9F2"/>
<path d="M209.837 149.762H30.7432V157.601H209.837V149.762Z" fill="#E9E9F2"/>
<path d="M262.781 149.762H209.838V157.601H262.781V149.762Z" fill="#D1D1DE"/>
<path d="M197.64 157.601H186.391V251.045H197.64V157.601Z" fill="#D1D1DE"/>
<path d="M200.746 157.601H197.64V251.045H200.746V157.601Z" fill="#B7B7C4"/>
<path d="M252.89 157.601H241.641V251.045H252.89V157.601Z" fill="#D1D1DE"/>
<path d="M255.997 157.601H252.891V251.045H255.997V157.601Z" fill="#B7B7C4"/>
<path d="M49.4944 157.601H38.2451V251.045H49.4944V157.601Z" fill="#D1D1DE"/>
<path d="M52.6028 157.601H49.4961V251.045H52.6028V157.601Z" fill="#B7B7C4"/>
<path d="M90.5474 149.762H63.209C61.9344 149.762 60.8906 147.985 60.8906 145.813C60.8906 145.599 60.9009 145.39 60.9199 145.185C61.0962 147.064 62.0585 148.511 63.209 148.511H88.8585C88.8711 148.535 88.8854 148.559 88.8988 148.582C88.9415 148.657 88.9858 148.728 89.0324 148.797C89.0562 148.831 89.0799 148.867 89.1052 148.899C89.1692 148.986 89.2349 149.067 89.3044 149.142C89.3211 149.16 89.3369 149.178 89.3535 149.194C89.3867 149.229 89.4207 149.261 89.4555 149.293C89.4721 149.309 89.4895 149.325 89.5069 149.339C89.559 149.384 89.6128 149.427 89.6674 149.465C89.6856 149.477 89.7037 149.489 89.7219 149.502C89.7393 149.514 89.7567 149.525 89.7741 149.535C89.7757 149.537 89.7781 149.537 89.7796 149.539C89.7978 149.55 89.8152 149.56 89.8334 149.57C89.8516 149.581 89.8706 149.591 89.8896 149.6C89.9085 149.609 89.9275 149.619 89.9473 149.628C89.9663 149.637 89.986 149.645 90.005 149.652C90.0248 149.66 90.0437 149.669 90.0635 149.675C90.0833 149.682 90.1023 149.688 90.122 149.696C90.1371 149.7 90.1521 149.705 90.1671 149.708C90.2343 149.727 90.3023 149.742 90.3711 149.751C90.3909 149.754 90.4098 149.756 90.4288 149.757C90.4344 149.758 90.4399 149.758 90.4454 149.758C90.4786 149.761 90.5126 149.762 90.5474 149.762Z" fill="#5CA073"/>
<path d="M90.5475 141.864C89.9094 141.864 89.3298 142.308 88.9099 143.024C88.8941 143.05 88.8783 143.078 88.8633 143.106C88.8538 143.122 88.8451 143.137 88.8372 143.154C88.7708 143.276 88.7107 143.405 88.6545 143.541C88.6363 143.584 88.6182 143.628 88.6016 143.674C88.5604 143.781 88.5217 143.893 88.4877 144.008C88.4758 144.048 88.464 144.087 88.4529 144.128C88.4284 144.216 88.4055 144.305 88.3849 144.396C88.3802 144.415 88.3754 144.436 88.3715 144.456C88.3643 144.49 88.3572 144.523 88.3509 144.557C88.3454 144.583 88.3406 144.608 88.3359 144.635C88.324 144.698 88.3129 144.764 88.3035 144.83C88.2995 144.853 88.2955 144.879 88.2924 144.903L88.2813 144.988C88.2789 145.01 88.2758 145.031 88.2734 145.053C88.2679 145.098 88.2639 145.142 88.2592 145.186V145.187C88.2544 145.236 88.2505 145.286 88.2465 145.336C88.2457 145.34 88.2457 145.344 88.2457 145.347C88.2426 145.393 88.2394 145.438 88.2378 145.484C88.237 145.492 88.237 145.502 88.237 145.511C88.2347 145.558 88.2331 145.606 88.2323 145.655C88.2307 145.707 88.2299 145.76 88.2299 145.814C88.2299 145.856 88.2307 145.898 88.2307 145.94C88.2315 145.966 88.2315 145.991 88.2331 146.017C88.237 146.175 88.2473 146.331 88.2631 146.484C88.2695 146.54 88.275 146.595 88.2821 146.651C88.2869 146.686 88.2916 146.722 88.2971 146.758C88.3011 146.787 88.305 146.815 88.3098 146.843C88.3469 147.078 88.3975 147.305 88.4584 147.521C88.4663 147.55 88.475 147.578 88.4829 147.606C88.5581 147.856 88.6482 148.09 88.7526 148.305C88.7636 148.328 88.7755 148.351 88.7866 148.374C88.7976 148.397 88.8095 148.42 88.8222 148.442C88.8332 148.465 88.8459 148.487 88.8585 148.509H63.209C62.0585 148.509 61.0962 147.062 60.9199 145.184C60.9998 144.347 61.2346 143.597 61.5715 143.022C61.9913 142.306 62.5709 141.862 63.2082 141.862H90.5475V141.864Z" fill="#6DC38D"/>
<path d="M90.5475 148.511H63.209C62.0585 148.511 61.0962 147.064 60.9199 145.185C60.9998 144.349 61.2346 143.598 61.5715 143.024C61.9913 142.308 62.5709 141.864 63.2082 141.864H88.8577C88.4679 142.57 88.2283 143.521 88.2283 144.562C88.2283 144.774 88.2378 144.983 88.2584 145.187V145.188C88.4355 147.065 89.397 148.511 90.5475 148.511Z" fill="#6DC38D"/>
<path d="M119.188 149.762H90.547C90.5122 149.762 90.4782 149.761 90.4442 149.757C90.4387 149.757 90.4332 149.757 90.4276 149.756C90.4079 149.756 90.3889 149.752 90.3699 149.75C90.3011 149.742 90.2331 149.727 90.1659 149.707C90.1517 149.703 90.1359 149.699 90.1209 149.695C90.1011 149.688 90.0821 149.682 90.0623 149.674C90.0426 149.667 90.0236 149.659 90.0038 149.651C89.9841 149.644 89.9651 149.635 89.9461 149.627C89.9271 149.619 89.9074 149.609 89.8884 149.599C89.8694 149.59 89.8504 149.58 89.8322 149.568C89.8141 149.559 89.7967 149.548 89.7785 149.538C89.7769 149.537 89.7745 149.537 89.7729 149.534C89.7555 149.524 89.7381 149.513 89.7208 149.501C89.7026 149.489 89.6836 149.477 89.6662 149.464C89.6116 149.426 89.5587 149.383 89.5057 149.338C89.4883 149.323 89.4709 149.308 89.4543 149.292C89.4195 149.261 89.3863 149.229 89.3523 149.193C89.3357 149.176 89.3191 149.159 89.3033 149.141C89.2337 149.067 89.1681 148.985 89.104 148.898C89.0795 148.865 89.055 148.831 89.0313 148.796C88.9846 148.728 88.9403 148.657 88.8976 148.581C88.8842 148.559 88.8708 148.535 88.8573 148.51C88.8455 148.488 88.8328 148.466 88.8209 148.443C88.8083 148.421 88.7972 148.398 88.7861 148.375C88.7751 148.352 88.7632 148.329 88.7521 148.306C88.6486 148.09 88.5576 147.856 88.4825 147.607C88.4746 147.579 88.4659 147.55 88.458 147.522C88.3971 147.306 88.3465 147.079 88.3094 146.844C88.3046 146.816 88.2999 146.787 88.2967 146.759C88.2912 146.723 88.2864 146.687 88.2817 146.651C88.2746 146.596 88.269 146.541 88.2627 146.485C88.2469 146.331 88.2366 146.175 88.2327 146.018C88.2319 145.992 88.2311 145.967 88.2303 145.94C88.2295 145.899 88.2295 145.857 88.2295 145.815C88.2295 145.761 88.2303 145.709 88.2319 145.656C88.2327 145.607 88.2342 145.559 88.2366 145.512C88.2366 145.502 88.2374 145.494 88.2374 145.485C88.2398 145.439 88.2421 145.394 88.2453 145.348C88.2453 145.344 88.2461 145.34 88.2461 145.336C88.2501 145.287 88.254 145.238 88.2587 145.19C88.2595 145.204 88.2611 145.219 88.2627 145.233C88.269 145.289 88.2746 145.344 88.2817 145.4C88.2864 145.435 88.2912 145.472 88.2967 145.507C88.3007 145.536 88.3046 145.564 88.3094 145.593C88.3465 145.827 88.3971 146.054 88.458 146.27C88.4659 146.299 88.4746 146.327 88.4825 146.356C88.5576 146.605 88.6486 146.839 88.7521 147.055C88.7632 147.078 88.7751 147.1 88.7861 147.123C88.7972 147.146 88.8091 147.169 88.8209 147.191C88.8328 147.214 88.8455 147.236 88.8573 147.259C88.87 147.282 88.8842 147.307 88.8976 147.33C88.9403 147.404 88.9846 147.475 89.0313 147.544C89.055 147.579 89.0787 147.614 89.104 147.646C89.1681 147.734 89.2337 147.814 89.3033 147.89C89.3199 147.907 89.3365 147.924 89.3523 147.942C89.3855 147.977 89.4195 148.009 89.4543 148.041C89.4709 148.056 89.4883 148.072 89.5057 148.086C89.5579 148.132 89.6116 148.174 89.6662 148.212C89.6844 148.225 89.7026 148.237 89.7208 148.249C89.7381 148.261 89.7555 148.272 89.7729 148.283C89.7745 148.284 89.7769 148.285 89.7785 148.287C89.7967 148.297 89.8141 148.308 89.8322 148.317C89.8504 148.328 89.8694 148.338 89.8884 148.347C89.9074 148.356 89.9271 148.366 89.9461 148.374C89.9651 148.384 89.9849 148.392 90.0038 148.399C90.0236 148.407 90.0426 148.415 90.0623 148.422C90.0821 148.429 90.1011 148.435 90.1209 148.442C90.1359 148.447 90.1509 148.452 90.1659 148.455C90.2331 148.474 90.3011 148.489 90.3699 148.498C90.3889 148.5 90.4087 148.503 90.4276 148.504C90.4332 148.505 90.4387 148.505 90.4442 148.505C90.4782 148.509 90.5122 148.509 90.547 148.509H117.499C117.923 149.28 118.524 149.762 119.188 149.762Z" fill="#EAEAEA"/>
<path d="M116.9 145.185C116.881 145.39 116.87 145.6 116.87 145.813C116.87 146.854 117.11 147.804 117.5 148.51H90.5481C90.5133 148.51 90.4793 148.51 90.4453 148.506C90.4397 148.506 90.4342 148.506 90.4287 148.505C90.4089 148.504 90.3899 148.501 90.3709 148.498C90.3022 148.49 90.2341 148.475 90.1669 148.456C90.1527 148.452 90.1369 148.448 90.1219 148.443C90.1021 148.437 90.0831 148.43 90.0634 148.423C90.0436 148.415 90.0246 148.408 90.0048 148.4C89.9851 148.392 89.9661 148.384 89.9471 148.375C89.9282 148.367 89.9084 148.357 89.8894 148.347C89.8704 148.338 89.8514 148.328 89.8333 148.317C89.8151 148.308 89.7977 148.297 89.7795 148.287C89.7779 148.287 89.7755 148.286 89.774 148.283C89.7566 148.273 89.7392 148.262 89.7218 148.25C89.7036 148.238 89.6846 148.226 89.6672 148.213C89.6127 148.175 89.5597 148.133 89.5067 148.087C89.4893 148.072 89.4719 148.057 89.4553 148.041C89.4205 148.01 89.3873 147.978 89.3533 147.943C89.3367 147.925 89.3201 147.908 89.3043 147.89C89.2347 147.816 89.1691 147.735 89.105 147.647C89.0805 147.614 89.056 147.58 89.0323 147.545C88.9856 147.477 88.9414 147.406 88.8987 147.331C88.8852 147.308 88.8718 147.284 88.8583 147.259C88.8465 147.237 88.8338 147.215 88.822 147.192C88.8093 147.17 88.7982 147.147 88.7872 147.124C88.7761 147.101 88.7642 147.078 88.7532 147.055C88.6496 146.84 88.5587 146.605 88.4835 146.356C88.4756 146.328 88.4669 146.3 88.459 146.271C88.3981 146.055 88.3475 145.828 88.3104 145.593C88.3056 145.565 88.3009 145.536 88.2977 145.508C88.2922 145.472 88.2874 145.436 88.2827 145.4C88.2756 145.345 88.27 145.29 88.2637 145.234C88.2621 145.219 88.2613 145.205 88.2598 145.191C88.2598 145.19 88.2598 145.19 88.2598 145.189V145.189C88.2637 145.144 88.2685 145.1 88.274 145.056C88.2764 145.034 88.2787 145.012 88.2819 144.991L88.293 144.905C88.2961 144.881 88.3001 144.856 88.304 144.832C88.3135 144.766 88.3246 144.701 88.3365 144.637C88.3412 144.611 88.346 144.585 88.3515 144.559C88.3578 144.525 88.3649 144.492 88.372 144.459C88.376 144.438 88.3815 144.418 88.3855 144.399C88.4061 144.308 88.429 144.218 88.4535 144.131C88.4646 144.09 88.4764 144.051 88.4883 144.01C88.5231 143.895 88.561 143.783 88.6021 143.676C88.6195 143.631 88.6369 143.587 88.6551 143.543C88.7113 143.408 88.7721 143.278 88.8378 143.156C88.8457 143.14 88.8552 143.124 88.8639 143.108C88.8789 143.081 88.8947 143.053 88.9105 143.026C89.3304 142.31 89.9108 141.866 90.5481 141.866H119.189C118.551 141.866 117.971 142.31 117.551 143.026C117.214 143.598 116.98 144.349 116.9 145.185Z" fill="white"/>
<path d="M119.189 148.51H90.5481C90.5133 148.51 90.4793 148.51 90.4453 148.506C90.4397 148.506 90.4342 148.506 90.4287 148.505C90.4089 148.504 90.3899 148.501 90.3709 148.498C90.3022 148.49 90.2341 148.475 90.1669 148.456C90.1527 148.452 90.1369 148.448 90.1219 148.443C90.1021 148.437 90.0831 148.43 90.0634 148.423C90.0436 148.415 90.0246 148.408 90.0048 148.4C89.9851 148.392 89.9661 148.384 89.9471 148.375C89.9282 148.367 89.9084 148.357 89.8894 148.347C89.8704 148.338 89.8514 148.328 89.8333 148.317C89.8151 148.308 89.7977 148.297 89.7795 148.287C89.7779 148.287 89.7755 148.286 89.774 148.283C89.7566 148.273 89.7392 148.262 89.7218 148.25C89.7036 148.238 89.6846 148.226 89.6672 148.213C89.6127 148.175 89.5597 148.133 89.5067 148.087C89.4893 148.072 89.4719 148.057 89.4553 148.041C89.4205 148.01 89.3873 147.978 89.3533 147.943C89.3367 147.925 89.3201 147.908 89.3043 147.89C89.2347 147.816 89.1691 147.735 89.105 147.647C89.0805 147.614 89.056 147.58 89.0323 147.545C88.9856 147.477 88.9414 147.406 88.8987 147.331C88.8852 147.308 88.8718 147.284 88.8583 147.259C88.8465 147.237 88.8338 147.215 88.822 147.192C88.8093 147.17 88.7982 147.147 88.7872 147.124C88.7761 147.101 88.7642 147.078 88.7532 147.055C88.6496 146.84 88.5587 146.605 88.4835 146.356C88.4756 146.328 88.4669 146.3 88.459 146.271C88.3981 146.055 88.3475 145.828 88.3104 145.593C88.3056 145.565 88.3009 145.536 88.2977 145.508C88.2922 145.472 88.2874 145.436 88.2827 145.4C88.2756 145.345 88.27 145.29 88.2637 145.234C88.2621 145.219 88.2613 145.205 88.2598 145.191C88.2598 145.19 88.2598 145.19 88.2598 145.189V145.189C88.2637 145.144 88.2685 145.1 88.274 145.056C88.2764 145.034 88.2787 145.012 88.2819 144.991L88.293 144.905C88.2961 144.881 88.3001 144.856 88.304 144.832C88.3135 144.766 88.3246 144.701 88.3365 144.637C88.3412 144.611 88.346 144.585 88.3515 144.559C88.3578 144.525 88.3649 144.492 88.372 144.459C88.376 144.438 88.3815 144.418 88.3855 144.399C88.4061 144.308 88.429 144.218 88.4535 144.131C88.4646 144.09 88.4764 144.051 88.4883 144.01C88.5231 143.895 88.561 143.783 88.6021 143.676C88.6195 143.631 88.6369 143.587 88.6551 143.543C88.7113 143.408 88.7721 143.278 88.8378 143.156C88.8457 143.14 88.8552 143.124 88.8639 143.108C88.8789 143.081 88.8947 143.053 88.9105 143.026C89.3304 142.31 89.9108 141.866 90.5481 141.866H117.5C117.11 142.572 116.87 143.523 116.87 144.565C116.87 144.777 116.88 144.985 116.9 145.188C117.076 147.064 118.038 148.51 119.189 148.51Z" fill="white"/>
<path d="M89.9834 143.648H115.6" stroke="#E9E9F2" stroke-width="4" stroke-miterlimit="10"/>
<path d="M89.9834 145.086H115.6" stroke="#E9E9F2" stroke-width="4" stroke-miterlimit="10"/>
<path d="M89.9834 146.515H115.6" stroke="#E9E9F2" stroke-width="4" stroke-miterlimit="10"/>
<path d="M89.5332 142.079H116.872C118.146 142.079 119.19 140.302 119.19 138.13C119.19 137.916 119.18 137.707 119.161 137.502C118.984 139.381 118.022 140.828 116.872 140.828H91.2221C91.2095 140.852 91.1953 140.876 91.1818 140.899C91.1391 140.973 91.0948 141.044 91.0482 141.113C91.0245 141.148 91.0008 141.184 90.9754 141.215C90.9114 141.303 90.8458 141.384 90.7762 141.459C90.7596 141.477 90.7438 141.494 90.7272 141.511C90.694 141.546 90.66 141.578 90.6252 141.61C90.6086 141.626 90.5912 141.641 90.5738 141.656C90.5216 141.701 90.4678 141.743 90.4133 141.781C90.3951 141.794 90.3769 141.806 90.3587 141.819C90.3413 141.83 90.3239 141.842 90.3065 141.852C90.3049 141.853 90.3026 141.855 90.301 141.856C90.2828 141.867 90.2654 141.877 90.2472 141.887C90.229 141.898 90.21 141.908 90.1911 141.917C90.1721 141.926 90.1531 141.936 90.1334 141.944C90.1144 141.954 90.0946 141.962 90.0756 141.969C90.0559 141.977 90.0369 141.985 90.0171 141.992C89.9974 141.999 89.9784 142.006 89.9586 142.012C89.9436 142.017 89.9286 142.022 89.9135 142.025C89.8463 142.044 89.7783 142.059 89.7095 142.068C89.6898 142.071 89.6708 142.073 89.6518 142.074C89.6463 142.075 89.6407 142.075 89.6352 142.075C89.602 142.078 89.5672 142.079 89.5332 142.079Z" fill="#5CA073"/>
<path d="M89.5332 134.18C90.1713 134.18 90.7509 134.624 91.1708 135.34C91.1866 135.366 91.2024 135.394 91.2174 135.422C91.2269 135.438 91.2356 135.453 91.2435 135.47C91.3099 135.592 91.37 135.721 91.4261 135.857C91.4443 135.9 91.4625 135.944 91.4791 135.989C91.5202 136.097 91.559 136.209 91.593 136.324C91.6048 136.363 91.6167 136.403 91.6278 136.444C91.6523 136.532 91.6752 136.621 91.6958 136.712C91.7005 136.731 91.7053 136.752 91.7092 136.772C91.7163 136.805 91.7234 136.839 91.7298 136.873C91.7353 136.899 91.7401 136.924 91.7448 136.951C91.7567 137.014 91.7677 137.08 91.7772 137.145C91.7812 137.169 91.7851 137.195 91.7883 137.219L91.7994 137.304C91.8017 137.326 91.8049 137.347 91.8073 137.369C91.8128 137.414 91.8168 137.458 91.8215 137.502V137.503C91.8262 137.552 91.8302 137.602 91.8341 137.652C91.8349 137.655 91.8349 137.659 91.8349 137.663C91.8381 137.708 91.8413 137.754 91.8428 137.8C91.8436 137.808 91.8436 137.818 91.8436 137.827C91.846 137.874 91.8476 137.922 91.8484 137.971C91.85 138.023 91.8508 138.076 91.8508 138.13C91.8508 138.171 91.85 138.214 91.85 138.256C91.8492 138.282 91.8492 138.307 91.8476 138.333C91.8436 138.49 91.8334 138.647 91.8175 138.8C91.8112 138.856 91.8057 138.911 91.7986 138.966C91.7938 139.002 91.7891 139.038 91.7835 139.074C91.7796 139.102 91.7756 139.131 91.7709 139.159C91.7337 139.394 91.6831 139.621 91.6222 139.837C91.6143 139.865 91.6056 139.894 91.5977 139.922C91.5226 140.171 91.4317 140.406 91.3281 140.621C91.317 140.644 91.3052 140.667 91.2941 140.69C91.283 140.713 91.2712 140.736 91.2585 140.758C91.2474 140.781 91.2348 140.803 91.2221 140.825H116.872C118.022 140.825 118.984 139.378 119.161 137.5C119.081 136.663 118.846 135.913 118.509 135.338C118.089 134.622 117.51 134.178 116.872 134.178H89.5332V134.18Z" fill="#6DC38D"/>
<path d="M89.5332 140.827H116.872C118.022 140.827 118.984 139.38 119.161 137.501C119.081 136.665 118.846 135.914 118.509 135.34C118.089 134.624 117.51 134.18 116.872 134.18H91.2229C91.6128 134.886 91.8523 135.837 91.8523 136.878C91.8523 137.09 91.8428 137.299 91.8223 137.503V137.504C91.6452 139.381 90.6837 140.827 89.5332 140.827Z" fill="#6DC38D"/>
<path d="M60.8906 142.079H89.5314C89.5662 142.079 89.6002 142.078 89.6342 142.074C89.6397 142.074 89.6452 142.074 89.6508 142.073C89.6705 142.072 89.6895 142.069 89.7085 142.067C89.7773 142.059 89.8453 142.044 89.9125 142.024C89.9267 142.02 89.9425 142.016 89.9576 142.011C89.9773 142.005 89.9963 141.999 90.0161 141.991C90.0358 141.984 90.0548 141.976 90.0746 141.968C90.0944 141.961 90.1133 141.952 90.1323 141.943C90.1513 141.935 90.1711 141.924 90.19 141.915C90.209 141.906 90.228 141.896 90.2462 141.884C90.2643 141.875 90.2817 141.864 90.2999 141.854C90.3015 141.853 90.3039 141.853 90.3055 141.85C90.3229 141.84 90.3403 141.829 90.3577 141.817C90.3758 141.805 90.3948 141.793 90.4122 141.78C90.4668 141.742 90.5197 141.7 90.5727 141.654C90.5901 141.639 90.6075 141.624 90.6241 141.608C90.6589 141.577 90.6921 141.545 90.7261 141.509C90.7427 141.492 90.7593 141.475 90.7751 141.457C90.8447 141.383 90.9104 141.301 90.9744 141.214C90.9989 141.181 91.0234 141.146 91.0471 141.112C91.0938 141.044 91.1381 140.972 91.1808 140.897C91.1942 140.874 91.2077 140.851 91.2211 140.826C91.233 140.804 91.2456 140.782 91.2575 140.759C91.2701 140.737 91.2812 140.714 91.2923 140.691C91.3033 140.668 91.3152 140.645 91.3263 140.622C91.4298 140.406 91.5208 140.172 91.5959 139.923C91.6038 139.895 91.6125 139.866 91.6204 139.838C91.6813 139.622 91.7319 139.395 91.7691 139.16C91.7738 139.132 91.7785 139.103 91.7817 139.075C91.7872 139.039 91.792 139.003 91.7967 138.967C91.8038 138.912 91.8094 138.857 91.8157 138.8C91.8315 138.647 91.8418 138.491 91.8457 138.334C91.8465 138.308 91.8473 138.283 91.8481 138.256C91.8489 138.215 91.8489 138.173 91.8489 138.131C91.8489 138.077 91.8481 138.025 91.8465 137.972C91.8457 137.923 91.8442 137.875 91.8418 137.828C91.8418 137.818 91.841 137.81 91.841 137.801C91.8386 137.755 91.8363 137.71 91.8331 137.664C91.8331 137.66 91.8323 137.656 91.8323 137.652C91.8284 137.603 91.8244 137.553 91.8197 137.506C91.8189 137.52 91.8173 137.535 91.8157 137.549C91.8094 137.605 91.8038 137.66 91.7967 137.716C91.792 137.752 91.7872 137.788 91.7817 137.823C91.7778 137.852 91.7738 137.88 91.7691 137.909C91.7319 138.143 91.6813 138.37 91.6204 138.586C91.6125 138.615 91.6038 138.643 91.5959 138.672C91.5208 138.921 91.4298 139.155 91.3263 139.371C91.3152 139.393 91.3033 139.416 91.2923 139.439C91.2812 139.462 91.2693 139.485 91.2575 139.507C91.2456 139.53 91.233 139.552 91.2211 139.575C91.2085 139.598 91.1942 139.623 91.1808 139.646C91.1381 139.72 91.0938 139.791 91.0471 139.86C91.0234 139.895 90.9997 139.93 90.9744 139.962C90.9104 140.05 90.8447 140.13 90.7751 140.205C90.7585 140.223 90.7419 140.24 90.7261 140.258C90.6929 140.292 90.6589 140.325 90.6241 140.357C90.6075 140.372 90.5901 140.388 90.5727 140.402C90.5205 140.447 90.4668 140.49 90.4122 140.528C90.394 140.541 90.3758 140.553 90.3577 140.565C90.3403 140.577 90.3229 140.588 90.3055 140.598C90.3039 140.6 90.3015 140.601 90.2999 140.602C90.2817 140.613 90.2643 140.624 90.2462 140.633C90.228 140.644 90.209 140.655 90.19 140.663C90.1711 140.673 90.1513 140.683 90.1323 140.691C90.1133 140.7 90.0936 140.708 90.0746 140.716C90.0548 140.723 90.0358 140.731 90.0161 140.738C89.9963 140.746 89.9773 140.752 89.9576 140.759C89.9425 140.764 89.9275 140.768 89.9125 140.772C89.8453 140.791 89.7773 140.806 89.7085 140.814C89.6895 140.817 89.6697 140.82 89.6508 140.821C89.6452 140.821 89.6397 140.821 89.6342 140.821C89.6002 140.825 89.5662 140.826 89.5314 140.826H62.5796C62.1565 141.596 61.5548 142.079 60.8906 142.079Z" fill="#EAEAEA"/>
<path d="M63.1805 137.501C63.1995 137.706 63.2097 137.916 63.2097 138.129C63.2097 139.17 62.9702 140.12 62.5804 140.826H89.5322C89.567 140.826 89.601 140.826 89.635 140.822C89.6405 140.822 89.646 140.822 89.6516 140.821C89.6713 140.82 89.6903 140.817 89.7093 140.814C89.7781 140.806 89.8461 140.792 89.9133 140.772C89.9275 140.768 89.9433 140.764 89.9584 140.759C89.9781 140.753 89.9971 140.746 90.0169 140.739C90.0366 140.731 90.0556 140.724 90.0754 140.716C90.0951 140.709 90.1141 140.7 90.1331 140.691C90.1521 140.683 90.1718 140.673 90.1908 140.663C90.2098 140.654 90.2288 140.644 90.247 140.633C90.2651 140.624 90.2825 140.613 90.3007 140.603C90.3023 140.602 90.3047 140.601 90.3063 140.599C90.3237 140.588 90.3411 140.577 90.3584 140.565C90.3766 140.554 90.3956 140.542 90.413 140.528C90.4676 140.49 90.5205 140.448 90.5735 140.403C90.5909 140.387 90.6083 140.372 90.6249 140.357C90.6597 140.325 90.6929 140.293 90.7269 140.258C90.7435 140.24 90.7601 140.223 90.7759 140.206C90.8455 140.131 90.9111 140.05 90.9752 139.962C90.9997 139.93 91.0242 139.895 91.0479 139.86C91.0946 139.792 91.1389 139.721 91.1816 139.646C91.195 139.623 91.2085 139.599 91.2219 139.575C91.2338 139.552 91.2464 139.53 91.2583 139.507C91.2709 139.485 91.282 139.462 91.2931 139.439C91.3041 139.417 91.316 139.394 91.3271 139.371C91.4306 139.155 91.5216 138.921 91.5967 138.672C91.6046 138.643 91.6133 138.615 91.6212 138.586C91.6821 138.37 91.7327 138.143 91.7698 137.909C91.7746 137.88 91.7793 137.852 91.7825 137.823C91.788 137.788 91.7928 137.751 91.7975 137.716C91.8046 137.66 91.8102 137.605 91.8165 137.549C91.8181 137.535 91.8189 137.52 91.8205 137.506C91.8205 137.505 91.8205 137.505 91.8205 137.505V137.504C91.8165 137.46 91.8118 137.415 91.8062 137.371C91.8038 137.349 91.8015 137.327 91.7983 137.306L91.7872 137.221C91.7841 137.196 91.7801 137.171 91.7762 137.147C91.7667 137.082 91.7556 137.016 91.7438 136.953C91.739 136.927 91.7343 136.9 91.7287 136.874C91.7224 136.84 91.7153 136.807 91.7082 136.774C91.7042 136.753 91.6987 136.734 91.6947 136.714C91.6742 136.623 91.6512 136.533 91.6267 136.446C91.6157 136.406 91.6038 136.366 91.5919 136.326C91.5571 136.21 91.5192 136.099 91.4781 135.991C91.4607 135.946 91.4433 135.902 91.4251 135.858C91.369 135.723 91.3081 135.593 91.2424 135.472C91.2345 135.455 91.2251 135.439 91.2164 135.423C91.2013 135.396 91.1855 135.368 91.1697 135.341C90.7498 134.626 90.1695 134.181 89.5322 134.181H60.8906C61.5287 134.181 62.1083 134.626 62.5282 135.341C62.8658 135.914 63.1006 136.665 63.1805 137.501Z" fill="white"/>
<path d="M60.8906 140.827H89.5314C89.5662 140.827 89.6002 140.826 89.6342 140.822C89.6397 140.822 89.6452 140.822 89.6508 140.822C89.6705 140.821 89.6895 140.818 89.7085 140.815C89.7773 140.807 89.8453 140.792 89.9125 140.773C89.9267 140.769 89.9425 140.765 89.9576 140.76C89.9773 140.754 89.9963 140.747 90.0161 140.739C90.0358 140.732 90.0548 140.724 90.0746 140.717C90.0944 140.709 90.1133 140.701 90.1323 140.692C90.1513 140.684 90.1711 140.674 90.19 140.664C90.209 140.655 90.228 140.645 90.2462 140.634C90.2643 140.625 90.2817 140.614 90.2999 140.603C90.3015 140.603 90.3039 140.602 90.3055 140.6C90.3229 140.589 90.3403 140.578 90.3577 140.566C90.3758 140.554 90.3948 140.543 90.4122 140.529C90.4668 140.491 90.5197 140.449 90.5727 140.403C90.5901 140.388 90.6075 140.373 90.6241 140.358C90.6589 140.326 90.6921 140.294 90.7261 140.259C90.7427 140.241 90.7593 140.224 90.7751 140.207C90.8447 140.132 90.9104 140.051 90.9744 139.963C90.9989 139.931 91.0234 139.896 91.0471 139.861C91.0938 139.793 91.1381 139.722 91.1808 139.647C91.1942 139.624 91.2077 139.6 91.2211 139.576C91.233 139.553 91.2456 139.531 91.2575 139.508C91.2701 139.486 91.2812 139.463 91.2923 139.44C91.3033 139.417 91.3152 139.394 91.3263 139.372C91.4298 139.156 91.5208 138.922 91.5959 138.673C91.6038 138.644 91.6125 138.616 91.6204 138.587C91.6813 138.371 91.7319 138.144 91.7691 137.91C91.7738 137.881 91.7785 137.853 91.7817 137.824C91.7872 137.789 91.792 137.752 91.7967 137.717C91.8038 137.661 91.8094 137.606 91.8157 137.55C91.8173 137.536 91.8181 137.521 91.8197 137.507C91.8197 137.506 91.8197 137.506 91.8197 137.506V137.505C91.8157 137.46 91.811 137.416 91.8054 137.372C91.8031 137.35 91.8007 137.328 91.7975 137.307L91.7864 137.222C91.7833 137.197 91.7793 137.172 91.7754 137.148C91.7659 137.082 91.7548 137.017 91.743 136.954C91.7382 136.928 91.7335 136.901 91.7279 136.875C91.7216 136.841 91.7145 136.808 91.7074 136.775C91.7034 136.754 91.6979 136.735 91.6939 136.715C91.6734 136.624 91.6505 136.534 91.6259 136.447C91.6149 136.406 91.603 136.367 91.5911 136.327C91.5564 136.211 91.5184 136.1 91.4773 135.992C91.4599 135.947 91.4425 135.903 91.4243 135.859C91.3682 135.724 91.3073 135.594 91.2417 135.473C91.2338 135.456 91.2243 135.44 91.2156 135.424C91.2005 135.397 91.1847 135.369 91.1689 135.342C90.7491 134.627 90.1687 134.182 89.5314 134.182H62.5796C62.9694 134.888 63.209 135.84 63.209 136.881C63.209 137.093 63.1995 137.302 63.1797 137.504C63.0042 139.38 62.0419 140.827 60.8906 140.827Z" fill="white"/>
<path d="M90.0966 135.965H64.4795" stroke="#E9E9F2" stroke-width="4" stroke-miterlimit="10"/>
<path d="M90.0966 137.403H64.4795" stroke="#E9E9F2" stroke-width="4" stroke-miterlimit="10"/>
<path d="M90.0966 138.831H64.4795" stroke="#E9E9F2" stroke-width="4" stroke-miterlimit="10"/>
<path d="M25.9888 250.973C41.0968 251.154 56.2031 251.236 71.3094 251.217C83.6135 251.202 95.916 251.12 108.219 250.973C125.236 220.512 130.524 193.586 122.608 185.596C119.148 182.103 114.318 179.778 114.318 179.778C108.714 177.401 103.229 177.924 95.7365 176.952H95.7009C91.8534 176.451 88.0873 175.555 84.5046 173.666C73.1241 167.659 66.7107 153.511 57.1353 141.585C55.9414 140.092 54.6913 138.645 53.3866 137.241C47.7133 131.184 37.9917 129.347 29.9352 133.215C25.7018 135.247 23.102 138.325 21.6463 140.376C2.17136 167.821 7.42162 204.863 7.42162 204.863C10.3575 225.58 19.1382 241.248 25.9888 250.973Z" fill="#FEC253"/>
<path opacity="0.1" d="M81.3904 217.183C53.6091 224.013 28.1881 208.432 25.918 172.688C24.2433 146.524 42.8564 134.172 57.1206 141.575C66.696 153.488 73.1094 167.65 84.4899 173.655C88.0726 175.545 91.8529 176.446 95.6862 176.947H95.7218C96.1203 177.001 96.5101 177.046 96.8999 177.09C109.574 185.022 102.982 211.881 81.3904 217.183Z" fill="#010101"/>
<path d="M114.628 245.426C114.69 245.078 114.777 244.735 114.886 244.398L120.845 242.88C120.845 242.88 125.883 246.247 128.97 246.838C129.234 246.896 129.503 246.927 129.774 246.932C135.298 246.998 134.014 249.174 134.014 249.174L123.162 251.939L118.383 251.095L118.429 252.788L117.136 253.118C113.889 249.9 114.309 246.856 114.628 245.426Z" fill="#273339"/>
<path d="M115.316 242.911L120.109 241.69C120.109 241.69 125.886 246.227 128.974 246.818C128.109 248.3 125.346 248.455 122.707 247.885C119.75 247.242 115.181 244.274 114.625 245.379C114.763 244.747 115.316 242.911 115.316 242.911Z" fill="#F2A397"/>
<path d="M115.802 244.58L104.482 225.056L112.41 220.34L121.096 243.02" fill="#F2A397"/>
<path d="M102.692 248.318C102.81 247.984 102.949 247.659 103.112 247.344L109.237 246.801C109.237 246.801 113.669 250.933 116.622 252.011C116.874 252.11 117.135 252.184 117.401 252.232C122.844 253.182 121.227 255.125 121.227 255.125L110.073 256.114L105.491 254.515L105.265 256.193L103.935 256.311C101.236 252.616 102.147 249.678 102.692 248.318Z" fill="#273339"/>
<path d="M103.773 245.946L108.699 245.509C108.699 245.509 113.675 250.914 116.628 251.992C115.537 253.315 112.786 253.026 110.272 252.04C107.457 250.931 103.422 247.27 102.696 248.271C102.933 247.67 103.773 245.946 103.773 245.946Z" fill="#F2A397"/>
<path d="M104.187 246.741L94.4404 225.05L103.488 222.313L109.744 247.364L104.187 246.741Z" fill="#F2A397"/>
<path d="M79.716 138.075C79.716 138.075 79.4306 136.442 79.0969 133.357C78.7861 130.48 78.4904 127.52 77.453 124.827C76.3713 122.022 74.4041 119.909 71.8019 118.793C69.2108 117.681 66.3081 117.407 63.5786 118.067C60.0861 118.911 57.1937 121.479 55.5182 124.894C54.4057 127.161 53.7613 129.666 53.3035 132.185C52.7634 135.151 52.1791 137.319 52.1229 137.623C50.1873 148.116 44.4065 166.031 46.8181 167.089C47.2048 167.259 48.0445 167.102 49.0036 166.925C49.716 166.794 50.404 166.589 51.0587 166.318C51.4145 166.544 51.7845 166.749 52.168 166.932C52.7998 172.089 57.113 176.158 62.4677 176.325C64.9378 176.403 67.2372 175.636 69.0929 174.288C69.5705 174.386 70.0623 174.448 70.5668 174.463C75.0691 174.604 78.8692 171.258 79.3768 166.862C80.143 167.213 80.5961 167.11 80.8151 167.026C83.4015 166.038 81.8201 156.924 79.716 138.075Z" fill="#121212"/>
<path d="M72.1233 145.938C72.1534 145.155 72.234 144.373 72.3629 143.599C66.7055 145.083 63.0896 142.217 63.0896 142.217C63.0896 142.217 63.0619 142.821 62.9971 143.552C63.4707 144.005 63.9831 144.42 64.5263 144.787C65.8555 145.684 67.3704 146.288 68.9621 146.406C70.0304 146.487 71.1223 146.326 72.1233 145.938Z" fill="#F2A397"/>
<path d="M79.6299 168.803C79.7983 169.877 82.0621 184.242 82.6685 184.501C82.6749 184.503 82.6828 184.507 82.6931 184.51C82.697 184.513 82.7025 184.514 82.7073 184.515C83.7826 184.894 101.494 189.961 106.033 190.684C106.412 190.901 107.093 191.286 107.833 191.681C108.052 191.774 108.279 191.849 108.507 191.904C108.791 191.974 109.082 192.013 109.373 192.026C109.735 192.04 110.1 192.009 110.458 191.934L110.701 190.999L110.768 190.739L110.918 190.164L111.063 189.606L111.286 188.748L111.444 188.144L111.604 187.527L111.407 186.767L111.374 186.639C111.872 186.039 111.989 185.209 111.679 184.494C111.301 183.87 111.019 185.464 110.308 186.323C109.952 186.753 109.662 186.858 109.364 186.912C109.067 186.965 108.764 186.965 108.383 187.183C107.62 187.618 106.72 188.048 106.72 188.048L106.646 188.232L102.533 186.466L95.5364 183.462H95.5332L88.3054 180.357C88.3054 180.357 87.9433 179.477 87.7014 173.971C87.6737 173.357 87.6484 172.684 87.6247 171.951C87.6104 171.494 87.5946 171.05 87.5796 170.615C87.5669 171.32 87.544 171.964 87.5155 172.541C85.1917 173.14 82.8662 173.74 80.5416 174.34C80.0031 170.587 79.709 168.71 79.6615 168.71C79.6607 168.71 79.6591 168.71 79.6583 168.713C79.6591 168.712 79.6489 168.744 79.6299 168.803Z" fill="#F2A397"/>
<path d="M57.7491 160.223C66.3456 162.688 75.4418 160.705 75.4418 160.705V151.739C74.2352 151.157 73.484 150.702 73.0057 150.2C72.517 149.688 72.3138 149.126 72.1992 148.327C71.1776 148.735 70.0579 148.906 68.9644 148.825C67.3727 148.706 65.8569 148.101 64.5278 147.206C63.8675 146.759 63.25 146.24 62.6957 145.671C62.6649 145.639 62.634 145.608 62.6048 145.577C62.2411 146.715 61.686 147.786 60.9593 148.744C60.3386 149.515 59.2016 149.824 57.5625 150.261C57.8052 153.576 57.8685 156.902 57.7491 160.223Z" fill="#F2A397"/>
<path d="M45.9727 196.249L48.0878 197.068C49.1671 197.482 52.681 198.021 57.0472 198.475H57.048C61.2608 198.912 66.266 199.27 70.6496 199.36C78.355 199.518 80.9596 198.124 81.5297 197.739C81.5423 197.731 81.5518 197.723 81.5621 197.716C81.57 197.71 81.5787 197.705 81.5858 197.699C81.5929 197.694 81.6 197.689 81.6064 197.685C81.6435 197.657 81.6593 197.642 81.6593 197.642C81.6593 197.642 81.4569 196.871 81.1367 195.633C81.0007 195.106 80.8433 194.495 80.6702 193.822V193.821C80.059 191.441 79.2611 188.297 78.5622 185.424C78.5163 185.234 78.4712 185.046 78.4254 184.859C78.3139 184.392 78.2048 183.937 78.1004 183.495C77.2907 182.619 76.1142 181.312 74.4213 179.314C73.8828 178.679 72.9537 179.154 71.3486 179.395C69.7443 179.635 65.4239 181.16 62.9996 181.928C60.5745 182.695 60.6488 182.702 54.1153 182.563C53.1419 182.533 52.171 182.473 51.2023 182.388C50.8244 183.33 50.4354 184.251 50.0977 184.966C49.7846 185.618 49.3347 186.757 48.8453 188.067C48.8129 188.154 48.7796 188.244 48.7472 188.332C48.7298 188.378 48.7132 188.426 48.6958 188.472C48.6895 188.49 48.6824 188.509 48.6753 188.526C48.661 188.565 48.6476 188.604 48.6334 188.642C48.6183 188.681 48.6033 188.72 48.5907 188.759C48.563 188.836 48.5345 188.914 48.5045 188.993C47.7849 190.959 47.033 193.13 46.5372 194.581C46.2154 195.521 46.0011 196.158 45.9742 196.241C45.9734 196.246 45.9727 196.249 45.9727 196.249Z" fill="#F2A397"/>
<path d="M50.7139 167.953L52.9595 177.731C52.9626 177.724 52.9634 177.72 52.9634 177.72C52.8978 177.438 51.9039 173.115 51.8398 172.835C51.7758 172.552 50.7803 168.228 50.7162 167.949C50.7147 167.95 50.7147 167.952 50.7139 167.953Z" fill="#F2A397"/>
<path d="M41.2383 167.148C41.5688 165.986 41.8954 164.867 42.214 163.827C42.0266 164.246 41.8447 164.714 41.6842 165.228C41.47 165.911 41.3292 166.557 41.2383 167.148Z" fill="#408FCD"/>
<path d="M75.4414 151.696V151.739C75.7664 151.895 76.1246 152.061 76.5191 152.24C78.1654 152.986 80.1651 153.66 81.9291 154.451C83.4805 155.146 84.8484 155.929 85.6335 156.929C85.8644 157.222 86.0447 157.534 86.1641 157.867C86.833 159.73 87.162 162.336 87.3747 165.957C87.4561 167.354 87.5209 168.901 87.581 170.614C87.6024 169.267 87.5787 167.697 87.4648 165.949C87.4221 165.283 87.3644 164.593 87.2916 163.878C86.9295 160.327 86.7287 158.517 85.7173 156.905C85.7142 156.901 85.711 156.896 85.7094 156.892C84.8349 155.504 83.6014 154.527 82.2936 153.836C80.169 152.714 77.8483 152.348 76.5476 152.211C76.1396 152.028 75.7735 151.856 75.4414 151.696Z" fill="#6DC38D"/>
<path d="M45.9951 196.238L48.1094 197.057C49.1832 197.469 52.6678 197.999 57.0056 198.448C57.0056 198.448 57.0056 198.448 57.0064 198.448C61.2382 198.884 66.2813 199.242 70.6895 199.333C78.2185 199.488 80.8784 198.158 81.5276 197.739C81.5403 197.731 81.5513 197.723 81.5616 197.717C81.5695 197.711 81.5782 197.706 81.5853 197.7C81.5924 197.695 81.5996 197.689 81.6059 197.686C81.6715 197.64 81.7 197.614 81.7 197.614C81.7 197.614 81.5007 196.853 81.1837 195.629C81.0413 195.078 80.8745 194.433 80.6918 193.722V193.721C80.0877 191.363 79.3034 188.275 78.6139 185.443C78.5656 185.245 78.5174 185.049 78.4708 184.854C78.3648 184.414 78.2612 183.982 78.1616 183.563C77.4682 180.642 76.9645 178.302 77.0103 177.852C77.1392 176.586 79.3484 169.676 79.6291 168.803C79.6228 168.769 79.6196 168.748 79.6189 168.744C79.6189 168.743 79.6189 168.743 79.6189 168.743C79.6189 168.743 79.6189 168.743 79.6181 168.744C79.5801 168.865 77.1076 176.538 76.9708 177.881C76.9257 178.325 77.4175 180.618 78.0999 183.494C77.2902 182.618 76.1137 181.311 74.4208 179.314C73.8823 178.678 72.9533 179.153 71.3481 179.394C69.7438 179.635 65.4234 181.159 62.9991 181.927C60.574 182.695 60.6484 182.701 54.1148 182.563C53.1415 182.532 52.1705 182.472 51.2019 182.387C52.108 180.133 52.9636 177.75 52.9636 177.75L52.9596 177.732C52.8956 177.912 52.0661 180.215 51.1916 182.386C50.816 183.32 50.4333 184.229 50.0973 184.936C49.7834 185.6 49.3327 186.748 48.8448 188.066C48.8124 188.154 48.7792 188.243 48.7468 188.332C48.7294 188.377 48.7128 188.425 48.6954 188.471C48.689 188.489 48.6819 188.508 48.6748 188.525C48.6606 188.564 48.6471 188.603 48.6329 188.641C48.6187 188.68 48.6052 188.719 48.591 188.758C48.5902 188.758 48.5902 188.758 48.5902 188.758C48.5625 188.835 48.5341 188.913 48.504 188.992C47.79 190.963 47.0436 193.133 46.5526 194.58C46.2133 195.582 45.9951 196.238 45.9951 196.238Z" fill="#6DC38D"/>
<path d="M79.6182 168.744C79.6191 168.743 79.6191 168.744 79.6191 168.744C79.6191 168.743 79.6191 168.743 79.6191 168.743C79.6191 168.743 79.6201 168.742 79.6182 168.744Z" fill="#E9E9F2"/>
<path d="M41.1201 168.152C43.8006 169.202 46.4811 170.252 49.1615 171.301C49.3537 170.889 49.5442 170.476 49.7364 170.063C50.0614 169.359 50.3887 168.657 50.7137 167.953C50.7145 167.952 50.7145 167.95 50.7161 167.949C50.7801 168.228 51.7756 172.552 51.8396 172.835C51.9037 173.115 52.8976 177.438 52.9632 177.72C52.9632 177.72 52.9624 177.724 52.9593 177.731L52.9632 177.749C52.9632 177.749 52.1077 180.132 51.2015 182.386C52.1702 182.472 53.1411 182.532 54.1145 182.562C60.648 182.7 60.5729 182.694 62.9988 181.926C65.4231 181.158 69.7435 179.634 71.3478 179.393C72.9529 179.152 73.8812 178.677 74.4205 179.313C76.1126 181.311 77.2891 182.617 78.0996 183.493C77.418 180.617 76.9262 178.324 76.9705 177.88C77.1073 176.537 79.5798 168.863 79.6177 168.743C79.6185 168.742 79.6185 168.742 79.6185 168.742C79.6185 168.742 79.6185 168.742 79.6185 168.743C79.6193 168.747 79.6225 168.768 79.6288 168.802C79.6486 168.743 79.6588 168.711 79.6588 168.711C79.6596 168.709 79.6612 168.708 79.662 168.708C79.7102 168.708 80.0036 170.585 80.5421 174.339C82.8667 173.738 85.1922 173.138 87.516 172.539C87.5445 171.962 87.5682 171.318 87.5801 170.614C87.52 168.9 87.4552 167.353 87.3737 165.956C87.161 162.335 86.8321 159.73 86.1632 157.867C86.0438 157.533 85.8635 157.221 85.6326 156.928C84.8474 155.928 83.4795 155.145 81.9282 154.45C80.1641 153.659 78.1644 152.985 76.5182 152.239C76.1236 152.061 75.7654 151.895 75.4405 151.738V160.704C75.4405 160.704 66.345 162.688 57.7478 160.222C57.8671 156.901 57.8039 153.574 57.5604 150.259C57.0788 150.387 56.553 150.527 55.9861 150.691C55.9663 150.652 55.9465 150.611 55.926 150.572C54.509 150.634 51.9662 150.962 49.3497 152.556C48.8271 152.874 47.7161 153.599 46.5728 154.783C45.9173 155.461 45.2507 156.288 44.6783 157.277C44.483 157.615 44.347 157.886 44.2062 158.171C44.1058 158.374 43.9959 158.622 43.8781 158.91C43.4179 160.036 42.8375 161.774 42.2129 163.825C42.2129 163.825 42.2129 163.825 42.2129 163.827C41.895 164.867 41.5677 165.986 41.2371 167.148C41.2371 167.148 41.2371 167.148 41.2371 167.149C41.2095 167.327 41.1873 167.498 41.1676 167.666C41.1612 167.719 41.1557 167.771 41.1502 167.823C41.143 167.895 41.1359 167.964 41.1304 168.033C41.1304 168.033 41.1296 168.034 41.1304 168.036C41.1264 168.075 41.1233 168.114 41.1201 168.152Z" fill="#6DC38D"/>
<path d="M55.9268 150.572C55.9473 150.612 55.9679 150.652 55.9869 150.692C56.5546 150.527 57.0796 150.388 57.5611 150.26C57.5603 150.251 57.5603 150.243 57.5588 150.233L56.3506 150.559C56.2249 150.562 56.0825 150.565 55.9268 150.572Z" fill="#6DC38D"/>
<path d="M37.2861 183.897V183.9C37.2236 187.739 40.3722 187.911 41.7765 187.113C42.254 186.842 43.4393 184.518 44.8539 181.419C46.4131 178.004 48.2523 173.652 49.7372 170.063C49.5451 170.476 49.3545 170.89 49.1624 171.302C46.4819 170.252 43.8014 169.202 41.121 168.152C41.1241 168.114 41.1273 168.075 41.1312 168.037C41.1305 168.036 41.1312 168.034 41.1312 168.034C41.136 167.965 41.1431 167.895 41.151 167.824C41.1558 167.772 41.1621 167.72 41.1684 167.667C41.1882 167.499 41.2103 167.327 41.238 167.15C41.1621 167.417 41.087 167.686 41.0111 167.955C39.4826 173.407 37.9669 179.54 37.4387 182.45C37.3414 182.982 37.2932 183.463 37.2861 183.897Z" fill="#F2A397"/>
<path d="M61.8708 139.177C60.5883 140.014 58.8543 140.113 57.4927 139.408C56.3422 138.812 55.5033 137.662 55.2589 136.394C55.2155 136.163 55.1909 135.93 55.187 135.693C55.1807 135.279 55.2392 134.862 55.3918 134.478C55.7737 133.532 56.7684 132.886 57.7868 132.852C58.8076 132.818 59.8126 133.365 60.3985 134.202L60.9646 136.115L61.8708 139.177Z" fill="#F2A397"/>
<path d="M57.6464 132.058C57.6868 132.529 57.7492 132.998 57.8315 133.465C58.2316 135.739 59.1124 137.958 60.2297 139.915C60.9176 141.118 61.7241 142.259 62.6943 143.253C62.7939 143.355 62.8943 143.455 62.9979 143.551C63.4715 144.004 63.9839 144.419 64.5271 144.786C65.8563 145.683 67.3713 146.287 68.9629 146.405C70.0304 146.486 71.1231 146.325 72.1242 145.937C72.4721 145.803 72.8081 145.642 73.1291 145.453C74.5342 144.629 75.4166 143.31 76.069 141.849C76.9379 139.902 77.4108 137.789 77.5389 135.647C77.6472 133.829 77.5065 131.99 77.1499 130.213C77.0004 129.465 76.8114 128.728 76.5877 128.008C75.8816 125.739 74.4923 123.618 72.5867 122.176C68.9274 119.41 63.6447 119.834 60.4756 123.147C59.7236 123.932 59.1045 124.839 58.6506 125.826C57.735 127.807 57.4638 129.938 57.6464 132.058Z" fill="#F2A397"/>
<path d="M62.6035 145.577C62.6336 145.608 62.6636 145.64 62.6944 145.672C63.2487 146.24 63.8663 146.76 64.5273 147.206C65.8565 148.102 67.3714 148.706 68.9631 148.826C70.0574 148.907 71.1771 148.736 72.1987 148.328C72.1852 148.24 72.1742 148.15 72.1631 148.057C72.1093 147.352 72.0967 146.644 72.1243 145.938C71.1233 146.326 70.0306 146.487 68.9631 146.407C67.3714 146.288 65.8565 145.684 64.5273 144.788C63.9849 144.421 63.4717 144.005 62.9981 143.553C62.9744 143.815 62.9459 144.093 62.9127 144.367C62.8336 144.776 62.73 145.181 62.6035 145.577Z" fill="#C67F77"/>
<path d="M76.585 127.154C76.2434 126.586 75.7666 125.943 75.1048 125.986C74.862 126.002 74.6375 126.114 74.4018 126.172C73.9116 126.295 73.3668 126.177 72.9707 125.861C72.641 125.599 72.4156 125.214 72.0582 124.99C71.636 124.726 71.0564 124.741 70.6492 125.027C70.2989 125.273 70.0965 125.673 69.8221 126.001C69.1975 126.746 68.1956 127.097 67.2231 127.123C66.2513 127.149 65.2954 126.886 64.371 126.586C63.9314 126.443 63.4356 126.294 63.0253 126.507C62.7406 126.655 62.5635 126.949 62.4378 127.244C62.1167 127.998 62.0416 128.836 62.0756 129.654C62.1167 130.642 62.2931 131.715 61.7688 132.553C61.4012 133.141 60.7022 133.507 60.0095 133.473C59.3596 133.441 58.7737 133.093 58.1514 132.903C57.5291 132.712 56.7408 132.733 56.362 133.262C56.1636 130.569 56.2007 127.758 57.3757 125.326C58.4463 123.11 60.4072 121.362 62.6908 120.442C64.9743 119.522 67.5568 119.416 69.9407 120.029C70.8437 120.262 71.7269 120.597 72.516 121.093C74.5363 122.362 75.886 124.875 76.585 127.154Z" fill="#121212"/>
<path d="M73.0507 135.444C73.1448 135.854 73.5536 136.11 73.964 136.016C74.3743 135.922 74.6297 135.513 74.5357 135.102C74.4416 134.692 74.0328 134.437 73.6224 134.531C73.2128 134.625 72.9566 135.034 73.0507 135.444Z" fill="#121212"/>
<path d="M66.6113 135.371C66.7054 135.782 67.1141 136.037 67.5245 135.943C67.9349 135.849 68.1903 135.44 68.0962 135.03C68.0021 134.619 67.5933 134.364 67.1829 134.458C66.7734 134.553 66.5172 134.961 66.6113 135.371Z" fill="#121212"/>
<path d="M68.7831 129.521C68.9001 130.032 68.553 130.531 68.0335 130.597C67.2491 130.697 66.1144 130.917 65.0984 131.395C64.7204 131.573 64.2705 131.434 64.0784 131.063C63.8942 130.707 64.0389 130.308 64.3528 130.059C64.9948 129.55 66.0156 128.794 67.8951 128.833C68.3165 128.842 68.6882 129.11 68.7831 129.521Z" fill="#121212"/>
<path d="M72.5179 129.584C72.4681 130.093 72.7243 130.579 73.0714 130.631C73.5949 130.711 74.3563 130.899 75.0537 131.347C75.313 131.513 75.6024 131.364 75.71 130.992C75.8128 130.635 75.695 130.243 75.4744 130.004C75.0221 129.515 74.3073 128.793 73.0675 128.879C72.7883 128.899 72.5575 129.175 72.5179 129.584Z" fill="#121212"/>
<path d="M72.324 140.507L68.0788 140.027C68.0788 140.027 67.8123 141.671 69.9741 141.928C72.1359 142.186 72.324 140.507 72.324 140.507Z" fill="white"/>
<path d="M80.2549 195.716L68.3398 185.681L98.5367 183.217L110.389 192.85L80.2549 195.716Z" fill="#B8B8D2"/>
<path d="M110.389 192.85L80.2559 195.716L84.9779 174.144L115.548 172.196L110.389 192.85Z" fill="white"/>
<path d="M111.684 190.477C111.596 191.05 111.33 191.58 110.922 191.991C110.28 192.564 108.852 192.513 108.566 192.037C108.28 191.561 108.898 191.463 109.713 191.126C110.353 190.861 111.012 190.644 111.684 190.477Z" fill="#F2A397"/>
<path d="M111.867 189.911C111.867 189.911 112.222 190.541 110.658 191.011C109.093 191.481 108.269 190.942 108.102 190.358C107.957 189.966 108.157 189.531 108.549 189.386C108.606 189.365 108.666 189.351 108.726 189.344C109.07 189.344 111.34 189.654 111.592 189.665C111.844 189.675 111.948 189.452 111.867 189.911Z" fill="#F2A397"/>
<path d="M112.521 188.082C112.521 188.082 112.521 189.435 112.292 189.773C112.062 190.111 109.999 190.443 109.042 189.859C108.085 189.275 108.348 188.203 108.962 188.232C109.575 188.26 112.521 188.082 112.521 188.082Z" fill="#F2A397"/>
<path d="M112.269 185.251C112.269 185.251 113.49 187.663 112.63 188.351C111.771 189.039 109.283 188.821 108.911 187.87C108.538 186.919 109.484 187.067 110.515 186.907L111.822 186.7L112.269 185.251Z" fill="#F2A397"/>
<path d="M37.5812 186.924C38.666 188.115 42.9927 189.133 48.5909 188.758C48.5909 188.758 48.5909 188.758 48.5917 188.758C49.2677 188.713 49.962 188.646 50.6712 188.559C57.2554 187.739 64.6382 185.119 64.6382 185.119C65.5206 185.336 66.4236 185.457 67.3313 185.481C68.4264 185.453 70.5344 184.747 70.7701 184.839C70.8444 184.869 71.1267 185.098 71.5054 185.423C72.3182 186.118 73.5731 187.243 74.1519 187.704C74.7995 188.22 74.5393 187.208 74.3788 186.699C74.333 186.552 74.295 186.447 74.291 186.433C74.3646 186.492 74.4397 186.547 74.5172 186.601C74.9497 186.904 75.4249 187.142 75.9294 187.303C76.3065 187.369 76.4702 187.11 76.5406 186.891C76.5888 186.744 76.5936 186.615 76.5936 186.615C76.6813 186.651 76.7707 186.685 76.86 186.715C77.3099 186.873 77.7788 186.972 78.2556 187.011C78.6328 186.966 77.9868 185.748 77.6879 185.222C77.6112 185.085 77.5566 184.995 77.5511 184.984C77.5622 184.989 77.6618 185.037 77.8104 185.106H77.8112C78.0026 185.194 78.2778 185.316 78.5616 185.424C78.579 185.431 78.5964 185.438 78.6138 185.444C79.1539 185.647 79.7066 185.79 79.7556 185.555C79.7943 185.37 79.7097 185.23 79.3033 184.788C79.0566 184.519 78.6905 184.136 78.1615 183.564C78.141 183.542 78.1196 183.519 78.0991 183.495C77.2894 182.619 76.1128 181.312 74.4199 179.314C73.8815 178.679 72.9524 179.154 71.3473 179.395C69.7429 179.635 65.4226 181.16 62.9983 181.928C60.5732 182.696 60.6475 182.702 54.114 182.563C53.1406 182.533 52.1696 182.473 51.201 182.388C51.1978 182.388 51.1947 182.388 51.1907 182.387C49.0598 182.198 46.9439 181.875 44.8525 181.42C43.8119 181.194 42.7777 180.935 41.7521 180.645L38.1529 181.447C37.8801 182.208 37.5187 183.062 37.2839 183.899V183.902C36.9637 185.045 36.8791 186.152 37.5812 186.924Z" fill="#F2A397"/>
<path d="M77.5618 185.251C77.6227 185.251 77.6836 185.232 77.7358 185.192C77.8615 185.095 77.8852 184.916 77.7895 184.79C77.7658 184.759 75.4364 181.717 74.5311 180.647C74.4291 180.526 74.248 180.511 74.127 180.613C74.006 180.715 73.991 180.896 74.093 181.017C74.9897 182.076 77.3104 185.108 77.3341 185.138C77.3902 185.212 77.4756 185.251 77.5618 185.251Z" fill="#C67F77"/>
<path d="M76.5925 186.896C76.6526 186.896 76.7135 186.877 76.7649 186.838C76.8914 186.742 76.9159 186.563 76.821 186.436L72.454 180.654C72.3583 180.527 72.1788 180.503 72.0523 180.598C71.9258 180.693 71.9013 180.873 71.9962 180.999L76.3632 186.782C76.4201 186.856 76.5055 186.896 76.5925 186.896Z" fill="#C67F77"/>
<path d="M74.0624 186.6C72.836 184.993 71.306 183.183 70.9628 183.05C70.8118 183.017 70.7138 182.87 70.7422 182.718C70.7707 182.562 70.9201 182.459 71.0759 182.488C71.2332 182.518 71.525 182.572 73.0858 184.454C73.8283 185.349 74.5115 186.243 74.5178 186.253C74.6135 186.379 74.5898 186.558 74.464 186.654C74.4119 186.694 74.351 186.713 74.2901 186.713C74.2039 186.712 74.1185 186.673 74.0624 186.6ZM70.9707 183.051C70.9691 183.051 70.9684 183.05 70.9668 183.05C70.9684 183.05 70.9699 183.051 70.9707 183.051Z" fill="#C67F77"/>
<path d="M57.7978 195.161C69.3934 194.817 80.9882 194.472 92.5839 194.128C98.8786 193.942 104.609 197.738 106.89 203.609C111.66 215.883 116.43 228.157 121.199 240.431L112.142 244.161C105.349 233.23 98.556 222.298 91.7631 211.366C80.6601 218.941 67.5313 217.695 61.4208 210.567C56.5635 204.9 57.5068 197.108 57.7978 195.161Z" fill="#262838"/>
<path d="M46.2822 195.161C57.8778 194.817 69.4726 194.472 81.0682 194.128C87.363 193.942 93.0932 197.738 95.3744 203.609C100.144 215.883 104.914 228.157 109.684 240.431L100.626 244.161C93.8333 233.23 87.0404 222.298 80.2475 211.366C69.1445 218.941 56.0157 217.695 49.9051 210.567C45.0479 204.9 45.9912 197.108 46.2822 195.161Z" fill="#383A50"/>
<path d="M268.338 230.195C268.338 229.506 273.302 216.269 281.713 213.236C278.404 227.3 272.061 232.604 269.441 233.675C268.614 232.401 268.338 230.195 268.338 230.195Z" fill="#6DC38D"/>
<path d="M268.338 218.338C268.338 218.338 272.612 210.478 281.713 211.581C276.473 214.89 268.338 219.807 268.338 219.807V218.338Z" fill="#6DC38D"/>
<path d="M269.129 201.627C269.129 201.627 270.957 188.831 282.678 186.901C275.507 196.691 269.129 201.627 269.129 201.627Z" fill="#6DC38D"/>
<path d="M268.727 207.677C268.727 207.677 283.871 199.173 283.871 194.761C282.905 201.655 278.907 207.584 268.428 210.203C268.153 209.927 268.727 207.677 268.727 207.677Z" fill="#6DC38D"/>
<path d="M276.335 176.56C276.335 176.56 272.061 166.08 276.335 160.841C278.404 164.013 278.128 171.872 276.335 176.56Z" fill="#6DC38D"/>
<path d="M277.787 172.561C277.787 172.561 281.163 165.529 287.092 164.013C284.334 171.045 277.787 172.561 277.787 172.561Z" fill="#6DC38D"/>
<path d="M265.994 184.557C265.994 184.557 260.617 179.179 260.203 172.561C264.891 176.009 265.994 184.557 265.994 184.557Z" fill="#6DC38D"/>
<path d="M257.721 189.658C257.721 189.658 247.381 181.524 246.553 172.561C253.033 175.595 257.721 189.658 257.721 189.658Z" fill="#6DC38D"/>
<path d="M259.513 193.588C259.513 193.588 253.033 193.519 248.207 186.349C253.447 187.452 259.513 193.588 259.513 193.588Z" fill="#6DC38D"/>
<path d="M264.34 209.651C264.34 209.651 249.448 200.414 240.762 200.965C247.243 196.829 260.341 200.965 264.34 209.651Z" fill="#6DC38D"/>
<path d="M267.511 233.674C267.511 233.674 260.617 229.919 258.824 220.406C264.064 220.681 268.614 230.26 267.511 233.674Z" fill="#6DC38D"/>
<path d="M268.34 212.684C268.34 212.684 264.479 205.377 265.996 201.102C268.202 204.257 269.029 209.927 268.34 212.684Z" fill="#6DC38D"/>
<path d="M261.443 199.35C261.443 199.35 264.752 190.9 270.544 189.658C268.889 193.519 261.443 199.35 261.443 199.35Z" fill="#6DC38D"/>
<path d="M257.264 188.383C257.264 188.383 266.607 211.305 268.576 232.401C264.341 198.759 277.786 172.561 277.786 172.561" stroke="#109490" stroke-width="2.4752" stroke-miterlimit="10"/>
<path d="M265.775 183.304C265.775 183.304 266.441 191.53 269.888 197.304L265.775 183.304Z" fill="#6DC38D"/>
<path d="M281.017 236.548H255.751C255.587 236.548 255.453 236.414 255.453 236.25V230.656C255.453 230.492 255.587 230.358 255.751 230.358H281.018C281.183 230.358 281.316 230.492 281.316 230.656V236.25C281.315 236.414 281.183 236.548 281.017 236.548Z" fill="#FEC253"/>
<path d="M273.713 251.045H263.052C262.289 251.045 261.623 250.534 261.426 249.798L257.875 236.548H278.889L275.338 249.798C275.141 250.534 274.474 251.045 273.713 251.045Z" fill="#F9A145"/>
<path d="M259.316 241.928L278.889 236.548H257.875L259.316 241.928Z" fill="#F18421"/>
<path d="M221.643 113.951H91.6587C90.8466 113.951 90.1816 113.286 90.1816 112.474V19.1628C90.1816 18.3507 90.8466 17.6857 91.6587 17.6857H221.643C222.455 17.6857 223.12 18.3507 223.12 19.1628V112.474C223.12 113.287 222.456 113.951 221.643 113.951Z" fill="#383A50"/>
<path d="M223.12 25.4947V19.1153C223.12 18.3294 222.477 17.6865 221.691 17.6865H91.6104C90.8245 17.6865 90.1816 18.3294 90.1816 19.1153V25.4947H223.12Z" fill="#D9D9E7"/>
<path d="M209.113 21.3783C209.113 22.1287 208.505 22.7367 207.755 22.7367C207.005 22.7367 206.396 22.1287 206.396 21.3783C206.396 20.6279 207.005 20.0199 207.755 20.0199C208.505 20.0199 209.113 20.6287 209.113 21.3783Z" fill="white"/>
<path d="M213.782 21.3783C213.782 22.1287 213.174 22.7367 212.424 22.7367C211.673 22.7367 211.065 22.1287 211.065 21.3783C211.065 20.6279 211.673 20.0199 212.424 20.0199C213.174 20.0199 213.782 20.6287 213.782 21.3783Z" fill="white"/>
<path d="M218.451 21.3783C218.451 22.1287 217.843 22.7367 217.093 22.7367C216.342 22.7367 215.734 22.1287 215.734 21.3783C215.734 20.6279 216.342 20.0199 217.093 20.0199C217.843 20.0199 218.451 20.6287 218.451 21.3783Z" fill="white"/>
<path d="M203.999 111.777L212.164 122.235V111.777H203.999Z" fill="#383A50"/>
<path d="M203.531 105.093H111.568C106.317 105.093 102.021 100.796 102.021 95.5452V43.8255C102.021 38.5745 106.317 34.2778 111.568 34.2778H203.531C208.782 34.2778 213.078 38.5745 213.078 43.8255V95.5452C213.078 100.796 208.782 105.093 203.531 105.093Z" fill="#F3BA3F"/>
<path d="M165.644 78.1752C170.333 73.4866 170.333 65.8849 165.644 61.1963C160.956 56.5077 153.354 56.5077 148.665 61.1963C143.977 65.8849 143.977 73.4866 148.665 78.1752C153.354 82.8638 160.956 82.8638 165.644 78.1752Z" fill="#FFEFD5"/>
<path d="M164.182 69.6854L159.061 72.6418L153.939 75.599V69.6854V63.7717L159.061 66.7289L164.182 69.6854Z" fill="white"/>
<path d="M212.988 105.093H102.111C99.8531 105.093 98.0068 103.246 98.0068 100.989V38.3816C98.0068 36.1241 99.8539 34.2778 102.111 34.2778H212.988C215.246 34.2778 217.092 36.1249 217.092 38.3816V100.989C217.093 103.247 215.246 105.093 212.988 105.093Z" fill="#6DC38D"/>
<path d="M106.758 98.9358C105.867 98.9358 105.143 98.2107 105.143 97.3204C105.143 96.43 105.867 95.705 106.758 95.705H207.553C208.444 95.705 209.169 96.4292 209.169 97.3204C209.169 98.2115 208.444 98.9358 207.553 98.9358H106.758Z" fill="white"/>
<path d="M129.747 49.181H130.856V58.7129H136.731V59.672H129.747V49.181Z" fill="white"/>
<path d="M145.993 58.7129V59.672H138.574V49.181H145.768V50.1402H139.683V53.8723H145.108V54.8163H139.683V58.7129H145.993Z" fill="white"/>
<path d="M147.597 58.3982L148.032 57.5442C148.781 58.2788 150.115 58.818 151.493 58.818C153.457 58.818 154.311 57.9941 154.311 56.9599C154.311 54.0825 147.852 55.8505 147.852 51.969C147.852 50.4255 149.051 49.0916 151.719 49.0916C152.902 49.0916 154.132 49.4364 154.971 50.0207L154.596 50.9047C153.697 50.3204 152.648 50.0357 151.719 50.0357C149.8 50.0357 148.946 50.8897 148.946 51.9389C148.946 54.8163 155.405 53.0783 155.405 56.8998C155.405 58.4432 154.176 59.7621 151.493 59.7621C149.92 59.7621 148.376 59.207 147.597 58.3982Z" fill="white"/>
<path d="M156.813 58.3982L157.248 57.5442C157.998 58.2788 159.332 58.818 160.71 58.818C162.673 58.818 163.528 57.9941 163.528 56.9599C163.528 54.0825 157.069 55.8505 157.069 51.969C157.069 50.4255 158.268 49.0916 160.935 49.0916C162.119 49.0916 163.349 49.4364 164.188 50.0207L163.813 50.9047C162.914 50.3204 161.864 50.0357 160.935 50.0357C159.017 50.0357 158.162 50.8897 158.162 51.9389C158.162 54.8163 164.622 53.0783 164.622 56.8998C164.622 58.4432 163.393 59.7621 160.71 59.7621C159.137 59.7621 157.592 59.207 156.813 58.3982Z" fill="white"/>
<path d="M166.105 54.4265C166.105 51.3688 168.444 49.0908 171.621 49.0908C174.768 49.0908 177.121 51.3538 177.121 54.4265C177.121 57.4991 174.768 59.7621 171.621 59.7621C168.444 59.7621 166.105 57.4841 166.105 54.4265ZM176.012 54.4265C176.012 51.9239 174.139 50.08 171.621 50.08C169.088 50.08 167.199 51.9231 167.199 54.4265C167.199 56.929 169.087 58.7729 171.621 58.7729C174.139 58.7729 176.012 56.929 176.012 54.4265Z" fill="white"/>
<path d="M188.376 49.181V59.672H187.461L180.717 51.1594V59.672H179.607V49.181H180.521L187.28 57.6937V49.181H188.376Z" fill="white"/>
<path d="M202.065 76.0173H115.882C114.818 76.0173 113.948 75.1475 113.948 74.084C113.948 73.0205 114.818 72.1508 115.882 72.1508H202.065C203.129 72.1508 203.999 73.0205 203.999 74.084C203.999 75.1475 203.129 76.0173 202.065 76.0173Z" fill="white"/>
<path d="M178.97 83.2617H138.977C137.914 83.2617 137.044 82.392 137.044 81.3285C137.044 80.265 137.914 79.3952 138.977 79.3952H178.97C180.034 79.3952 180.903 80.265 180.903 81.3285C180.903 82.3912 180.034 83.2617 178.97 83.2617Z" fill="white"/>
</svg>
