<svg width="50" height="50" viewBox="0 0 50 50" fill="none" xmlns="http://www.w3.org/2000/svg">
    <circle cx="25" cy="25" r="25" fill="#23A462" fill-opacity="0.06"/>
    <path d="M25 15C23.0222 15 21.0888 15.5865 19.4443 16.6853C17.7998 17.7841 16.5181 19.3459 15.7612 21.1732C15.0043 23.0004 14.8063 25.0111 15.1922 26.9509C15.578 28.8907 16.5304 30.6725 17.9289 32.0711C19.3275 33.4696 21.1093 34.422 23.0491 34.8078C24.9889 35.1937 26.9996 34.9957 28.8268 34.2388C30.6541 33.4819 32.2159 32.2002 33.3147 30.5557C34.4135 28.9112 35 26.9778 35 25C34.9971 22.3487 33.9426 19.8068 32.0679 17.9321C30.1932 16.0574 27.6513 15.0029 25 15ZM25 33.3333C23.3518 33.3333 21.7407 32.8446 20.3703 31.9289C18.9998 31.0132 17.9317 29.7117 17.301 28.189C16.6703 26.6663 16.5053 24.9908 16.8268 23.3742C17.1483 21.7577 17.942 20.2729 19.1074 19.1074C20.2729 17.942 21.7577 17.1483 23.3743 16.8268C24.9908 16.5052 26.6663 16.6703 28.189 17.301C29.7117 17.9317 31.0132 18.9998 31.9289 20.3702C32.8446 21.7407 33.3333 23.3518 33.3333 25C33.3309 27.2094 32.4522 29.3276 30.8899 30.8899C29.3276 32.4521 27.2094 33.3309 25 33.3333Z" fill="#23A462"/>
    <path d="M25.5975 19.219C25.1169 19.1315 24.623 19.1506 24.1507 19.2751C23.6783 19.3995 23.2391 19.6263 22.8641 19.9393C22.4891 20.2523 22.1874 20.6439 21.9805 21.0864C21.7736 21.5288 21.6664 22.0114 21.6667 22.4999C21.6667 22.7209 21.7545 22.9328 21.9107 23.0891C22.067 23.2454 22.279 23.3332 22.5 23.3332C22.721 23.3332 22.933 23.2454 23.0892 23.0891C23.2455 22.9328 23.3333 22.7209 23.3333 22.4999C23.3331 22.2547 23.387 22.0125 23.4912 21.7905C23.5953 21.5685 23.7471 21.3723 23.9358 21.2157C24.1245 21.0592 24.3455 20.9462 24.5828 20.8848C24.8202 20.8234 25.0682 20.8152 25.3092 20.8607C25.6384 20.9246 25.941 21.0852 26.1785 21.3219C26.416 21.5587 26.5776 21.8609 26.6425 22.1899C26.7081 22.5352 26.6628 22.8924 26.5131 23.2105C26.3634 23.5285 26.1171 23.7911 25.8092 23.9607C25.2993 24.2561 24.878 24.6828 24.5891 25.1964C24.3002 25.7099 24.1543 26.2916 24.1667 26.8807V27.4999C24.1667 27.7209 24.2545 27.9328 24.4107 28.0891C24.567 28.2454 24.779 28.3332 25 28.3332C25.221 28.3332 25.433 28.2454 25.5892 28.0891C25.7455 27.9328 25.8333 27.7209 25.8333 27.4999V26.8807C25.8229 26.5907 25.889 26.3031 26.025 26.0468C26.1611 25.7905 26.3623 25.5745 26.6083 25.4207C27.2121 25.0891 27.6983 24.5786 28.0001 23.9594C28.3018 23.3402 28.4044 22.6427 28.2936 21.9628C28.1827 21.2829 27.864 20.6541 27.3812 20.1628C26.8985 19.6714 26.2753 19.3417 25.5975 19.219Z" fill="#23A462"/>
    <path d="M25.8333 30C25.8333 29.5398 25.4602 29.1667 25 29.1667C24.5398 29.1667 24.1667 29.5398 24.1667 30C24.1667 30.4603 24.5398 30.8334 25 30.8334C25.4602 30.8334 25.8333 30.4603 25.8333 30Z" fill="#23A462"/>
</svg>
