<svg width="50" height="50" viewBox="0 0 50 50" fill="none" xmlns="http://www.w3.org/2000/svg">
<rect width="50" height="50" rx="12" fill="#EEEEEE"/>
<path d="M29.7197 13C29.7768 13 29.8339 13 29.8942 13C30.0343 14.73 29.3739 16.0227 28.5714 16.9588C27.7839 17.8885 26.7056 18.7902 24.9616 18.6533C24.8452 16.9481 25.5067 15.7513 26.3081 14.8173C27.0514 13.9469 28.4141 13.1724 29.7197 13Z" fill="#333333"/>
<path d="M35 31.0071C35 31.0243 35 31.0394 35 31.0556C34.5099 32.54 33.8107 33.8122 32.9576 34.9929C32.1787 36.0647 31.2243 37.5072 29.5201 37.5072C28.0475 37.5072 27.0694 36.5603 25.5602 36.5344C23.9637 36.5086 23.0857 37.3262 21.6261 37.5319C21.4591 37.5319 21.2921 37.5319 21.1284 37.5319C20.0566 37.3768 19.1915 36.528 18.5613 35.7631C16.7031 33.5031 15.2672 30.5838 15 26.8479C15 26.4816 15 26.1164 15 25.7502C15.1131 23.0765 16.4123 20.9026 18.1391 19.8491C19.0504 19.2889 20.3032 18.8117 21.6983 19.025C22.2961 19.1176 22.9069 19.3223 23.4423 19.5248C23.9497 19.7198 24.5842 20.0656 25.1853 20.0473C25.5925 20.0354 25.9975 19.8232 26.408 19.6735C27.6101 19.2394 28.7886 18.7417 30.342 18.9754C32.2089 19.2577 33.5339 20.0871 34.3526 21.3669C32.7733 22.372 31.5248 23.8866 31.7381 26.473C31.9277 28.8225 33.2937 30.197 35 31.0071Z" fill="#333333"/>
</svg>
