<svg width="31" height="30" viewBox="0 0 31 30" fill="none" xmlns="http://www.w3.org/2000/svg">
<path d="M24.947 16.52L11.248 14.3217L13.0641 22.6812L24.947 16.52Z" fill="#D12053"/>
<path d="M24.9453 16.5214L14.6227 1.83396L11.249 14.3257L24.9453 16.5214Z" fill="#E2136E"/>
<path d="M10.9313 14.1557L0.115234 0L14.2791 1.73275L10.9313 14.1557Z" fill="#D12053"/>
<path d="M6.00603 8.23948L0 2.44336H1.58094L6.00603 8.23948Z" fill="#9E1638"/>
<path d="M27.8692 9.37932L25.3273 16.44L21.207 10.6041L27.8692 9.37932Z" fill="#D12053"/>
<path d="M14.6641 22.2601L24.6379 18.1571L25.0564 16.8529L14.6641 22.2601Z" fill="#E2136E"/>
<path d="M6.68652 30L10.9592 14.6513L13.1265 24.6377L6.68652 30Z" fill="#9E1638"/>
<path d="M28.2666 9.43794L27.2178 12.3532L30.9996 12.2897L28.2666 9.43794Z" fill="#E2136E"/>
</svg>
