<svg width="50" height="50" viewBox="0 0 50 50" fill="none" xmlns="http://www.w3.org/2000/svg">
    <circle cx="25" cy="25" r="25" fill="#23A462" fill-opacity="0.06"/>
    <path d="M34.0568 15.6352C33.7621 15.3788 33.4165 15.1931 33.0447 15.0913C32.673 14.9896 32.2841 14.9743 31.906 15.0466L26.4985 16.0667C25.7247 16.2116 25.0206 16.6232 24.5 17.235C23.9798 16.6222 23.2757 16.2096 22.5015 16.064L17.094 15.0439C16.7158 14.9726 16.3271 14.9884 15.9555 15.0901C15.5838 15.1919 15.2382 15.3772 14.9431 15.6329C14.6479 15.8886 14.4105 16.2085 14.2476 16.5699C14.0846 16.9313 14.0001 17.3255 14 17.7246V33.0169L24.5 35L35 33.0169V17.7246C35 17.3258 34.9156 16.9319 34.7525 16.5708C34.5895 16.2098 34.352 15.8903 34.0568 15.6352ZM23.625 32.986L15.75 31.5017V17.7246C15.7501 17.5916 15.7783 17.4602 15.8327 17.3398C15.8871 17.2194 15.9663 17.1128 16.0647 17.0276C16.1631 16.9425 16.2783 16.8808 16.4022 16.8469C16.526 16.813 16.6556 16.8078 16.7816 16.8316L22.1882 17.8518C22.5915 17.9279 22.9562 18.1486 23.2187 18.4753C23.4813 18.802 23.6251 19.214 23.625 19.6395V32.986ZM33.25 31.4999L25.375 32.986V19.6395C25.3749 19.214 25.5187 18.802 25.7813 18.4753C26.0438 18.1486 26.4085 17.9279 26.8118 17.8518L32.2184 16.8316C32.3444 16.8078 32.474 16.813 32.5978 16.8469C32.7217 16.8808 32.8369 16.9425 32.9353 17.0276C33.0337 17.1128 33.1129 17.2194 33.1673 17.3398C33.2217 17.4602 33.2499 17.5916 33.25 17.7246V31.4999Z" fill="#23A462"/>
</svg>
