<svg width="13" height="14" viewBox="0 0 13 14" fill="none" xmlns="http://www.w3.org/2000/svg">
<path d="M10.0455 0H4.13636C3.56214 0.000745719 3.00058 0.166661 2.52035 0.477458C2.04013 0.788254 1.66205 1.23046 1.43236 1.75H0.590909C0.43419 1.75 0.28389 1.81146 0.173073 1.92085C0.0622563 2.03025 0 2.17862 0 2.33333C0 2.48804 0.0622563 2.63642 0.173073 2.74581C0.28389 2.85521 0.43419 2.91667 0.590909 2.91667H1.18182V4.08333H0.590909C0.43419 4.08333 0.28389 4.14479 0.173073 4.25419C0.0622563 4.36358 0 4.51196 0 4.66667C0 4.82138 0.0622563 4.96975 0.173073 5.07915C0.28389 5.18854 0.43419 5.25 0.590909 5.25H1.18182V6.41667H0.590909C0.43419 6.41667 0.28389 6.47812 0.173073 6.58752C0.0622563 6.69692 0 6.84529 0 7C0 7.15471 0.0622563 7.30308 0.173073 7.41248C0.28389 7.52187 0.43419 7.58333 0.590909 7.58333H1.18182V8.75H0.590909C0.43419 8.75 0.28389 8.81146 0.173073 8.92085C0.0622563 9.03025 0 9.17862 0 9.33333C0 9.48804 0.0622563 9.63642 0.173073 9.74581C0.28389 9.85521 0.43419 9.91667 0.590909 9.91667H1.18182V11.0833H0.590909C0.43419 11.0833 0.28389 11.1448 0.173073 11.2542C0.0622563 11.3636 0 11.512 0 11.6667C0 11.8214 0.0622563 11.9697 0.173073 12.0791C0.28389 12.1885 0.43419 12.25 0.590909 12.25H1.43236C1.66205 12.7695 2.04013 13.2117 2.52035 13.5225C3.00058 13.8333 3.56214 13.9993 4.13636 14H10.0455C10.8288 13.9991 11.5797 13.6915 12.1336 13.1447C12.6875 12.5979 12.9991 11.8566 13 11.0833V2.91667C12.9991 2.1434 12.6875 1.40208 12.1336 0.855295C11.5797 0.308514 10.8288 0.00092625 10.0455 0ZM11.8182 11.0833C11.8182 11.5475 11.6314 11.9926 11.299 12.3208C10.9665 12.649 10.5156 12.8333 10.0455 12.8333H4.13636C3.66621 12.8333 3.21531 12.649 2.88286 12.3208C2.55041 11.9926 2.36364 11.5475 2.36364 11.0833V2.91667C2.36364 2.45254 2.55041 2.00742 2.88286 1.67923C3.21531 1.35104 3.66621 1.16667 4.13636 1.16667H10.0455C10.5156 1.16667 10.9665 1.35104 11.299 1.67923C11.6314 2.00742 11.8182 2.45254 11.8182 2.91667V11.0833ZM7.09091 7C7.56107 7 8.01197 6.81563 8.34442 6.48744C8.67687 6.15925 8.86364 5.71413 8.86364 5.25C8.86364 4.78587 8.67687 4.34075 8.34442 4.01256C8.01197 3.68437 7.56107 3.5 7.09091 3.5C6.62075 3.5 6.16985 3.68437 5.8374 4.01256C5.50495 4.34075 5.31818 4.78587 5.31818 5.25C5.31818 5.71413 5.50495 6.15925 5.8374 6.48744C6.16985 6.81563 6.62075 7 7.09091 7ZM10.0455 10.5C10.0455 10.6547 9.9832 10.8031 9.87238 10.9125C9.76156 11.0219 9.61126 11.0833 9.45455 11.0833C9.29783 11.0833 9.14753 11.0219 9.03671 10.9125C8.92589 10.8031 8.86364 10.6547 8.86364 10.5C8.86364 10.0359 8.67687 9.59075 8.34442 9.26256C8.01197 8.93437 7.56107 8.75 7.09091 8.75C6.62075 8.75 6.16985 8.93437 5.8374 9.26256C5.50495 9.59075 5.31818 10.0359 5.31818 10.5C5.31818 10.6547 5.25593 10.8031 5.14511 10.9125C5.03429 11.0219 4.88399 11.0833 4.72727 11.0833C4.57055 11.0833 4.42025 11.0219 4.30944 10.9125C4.19862 10.8031 4.13636 10.6547 4.13636 10.5C4.26105 6.64533 9.92195 6.6465 10.0455 10.5Z" fill="#23A462"/>
</svg>
