<svg width="23" height="18" viewBox="0 0 23 18" fill="none" xmlns="http://www.w3.org/2000/svg">
    <path d="M14.6187 10.4917C14.6187 12.4577 13.0194 14.057 11.0534 14.057C9.08739 14.057 7.48869 12.4577 7.48869 10.4917C7.48869 8.52577 9.08739 6.92646 11.0534 6.92646C13.0194 6.92646 14.6187 8.52638 14.6187 10.4917ZM22.1067 5.42921V15.5555C22.1067 16.9055 21.0122 18 19.6623 18H2.44449C1.09452 18 0 16.9055 0 15.5555V5.42921C0 4.07924 1.09452 2.98472 2.44449 2.98472H5.45121V2.13893C5.45121 0.957629 6.40823 0 7.59014 0H14.5166C15.6985 0 16.6555 0.957629 16.6555 2.13893V2.98411H19.6623C21.0122 2.98472 22.1067 4.07924 22.1067 5.42921ZM16.452 10.4917C16.452 7.51497 14.0301 5.09309 11.0534 5.09309C8.07721 5.09309 5.65533 7.51497 5.65533 10.4917C5.65533 13.4685 8.07721 15.8904 11.0534 15.8904C14.0301 15.8904 16.452 13.4685 16.452 10.4917Z" fill="#23A462"/>
</svg>