<svg width="21" height="20" viewBox="0 0 21 20" fill="none" xmlns="http://www.w3.org/2000/svg">
<path d="M7.90953 19.0002C8.38651 19.0002 8.77317 18.6136 8.77317 18.1366C8.77317 17.6596 8.38651 17.2729 7.90953 17.2729C7.43256 17.2729 7.0459 17.6596 7.0459 18.1366C7.0459 18.6136 7.43256 19.0002 7.90953 19.0002Z" stroke="white" stroke-width="1.5" stroke-linecap="round" stroke-linejoin="round"/>
<path d="M17.4095 19.0002C17.8865 19.0002 18.2732 18.6136 18.2732 18.1366C18.2732 17.6596 17.8865 17.2729 17.4095 17.2729C16.9326 17.2729 16.5459 17.6596 16.5459 18.1366C16.5459 18.6136 16.9326 19.0002 17.4095 19.0002Z" stroke="white" stroke-width="1.5" stroke-linecap="round" stroke-linejoin="round"/>
<path d="M1 0.86377H4.45455L6.76909 12.4279C6.84807 12.8255 7.06438 13.1826 7.38015 13.4368C7.69593 13.691 8.09106 13.8261 8.49636 13.8183H16.8909C17.2962 13.8261 17.6913 13.691 18.0071 13.4368C18.3229 13.1826 18.5392 12.8255 18.6182 12.4279L20 5.18195H5.31818" stroke="white" stroke-width="1.5" stroke-linecap="round" stroke-linejoin="round"/>
</svg>
