<svg width="22" height="18" viewBox="0 0 22 18" fill="none" xmlns="http://www.w3.org/2000/svg">
    <path d="M21.2385 2.16114H19.7986V0.361266C19.7993 0.16247 19.6387 0.000706843 19.4399 3.1891e-05C19.4293 -1.31057e-05 19.4189 0.000436856 19.4084 0.0012918L18.4692 0.080486C16.1917 0.268842 13.9579 0.813529 11.8493 1.69461L10.7992 2.13126L9.75026 1.69605C7.64144 0.814833 5.40735 0.270058 3.12962 0.081566L2.19008 0.0012918C1.99196 -0.015402 1.81782 0.131647 1.80113 0.329768C1.80023 0.340252 1.79983 0.350782 1.79987 0.361266V2.16114H0.359974C0.161178 2.16114 0 2.32232 0 2.52111V17.64C0 17.8388 0.161178 18 0.359974 18H21.2385C21.4373 18 21.5985 17.8388 21.5985 17.64V2.52111C21.5985 2.32232 21.4373 2.16114 21.2385 2.16114ZM0.719948 17.2808V2.88108H1.79987V15.4802C1.7992 15.6676 1.94247 15.8242 2.12925 15.8402L3.09794 15.9229C3.36193 15.945 3.62588 15.9723 3.88988 16.0047C3.97807 16.0151 4.06555 16.0291 4.15374 16.0407C4.32833 16.0641 4.50292 16.0875 4.67678 16.1152C4.78046 16.1317 4.88377 16.1512 4.98708 16.1695C5.14475 16.1972 5.30242 16.225 5.45937 16.2559C5.56736 16.2775 5.67535 16.3013 5.78335 16.3247C5.93489 16.3571 6.08644 16.3902 6.23727 16.4262C6.34526 16.4521 6.45506 16.4798 6.56377 16.5075C6.71244 16.5457 6.86075 16.5846 7.0087 16.6256C7.11669 16.6559 7.22468 16.6875 7.33267 16.7192C7.47954 16.7626 7.62605 16.8078 7.7722 16.8546C7.87925 16.8886 7.98603 16.9237 8.09258 16.9597C8.23981 17.009 8.38596 17.0608 8.53211 17.1137C8.63578 17.1497 8.73981 17.189 8.84277 17.2282C8.8874 17.2451 8.93168 17.2642 8.97596 17.2808H0.719948ZM10.4393 17.1001L9.77546 16.8229C7.66826 15.94 5.43552 15.3934 3.15877 15.203L2.51982 15.1497V0.752918L3.06914 0.798995C5.27245 0.981051 7.43351 1.50787 9.47344 2.3602L10.4393 2.76121V17.1001ZM11.1592 17.1001V2.76121L12.1261 2.35984C14.1657 1.50769 16.3264 0.981006 18.5293 0.798995L19.0786 0.752918V15.1486L18.4872 15.1969C16.2091 15.386 13.9743 15.9294 11.8637 16.8074L11.1592 17.1001ZM20.8785 17.2801H12.6279C12.6772 17.261 12.7262 17.2408 12.7755 17.2221C12.8835 17.1807 12.9915 17.1415 13.102 17.1022C13.2431 17.0511 13.3848 17.0016 13.5271 16.9536C13.638 16.9176 13.7496 16.8816 13.8608 16.8456C14.003 16.8002 14.1459 16.757 14.2888 16.7145C14.4011 16.6814 14.5138 16.6487 14.6265 16.6177C14.7705 16.5774 14.9144 16.5396 15.062 16.5025C15.1736 16.4741 15.2856 16.4456 15.3979 16.419C15.5476 16.383 15.6985 16.3506 15.8493 16.3186C15.9573 16.2952 16.0653 16.271 16.1754 16.2494C16.3338 16.2181 16.4929 16.1904 16.6517 16.1627C16.7546 16.1447 16.8572 16.1267 16.9605 16.1087C17.138 16.0806 17.3158 16.0565 17.494 16.0327C17.5793 16.0216 17.6647 16.0079 17.7503 15.9967C18.0143 15.9648 18.2796 15.9376 18.5462 15.915L19.4681 15.8402C19.6553 15.8248 19.7992 15.668 19.7986 15.4802V2.88108H20.8785V17.2801Z" fill="#23A462"/>
</svg>
