<svg width="15" height="20" viewBox="0 0 15 20" fill="none" xmlns="http://www.w3.org/2000/svg">
    <path d="M14.5798 0.387492C14.5798 0.173209 14.4062 0 14.1923 0H2.59348C1.16364 0 0 1.16364 0 2.59348V17.7153C0 18.9751 1.02492 20 2.28465 20H14.1919C14.4058 20 14.5794 19.8268 14.5794 19.6125C14.5794 19.3982 14.4058 19.225 14.1919 19.225H2.28504C1.45271 19.225 0.775371 18.5477 0.775371 17.7153C0.775371 16.883 1.45271 16.2057 2.28504 16.2057H14.1923C14.4062 16.2057 14.5798 16.0325 14.5798 15.8182V0.387492ZM0.775371 16.0053V2.59348C0.775371 1.72395 1.38955 0.997017 2.20638 0.818383V15.4346C1.65808 15.4536 1.15976 15.6651 0.775371 16.0053ZM2.98097 15.4307V0.774984H13.8044V15.4307C9.93606 15.4307 6.83729 15.4307 2.98097 15.4307Z" fill="#23A462"/>
    <path d="M14.1923 17.3279H4.18998C3.97609 17.3279 3.80249 17.5011 3.80249 17.7153C3.80249 17.9296 3.97609 18.1028 4.18998 18.1028H14.1923C14.4062 18.1028 14.5798 17.9296 14.5798 17.7153C14.5798 17.5011 14.4062 17.3279 14.1923 17.3279Z" fill="#23A462"/>
</svg>
