<svg width="12" height="14" viewBox="0 0 12 14" fill="none" xmlns="http://www.w3.org/2000/svg">
<path d="M5.05262 7.00048C5.22012 7.00048 5.38076 7.06194 5.49921 7.17135C5.61765 7.28075 5.68419 7.42913 5.68419 7.58385C5.68419 7.73857 5.61765 7.88696 5.49921 7.99636C5.38076 8.10576 5.22012 8.16723 5.05262 8.16723H3.15788C2.99038 8.16723 2.82974 8.10576 2.71129 7.99636C2.59285 7.88696 2.52631 7.73857 2.52631 7.58385C2.52631 7.42913 2.59285 7.28075 2.71129 7.17135C2.82974 7.06194 2.99038 7.00048 3.15788 7.00048H5.05262ZM8.84208 5.25036C8.84208 5.09564 8.77554 4.94726 8.65709 4.83785C8.53865 4.72845 8.378 4.66699 8.2105 4.66699H3.15788C2.99038 4.66699 2.82974 4.72845 2.71129 4.83785C2.59285 4.94726 2.52631 5.09564 2.52631 5.25036C2.52631 5.40508 2.59285 5.55346 2.71129 5.66287C2.82974 5.77227 2.99038 5.83373 3.15788 5.83373H8.2105C8.378 5.83373 8.53865 5.77227 8.65709 5.66287C8.77554 5.55346 8.84208 5.40508 8.84208 5.25036ZM3.15788 3.50024H8.2105C8.378 3.50024 8.53865 3.43878 8.65709 3.32937C8.77554 3.21997 8.84208 3.07159 8.84208 2.91687C8.84208 2.76215 8.77554 2.61376 8.65709 2.50436C8.53865 2.39496 8.378 2.33349 8.2105 2.33349H3.15788C2.99038 2.33349 2.82974 2.39496 2.71129 2.50436C2.59285 2.61376 2.52631 2.76215 2.52631 2.91687C2.52631 3.07159 2.59285 3.21997 2.71129 3.32937C2.82974 3.43878 2.99038 3.50024 3.15788 3.50024ZM10.7368 11.3431V13.5792C10.7369 13.6624 10.7102 13.7438 10.6601 13.813C10.6101 13.8822 10.539 13.9361 10.4557 13.968C10.3725 13.9998 10.2809 14.0082 10.1925 13.9919C10.1042 13.9757 10.023 13.9356 9.95934 13.8767L9.47365 13.4287L8.98797 13.8767C8.92429 13.9356 8.84313 13.9757 8.75477 13.9919C8.6664 14.0082 8.57481 13.9998 8.49158 13.968C8.40834 13.9361 8.33721 13.8822 8.28717 13.813C8.23714 13.7438 8.21046 13.6624 8.2105 13.5792V11.3431C7.72883 11.0875 7.35219 10.6919 7.13923 10.218C6.92628 9.74408 6.88897 9.21841 7.03311 8.72287C7.17725 8.22733 7.49475 7.78972 7.93617 7.47819C8.37759 7.16667 8.91814 6.99871 9.47365 7.00048C9.68716 7.00294 9.89943 7.03079 10.1052 7.08332V2.91687C10.1052 2.45271 9.90561 2.00756 9.55028 1.67935C9.19495 1.35113 8.71301 1.16675 8.2105 1.16675H3.15788C2.65537 1.16675 2.17344 1.35113 1.81811 1.67935C1.46278 2.00756 1.26315 2.45271 1.26315 2.91687V9.91735C1.26315 10.3815 1.46278 10.8267 1.81811 11.1549C2.17344 11.4831 2.65537 11.6675 3.15788 11.6675H6.31577C6.48327 11.6675 6.64392 11.7289 6.76236 11.8383C6.88081 11.9477 6.94735 12.0961 6.94735 12.2508C6.94735 12.4056 6.88081 12.5539 6.76236 12.6633C6.64392 12.7728 6.48327 12.8342 6.31577 12.8342H3.15788C2.32067 12.8333 1.51803 12.5257 0.926031 11.9789C0.33403 11.432 0.00100285 10.6907 0 9.91735V2.91687C0.00100285 2.14355 0.33403 1.40217 0.926031 0.855354C1.51803 0.308536 2.32067 0.000926314 3.15788 0L8.2105 0C9.04772 0.000926314 9.85035 0.308536 10.4424 0.855354C11.0344 1.40217 11.3674 2.14355 11.3684 2.91687V7.8067C11.6158 8.06333 11.7979 8.36781 11.9014 8.69785C12.005 9.0279 12.0273 9.37516 11.9667 9.7142C11.9062 10.0532 11.7643 10.3755 11.5515 10.6573C11.3387 10.9392 11.0603 11.1735 10.7368 11.3431ZM10.7368 9.33397C10.7368 9.10321 10.6627 8.87764 10.5239 8.68576C10.3851 8.49389 10.1879 8.34435 9.95704 8.25604C9.72623 8.16773 9.47225 8.14463 9.22722 8.18965C8.9822 8.23466 8.75712 8.34579 8.58047 8.50896C8.40381 8.67213 8.28351 8.88003 8.23477 9.10635C8.18603 9.33268 8.21105 9.56727 8.30665 9.78047C8.40226 9.99366 8.56416 10.1759 8.77188 10.3041C8.97961 10.4323 9.22383 10.5007 9.47365 10.5007C9.80866 10.5007 10.13 10.3778 10.3668 10.159C10.6037 9.94018 10.7368 9.64341 10.7368 9.33397Z" fill="#23A462"/>
</svg>
