<svg width="12" height="14" viewBox="0 0 12 14" fill="none" xmlns="http://www.w3.org/2000/svg">
<path d="M10.2 4.914V4.08333C10.2 3.00037 9.7575 1.96175 8.96985 1.19598C8.1822 0.430207 7.11391 0 6 0C4.88609 0 3.8178 0.430207 3.03015 1.19598C2.2425 1.96175 1.8 3.00037 1.8 4.08333V4.914C1.26562 5.14074 0.810776 5.51397 0.491099 5.98804C0.171423 6.46211 0.000767025 7.01647 0 7.58333V11.0833C0.000952715 11.8566 0.317329 12.5979 0.879732 13.1447C1.44213 13.6915 2.20464 13.9991 3 14H9C9.79536 13.9991 10.5579 13.6915 11.1203 13.1447C11.6827 12.5979 11.999 11.8566 12 11.0833V7.58333C11.9992 7.01647 11.8286 6.46211 11.5089 5.98804C11.1892 5.51397 10.7344 5.14074 10.2 4.914ZM3 4.08333C3 3.30979 3.31607 2.56792 3.87868 2.02094C4.44129 1.47396 5.20435 1.16667 6 1.16667C6.79565 1.16667 7.55871 1.47396 8.12132 2.02094C8.68393 2.56792 9 3.30979 9 4.08333V4.66667H3V4.08333ZM10.8 11.0833C10.8 11.5475 10.6104 11.9926 10.2728 12.3208C9.93523 12.649 9.47739 12.8333 9 12.8333H3C2.52261 12.8333 2.06477 12.649 1.72721 12.3208C1.38964 11.9926 1.2 11.5475 1.2 11.0833V7.58333C1.2 7.1192 1.38964 6.67408 1.72721 6.3459C2.06477 6.01771 2.52261 5.83333 3 5.83333H9C9.47739 5.83333 9.93523 6.01771 10.2728 6.3459C10.6104 6.67408 10.8 7.1192 10.8 7.58333V11.0833Z" fill="#23A462"/>
</svg>
