<svg width="20" height="20" viewBox="0 0 20 20" fill="none" xmlns="http://www.w3.org/2000/svg">
<path d="M7.25 15.0001H2.5C1.25583 15.0001 0 14.0552 0 11.9452V7.74532C0.0175226 5.83051 0.734522 3.98817 2.01598 2.56524C3.29744 1.1423 5.05493 0.236955 6.9575 0.0196839C8.03113 -0.0582521 9.10896 0.0958333 10.1178 0.47147C11.1265 0.847106 12.0426 1.43549 12.8038 2.19664C13.565 2.95779 14.1534 3.87388 14.529 4.88264C14.9047 5.8914 15.0588 6.9692 14.9808 8.04281C14.7633 9.94611 13.8571 11.7041 12.4332 12.9856C11.0092 14.2671 9.16567 14.9836 7.25 15.0001ZM16.6667 7.56699H16.6567C16.6567 7.76448 16.6567 7.96198 16.6467 8.16031C16.325 12.6669 12.2058 16.4818 7.57 16.6509V16.6634C8.15384 17.676 8.99364 18.5173 10.0052 19.1029C11.0167 19.6885 12.1645 19.9979 13.3333 20H17.5C18.163 20 18.7989 19.7366 19.2678 19.2678C19.7366 18.799 20 18.1631 20 17.5001V13.3335C19.9988 12.1645 19.6902 11.0163 19.1051 10.0041C18.5201 8.992 17.6791 8.15152 16.6667 7.56699Z" fill="#23A462"/>
</svg>
