<svg width="50" height="50" viewBox="0 0 50 50" fill="none" xmlns="http://www.w3.org/2000/svg">
<circle cx="25" cy="25" r="25" fill="#23A462" fill-opacity="0.06"/>
<path d="M35 25.9009C34.8248 27.7963 34.1135 29.6025 32.9493 31.1084C31.785 32.6142 30.216 33.7573 28.4257 34.404C26.6355 35.0506 24.6981 35.174 22.8403 34.7598C20.9825 34.3455 19.2811 33.4108 17.9352 32.0648C16.5892 30.7189 15.6544 29.0175 15.2402 27.1597C14.826 25.3019 14.9494 23.3645 15.596 21.5743C16.2427 19.784 17.3858 18.215 18.8916 17.0507C20.3975 15.8865 22.2037 15.1752 24.0991 15C22.9894 16.5013 22.4554 18.3509 22.5943 20.2126C22.7331 22.0743 23.5355 23.8243 24.8556 25.1444C26.1757 26.4645 27.9257 27.2669 29.7874 27.4057C31.6491 27.5446 33.4987 27.0106 35 25.9009Z" stroke="#23A462" stroke-width="1.5" stroke-linecap="round" stroke-linejoin="round"/>
</svg>
