<svg width="10" height="12" viewBox="0 0 10 12" fill="none" xmlns="http://www.w3.org/2000/svg">
<path d="M9.5 2H7.95C7.83395 1.43571 7.52691 0.928673 7.08063 0.564359C6.63434 0.200045 6.0761 0.000727262 5.5 0L4.5 0C3.9239 0.000727262 3.36566 0.200045 2.91937 0.564359C2.47309 0.928673 2.16605 1.43571 2.05 2H0.5C0.367392 2 0.240215 2.05268 0.146447 2.14645C0.0526784 2.24021 0 2.36739 0 2.5C0 2.63261 0.0526784 2.75978 0.146447 2.85355C0.240215 2.94732 0.367392 3 0.5 3H1V9.5C1.00079 10.1628 1.26444 10.7982 1.73311 11.2669C2.20178 11.7356 2.8372 11.9992 3.5 12H6.5C7.1628 11.9992 7.79822 11.7356 8.26689 11.2669C8.73556 10.7982 8.99921 10.1628 9 9.5V3H9.5C9.63261 3 9.75979 2.94732 9.85355 2.85355C9.94732 2.75978 10 2.63261 10 2.5C10 2.36739 9.94732 2.24021 9.85355 2.14645C9.75979 2.05268 9.63261 2 9.5 2ZM4.5 1H5.5C5.81014 1.00038 6.11256 1.09669 6.36581 1.27572C6.61905 1.45476 6.81071 1.70775 6.9145 2H3.0855C3.18929 1.70775 3.38095 1.45476 3.63419 1.27572C3.88744 1.09669 4.18986 1.00038 4.5 1ZM8 9.5C8 9.89782 7.84196 10.2794 7.56066 10.5607C7.27936 10.842 6.89782 11 6.5 11H3.5C3.10218 11 2.72064 10.842 2.43934 10.5607C2.15804 10.2794 2 9.89782 2 9.5V3H8V9.5Z" fill="#FF6767"/>
<path d="M4 9C4.13261 9 4.25979 8.94732 4.35355 8.85355C4.44732 8.75979 4.5 8.63261 4.5 8.5V5.5C4.5 5.36739 4.44732 5.24021 4.35355 5.14645C4.25979 5.05268 4.13261 5 4 5C3.86739 5 3.74021 5.05268 3.64645 5.14645C3.55268 5.24021 3.5 5.36739 3.5 5.5V8.5C3.5 8.63261 3.55268 8.75979 3.64645 8.85355C3.74021 8.94732 3.86739 9 4 9Z" fill="#FF6767"/>
<path d="M6 9C6.13261 9 6.25979 8.94732 6.35355 8.85355C6.44732 8.75979 6.5 8.63261 6.5 8.5V5.5C6.5 5.36739 6.44732 5.24021 6.35355 5.14645C6.25979 5.05268 6.13261 5 6 5C5.86739 5 5.74021 5.05268 5.64645 5.14645C5.55268 5.24021 5.5 5.36739 5.5 5.5V8.5C5.5 8.63261 5.55268 8.75979 5.64645 8.85355C5.74021 8.94732 5.86739 9 6 9Z" fill="#FF6767"/>
</svg>
