<svg width="16" height="16" viewBox="0 0 16 16" fill="none" xmlns="http://www.w3.org/2000/svg">
<path d="M0 7.99971C0 6.41761 0.469205 4.87065 1.34825 3.5556C2.2273 2.23979 3.47673 1.21423 4.93854 0.609068C6.40035 0.00315522 8.00889 -0.154676 9.56075 0.153516C11.1126 0.462457 12.538 1.22396 13.6568 2.34303C14.7757 3.4621 15.5376 4.88712 15.8463 6.4393C16.155 7.99074 15.9965 9.59977 15.3911 11.0614C14.7855 12.5231 13.7601 13.7723 12.4445 14.6513C11.129 15.5302 9.58223 16 7.99997 16C5.8783 16 3.84346 15.157 2.34318 13.6564C0.842893 12.1566 0 10.1212 0 7.99971Z" fill="#23A462"/>
<path d="M5.05938 8.15084C5.67952 8.15084 6.18224 7.64848 6.18224 7.02878C6.18224 6.40909 5.67952 5.90672 5.05938 5.90672C4.43924 5.90672 3.93652 6.40909 3.93652 7.02878C3.93652 7.64848 4.43924 8.15084 5.05938 8.15084Z" fill="white"/>
<path d="M11.3517 10.9874C10.9659 11.5028 10.4644 11.9209 9.88751 12.2082C9.31059 12.4947 8.6743 12.642 8.02993 12.6383C7.38556 12.6345 6.75107 12.4805 6.17752 12.1865C5.60396 11.8932 5.10729 11.4691 4.72754 10.9492L5.48546 10.3964C5.77868 10.7981 6.16218 11.1257 6.60503 11.3524C7.04796 11.5791 7.53782 11.698 8.0354 11.701C8.5329 11.704 9.02419 11.5903 9.46966 11.3689C9.91506 11.1474 10.3023 10.8243 10.6002 10.4263L11.3517 10.9874Z" fill="white"/>
<path d="M11.0486 8.15084C11.6688 8.15084 12.1715 7.64848 12.1715 7.02878C12.1715 6.40909 11.6688 5.90672 11.0486 5.90672C10.4285 5.90672 9.92578 6.40909 9.92578 7.02878C9.92578 7.64848 10.4285 8.15084 11.0486 8.15084Z" fill="white"/>
</svg>
