<svg width="17" height="18" viewBox="0 0 17 18" fill="none" xmlns="http://www.w3.org/2000/svg">
<path d="M14.7876 17.9974C14.5017 17.9966 14.2189 17.9409 13.9553 17.8334C13.6918 17.726 13.4528 17.5689 13.2522 17.3712L8.49999 12.7864L3.74778 17.3742C3.44258 17.6747 3.05116 17.879 2.62457 17.9605C2.19797 18.042 1.75598 17.9968 1.35622 17.8309C0.952483 17.6733 0.607101 17.4012 0.365172 17.0502C0.123244 16.6992 -0.00398665 16.2855 9.52269e-05 15.8632V3.74946C9.52269e-05 2.75504 0.407151 1.80135 1.13171 1.09819C1.85628 0.395031 2.839 0 3.86369 0L13.1363 0C13.6437 0 14.1461 0.0969826 14.6148 0.28541C15.0836 0.473838 15.5095 0.750021 15.8683 1.09819C16.227 1.44636 16.5116 1.8597 16.7058 2.3146C16.9 2.76951 16.9999 3.25707 16.9999 3.74946V15.8632C17.0042 16.2851 16.8774 16.6986 16.6361 17.0496C16.3947 17.4006 16.05 17.6728 15.6469 17.8309C15.3747 17.9414 15.0826 17.998 14.7876 17.9974ZM3.86369 1.49978C3.24887 1.49978 2.65924 1.7368 2.2245 2.1587C1.78976 2.58059 1.54553 3.15281 1.54553 3.74946V15.8632C1.54525 15.9882 1.58314 16.1104 1.65441 16.2145C1.72568 16.3185 1.82713 16.3998 1.94595 16.4479C2.06477 16.4961 2.19562 16.509 2.32199 16.485C2.44836 16.461 2.56456 16.4012 2.65593 16.3131L7.95909 11.1981C8.10387 11.0585 8.29972 10.9801 8.50386 10.9801C8.708 10.9801 8.90385 11.0585 9.04862 11.1981L14.3456 16.3116C14.437 16.3997 14.5532 16.4595 14.6795 16.4835C14.8059 16.5075 14.9368 16.4946 15.0556 16.4464C15.1744 16.3983 15.2759 16.317 15.3471 16.213C15.4184 16.1089 15.4563 15.9867 15.456 15.8617V3.74946C15.456 3.15281 15.2118 2.58059 14.777 2.1587C14.3423 1.7368 13.7527 1.49978 13.1378 1.49978H3.86369Z" fill="#333333"/>
</svg>
