<svg width="15" height="13" viewBox="0 0 15 13" fill="none" xmlns="http://www.w3.org/2000/svg">
<path d="M10.9361 0C10.2326 0.0107932 9.54446 0.204498 8.94115 0.561552C8.33783 0.918607 7.84071 1.42637 7.5 2.03356C7.15929 1.42637 6.66217 0.918607 6.05886 0.561552C5.45554 0.204498 4.76738 0.0107932 4.06389 0C2.94243 0.0480602 1.88583 0.531963 1.12494 1.34599C0.364041 2.16002 -0.0393025 3.238 0.00302447 4.34442C0.00302447 7.14642 2.99307 10.2066 5.50081 12.2815C6.06072 12.7456 6.76864 13 7.5 13C8.23136 13 8.93928 12.7456 9.49919 12.2815C12.0069 10.2066 14.997 7.14642 14.997 4.34442C15.0393 3.238 14.636 2.16002 13.8751 1.34599C13.1142 0.531963 12.0576 0.0480602 10.9361 0ZM8.69639 11.3386C8.36152 11.6168 7.93779 11.7693 7.5 11.7693C7.06221 11.7693 6.63848 11.6168 6.30361 11.3386C3.09365 8.68206 1.25252 6.13334 1.25252 4.34442C1.20981 3.56471 1.48141 2.79998 2.00807 2.21701C2.53473 1.63404 3.27373 1.28013 4.06389 1.23246C4.85405 1.28013 5.59304 1.63404 6.11971 2.21701C6.64637 2.79998 6.91796 3.56471 6.87525 4.34442C6.87525 4.50785 6.94107 4.6646 7.05824 4.78016C7.1754 4.89573 7.33431 4.96065 7.5 4.96065C7.66569 4.96065 7.8246 4.89573 7.94176 4.78016C8.05893 4.6646 8.12475 4.50785 8.12475 4.34442C8.08204 3.56471 8.35363 2.79998 8.8803 2.21701C9.40696 1.63404 10.146 1.28013 10.9361 1.23246C11.7263 1.28013 12.4653 1.63404 12.9919 2.21701C13.5186 2.79998 13.7902 3.56471 13.7475 4.34442C13.7475 6.13334 11.9063 8.68206 8.69639 11.3362V11.3386Z" fill="#23A462"/>
</svg>
