<svg width="18" height="20" viewBox="0 0 18 20" fill="none" xmlns="http://www.w3.org/2000/svg">
    <path d="M12.8571 4.28571V0.45L16.7571 5H13.5714C13.382 5 13.2003 4.92475 13.0664 4.79079C12.9324 4.65684 12.8571 4.47515 12.8571 4.28571ZM13.5714 6.42857C13.0031 6.42857 12.4581 6.20281 12.0562 5.80094C11.6543 5.39908 11.4286 4.85404 11.4286 4.28571V0H2.14286C1.57454 0 1.02949 0.225765 0.627628 0.627628C0.225765 1.02949 0 1.57454 0 2.14286V17.8571C0 18.4255 0.225765 18.9705 0.627628 19.3724C1.02949 19.7742 1.57454 20 2.14286 20H15C15.5683 20 16.1134 19.7742 16.5152 19.3724C16.9171 18.9705 17.1429 18.4255 17.1429 17.8571V6.42857H13.5714Z" fill="#23A462"/>
</svg>