<svg width="12" height="12" viewBox="0 0 12 12" fill="none" xmlns="http://www.w3.org/2000/svg">
<path d="M11.25 5.25003H6.75V0.750031C6.75 0.33582 6.41421 3.05176e-05 6 3.05176e-05C5.58579 3.05176e-05 5.25 0.33582 5.25 0.750031V5.25003H0.75C0.335789 5.25003 0 5.58582 0 6.00003C0 6.41424 0.335789 6.75003 0.75 6.75003H5.25V11.25C5.25 11.6642 5.58579 12 6 12C6.41421 12 6.75 11.6642 6.75 11.25V6.75003H11.25C11.6642 6.75003 12 6.41424 12 6.00003C12 5.58582 11.6642 5.25003 11.25 5.25003Z" fill="white"/>
</svg>
