<svg width="20" height="16" viewBox="0 0 20 16" fill="none" xmlns="http://www.w3.org/2000/svg">
    <path fill-rule="evenodd" clip-rule="evenodd" d="M8.21166 6.42284C8.54422 6.42278 8.86929 6.31658 9.14578 6.11766C9.42226 5.91874 9.63774 5.63603 9.76497 5.30529C9.8922 4.97455 9.92546 4.61063 9.86055 4.25955C9.79563 3.90846 9.63547 3.58598 9.40029 3.33287C9.16512 3.07977 8.8655 2.90741 8.53933 2.8376C8.21316 2.76778 7.87508 2.80364 7.56784 2.94065C7.2606 3.07765 6.998 3.30964 6.81325 3.60729C6.62849 3.90493 6.52988 4.25487 6.52988 4.61284C6.53044 5.09275 6.70781 5.55282 7.0231 5.89214C7.33838 6.23146 7.76582 6.42232 8.21166 6.42284ZM1.40603 1.34524H18.5937C18.635 1.34585 18.6744 1.36377 18.7036 1.39518C18.7328 1.42659 18.7494 1.46902 18.75 1.51344V9.20764L13.6281 4.1295C13.5128 4.0149 13.3616 3.95126 13.2047 3.95126C13.0477 3.95126 12.8966 4.0149 12.7813 4.1295L8.11135 8.75945L5.33006 6.00223C5.21476 5.88765 5.0636 5.82403 4.90668 5.82403C4.74976 5.82403 4.59859 5.88765 4.48329 6.00223L1.25001 9.20764V1.51348C1.25062 1.46912 1.26724 1.42675 1.29636 1.39536C1.32549 1.36396 1.36482 1.34596 1.40603 1.34524ZM1.40603 16C1.03322 15.9995 0.675809 15.8399 0.412214 15.5561C0.148619 15.2723 0.000372185 14.8876 0 14.4863V1.51348C0.000423894 1.11222 0.148695 0.727525 0.412285 0.443791C0.675876 0.160058 1.03326 0.000456287 1.40603 0H18.5937C18.9665 0.000456156 19.3239 0.16005 19.5876 0.443776C19.8512 0.727502 19.9995 1.1122 20 1.51348V14.4862C19.9996 14.8876 19.8513 15.2723 19.5876 15.5561C19.324 15.8399 18.9666 15.9995 18.5937 16L1.40603 16Z" fill="#23A462"/>
</svg>