<svg width="50" height="50" viewBox="0 0 50 50" fill="none" xmlns="http://www.w3.org/2000/svg">
<rect width="50" height="50" rx="12" fill="#E9F4FF"/>
<path d="M35.786 22.8456H34.9V22.8H25V27.2H31.2167C30.3097 29.7613 27.8726 31.6 25 31.6C21.3551 31.6 18.4 28.6448 18.4 25C18.4 21.3551 21.3551 18.4 25 18.4C26.6824 18.4 28.2131 19.0347 29.3785 20.0714L32.4899 16.9601C30.5253 15.1291 27.8974 14 25 14C18.9252 14 14 18.9252 14 25C14 31.0747 18.9252 36 25 36C31.0747 36 36 31.0747 36 25C36 24.2624 35.9241 23.5425 35.786 22.8456Z" fill="#FFC107"/>
<path d="M15.2686 19.88L18.8826 22.5305C19.8605 20.1094 22.2288 18.4 25.0003 18.4C26.6827 18.4 28.2134 19.0347 29.3788 20.0714L32.4902 16.9601C30.5256 15.1291 27.8977 14 25.0003 14C20.7752 14 17.1111 16.3853 15.2686 19.88Z" fill="#FF3D00"/>
<path d="M24.9998 36C27.8411 36 30.4228 34.9127 32.3747 33.1444L28.9702 30.2635C27.8658 31.1001 26.493 31.6 24.9998 31.6C22.1387 31.6 19.7093 29.7757 18.7941 27.2297L15.207 29.9935C17.0275 33.5558 20.7246 36 24.9998 36Z" fill="#4CAF50"/>
<path d="M35.7861 22.8457H34.9V22.8H25V27.2H31.2167C30.7811 28.4304 29.9896 29.4913 28.9688 30.2641C28.9694 30.2635 28.9699 30.2635 28.9705 30.263L32.375 33.1439C32.1341 33.3628 36 30.5 36 25C36 24.2625 35.9241 23.5425 35.7861 22.8457Z" fill="#1976D2"/>
</svg>
