<svg width="30" height="31" viewBox="0 0 30 31" fill="none" xmlns="http://www.w3.org/2000/svg">
<path d="M30.0007 15.5645C30.0019 14.5278 29.9138 13.4928 29.7371 12.471H15.3037V18.3305H23.5705C23.4013 19.2664 23.0433 20.1585 22.5179 20.953C21.9926 21.7476 21.3108 22.4282 20.5138 22.9538V26.7573H25.4475C28.3363 24.1097 30.0007 20.1942 30.0007 15.5645Z" fill="#4285F4"/>
<path d="M15.3054 30.4276C19.4356 30.4276 22.9132 29.0795 25.4491 26.7552L20.5154 22.9517C19.1422 23.8772 17.3736 24.4055 15.3054 24.4055C11.3133 24.4055 7.925 21.7303 6.71336 18.1255H1.63086V22.0452C2.90471 24.5649 4.85802 26.6832 7.27271 28.1634C9.68741 29.6436 12.4685 30.4275 15.3054 30.4276Z" fill="#34A853"/>
<path d="M6.7122 18.1247C6.07165 16.2357 6.07165 14.1901 6.7122 12.3011V8.38144H1.6297C0.558092 10.5011 0 12.8406 0 15.2129C0 17.5852 0.558092 19.9247 1.6297 22.0444L6.7122 18.1247Z" fill="#FBBC04"/>
<path d="M15.3054 6.02317C17.488 5.98773 19.597 6.80748 21.1765 8.30526L25.5448 3.96295C22.7748 1.37675 19.1053 -0.0431202 15.3054 0.000998175C12.4684 0.0011267 9.68741 0.785053 7.27271 2.26526C4.85802 3.74546 2.90471 5.86368 1.63086 8.38344L6.71336 12.3031C7.925 8.69829 11.3133 6.02317 15.3054 6.02317Z" fill="#EA4335"/>
</svg>
