<svg width="50" height="50" viewBox="0 0 50 50" fill="none" xmlns="http://www.w3.org/2000/svg">
    <circle cx="25" cy="25" r="25" fill="#23A462" fill-opacity="0.06"/>
    <path d="M31.6667 15H18.3333C17.4493 15 16.6014 15.3512 15.9763 15.9763C15.3512 16.6014 15 17.4493 15 18.3333V28.3333C15 29.2174 15.3512 30.0652 15.9763 30.6904C16.6014 31.3155 17.4493 31.6667 18.3333 31.6667H20.75L24.4592 34.8025C24.6096 34.9298 24.8004 34.9997 24.9975 34.9997C25.1946 34.9997 25.3854 34.9298 25.5358 34.8025L29.25 31.6667H31.6667C32.5507 31.6667 33.3986 31.3155 34.0237 30.6904C34.6488 30.0652 35 29.2174 35 28.3333V18.3333C35 17.4493 34.6488 16.6014 34.0237 15.9763C33.3986 15.3512 32.5507 15 31.6667 15ZM33.3333 28.3333C33.3333 28.7754 33.1577 29.1993 32.8452 29.5118C32.5326 29.8244 32.1087 30 31.6667 30H29.25C28.8561 30.0001 28.4749 30.1398 28.1742 30.3942L25 33.075L21.8275 30.3942C21.5263 30.1394 21.1445 29.9997 20.75 30H18.3333C17.8913 30 17.4674 29.8244 17.1548 29.5118C16.8423 29.1993 16.6667 28.7754 16.6667 28.3333V18.3333C16.6667 17.8913 16.8423 17.4674 17.1548 17.1548C17.4674 16.8423 17.8913 16.6667 18.3333 16.6667H31.6667C32.1087 16.6667 32.5326 16.8423 32.8452 17.1548C33.1577 17.4674 33.3333 17.8913 33.3333 18.3333V28.3333Z" fill="#23A462"/>
    <path d="M20.8334 20.8333H25.0001C25.2211 20.8333 25.433 20.7455 25.5893 20.5892C25.7456 20.4329 25.8334 20.221 25.8334 20C25.8334 19.7789 25.7456 19.567 25.5893 19.4107C25.433 19.2544 25.2211 19.1666 25.0001 19.1666H20.8334C20.6124 19.1666 20.4004 19.2544 20.2441 19.4107C20.0879 19.567 20.0001 19.7789 20.0001 20C20.0001 20.221 20.0879 20.4329 20.2441 20.5892C20.4004 20.7455 20.6124 20.8333 20.8334 20.8333Z" fill="#23A462"/>
    <path d="M29.1667 22.4999H20.8334C20.6124 22.4999 20.4004 22.5877 20.2441 22.744C20.0879 22.9002 20.0001 23.1122 20.0001 23.3332C20.0001 23.5542 20.0879 23.7662 20.2441 23.9225C20.4004 24.0787 20.6124 24.1665 20.8334 24.1665H29.1667C29.3877 24.1665 29.5997 24.0787 29.756 23.9225C29.9123 23.7662 30.0001 23.5542 30.0001 23.3332C30.0001 23.1122 29.9123 22.9002 29.756 22.744C29.5997 22.5877 29.3877 22.4999 29.1667 22.4999Z" fill="#23A462"/>
    <path d="M29.1667 25.8332H20.8334C20.6124 25.8332 20.4004 25.921 20.2441 26.0773C20.0879 26.2335 20.0001 26.4455 20.0001 26.6665C20.0001 26.8875 20.0879 27.0995 20.2441 27.2558C20.4004 27.4121 20.6124 27.4999 20.8334 27.4999H29.1667C29.3877 27.4999 29.5997 27.4121 29.756 27.2558C29.9123 27.0995 30.0001 26.8875 30.0001 26.6665C30.0001 26.4455 29.9123 26.2335 29.756 26.0773C29.5997 25.921 29.3877 25.8332 29.1667 25.8332Z" fill="#23A462"/>
</svg>
