<svg width="16" height="15" viewBox="0 0 16 15" fill="none" xmlns="http://www.w3.org/2000/svg">
<path d="M11.7167 0H4.83746C2.59854 0 0.7771 1.82144 0.7771 4.06036V10.9397C0.7771 13.1785 2.59854 15 4.83746 15H11.7169C13.9557 15 15.7771 13.1785 15.7771 10.9397V4.06036C15.7771 1.82144 13.9557 0 11.7167 0ZM8.2771 11.6014C6.01552 11.6014 4.17565 9.76156 4.17565 7.49999C4.17565 5.23841 6.01552 3.39855 8.2771 3.39855C10.5387 3.39855 12.3785 5.23841 12.3785 7.49999C12.3785 9.76156 10.5387 11.6014 8.2771 11.6014ZM12.4766 4.3658C11.8083 4.3658 11.2647 3.8222 11.2647 3.15387C11.2647 2.48554 11.8083 1.94183 12.4766 1.94183C13.145 1.94183 13.6887 2.48554 13.6887 3.15387C13.6887 3.8222 13.145 4.3658 12.4766 4.3658Z" fill="#23A462"/>
<path d="M8.2771 4.27791C6.50052 4.27791 5.05502 5.72329 5.05502 7.49999C5.05502 9.27656 6.50052 10.7221 8.2771 10.7221C10.0538 10.7221 11.4992 9.27656 11.4992 7.49999C11.4992 5.72329 10.0538 4.27791 8.2771 4.27791Z" fill="#23A462"/>
<path d="M12.4766 2.82131C12.2933 2.82131 12.1441 2.97054 12.1441 3.15387C12.1441 3.33721 12.2933 3.48644 12.4766 3.48644C12.6601 3.48644 12.8093 3.33732 12.8093 3.15387C12.8093 2.97042 12.6601 2.82131 12.4766 2.82131Z" fill="#23A462"/>
</svg>
