<svg width="50" height="50" viewBox="0 0 50 50" fill="none" xmlns="http://www.w3.org/2000/svg">
    <circle cx="25" cy="25" r="25" fill="#23A462" fill-opacity="0.06"/>
    <path d="M25 15C23.0222 15 21.0888 15.5865 19.4443 16.6853C17.7998 17.7841 16.5181 19.3459 15.7612 21.1732C15.0043 23.0004 14.8063 25.0111 15.1922 26.9509C15.578 28.8907 16.5304 30.6725 17.9289 32.0711C19.3275 33.4696 21.1093 34.422 23.0491 34.8078C24.9889 35.1937 26.9996 34.9957 28.8268 34.2388C30.6541 33.4819 32.2159 32.2002 33.3147 30.5557C34.4135 28.9112 35 26.9778 35 25C34.9971 22.3487 33.9426 19.8068 32.0679 17.9321C30.1932 16.0574 27.6513 15.0029 25 15ZM33.3333 25C33.3343 26.6331 32.8525 28.23 31.9483 29.59L30.955 28.5958C30.8771 28.5177 30.8334 28.412 30.8333 28.3017V27.5C30.8333 26.837 30.5699 26.2011 30.1011 25.7322C29.6323 25.2634 28.9964 25 28.3333 25H25.8333C25.6123 25 25.4004 24.9122 25.2441 24.7559C25.0878 24.5996 25 24.3877 25 24.1667V23.75C25 23.6395 25.0439 23.5335 25.122 23.4554C25.2002 23.3772 25.3062 23.3333 25.4167 23.3333C25.9692 23.3333 26.4991 23.1138 26.8898 22.7231C27.2805 22.3324 27.5 21.8025 27.5 21.25V20.4167C27.5 20.3062 27.5439 20.2002 27.622 20.122C27.7002 20.0439 27.8062 20 27.9167 20H29.0658C29.6178 19.9984 30.1469 19.7792 30.5383 19.39L30.8525 19.0758C31.6385 19.8492 32.2626 20.7714 32.6886 21.7885C33.1145 22.8056 33.3337 23.8973 33.3333 25ZM16.7075 25.8025L19.3392 28.4342C19.5708 28.6672 19.8463 28.852 20.1499 28.9778C20.4534 29.1035 20.7789 29.1677 21.1075 29.1667H23.3333C23.5543 29.1667 23.7663 29.2545 23.9226 29.4107C24.0789 29.567 24.1667 29.779 24.1667 30V33.2908C22.2502 33.0952 20.4603 32.2426 19.1008 30.8778C17.7412 29.5129 16.8957 27.7198 16.7075 25.8025ZM25.8333 33.2908V30C25.8333 29.337 25.5699 28.7011 25.1011 28.2322C24.6323 27.7634 23.9964 27.5 23.3333 27.5H21.1075C20.9979 27.5001 20.8894 27.4786 20.7882 27.4367C20.687 27.3948 20.595 27.3333 20.5175 27.2558L16.8025 23.5408C17.041 22.1852 17.6123 20.9099 18.4651 19.8295C19.318 18.7491 20.4258 17.8973 21.689 17.3505C22.9522 16.8038 24.3314 16.5792 25.7029 16.6969C27.0743 16.8146 28.3951 17.271 29.5467 18.025L29.36 18.2117C29.2816 18.289 29.176 18.3327 29.0658 18.3333H27.9167C27.3641 18.3333 26.8342 18.5528 26.4435 18.9435C26.0528 19.3342 25.8333 19.8641 25.8333 20.4167V21.25C25.8333 21.3605 25.7894 21.4665 25.7113 21.5446C25.6332 21.6228 25.5272 21.6667 25.4167 21.6667C24.8641 21.6667 24.3342 21.8862 23.9435 22.2769C23.5528 22.6676 23.3333 23.1975 23.3333 23.75V24.1667C23.3333 24.8297 23.5967 25.4656 24.0656 25.9344C24.5344 26.4033 25.1703 26.6667 25.8333 26.6667H28.3333C28.5543 26.6667 28.7663 26.7545 28.9226 26.9107C29.0789 27.067 29.1667 27.279 29.1667 27.5V28.3017C29.1682 28.8537 29.3874 29.3828 29.7767 29.7742L30.8908 30.8883C29.5337 32.2502 27.7463 33.0992 25.8333 33.2908Z" fill="#23A462"/>
</svg>
