<svg width="16" height="15" viewBox="0 0 16 15" fill="none" xmlns="http://www.w3.org/2000/svg">
<path d="M15.7733 15L15.7771 14.9994V9.49817C15.7771 6.80692 15.1977 4.73379 12.0515 4.73379C10.539 4.73379 9.52397 5.56379 9.1096 6.35067H9.06585V4.98504H6.08272V14.9994H9.18897V10.0407C9.18897 8.73505 9.43647 7.47254 11.0533 7.47254C12.6465 7.47254 12.6702 8.96254 12.6702 10.1244V15H15.7733Z" fill="#23A462"/>
<path d="M1.02459 4.9856H4.13459V15H1.02459V4.9856Z" fill="#23A462"/>
<path d="M2.57835 0C1.58397 0 0.7771 0.806875 0.7771 1.80125C0.7771 2.79562 1.58397 3.61937 2.57835 3.61937C3.57272 3.61937 4.3796 2.79562 4.3796 1.80125C4.37897 0.806875 3.5721 0 2.57835 0Z" fill="#23A462"/>
</svg>
