<svg width="15" height="17" viewBox="0 0 15 17" fill="none" xmlns="http://www.w3.org/2000/svg">
<path d="M13 7.75H2.5C1.67157 7.75 1 8.42157 1 9.25V14.5C1 15.3284 1.67157 16 2.5 16H13C13.8284 16 14.5 15.3284 14.5 14.5V9.25C14.5 8.42157 13.8284 7.75 13 7.75Z" stroke="#999999" stroke-linecap="round" stroke-linejoin="round"/>
<path d="M3.99902 7.75V4.75C3.99902 3.75544 4.39411 2.80161 5.09737 2.09835C5.80063 1.39509 6.75446 1 7.74902 1C8.74358 1 9.69741 1.39509 10.4007 2.09835C11.1039 2.80161 11.499 3.75544 11.499 4.75V7.75" stroke="#999999" stroke-linecap="round" stroke-linejoin="round"/>
</svg>
