<svg width="50" height="50" viewBox="0 0 50 50" fill="none" xmlns="http://www.w3.org/2000/svg">
    <circle cx="25" cy="25" r="25" fill="#23A462" fill-opacity="0.06"/>
    <path d="M34.0272 22.6445L30.7942 19.4115C30.637 19.2596 30.4264 19.1756 30.2079 19.1775C29.9894 19.1794 29.7803 19.2671 29.6258 19.4216C29.4712 19.5761 29.3836 19.7852 29.3817 20.0037C29.3798 20.2222 29.4638 20.4328 29.6156 20.59L32.8486 23.823C32.9447 23.921 33.0286 24.0301 33.0987 24.148C33.0862 24.148 33.0762 24.1414 33.0637 24.1414L19.9916 24.1681C19.7705 24.1681 19.5585 24.2559 19.4022 24.4122C19.2459 24.5685 19.1581 24.7805 19.1581 25.0015C19.1581 25.2226 19.2459 25.4346 19.4022 25.5909C19.5585 25.7472 19.7705 25.835 19.9916 25.835L33.0587 25.8083C33.082 25.8083 33.1012 25.7966 33.1237 25.795C33.0498 25.936 32.956 26.0656 32.8453 26.18L29.6123 29.4131C29.5327 29.4899 29.4692 29.5819 29.4255 29.6836C29.3818 29.7853 29.3588 29.8947 29.3579 30.0053C29.3569 30.116 29.378 30.2257 29.4199 30.3282C29.4618 30.4306 29.5237 30.5237 29.602 30.6019C29.6802 30.6802 29.7733 30.7421 29.8757 30.784C29.9781 30.8259 30.0879 30.847 30.1986 30.846C30.3092 30.845 30.4186 30.822 30.5203 30.7784C30.622 30.7347 30.7139 30.6712 30.7908 30.5916L34.0238 27.3586C34.6488 26.7334 35 25.8855 35 25.0015C35 24.1175 34.6488 23.2697 34.0238 22.6445H34.0272Z" fill="#23A462"/>
    <path d="M20.8343 33.3363H19.1673C18.5042 33.3363 17.8682 33.0729 17.3993 32.6039C16.9304 32.135 16.6669 31.499 16.6669 30.8359V19.1673C16.6669 18.5042 16.9304 17.8682 17.3993 17.3993C17.8682 16.9304 18.5042 16.6669 19.1673 16.6669H20.8343C21.0553 16.6669 21.2673 16.5791 21.4236 16.4228C21.5799 16.2665 21.6677 16.0545 21.6677 15.8335C21.6677 15.6124 21.5799 15.4004 21.4236 15.2441C21.2673 15.0878 21.0553 15 20.8343 15H19.1673C18.0625 15.0013 17.0033 15.4408 16.222 16.222C15.4408 17.0033 15.0013 18.0625 15 19.1673L15 30.8359C15.0013 31.9407 15.4408 32.9999 16.222 33.7812C17.0033 34.5624 18.0625 35.0019 19.1673 35.0032H20.8343C21.0553 35.0032 21.2673 34.9154 21.4236 34.7591C21.5799 34.6028 21.6677 34.3908 21.6677 34.1698C21.6677 33.9487 21.5799 33.7367 21.4236 33.5804C21.2673 33.4241 21.0553 33.3363 20.8343 33.3363Z" fill="#23A462"/>
</svg>
