<svg width="15" height="12" viewBox="0 0 15 12" fill="none" xmlns="http://www.w3.org/2000/svg">
<path d="M2.3 1H12.7C13.0445 1.00103 13.3745 1.13832 13.6181 1.3819C13.8617 1.62547 13.999 1.95553 14 2.3V10.1C13.999 10.4445 13.8617 10.7745 13.6181 11.0181C13.3745 11.2617 13.0445 11.399 12.7 11.4H2.3C1.95553 11.399 1.62547 11.2617 1.3819 11.0181C1.13832 10.7745 1.00103 10.4445 1 10.1V2.3C1.00103 1.95553 1.13832 1.62547 1.3819 1.3819C1.62547 1.13832 1.95553 1.00103 2.3 1Z" stroke="#999999" stroke-linecap="round" stroke-linejoin="round"/>
<path d="M14 2.29999L7.5 6.84999L1 2.29999" stroke="#999999" stroke-linecap="round" stroke-linejoin="round"/>
</svg>
