<svg width="14" height="11" viewBox="0 0 14 11" fill="none" xmlns="http://www.w3.org/2000/svg">
<path d="M13.3601 1.7443C12.9657 1.51191 12.5008 1.56072 12.1485 1.87355C12.1257 1.89349 12.1042 1.91618 12.0843 1.93956L11.0594 3.15857C10.9363 1.39503 9.69383 2.29807e-07 8.16667 2.29807e-07H2.91667C1.30842 -0.000687313 0 1.54147 0 3.43703V7.56229C0 9.45784 1.30842 11 2.91667 11H8.16667C9.70025 11 10.948 9.5926 11.0612 7.81874L12.0855 9.02469C12.1053 9.04738 12.1257 9.068 12.1479 9.08794C12.3532 9.26945 12.5959 9.36159 12.8409 9.36159C13.0177 9.36159 13.1944 9.31415 13.3601 9.21651C13.755 8.98412 14 8.51591 14 7.99681V2.96537C14 2.4449 13.755 1.97669 13.3601 1.7443ZM8.16667 9.62491H2.91667C1.95183 9.62491 1.16667 8.69948 1.16667 7.56229V3.43703C1.16667 2.29983 1.95183 1.3744 2.91667 1.3744H8.16667C9.1315 1.3744 9.91667 2.29983 9.91667 3.43703V7.56229C9.91667 8.69948 9.1315 9.62491 8.16667 9.62491ZM11.0833 5.90049V5.08301L12.8333 3.00113L12.8479 7.97756L11.0833 5.89981V5.90049Z" fill="#23A462"/>
</svg>
