<svg width="50" height="50" viewBox="0 0 50 50" fill="none" xmlns="http://www.w3.org/2000/svg">
    <circle cx="25" cy="25" r="25" fill="#23A462" fill-opacity="0.06"/>
    <path d="M24.5 25C25.4889 25 26.4556 24.7068 27.2779 24.1574C28.1001 23.6079 28.741 22.8271 29.1194 21.9134C29.4978 20.9998 29.5969 19.9945 29.4039 19.0246C29.211 18.0546 28.7348 17.1637 28.0355 16.4645C27.3363 15.7652 26.4454 15.289 25.4755 15.0961C24.5055 14.9031 23.5002 15.0022 22.5866 15.3806C21.673 15.759 20.8921 16.3999 20.3427 17.2222C19.7932 18.0444 19.5 19.0111 19.5 20C19.5013 21.3257 20.0285 22.5967 20.9659 23.5341C21.9033 24.4715 23.1743 24.9987 24.5 25ZM24.5 16.6667C25.1593 16.6667 25.8037 16.8622 26.3519 17.2284C26.9001 17.5947 27.3273 18.1153 27.5796 18.7244C27.8319 19.3335 27.8979 20.0037 27.7693 20.6503C27.6407 21.2969 27.3232 21.8909 26.857 22.357C26.3908 22.8232 25.7969 23.1407 25.1503 23.2693C24.5037 23.3979 23.8335 23.3319 23.2244 23.0796C22.6153 22.8273 22.0947 22.4001 21.7284 21.8519C21.3622 21.3037 21.1667 20.6593 21.1667 20C21.1667 19.1159 21.5179 18.2681 22.143 17.643C22.7681 17.0179 23.6159 16.6667 24.5 16.6667Z" fill="#23A462"/>
    <path d="M24.5 26.6666C22.5116 26.6688 20.6052 27.4597 19.1991 28.8658C17.7931 30.2718 17.0022 32.1782 17 34.1666C17 34.3876 17.0878 34.5996 17.2441 34.7559C17.4004 34.9122 17.6123 35 17.8333 35C18.0543 35 18.2663 34.9122 18.4226 34.7559C18.5789 34.5996 18.6667 34.3876 18.6667 34.1666C18.6667 32.6195 19.2812 31.1358 20.3752 30.0418C21.4692 28.9479 22.9529 28.3333 24.5 28.3333C26.0471 28.3333 27.5308 28.9479 28.6248 30.0418C29.7188 31.1358 30.3333 32.6195 30.3333 34.1666C30.3333 34.3876 30.4211 34.5996 30.5774 34.7559C30.7337 34.9122 30.9457 35 31.1667 35C31.3877 35 31.5996 34.9122 31.7559 34.7559C31.9122 34.5996 32 34.3876 32 34.1666C31.9978 32.1782 31.2069 30.2718 29.8009 28.8658C28.3948 27.4597 26.4884 26.6688 24.5 26.6666Z" fill="#23A462"/>
</svg>
