<svg width="16" height="15" viewBox="0 0 16 15" fill="none" xmlns="http://www.w3.org/2000/svg">
<path fill-rule="evenodd" clip-rule="evenodd" d="M8.27637 0C4.05137 0 0.776367 3.095 0.776367 7.275C0.776367 9.46125 1.67262 11.3512 3.13199 12.6562C3.25449 12.7656 3.32824 12.9194 3.33387 13.0837L3.37449 14.4175C3.38762 14.8431 3.82699 15.12 4.21637 14.9481L5.70512 14.2912C5.83137 14.2356 5.97262 14.2256 6.10574 14.2619C6.78949 14.45 7.51762 14.55 8.27637 14.55C12.5014 14.55 15.7764 11.455 15.7764 7.275C15.7764 3.095 12.5014 0 8.27637 0ZM12.7801 5.5975L10.577 9.09312C10.2264 9.64937 9.47574 9.7875 8.95012 9.39313L7.19762 8.07875C7.03699 7.95812 6.81574 7.95875 6.65574 8.08062L4.28887 9.87625C3.97324 10.1156 3.56074 9.73812 3.77199 9.4025L5.97512 5.90688C6.32574 5.35063 7.07637 5.2125 7.60199 5.60687L9.35449 6.92125C9.51512 7.04188 9.73637 7.04125 9.89637 6.91937L12.2632 5.12375C12.5795 4.88438 12.9914 5.26188 12.7801 5.5975Z" fill="#23A462"/>
</svg>
