<svg width="12" height="12" viewBox="0 0 12 12" fill="none" xmlns="http://www.w3.org/2000/svg">
<path d="M10 3.05176e-05H2C1.46957 3.05176e-05 0.960859 0.210744 0.585786 0.585817C0.210714 0.96089 0 1.4696 0 2.00003L0 8.00003C0 8.53046 0.210714 9.03917 0.585786 9.41424C0.960859 9.78932 1.46957 10 2 10H3.45L5.6755 11.8815C5.76578 11.9579 5.88023 11.9999 5.9985 11.9999C6.11677 11.9999 6.23122 11.9579 6.3215 11.8815L8.55 10H10C10.5304 10 11.0391 9.78932 11.4142 9.41424C11.7893 9.03917 12 8.53046 12 8.00003V2.00003C12 1.4696 11.7893 0.96089 11.4142 0.585817C11.0391 0.210744 10.5304 3.05176e-05 10 3.05176e-05ZM11 8.00003C11 8.26525 10.8946 8.5196 10.7071 8.70714C10.5196 8.89467 10.2652 9.00003 10 9.00003H8.55C8.31365 9.0001 8.08496 9.08389 7.9045 9.23653L6 10.845L4.0965 9.23653C3.91578 9.08367 3.6867 8.99987 3.45 9.00003H2C1.73478 9.00003 1.48043 8.89467 1.29289 8.70714C1.10536 8.5196 1 8.26525 1 8.00003V2.00003C1 1.73481 1.10536 1.48046 1.29289 1.29292C1.48043 1.10539 1.73478 1.00003 2 1.00003H10C10.2652 1.00003 10.5196 1.10539 10.7071 1.29292C10.8946 1.48046 11 1.73481 11 2.00003V8.00003Z" fill="#23A462"/>
<path d="M3.5 3.50003H6C6.13261 3.50003 6.25979 3.44735 6.35355 3.35358C6.44732 3.25982 6.5 3.13264 6.5 3.00003C6.5 2.86742 6.44732 2.74025 6.35355 2.64648C6.25979 2.55271 6.13261 2.50003 6 2.50003H3.5C3.36739 2.50003 3.24021 2.55271 3.14645 2.64648C3.05268 2.74025 3 2.86742 3 3.00003C3 3.13264 3.05268 3.25982 3.14645 3.35358C3.24021 3.44735 3.36739 3.50003 3.5 3.50003Z" fill="#23A462"/>
<path d="M8.5 4.50003H3.5C3.36739 4.50003 3.24021 4.55271 3.14645 4.64648C3.05268 4.74025 3 4.86742 3 5.00003C3 5.13264 3.05268 5.25982 3.14645 5.35358C3.24021 5.44735 3.36739 5.50003 3.5 5.50003H8.5C8.63261 5.50003 8.75979 5.44735 8.85355 5.35358C8.94732 5.25982 9 5.13264 9 5.00003C9 4.86742 8.94732 4.74025 8.85355 4.64648C8.75979 4.55271 8.63261 4.50003 8.5 4.50003Z" fill="#23A462"/>
<path d="M8.5 6.50003H3.5C3.36739 6.50003 3.24021 6.55271 3.14645 6.64648C3.05268 6.74025 3 6.86742 3 7.00003C3 7.13264 3.05268 7.25982 3.14645 7.35358C3.24021 7.44735 3.36739 7.50003 3.5 7.50003H8.5C8.63261 7.50003 8.75979 7.44735 8.85355 7.35358C8.94732 7.25982 9 7.13264 9 7.00003C9 6.86742 8.94732 6.74025 8.85355 6.64648C8.75979 6.55271 8.63261 6.50003 8.5 6.50003Z" fill="#23A462"/>
</svg>
