<svg width="10" height="14" viewBox="0 0 10 14" fill="none" xmlns="http://www.w3.org/2000/svg">
<path d="M4.99993 1C4.54527 1 4.10924 1.1724 3.78775 1.47928C3.46626 1.78616 3.28564 2.20237 3.28564 2.63636V7C3.28564 7.43399 3.46626 7.85021 3.78775 8.15708C4.10924 8.46396 4.54527 8.63636 4.99993 8.63636C5.45459 8.63636 5.89062 8.46396 6.21211 8.15708C6.5336 7.85021 6.71422 7.43399 6.71422 7V2.63636C6.71422 2.20237 6.5336 1.78616 6.21211 1.47928C5.89062 1.1724 5.45459 1 4.99993 1Z" stroke="white" stroke-width="0.9" stroke-linecap="round" stroke-linejoin="round"/>
<path d="M9 5.90909V7C9 8.01265 8.57857 8.98382 7.82843 9.69986C7.07828 10.4159 6.06087 10.8182 5 10.8182C3.93913 10.8182 2.92172 10.4159 2.17157 9.69986C1.42143 8.98382 1 8.01265 1 7V5.90909" stroke="white" stroke-width="0.9" stroke-linecap="round" stroke-linejoin="round"/>
<path d="M5 10.8182V13" stroke="white" stroke-width="0.9" stroke-linecap="round" stroke-linejoin="round"/>
<path d="M2.71436 13H7.28578" stroke="white" stroke-width="0.9" stroke-linecap="round" stroke-linejoin="round"/>
</svg>
