<svg width="10" height="16" viewBox="0 0 10 16" fill="none" xmlns="http://www.w3.org/2000/svg">
<path d="M10 8.25526V8.29697C10 9.68405 9.44045 10.9404 8.53513 11.8493C7.81571 12.5721 6.87694 13.0758 5.82786 13.2514C5.69463 13.2738 5.59611 13.3883 5.59611 13.5247V14.6646C5.59611 14.8177 5.71942 14.9416 5.87186 14.9416H7.31131C7.60193 14.9416 7.83802 15.1788 7.83802 15.4708C7.83802 15.6165 7.77915 15.7491 7.68373 15.845C7.5883 15.9409 7.45631 16 7.31131 16H2.68868C2.54369 16 2.4117 15.9409 2.31627 15.845C2.22085 15.7491 2.16198 15.6165 2.16198 15.4708C2.16198 15.1788 2.39807 14.9416 2.68868 14.9416H4.12814C4.28058 14.9416 4.40389 14.8177 4.40389 14.6646V13.5247C4.40389 13.3883 4.30537 13.2738 4.17214 13.2514C3.12306 13.0758 2.18429 12.5721 1.46487 11.8493C0.559549 10.9404 0 9.68405 0 8.29697V8.25526C0 7.96078 0.239187 7.72296 0.532284 7.72607H0.553972C0.830338 7.72919 1.05341 7.95518 1.05341 8.23284C1.05341 10.4106 2.7742 12.2297 4.94175 12.2615C4.96096 12.2615 4.98079 12.2621 5 12.2621C5.01921 12.2621 5.03904 12.2615 5.05825 12.2615C7.2258 12.2297 8.94659 10.4106 8.94659 8.23284C8.94659 7.95518 9.16966 7.72919 9.44603 7.72607H9.46772C9.76081 7.72296 10 7.96078 10 8.25526Z" fill="#23A462"/>
<path d="M8.14576 3.1614V8.10397C8.14576 9.85027 6.73728 11.266 4.99915 11.266C3.26102 11.266 1.85254 9.85027 1.85254 8.10397V3.1614C1.85254 2.28856 2.2045 1.4979 2.77397 0.925759C3.34343 0.353619 4.13039 0 4.99915 0C5.86791 0 6.65487 0.353619 7.22433 0.925759C7.7938 1.4979 8.14576 2.28856 8.14576 3.1614Z" fill="#23A462"/>
</svg>
