<svg width="18" height="18" viewBox="0 0 18 18" fill="none" xmlns="http://www.w3.org/2000/svg">
    <path d="M5.25001 0H3.00001C2.20435 0 1.44129 0.316071 0.878681 0.878681C0.316071 1.44129 0 2.20435 0 3.00001L0 5.25001C0 6.04566 0.316071 6.80872 0.878681 7.37133C1.44129 7.93394 2.20435 8.25001 3.00001 8.25001H5.25001C6.04566 8.25001 6.80872 7.93394 7.37133 7.37133C7.93394 6.80872 8.25001 6.04566 8.25001 5.25001V3.00001C8.25001 2.20435 7.93394 1.44129 7.37133 0.878681C6.80872 0.316071 6.04566 0 5.25001 0ZM6.75001 5.25001C6.75001 5.64783 6.59198 6.02937 6.31067 6.31067C6.02937 6.59198 5.64783 6.75001 5.25001 6.75001H3.00001C2.60218 6.75001 2.22065 6.59198 1.93934 6.31067C1.65804 6.02937 1.5 5.64783 1.5 5.25001V3.00001C1.5 2.60218 1.65804 2.22065 1.93934 1.93934C2.22065 1.65804 2.60218 1.5 3.00001 1.5H5.25001C5.64783 1.5 6.02937 1.65804 6.31067 1.93934C6.59198 2.22065 6.75001 2.60218 6.75001 3.00001V5.25001Z" fill="#333333"/>
    <path d="M15 0H12.75C11.9544 0 11.1913 0.316071 10.6287 0.878681C10.0661 1.44129 9.75 2.20435 9.75 3.00001V5.25001C9.75 6.04566 10.0661 6.80872 10.6287 7.37133C11.1913 7.93394 11.9544 8.25001 12.75 8.25001H15C15.7957 8.25001 16.5587 7.93394 17.1213 7.37133C17.6839 6.80872 18 6.04566 18 5.25001V3.00001C18 2.20435 17.6839 1.44129 17.1213 0.878681C16.5587 0.316071 15.7957 0 15 0ZM16.5 5.25001C16.5 5.64783 16.342 6.02937 16.0607 6.31067C15.7794 6.59198 15.3978 6.75001 15 6.75001H12.75C12.3522 6.75001 11.9706 6.59198 11.6893 6.31067C11.408 6.02937 11.25 5.64783 11.25 5.25001V3.00001C11.25 2.60218 11.408 2.22065 11.6893 1.93934C11.9706 1.65804 12.3522 1.5 12.75 1.5H15C15.3978 1.5 15.7794 1.65804 16.0607 1.93934C16.342 2.22065 16.5 2.60218 16.5 3.00001V5.25001Z" fill="#333333"/>
    <path d="M5.25001 9.75H3.00001C2.20435 9.75 1.44129 10.0661 0.878681 10.6287C0.316071 11.1913 0 11.9544 0 12.75L0 15C0 15.7957 0.316071 16.5587 0.878681 17.1213C1.44129 17.6839 2.20435 18 3.00001 18H5.25001C6.04566 18 6.80872 17.6839 7.37133 17.1213C7.93394 16.5587 8.25001 15.7957 8.25001 15V12.75C8.25001 11.9544 7.93394 11.1913 7.37133 10.6287C6.80872 10.0661 6.04566 9.75 5.25001 9.75ZM6.75001 15C6.75001 15.3978 6.59198 15.7794 6.31067 16.0607C6.02937 16.342 5.64783 16.5 5.25001 16.5H3.00001C2.60218 16.5 2.22065 16.342 1.93934 16.0607C1.65804 15.7794 1.5 15.3978 1.5 15V12.75C1.5 12.3522 1.65804 11.9706 1.93934 11.6893C2.22065 11.408 2.60218 11.25 3.00001 11.25H5.25001C5.64783 11.25 6.02937 11.408 6.31067 11.6893C6.59198 11.9706 6.75001 12.3522 6.75001 12.75V15Z" fill="#333333"/>
    <path d="M15 9.75H12.75C11.9544 9.75 11.1913 10.0661 10.6287 10.6287C10.0661 11.1913 9.75 11.9544 9.75 12.75V15C9.75 15.7957 10.0661 16.5587 10.6287 17.1213C11.1913 17.6839 11.9544 18 12.75 18H15C15.7957 18 16.5587 17.6839 17.1213 17.1213C17.6839 16.5587 18 15.7957 18 15V12.75C18 11.9544 17.6839 11.1913 17.1213 10.6287C16.5587 10.0661 15.7957 9.75 15 9.75ZM16.5 15C16.5 15.3978 16.342 15.7794 16.0607 16.0607C15.7794 16.342 15.3978 16.5 15 16.5H12.75C12.3522 16.5 11.9706 16.342 11.6893 16.0607C11.408 15.7794 11.25 15.3978 11.25 15V12.75C11.25 12.3522 11.408 11.9706 11.6893 11.6893C11.9706 11.408 12.3522 11.25 12.75 11.25H15C15.3978 11.25 15.7794 11.408 16.0607 11.6893C16.342 11.9706 16.5 12.3522 16.5 12.75V15Z" fill="#333333"/>
</svg>
