<svg width="14" height="14" viewBox="0 0 14 14" fill="none" xmlns="http://www.w3.org/2000/svg">
    <g clip-path="url(#clip0_1356_1968)">
        <path d="M11.0833 0H2.91667C1.30842 0 0 1.30842 0 2.91667V11.0833C0 12.6916 1.30842 14 2.91667 14H9.71017C10.4609 14 11.1667 13.7078 11.6976 13.1769L13.1769 11.6976C13.7002 11.1749 14 10.4498 14 9.71017V2.91667C14 1.30842 12.6916 0 11.0833 0ZM1.16667 11.0833V2.91667C1.16667 1.95183 1.95183 1.16667 2.91667 1.16667H11.0833C12.0482 1.16667 12.8333 1.95183 12.8333 2.91667V8.75H10.5C9.53517 8.75 8.75 9.53517 8.75 10.5V12.8333H2.91667C1.95183 12.8333 1.16667 12.0482 1.16667 11.0833ZM10.8727 12.3521C10.6114 12.6134 10.2778 12.775 9.91667 12.8199V10.5C9.91667 10.178 10.1786 9.91667 10.5 9.91667H12.8193C12.7732 10.2754 12.6087 10.6155 12.3515 10.8727L10.8727 12.3521ZM2.91667 3.79167C2.91667 3.30867 3.30867 2.91667 3.79167 2.91667C4.27467 2.91667 4.66667 3.30867 4.66667 3.79167C4.66667 4.27467 4.27467 4.66667 3.79167 4.66667C3.30867 4.66667 2.91667 4.27467 2.91667 3.79167ZM4.66667 7C4.66667 7.483 4.27467 7.875 3.79167 7.875C3.30867 7.875 2.91667 7.483 2.91667 7C2.91667 6.517 3.30867 6.125 3.79167 6.125C4.27467 6.125 4.66667 6.517 4.66667 7ZM4.66667 10.2083C4.66667 10.6913 4.27467 11.0833 3.79167 11.0833C3.30867 11.0833 2.91667 10.6913 2.91667 10.2083C2.91667 9.72533 3.30867 9.33333 3.79167 9.33333C4.27467 9.33333 4.66667 9.72533 4.66667 10.2083Z" fill="#23A462"/>
    </g>
    <defs>
        <clipPath id="clip0_1356_1968">
            <rect width="14" height="14" fill="white"/>
        </clipPath>
    </defs>
</svg>
