<svg width="18" height="18" viewBox="0 0 18 18" fill="none" xmlns="http://www.w3.org/2000/svg">
<path d="M14.25 18H3.75C2.7558 17.9988 1.80267 17.6033 1.09966 16.9003C0.396661 16.1973 0.00119089 15.2442 0 14.25L0 3.75C0.00119089 2.7558 0.396661 1.80267 1.09966 1.09966C1.80267 0.396661 2.7558 0.00119089 3.75 0L14.25 0C15.2442 0.00119089 16.1973 0.396661 16.9003 1.09966C17.6033 1.80267 17.9988 2.7558 18 3.75V14.25C17.9988 15.2442 17.6033 16.1973 16.9003 16.9003C16.1973 17.6033 15.2442 17.9988 14.25 18ZM3.75 1.5C3.15326 1.5 2.58097 1.73705 2.15901 2.15901C1.73705 2.58097 1.5 3.15326 1.5 3.75V14.25C1.5 14.8467 1.73705 15.419 2.15901 15.841C2.58097 16.2629 3.15326 16.5 3.75 16.5H14.25C14.8467 16.5 15.419 16.2629 15.841 15.841C16.2629 15.419 16.5 14.8467 16.5 14.25V3.75C16.5 3.15326 16.2629 2.58097 15.841 2.15901C15.419 1.73705 14.8467 1.5 14.25 1.5H3.75ZM7.0065 12.7537C6.69385 12.7527 6.38701 12.6691 6.117 12.5115C5.85026 12.3588 5.62887 12.138 5.47547 11.8717C5.32208 11.6054 5.2422 11.3031 5.244 10.9958V7.00425C5.24375 6.69686 5.32434 6.39481 5.47769 6.1284C5.63104 5.86199 5.85175 5.6406 6.11769 5.48643C6.38362 5.33226 6.68543 5.25074 6.99282 5.25005C7.30021 5.24936 7.60237 5.32953 7.869 5.4825L11.8275 7.45875C12.1025 7.60718 12.3327 7.82646 12.4944 8.09384C12.6561 8.36122 12.7434 8.66699 12.7471 8.97944C12.7509 9.29189 12.671 9.59966 12.5157 9.87084C12.3605 10.142 12.1356 10.3668 11.8643 10.5218L7.83225 12.537C7.58078 12.6804 7.296 12.7552 7.0065 12.7537ZM6.98775 6.75375C6.94642 6.75373 6.90581 6.7646 6.87 6.78525C6.8311 6.80688 6.79882 6.8387 6.77663 6.87728C6.75443 6.91586 6.74315 6.95975 6.744 7.00425V10.9958C6.74425 11.0396 6.75591 11.0826 6.77782 11.1206C6.79972 11.1586 6.83113 11.1902 6.86896 11.2124C6.90678 11.2345 6.94972 11.2465 6.99356 11.247C7.0374 11.2476 7.08063 11.2367 7.119 11.2155L11.151 9.1995C11.181 9.17601 11.2049 9.14559 11.2206 9.11084C11.2363 9.07609 11.2433 9.03805 11.241 9C11.2419 8.95539 11.2306 8.91138 11.2083 8.87276C11.1859 8.83415 11.1534 8.80241 11.1143 8.781L7.15875 6.80475C7.10718 6.77311 7.04823 6.75553 6.98775 6.75375Z" fill="#333333"/>
</svg>
