<svg width="30" height="30" viewBox="0 0 30 30" fill="none" xmlns="http://www.w3.org/2000/svg">
<path d="M27.2318 15.5066C27.2318 15.9086 27.2318 16.2532 27.1741 16.5978C27.0587 18.2058 26.6549 19.699 26.0202 21.0773C25.7895 21.6516 25.501 22.1685 25.1548 22.6854C22.7316 26.4757 18.4622 29.0027 13.6159 29.0027C11.5389 29.0027 9.57729 28.5432 7.84646 27.7392C3.23089 25.6143 0 20.905 0 15.5066C0 10.1656 3.1155 5.57117 7.55798 3.38882C7.21182 3.84827 6.86565 4.30771 6.57718 4.82458C6.57718 4.88201 6.51948 4.88201 6.51948 4.93944C6.3464 5.11173 6.17331 5.22659 6.00023 5.39888C5.76945 5.57117 5.59637 5.80089 5.36559 5.97318L5.2502 6.08804L5.13481 6.2029C5.07712 6.26033 5.01942 6.37519 4.90403 6.43262C4.78865 6.60491 4.61556 6.7772 4.50017 6.94949C3.92323 7.69609 3.46167 8.50011 3.1155 9.36156C3.05781 9.41899 3.05781 9.53385 3.00012 9.59128C2.94242 9.70614 2.94242 9.821 2.88473 9.87843C2.88473 9.93586 2.82703 9.99329 2.82703 10.0507C2.76934 10.223 2.71164 10.3379 2.65395 10.5102C2.59625 10.625 2.59625 10.7399 2.53856 10.7973C2.53856 10.8547 2.48086 10.9122 2.48086 10.9696C2.48086 11.0845 2.42317 11.1993 2.42317 11.3142L2.25009 12.3479C2.25009 12.4628 2.25009 12.5202 2.19239 12.6351V14.0134C2.19239 17.6889 3.86553 21.0199 6.57718 23.1448C8.65418 24.8103 11.2504 25.844 14.0775 25.844C16.6737 25.844 19.0392 25.04 21.0008 23.6042C22.4432 22.5705 23.5971 21.2496 24.4625 19.699C24.5779 19.4693 24.6933 19.297 24.8086 19.0673C25.501 17.6315 25.9048 16.0809 25.9048 14.4154V14.0134C25.9048 13.6114 25.9048 13.2668 25.8471 12.8648L25.9048 12.9222C26.0779 13.0945 26.251 13.2094 26.4241 13.3817C26.5972 13.0945 26.7703 12.8648 26.9433 12.5776C27.0587 13.0945 27.1164 13.6114 27.1741 14.1857C27.2318 14.7026 27.2318 15.1046 27.2318 15.5066Z" fill="#ED1C24"/>
<path d="M15.2317 4.65184L12.6931 0C8.48141 1.89519 5.59668 6.08759 5.59668 10.9692C5.59668 13.4387 6.34671 15.7359 7.61599 17.6311C7.5006 16.9993 7.5006 16.3676 7.5006 15.6784C7.55829 10.682 10.7315 6.43217 15.2317 4.65184Z" fill="#F7941D"/>
<path d="M17.2502 6.94921C18.2887 6.66206 19.4426 6.5472 20.5387 6.5472C21.2311 6.5472 21.9811 6.60463 22.6158 6.71949L22.5581 4.65201L22.4427 0.517036C21.9811 0.459606 21.4619 0.402176 20.9426 0.402176C18.6348 0.402176 16.5001 1.14877 14.7693 2.3548L16.154 4.88173C13.6731 5.74318 11.6538 7.46608 10.3845 9.70586C9.74987 10.797 9.28832 12.0605 9.11523 13.3814C9.4614 12.6922 9.86526 12.0605 10.3268 11.4862C12 9.30385 14.4231 7.63837 17.2502 6.94921Z" fill="#ED1C24"/>
<path d="M23.3075 4.59396L23.4229 7.5229C22.4421 7.23575 21.4613 7.06346 20.3651 7.06346C18.3458 7.06346 16.4419 7.63776 14.7687 8.61407C12.6917 9.87754 11.0763 11.8876 10.2686 14.2422C11.0763 13.1511 12.0571 12.1747 13.211 11.4282C14.8841 10.337 16.9034 9.70525 19.0381 9.70525C20.6536 9.70525 22.1536 10.0498 23.5383 10.6816C24.5768 11.141 25.4999 11.7727 26.3076 12.5768L27.9231 10.1647L30.0001 7.00603C28.1539 5.51285 25.8461 4.59396 23.3075 4.59396Z" fill="#F7941D"/>
<path d="M25.9048 14.1282V14.5302C25.9048 16.9423 24.924 18.9523 24.8086 19.182C24.6932 19.4117 24.5779 19.584 24.4625 19.8138C23.5971 21.3644 22.4432 22.6853 21.0008 23.719C19.0392 25.0973 16.6737 25.9588 14.0775 25.9588C11.2504 25.9588 8.59647 24.9825 6.57717 23.2596C3.92322 21.0772 2.19238 17.8037 2.19238 14.1282V12.7499C2.19238 12.635 2.19238 12.5776 2.25008 12.4627L2.42316 11.429C2.42316 11.3141 2.48086 11.1992 2.48086 11.0844C2.48086 11.0269 2.53855 10.9695 2.53855 10.9121C2.59624 10.7972 2.59624 10.6824 2.65394 10.6249C2.71163 10.4526 2.76933 10.2804 2.82702 10.1655C2.82702 10.1081 2.88472 10.0506 2.88472 9.99321C2.94241 9.87835 2.94241 9.76349 3.00011 9.70606C3.0578 9.64863 3.0578 9.53377 3.11549 9.47634C3.46166 8.61488 3.98091 7.81086 4.50016 7.06427C4.61555 6.89198 4.78864 6.71969 4.90403 6.5474C4.96172 6.48997 5.01941 6.37511 5.1348 6.31768C5.1925 6.26025 5.1925 6.20282 5.25019 6.20282C5.30789 6.14539 5.30789 6.08796 5.36558 6.08796C5.53867 5.85824 5.76944 5.68595 6.00022 5.51366C6.1733 5.34137 6.34639 5.2265 6.51947 5.05421C6.51947 5.11164 6.46178 5.11165 6.46178 5.16908C6.46178 5.22651 6.40408 5.28394 6.40408 5.28394C5.71175 6.66226 5.25019 8.32773 5.07711 10.0506C5.01941 10.5101 5.01941 10.9695 5.01941 11.4864C5.01941 17.6888 8.65417 22.6853 13.1543 22.6853H13.6159C14.2505 22.6853 14.8852 22.5704 15.5198 22.4555C18.5776 21.6515 20.8277 18.8374 20.8277 15.5639V15.3916C20.77 13.439 19.9623 11.6587 18.6353 10.4526C19.5584 10.4526 20.4815 10.6249 21.347 10.8547C23.0201 11.2567 24.5202 12.0607 25.8471 13.0944L25.9048 13.1519C25.8471 13.3816 25.9048 13.7836 25.9048 14.1282Z" fill="#F7941D"/>
<path d="M25.9061 14.1271V14.5291C25.9061 17.056 24.7522 19.2384 24.7522 19.2384C24.6368 19.4681 24.5215 19.6404 24.4061 19.8701C23.5406 21.4207 22.3291 22.7416 20.8867 23.7753C18.8674 25.2685 16.4442 26.0151 13.9057 26.0151C11.1363 26.0151 8.48237 25.0388 6.34767 23.3159C3.57834 21.0761 1.96289 17.6877 1.96289 14.1271C1.96289 10.5664 3.57834 7.17803 6.34767 4.93825L6.46306 4.82339C6.46306 4.88082 6.40537 4.88082 6.40537 4.93825C6.40537 4.99569 6.34767 4.99568 6.34767 5.05312C3.63603 7.29289 2.07828 10.5664 2.07828 14.1271C2.07828 17.6877 3.63603 20.9613 6.40537 23.2585C8.48237 24.9814 11.194 25.9003 13.9057 25.9003C16.3865 25.9003 18.8097 25.1537 20.829 23.6605C22.2714 22.6267 23.4253 21.3058 24.2907 19.7552C24.4061 19.5255 24.5214 19.3532 24.5791 19.1235C24.5791 19.1235 25.733 16.9986 25.733 14.4717V14.0696C25.733 13.6676 25.733 13.3231 25.6753 12.921V12.8636L25.733 12.921L25.7907 12.9785C25.9061 13.4379 25.9061 13.7825 25.9061 14.1271Z" fill="#F7941D"/>
</svg>
