<svg width="46" height="46" viewBox="0 0 46 46" fill="none" xmlns="http://www.w3.org/2000/svg">
<g id="Group 1000005705">
<circle id="Ellipse 404" cx="23" cy="23" r="23" fill="#23A462" fill-opacity="0.1"/>
<g id="bell">
<path id="Path 37893" d="M28.0021 19.8009C28.0021 18.5276 27.4963 17.3065 26.596 16.4061C25.6957 15.5058 24.4745 15 23.2013 15C21.928 15 20.7069 15.5058 19.8066 16.4061C18.9062 17.3065 18.4004 18.5276 18.4004 19.8009C18.4004 25.4018 16 27.0021 16 27.0021H30.4026C30.4026 27.0021 28.0021 25.4018 28.0021 19.8009Z" stroke="#999999" stroke-width="2" stroke-linecap="round" stroke-linejoin="round"/>
<path id="Path 37894" d="M24.5888 30.2026C24.4481 30.4451 24.2462 30.6464 24.0033 30.7864C23.7603 30.9263 23.4849 30.9999 23.2046 30.9999C22.9242 30.9999 22.6488 30.9263 22.4058 30.7864C22.1629 30.6464 21.961 30.4451 21.8203 30.2026" stroke="#999999" stroke-width="2" stroke-linecap="round" stroke-linejoin="round"/>
</g>
</g>
</svg>
