<svg width="18" height="20" viewBox="0 0 18 20" fill="none" xmlns="http://www.w3.org/2000/svg">
    <path d="M14.4444 6.40096C14.4444 4.96853 13.8778 3.59478 12.8693 2.5819C11.8607 1.56903 10.4929 1 9.06661 1C7.64035 1 6.2725 1.56903 5.26398 2.5819C4.25545 3.59478 3.68887 4.96853 3.68887 6.40096C3.68887 12.7021 1 14.5024 1 14.5024H17.1332C17.1332 14.5024 14.4444 12.7021 14.4444 6.40096Z" stroke="white" stroke-width="1.5" stroke-linecap="round" stroke-linejoin="round"/>
    <path d="M10.6172 18.103C10.4596 18.3758 10.2335 18.6023 9.96134 18.7597C9.68921 18.9171 9.38068 19 9.06663 19C8.75259 19 8.44406 18.9171 8.17193 18.7597C7.89981 18.6023 7.67363 18.3758 7.51605 18.103" stroke="white" stroke-width="1.5" stroke-linecap="round" stroke-linejoin="round"/>
</svg>
