<svg width="13" height="14" viewBox="0 0 13 14" fill="none" xmlns="http://www.w3.org/2000/svg">
<path d="M11.5653 2.51631L8.01982 0.416817C7.56092 0.144104 7.03538 0 6.4997 0C5.96403 0 5.43849 0.144104 4.97959 0.416817L1.43414 2.51631C0.997708 2.77661 0.636522 3.1434 0.385346 3.58138C0.13417 4.01936 0.00146295 4.51378 0 5.01705V8.98276C0.00146295 9.48603 0.13417 9.98045 0.385346 10.4184C0.636522 10.8564 0.997708 11.2232 1.43414 11.4835L4.97959 13.583C5.43845 13.8558 5.96401 14 6.4997 14C7.0354 14 7.56096 13.8558 8.01982 13.583L11.5653 11.4835C12.0018 11.2233 12.3631 10.8565 12.6144 10.4185C12.8657 9.98054 12.9985 9.48608 13 8.98276V5.01705C12.9985 4.51372 12.8657 4.01926 12.6144 3.58128C12.3631 3.14329 12.0018 2.77653 11.5653 2.51631ZM5.58823 1.41758C5.86343 1.25386 6.17867 1.16735 6.5 1.16735C6.82133 1.16735 7.13657 1.25386 7.41177 1.41758L10.9572 3.51707C11.0541 3.57459 11.1451 3.64119 11.229 3.71594L6.50177 6.51527L1.7745 3.71594C1.85831 3.64105 1.94935 3.57445 2.04632 3.51707L5.58823 1.41758ZM2.04277 10.4833C1.78076 10.3272 1.56391 10.1072 1.41311 9.84436C1.26231 9.58153 1.18266 9.2848 1.18182 8.98276V5.01705C1.18173 4.92424 1.18944 4.83158 1.20486 4.74003L5.90909 7.52478V12.7315C5.79736 12.6922 5.68987 12.642 5.58823 12.5816L2.04277 10.4833ZM11.8182 8.98276C11.8172 9.28477 11.7375 9.58146 11.5867 9.84427C11.4359 10.1071 11.2192 10.3272 10.9572 10.4833L7.41177 12.5828C7.31013 12.6432 7.20264 12.6934 7.09091 12.7327V7.52478L11.7951 4.73945C11.8106 4.83119 11.8183 4.92404 11.8182 5.01705V8.98276Z" fill="#23A462"/>
</svg>
