<svg width="15" height="16" viewBox="0 0 15 16" fill="none" xmlns="http://www.w3.org/2000/svg">
<path d="M12.765 4.14417L10.4965 2.10833C9.697 1.39083 8.6375 1 7.5065 1H3.925C2.313 1 1 2.17833 1 3.625V12.375C1 13.8217 2.313 15 3.925 15H11.075C12.687 15 14 13.8217 14 12.375V6.8275C14 5.8125 13.558 4.86167 12.765 4.14417ZM12.3035 4.55833C12.661 4.87917 12.934 5.25833 13.1095 5.66667H9.775C9.2355 5.66667 8.8 5.27583 8.8 4.79167V1.79917C9.2615 1.95667 9.6775 2.20167 10.035 2.5225L12.3035 4.55833ZM13.35 12.375C13.35 13.5008 12.3295 14.4167 11.075 14.4167H3.925C2.6705 14.4167 1.65 13.5008 1.65 12.375V3.625C1.65 2.49917 2.6705 1.58333 3.925 1.58333H7.5065C7.721 1.58333 7.9355 1.60083 8.15 1.63583V4.79167C8.15 5.59667 8.878 6.25 9.775 6.25H13.2915C13.3305 6.43667 13.35 6.62917 13.35 6.8275V12.375ZM4.2305 8.58333H3.6C3.2425 8.58333 2.95 8.84583 2.95 9.16667V11.7917C2.95 11.955 3.093 12.0833 3.275 12.0833C3.457 12.0833 3.6 11.955 3.6 11.7917V10.9167H4.2305C4.952 10.9167 5.537 10.38 5.537 9.73833C5.537 9.09667 4.952 8.58333 4.2305 8.58333ZM4.2305 10.3333H3.6V9.16667H4.2305C4.5945 9.16667 4.887 9.42333 4.887 9.73833C4.887 10.0533 4.588 10.3333 4.2305 10.3333ZM7.5 8.58333C7.5 8.58333 7.1685 8.58333 6.85 8.58333C6.4925 8.58333 6.2 8.84583 6.2 9.16667V11.5C6.2 11.8208 6.4925 12.0833 6.85 12.0833C7.162 12.0833 7.4805 12.0833 7.5 12.0833C8.2215 12.0833 8.8 11.5642 8.8 10.9283V9.74417C8.8 9.10833 8.2215 8.58917 7.5 8.58917V8.58333ZM8.15 10.9283C8.15 11.2375 7.8705 11.4883 7.526 11.5H6.85V9.16667H7.526C7.8705 9.17833 8.15 9.435 8.15 9.73833V10.9225V10.9283ZM12.05 8.875C12.05 9.03833 11.907 9.16667 11.725 9.16667H10.1V10.3333H11.075C11.257 10.3333 11.4 10.4617 11.4 10.625C11.4 10.7883 11.257 10.9167 11.075 10.9167H10.1V11.7917C10.1 11.955 9.957 12.0833 9.775 12.0833C9.593 12.0833 9.45 11.955 9.45 11.7917V9.16667C9.45 8.84583 9.7425 8.58333 10.1 8.58333H11.725C11.907 8.58333 12.05 8.71167 12.05 8.875Z" fill="#FF6767" stroke="#FF6767" stroke-width="0.3"/>
</svg>
