<svg width="12" height="12" viewBox="0 0 12 12" fill="none" xmlns="http://www.w3.org/2000/svg">
<path d="M9.48886 7.43356C9.24283 7.17776 8.94607 7.041 8.63156 7.041C8.31959 7.041 8.0203 7.17523 7.76412 7.43103L6.96263 8.22883C6.89668 8.19337 6.83074 8.16044 6.76733 8.12752C6.67602 8.08193 6.58978 8.03887 6.51623 7.99329C5.76546 7.51714 5.08318 6.89663 4.4288 6.09377C4.11175 5.69361 3.89869 5.35676 3.74398 5.01485C3.95196 4.8249 4.14472 4.62735 4.33241 4.4374C4.40343 4.36648 4.47445 4.29303 4.54547 4.22212C5.07811 3.69026 5.07811 3.00137 4.54547 2.4695L3.85304 1.77808C3.77441 1.69957 3.69325 1.61852 3.61716 1.53748C3.46497 1.38045 3.30518 1.21836 3.14032 1.0664C2.89429 0.823259 2.60007 0.694092 2.29063 0.694092C1.9812 0.694092 1.68191 0.823259 1.42827 1.0664C1.42573 1.06893 1.42573 1.06893 1.4232 1.07146L0.560829 1.94017C0.236174 2.26436 0.0510187 2.65945 0.0104368 3.11787C-0.0504361 3.85741 0.167692 4.5463 0.335092 4.99712C0.745984 6.1039 1.35979 7.12964 2.27542 8.22883C3.38635 9.55342 4.72301 10.5994 6.24991 11.3364C6.83328 11.6125 7.61194 11.9392 8.48192 11.9949C8.53518 11.9975 8.59098 12 8.64171 12C9.22761 12 9.71967 11.7898 10.1052 11.3719C10.1077 11.3668 10.1128 11.3643 10.1153 11.3592C10.2472 11.1997 10.3994 11.0553 10.5592 10.9008C10.6683 10.797 10.7799 10.6881 10.8889 10.5741C11.14 10.3132 11.2719 10.0093 11.2719 9.69778C11.2719 9.38373 11.1375 9.08234 10.8813 8.82907L9.48886 7.43356ZM10.3969 10.1005C10.3943 10.1005 10.3943 10.103 10.3969 10.1005C10.298 10.2069 10.1965 10.3031 10.0874 10.4095C9.92258 10.5665 9.75518 10.7311 9.59792 10.916C9.34175 11.1895 9.03992 11.3187 8.64425 11.3187C8.6062 11.3187 8.56562 11.3187 8.52757 11.3162C7.77427 11.268 7.07423 10.9743 6.5492 10.7235C5.11362 10.0296 3.85304 9.04435 2.80552 7.79574C1.94062 6.7548 1.36232 5.79238 0.979331 4.75905C0.743448 4.12841 0.657211 3.63707 0.695257 3.17359C0.720621 2.87726 0.834758 2.63159 1.04528 2.42138L1.91018 1.55774C2.03446 1.44123 2.16635 1.37792 2.29571 1.37792C2.4555 1.37792 2.58485 1.47416 2.66602 1.5552C2.66855 1.55774 2.67109 1.56027 2.67363 1.5628C2.82835 1.70717 2.97545 1.85659 3.13017 2.01615C3.2088 2.0972 3.28996 2.17824 3.37113 2.26182L4.06356 2.95325C4.33241 3.22171 4.33241 3.46991 4.06356 3.73838C3.99 3.81183 3.91898 3.88527 3.84543 3.95619C3.63238 4.174 3.42947 4.37661 3.2088 4.57416C3.20373 4.57923 3.19866 4.58176 3.19612 4.58683C2.97799 4.80464 3.01857 5.01738 3.06423 5.16175C3.06676 5.16934 3.0693 5.17694 3.07184 5.18454C3.25192 5.62016 3.50556 6.03046 3.89108 6.51926L3.89362 6.5218C4.59366 7.38291 5.33174 8.05407 6.14592 8.5682C6.24991 8.63405 6.35644 8.68724 6.45789 8.7379C6.5492 8.78348 6.63544 8.82654 6.70899 8.87213C6.71914 8.87719 6.72928 8.88479 6.73943 8.88986C6.82567 8.93291 6.90683 8.95317 6.99053 8.95317C7.20105 8.95317 7.33294 8.82147 7.37606 8.77842L8.2435 7.91224C8.32973 7.82613 8.4667 7.72229 8.62649 7.72229C8.78374 7.72229 8.9131 7.82106 8.99173 7.90717C8.99426 7.90971 8.99426 7.90971 8.9968 7.91224L10.3943 9.30775C10.6556 9.56608 10.6556 9.83201 10.3969 10.1005Z" fill="#23A462"/>
<path d="M6.48583 2.85454C7.15036 2.96598 7.75401 3.28003 8.23592 3.76124C8.71783 4.24245 9.02981 4.84523 9.14394 5.50879C9.17184 5.67595 9.31642 5.79245 9.48128 5.79245C9.50157 5.79245 9.51933 5.78992 9.53962 5.78739C9.72731 5.757 9.85159 5.57971 9.82116 5.39229C9.68419 4.58943 9.30374 3.85748 8.72291 3.2775C8.14208 2.69751 7.40907 2.31761 6.60504 2.18085C6.41735 2.15045 6.24234 2.27456 6.20936 2.45944C6.17639 2.64433 6.29814 2.82415 6.48583 2.85454Z" fill="#23A462"/>
<path d="M11.9948 5.29346C11.7691 3.9714 11.1451 2.76837 10.1864 1.81102C9.22763 0.853662 8.02285 0.230621 6.69887 0.00521264C6.51371 -0.0277122 6.3387 0.0989219 6.30573 0.283808C6.27529 0.471226 6.39957 0.645982 6.58727 0.678907C7.76922 0.878989 8.84717 1.43871 9.70447 2.29223C10.5618 3.14827 11.1198 4.22466 11.3201 5.40489C11.348 5.57205 11.4926 5.68855 11.6575 5.68855C11.6778 5.68855 11.6955 5.68602 11.7158 5.68349C11.901 5.65563 12.0278 5.47834 11.9948 5.29346Z" fill="#23A462"/>
</svg>
