<svg width="50" height="50" viewBox="0 0 50 50" fill="none" xmlns="http://www.w3.org/2000/svg">
    <circle cx="25" cy="25" r="25" fill="#23A462" fill-opacity="0.06"/>
    <path d="M30.0938 16.7835L24.7686 15.0427C24.5942 14.9858 24.4058 14.9858 24.2314 15.0427L18.9062 16.7835C18.0595 17.0592 17.323 17.5895 16.8012 18.2991C16.2795 19.0086 15.9992 19.8613 16 20.7359V25C16 31.3025 23.82 34.7832 24.1549 34.9282C24.2635 34.9755 24.3811 35 24.5 35C24.6189 35 24.7365 34.9755 24.8451 34.9282C25.18 34.7832 33 31.3025 33 25V20.7359C33.0008 19.8613 32.7205 19.0086 32.1988 18.2991C31.677 17.5895 30.9405 17.0592 30.0938 16.7835ZM31.3 25C31.3 29.5458 25.9289 32.5274 24.5 33.2408C23.0695 32.5299 17.7 29.5575 17.7 25V20.7359C17.7001 20.2112 17.8685 19.6997 18.1816 19.2741C18.4946 18.8484 18.9364 18.5301 19.4442 18.3643L24.5 16.7118L29.5558 18.3643C30.0636 18.5301 30.5054 18.8484 30.8184 19.2741C31.1315 19.6997 31.2999 20.2112 31.3 20.7359V25Z" fill="#23A462"/>
    <path d="M27.305 21.917L23.7452 25.4169L21.8378 23.4669C21.7613 23.3849 21.6687 23.3187 21.5657 23.2722C21.4627 23.2258 21.3512 23.2 21.2378 23.1965C21.1244 23.1929 21.0115 23.2116 20.9056 23.2515C20.7998 23.2914 20.7031 23.3517 20.6214 23.4288C20.5396 23.5058 20.4744 23.5982 20.4297 23.7003C20.3849 23.8025 20.3614 23.9124 20.3606 24.0236C20.3598 24.1348 20.3818 24.245 20.4251 24.3478C20.4684 24.4505 20.5323 24.5437 20.613 24.6219L22.5731 26.6219C22.7192 26.7767 22.8959 26.9008 23.0924 26.9867C23.2889 27.0727 23.5012 27.1187 23.7163 27.1219H23.7444C23.9552 27.1226 24.1641 27.0822 24.3589 27.0031C24.5537 26.924 24.7305 26.8077 24.8791 26.6611L28.5103 23.1011C28.5896 23.0235 28.6526 22.9314 28.6956 22.83C28.7385 22.7285 28.7607 22.6198 28.7608 22.5099C28.761 22.4001 28.739 22.2913 28.6962 22.1898C28.6535 22.0882 28.5907 21.996 28.5116 21.9182C28.4325 21.8405 28.3385 21.7788 28.235 21.7366C28.1315 21.6945 28.0206 21.6727 27.9086 21.6726C27.7965 21.6725 27.6856 21.694 27.582 21.7359C27.4784 21.7779 27.3843 21.8394 27.305 21.917Z" fill="#23A462"/>
</svg>
