<svg width="13" height="14" viewBox="0 0 13 14" fill="none" xmlns="http://www.w3.org/2000/svg">
<path d="M12.9377 9.4488L11.4601 3.98445C11.1446 2.81556 10.4571 1.78853 9.50698 1.06684C8.5569 0.345151 7.39885 -0.0297374 6.21714 0.00184382C5.03544 0.033425 3.89798 0.46966 2.98581 1.24112C2.07363 2.01258 1.43916 3.07493 1.18337 4.2591L0.0404994 9.53627C-0.0148011 9.79193 -0.0134523 10.0571 0.0444465 10.3121C0.102345 10.5672 0.215317 10.8056 0.375025 11.0099C0.534734 11.2142 0.737105 11.3791 0.967208 11.4924C1.19731 11.6057 1.44927 11.6646 1.70451 11.6646H3.7544C3.88483 12.3237 4.23333 12.9163 4.74083 13.3419C5.24834 13.7675 5.88365 14 6.53911 14C7.19457 14 7.82988 13.7675 8.33738 13.3419C8.84489 12.9163 9.19339 12.3237 9.32382 11.6646H11.2959C11.5585 11.6645 11.8175 11.6021 12.0528 11.4824C12.288 11.3626 12.4932 11.1887 12.6521 10.9742C12.8111 10.7598 12.9196 10.5105 12.9693 10.2459C13.0189 9.9813 13.0077 9.7085 12.9377 9.4488ZM6.53911 12.8309C6.18775 12.8294 5.84541 12.7165 5.55895 12.5078C5.27248 12.299 5.05587 12.0045 4.93875 11.6646H8.13947C8.02235 12.0045 7.80574 12.299 7.51927 12.5078C7.2328 12.7165 6.89047 12.8294 6.53911 12.8309ZM11.7477 10.2681C11.6946 10.3402 11.6259 10.3986 11.547 10.4386C11.468 10.4786 11.3811 10.4991 11.293 10.4984H1.70451C1.61941 10.4984 1.5354 10.4788 1.45868 10.441C1.38197 10.4032 1.3145 10.3482 1.26126 10.2801C1.20802 10.212 1.17037 10.1325 1.15108 10.0474C1.1318 9.96239 1.13137 9.87399 1.14984 9.78876L2.29271 4.51159C2.49409 3.58223 2.99247 2.74861 3.70862 2.14325C4.42478 1.53788 5.3176 1.19553 6.24516 1.17059C7.17273 1.14566 8.0818 1.43959 8.82786 2.00564C9.57392 2.5717 10.1142 3.3774 10.3627 4.29467L11.8403 9.75902C11.8644 9.84542 11.8686 9.93641 11.8525 10.0248C11.8365 10.1131 11.8005 10.1964 11.7477 10.2681Z" fill="#23A462"/>
</svg>
