<svg width="11" height="12" viewBox="0 0 11 12" fill="none" xmlns="http://www.w3.org/2000/svg">
<path fill-rule="evenodd" clip-rule="evenodd" d="M9.89952 11.9998C10.0448 12.0025 10.1893 11.9786 10.3241 11.9293C10.459 11.88 10.5815 11.8064 10.6843 11.713C10.7871 11.6195 10.868 11.5082 10.9222 11.3856C10.9764 11.263 11.0028 11.1317 10.9998 10.9996C10.9998 9.99939 9.89952 6.99944 5.5 6.99944C1.10047 6.99944 0.000235138 9.99939 0.000235138 10.9996C-0.00280046 11.1317 0.0235831 11.263 0.0778008 11.3856C0.132018 11.5082 0.21295 11.6195 0.315728 11.713C0.418506 11.8064 0.541007 11.88 0.675866 11.9293C0.810726 11.9786 0.955157 12.0025 1.10047 11.9998H9.89952ZM1.12419 10.9996H9.87581H9.89162H9.90025C9.82673 10.3603 9.53498 9.75786 9.0659 9.27684C8.61573 8.83401 8.06135 8.48933 7.44415 8.26852C6.82695 8.0477 6.16286 7.95646 5.50144 8.0016C4.83981 7.9565 4.17552 8.04776 3.55809 8.26856C2.94066 8.48936 2.38603 8.83402 1.93554 9.27684C1.46591 9.75665 1.1736 10.3582 1.09976 10.997L1.12347 11.0009L1.12419 10.9996ZM5.49712 4.99969C5.9322 4.99969 6.3575 4.88241 6.71925 4.66268C7.081 4.44294 7.36295 4.13062 7.52944 3.76522C7.69594 3.39981 7.7395 2.99773 7.65462 2.60982C7.56974 2.2219 7.36023 1.86558 7.05259 1.58591C6.74495 1.30624 6.35299 1.11579 5.92628 1.03862C5.49957 0.961464 5.05727 1.00107 4.65531 1.15242C4.25336 1.30378 3.9098 1.56009 3.66809 1.88895C3.42638 2.2178 3.29736 2.60443 3.29736 2.99995C3.29736 3.26272 3.35433 3.52292 3.46502 3.76567C3.5757 4.00842 3.73793 4.22895 3.94242 4.41467C4.14692 4.60039 4.38967 4.74765 4.65681 4.84803C4.92394 4.94842 5.21022 4.99995 5.49928 4.99969H5.49712ZM8.79713 2.99995C8.79713 3.59336 8.60353 4.17345 8.24083 4.66683C7.87812 5.16021 7.36261 5.54472 6.75948 5.77172C6.15636 5.99872 5.49273 6.05802 4.85253 5.94211C4.21234 5.82619 3.62434 5.54028 3.16291 5.12054C2.70148 4.70079 2.38736 4.16607 2.26027 3.584C2.13318 3.00194 2.19884 2.39869 2.44894 1.85056C2.69904 1.30242 3.12234 0.834032 3.66531 0.50463C4.20828 0.175227 4.84651 -0.000387045 5.49928 6.40505e-07C6.3745 6.40505e-07 7.21386 0.316065 7.83274 0.878664C8.45161 1.44126 8.79928 2.20431 8.79928 2.99995H8.79713Z" fill="white"/>
</svg>
