<svg width="9" height="10" viewBox="0 0 9 10" fill="none" xmlns="http://www.w3.org/2000/svg">
    <path fill-rule="evenodd" clip-rule="evenodd" d="M8.09961 9.99982C8.21851 10.0021 8.33668 9.98213 8.44702 9.94106C8.55736 9.89999 8.65759 9.83868 8.74168 9.76082C8.82577 9.68296 8.89199 9.59015 8.93635 9.48799C8.98071 9.38582 9.00229 9.27641 8.99981 9.16632C8.99981 8.33282 8.09961 5.83287 4.5 5.83287C0.900388 5.83287 0.000192386 8.33282 0.000192386 9.16632C-0.00229129 9.27641 0.0192953 9.38582 0.0636552 9.48799C0.108015 9.59015 0.174232 9.68296 0.258323 9.76082C0.342414 9.83868 0.442642 9.89999 0.552981 9.94106C0.663321 9.98213 0.781492 10.0021 0.900388 9.99982H8.09961ZM0.919792 9.16632H8.08021H8.09314H8.1002C8.04005 8.63354 7.80135 8.13155 7.41756 7.7307C7.04923 7.36168 6.59565 7.07444 6.09067 6.89043C5.58568 6.70642 5.04234 6.63038 4.50118 6.668C3.95984 6.63042 3.41633 6.70646 2.91116 6.89047C2.406 7.07447 1.9522 7.36169 1.58362 7.7307C1.19938 8.13054 0.960221 8.63187 0.899801 9.16414L0.919205 9.16741L0.919792 9.16632ZM4.49765 4.16641C4.85362 4.16641 5.20159 4.06868 5.49757 3.88556C5.79354 3.70245 6.02423 3.44219 6.16045 3.13768C6.29667 2.83318 6.33232 2.49811 6.26287 2.17485C6.19343 1.85159 6.02201 1.55465 5.7703 1.32159C5.51859 1.08854 5.1979 0.929821 4.84877 0.865521C4.49964 0.80122 4.13776 0.834222 3.80889 0.960352C3.48002 1.08648 3.19893 1.30008 3.00116 1.57412C2.8034 1.84817 2.69784 2.17036 2.69784 2.49996C2.69784 2.71894 2.74445 2.93577 2.83501 3.13806C2.92557 3.34035 3.0583 3.52413 3.22562 3.67889C3.39293 3.83366 3.59155 3.95638 3.81011 4.04003C4.02868 4.12368 4.26291 4.16663 4.49941 4.16641H4.49765ZM7.19765 2.49996C7.19765 2.99447 7.03925 3.47788 6.7425 3.88903C6.44574 4.30018 6.02395 4.6206 5.53049 4.80977C5.03702 4.99894 4.49405 5.04835 3.97025 4.95176C3.44646 4.85516 2.96537 4.6169 2.58783 4.26711C2.2103 3.91732 1.95329 3.47172 1.84931 2.98667C1.74533 2.50162 1.79905 1.99891 2.00368 1.54213C2.20831 1.08535 2.55465 0.695027 2.99889 0.420525C3.44314 0.146023 3.96533 -0.000322537 4.49941 5.33754e-07C5.2155 5.33754e-07 5.90225 0.263388 6.4086 0.73222C6.91495 1.20105 7.19942 1.83693 7.19942 2.49996H7.19765Z" fill="#666666"/>
</svg>
