<svg width="14" height="14" viewBox="0 0 14 14" fill="none" xmlns="http://www.w3.org/2000/svg">
<path d="M6.64663 8.75C6.49302 8.75 6.34571 8.81146 6.23709 8.92085C6.12847 9.03025 6.06745 9.17862 6.06745 9.33333V11.0833C6.06745 11.5475 5.88439 11.9926 5.55854 12.3208C5.23269 12.649 4.79075 12.8333 4.32992 12.8333H2.89588C2.43506 12.8333 1.99311 12.649 1.66726 12.3208C1.34141 11.9926 1.15835 11.5475 1.15835 11.0833V2.91667C1.15835 2.45254 1.34141 2.00742 1.66726 1.67923C1.99311 1.35104 2.43506 1.16667 2.89588 1.16667H4.32992C4.79075 1.16667 5.23269 1.35104 5.55854 1.67923C5.88439 2.00742 6.06745 2.45254 6.06745 2.91667V4.66667C6.06745 4.82138 6.12847 4.96975 6.23709 5.07915C6.34571 5.18854 6.49302 5.25 6.64663 5.25C6.80024 5.25 6.94755 5.18854 7.05617 5.07915C7.16479 4.96975 7.22581 4.82138 7.22581 4.66667V2.91667C7.22489 2.1434 6.91949 1.40208 6.37661 0.855295C5.83372 0.308514 5.09768 0.00092625 4.32992 0H2.89588C2.12813 0.00092625 1.39208 0.308514 0.8492 0.855295C0.306316 1.40208 0.00091965 2.1434 0 2.91667L0 11.0833C0.00091965 11.8566 0.306316 12.5979 0.8492 13.1447C1.39208 13.6915 2.12813 13.9991 2.89588 14H4.32992C5.09768 13.9991 5.83372 13.6915 6.37661 13.1447C6.91949 12.5979 7.22489 11.8566 7.22581 11.0833V9.33333C7.22581 9.17862 7.16479 9.03025 7.05617 8.92085C6.94755 8.81146 6.80024 8.75 6.64663 8.75Z" fill="#23A462"/>
<path d="M13.4716 5.70232L10.7093 2.89647C10.6537 2.83803 10.5873 2.79142 10.5138 2.75936C10.4403 2.72729 10.3612 2.71042 10.2813 2.70971C10.2013 2.709 10.122 2.72448 10.048 2.75525C9.97393 2.78601 9.90668 2.83144 9.85012 2.88889C9.79357 2.94633 9.74884 3.01465 9.71856 3.08984C9.68827 3.16503 9.67303 3.24559 9.67373 3.32683C9.67442 3.40807 9.69104 3.48835 9.7226 3.563C9.75417 3.63765 9.80006 3.70516 9.85759 3.7616L12.4247 6.36982L3.31205 6.38818C3.1523 6.38818 2.99909 6.45264 2.88614 6.56738C2.77318 6.68212 2.70972 6.83774 2.70972 7.00001C2.70972 7.16228 2.77318 7.3179 2.88614 7.43264C2.99909 7.54738 3.1523 7.61184 3.31205 7.61184L12.4603 7.59287L9.85638 10.2384C9.79885 10.2949 9.75297 10.3624 9.7214 10.437C9.68983 10.5117 9.67322 10.5919 9.67252 10.6732C9.67183 10.7544 9.68707 10.835 9.71735 10.9102C9.74764 10.9854 9.79236 11.0537 9.84892 11.1111C9.90547 11.1686 9.97272 11.214 10.0467 11.2448C10.1208 11.2755 10.2001 11.291 10.2801 11.2903C10.36 11.2896 10.4391 11.2727 10.5126 11.2407C10.5861 11.2086 10.6525 11.162 10.7081 11.1035L13.4704 8.2977C13.8093 7.95366 13.9998 7.48697 14 7.00026C14.0003 6.51356 13.8102 6.04669 13.4716 5.70232Z" fill="#23A462"/>
</svg>
