<svg width="100" height="147" viewBox="0 0 100 147" fill="none" xmlns="http://www.w3.org/2000/svg">
<g opacity="0.06">
<path d="M4.39648 52.35C40.823 25.8991 85.2506 62.9391 44.4088 89.5575C26.5735 101.195 50.0216 105.63 20.8536 104.731C19.7097 94.4457 18.6527 91.3937 21.2483 87.8764C25.958 81.487 34.0327 80.3083 38.7023 73.3172C43.9672 65.439 37.4111 56.2395 24.232 59.5831C10.2568 63.1438 14.8193 68.3297 4.39648 52.35Z" fill="#00D6CA"/>
<path d="M16.2709 121.709C16.7258 108.961 37.9863 109.718 37.5314 122.361C37.0832 135.04 15.816 134.494 16.2709 121.709Z" fill="#00D6CA"/>
<path d="M27.0821 105.159C25.3159 105.159 23.2554 105.122 20.8404 105.047L20.546 105.041L20.5193 104.774C20.3119 102.913 20.1045 101.282 19.9239 99.8489C19.1077 93.3726 18.7732 90.6866 20.9675 87.7152C23.2621 84.6012 26.3863 82.6781 29.4035 80.8233C32.6548 78.8197 36.0198 76.754 38.4148 73.1684C40.7562 69.6698 40.7763 65.7183 38.4683 62.8523C35.7254 59.4467 30.4404 58.3425 24.3191 59.8995C20.7267 60.8114 18.3785 61.835 16.6592 62.5732C11.9361 64.6203 11.8291 64.4528 6.06908 55.5386C5.48037 54.6267 4.83146 53.6218 4.10895 52.5176L3.95508 52.2819L4.18922 52.1144C16.7997 42.9583 31.9189 40.4708 44.6431 45.4582C53.9219 49.0934 60.0031 56.0349 60.9263 64.0186C61.9699 73.1126 56.1764 82.2687 44.6029 89.8181C36.8426 94.88 37.05 98.5276 37.1838 100.941C37.244 102.057 37.2975 103.025 36.5349 103.745C35.4846 104.731 32.909 105.159 27.0821 105.159ZM21.1548 104.433C30.8351 104.725 34.8825 104.415 36.0532 103.31C36.6085 102.783 36.5683 102.02 36.5081 100.972C36.3676 98.4221 36.1469 94.5637 44.2082 89.3095C55.5744 81.9027 61.2741 72.9451 60.2506 64.0868C59.3608 56.3264 53.4202 49.5772 44.3755 46.0289C31.959 41.1593 17.1944 43.5538 4.83145 52.4308C5.49375 53.4419 6.08916 54.3724 6.63773 55.216C12.197 63.8138 12.197 63.8138 16.3715 62.0025C18.1109 61.2519 20.4925 60.2159 24.1385 59.2916C30.5274 57.6664 36.0867 58.8574 38.9968 62.4739C41.472 65.5508 41.4654 69.769 38.9767 73.491C36.5014 77.1882 33.0829 79.2973 29.7714 81.332C26.6673 83.2426 23.7371 85.0478 21.5161 88.0564C19.4623 90.8417 19.77 93.2672 20.5862 99.7683C20.7668 101.139 20.9608 102.678 21.1548 104.433Z" fill="#00D6CA"/>
<path d="M26.9343 131.895C26.7938 131.895 26.6533 131.895 26.5129 131.889C21.2479 131.727 15.6886 128.47 15.9294 121.696C16.0632 117.999 17.9364 115.071 21.2078 113.446C24.8404 111.647 29.6437 111.802 33.1492 113.824C36.3136 115.654 37.986 118.682 37.8522 122.366C37.6315 128.967 32.119 131.895 26.9343 131.895ZM16.6051 121.721C16.3777 128.067 21.5958 131.126 26.5396 131.274C31.5169 131.436 36.9759 128.7 37.1966 122.354C37.317 118.905 35.7583 116.064 32.808 114.358C29.4899 112.447 24.9608 112.298 21.5356 113.998C18.4783 115.512 16.7255 118.254 16.6051 121.721Z" fill="#00D6CA"/>
<path d="M27.048 107.951C25.2418 107.951 23.1612 107.914 20.7461 107.839L17.8293 107.752L17.5283 105.06C17.3209 103.211 17.1202 101.592 16.9396 100.172C16.0833 93.3854 15.6551 89.9798 18.485 86.1399L18.5519 86.0469L19.1004 86.4005L19.0335 86.4873C16.3442 90.1349 16.7657 93.4598 17.6019 100.097C17.7825 101.524 17.9832 103.143 18.1906 104.998L18.4314 107.151L20.7662 107.225C32.4535 107.585 36.1998 107.163 38.2001 105.271C38.7821 104.719 39.1634 104.086 39.3708 103.336L40.0197 103.484C39.7856 104.347 39.3508 105.072 38.6818 105.705C36.9558 107.324 34.1527 107.951 27.048 107.951Z" fill="#00D6CA"/>
<path d="M37.7784 68.7026L37.1161 68.6157C37.1629 68.318 37.1829 68.0202 37.1829 67.7348C37.1829 66.8106 36.9555 65.9483 36.5006 65.1667C35.3901 63.2436 33.0018 62.0836 29.9445 61.9906C29.4963 61.9782 29.0347 61.9844 28.5664 62.0154L28.5195 61.3951C29.0146 61.364 29.4963 61.3578 29.9645 61.3702C33.2627 61.4695 35.865 62.7474 37.0893 64.8751C37.591 65.7498 37.8519 66.7113 37.8519 67.7348C37.8586 68.0512 37.8319 68.38 37.7784 68.7026Z" fill="#00D6CA"/>
<path d="M13.3062 66.4193C13.2393 66.4193 13.1724 66.4193 13.1055 66.4193C9.51973 66.3076 8.00113 63.9566 3.48544 56.9778C2.89673 56.0659 2.24781 55.0672 1.53199 53.963L0 51.612L2.33478 49.9185C8.14161 45.7002 14.3833 42.8095 20.8859 41.3145L21.0464 41.9162C14.6375 43.3864 8.4761 46.2461 2.74955 50.4085L0.883067 51.767L2.10732 53.6466C2.82983 54.7508 3.47875 55.7558 4.06077 56.6615C8.43596 63.4293 9.90774 65.7059 13.1256 65.8051C13.9016 65.83 14.671 65.6935 15.6142 65.3709L15.8484 65.954C14.8984 66.2704 14.109 66.4193 13.3062 66.4193Z" fill="#00D6CA"/>
<path d="M55.2451 84.9291L54.75 84.5073C60.4097 78.7692 63.4067 72.4232 63.4067 66.1455C63.4067 64.8304 63.2729 63.5091 63.0187 62.2064L63.6743 62.0947C63.9419 63.4346 64.0757 64.7932 64.0757 66.1455C64.0757 72.5845 61.0184 79.0732 55.2451 84.9291Z" fill="#00D6CA"/>
<path d="M26.4773 134.686H26.4104C19.7004 134.482 12.9102 130.102 12.9102 122.125C12.9102 121.957 12.9102 121.784 12.9168 121.61C12.9704 120.078 13.2647 118.632 13.7932 117.311L14.4221 117.528C13.9203 118.787 13.6394 120.164 13.5858 121.628C13.5791 121.796 13.5791 121.957 13.5791 122.118C13.5791 129.699 20.0416 133.868 26.4304 134.06L26.4773 134.686ZM39.2082 128.359L38.6194 128.061C39.5962 126.417 40.1247 124.532 40.1983 122.447C40.205 122.286 40.205 122.118 40.205 121.957C40.205 119.432 39.5025 117.187 38.1177 115.282L38.673 114.935C40.1381 116.945 40.8739 119.308 40.8739 121.957C40.8739 122.125 40.8739 122.292 40.8673 122.466C40.7937 124.643 40.2384 126.628 39.2082 128.359Z" fill="#00D6CA"/>
<path d="M44.0527 70.2521C72.3845 49.6757 106.951 78.4901 75.1742 99.1968C61.2993 108.247 79.536 111.696 56.8505 111.002C55.9608 103.006 55.1379 100.63 57.1583 97.8941C60.8243 92.9252 67.0994 92.0071 70.7387 86.5668C74.8397 80.4379 69.7353 73.2793 59.4863 75.8847C48.6086 78.6514 52.1542 82.6835 44.0527 70.2521Z" fill="#0087EB"/>
<path d="M53.2849 124.203C53.6395 114.29 70.1769 114.88 69.8223 124.712C69.4745 134.575 52.9304 134.153 53.2849 124.203Z" fill="#0087EB"/>
<path d="M61.6729 111.399C60.3015 111.399 58.7026 111.368 56.8428 111.313L56.5485 111.306L56.5217 111.04C56.3612 109.588 56.2006 108.323 56.0601 107.212C55.4246 102.156 55.1637 100.06 56.883 97.7273C58.6759 95.2956 61.111 93.7944 63.4658 92.349C65.9879 90.7982 68.597 89.1915 70.4501 86.4186C72.2564 83.7202 72.2697 80.6744 70.4902 78.4722C68.3762 75.8482 64.2887 74.9983 59.5656 76.1956C56.7759 76.9027 54.9496 77.6968 53.6183 78.2737C49.8853 79.8927 49.7114 79.626 45.2827 72.7775C44.8278 72.0704 44.3193 71.2887 43.7574 70.4265L43.6035 70.1908L43.8377 70.0233C53.6651 62.8832 65.4594 60.9478 75.3805 64.8373C82.619 67.6784 87.3755 73.0939 88.0914 79.3344C88.9075 86.431 84.3852 93.5835 75.3605 99.4642C69.3596 103.379 69.5135 106.195 69.6205 108.056C69.6674 108.943 69.7142 109.706 69.0987 110.289C68.2692 111.064 66.2421 111.399 61.6729 111.399ZM57.1506 110.698C64.6098 110.922 67.7273 110.686 68.6171 109.842C69.0251 109.452 68.9984 108.875 68.9515 108.074C68.8378 106.077 68.6706 103.056 74.9725 98.9431C83.7897 93.1989 88.2118 86.2511 87.4224 79.3841C86.7333 73.3731 82.1307 68.1437 75.1196 65.3956C65.4996 61.624 54.0732 63.4726 44.4799 70.3272C44.9816 71.0964 45.4365 71.7974 45.8513 72.4426C50.1395 79.0801 50.1462 79.0801 53.3306 77.6968C54.682 77.1075 56.5418 76.3072 59.385 75.5814C64.389 74.3098 68.7375 75.2465 71.0254 78.0814C72.9722 80.4945 72.9655 83.807 71.012 86.7288C69.0787 89.6195 66.4094 91.2634 63.8271 92.8515C61.4187 94.3341 59.1442 95.736 57.4249 98.0685C55.846 100.215 56.0802 102.094 56.7157 107.132C56.8562 108.18 57.0034 109.359 57.1506 110.698Z" fill="#0087EB"/>
<path d="M61.5854 132.199C59.8393 132.199 58.0933 131.777 56.6349 130.933C54.1529 129.501 52.8484 127.106 52.9487 124.197C53.1361 118.893 57.6651 116.622 61.8062 116.747C66.0944 116.877 70.3425 119.662 70.1619 124.73C70.0615 127.633 68.5764 129.935 65.9874 131.219C64.6494 131.87 63.1174 132.199 61.5854 132.199ZM53.6177 124.215C53.5241 126.901 54.7216 129.097 56.9895 130.406C59.5316 131.87 63.017 131.976 65.6662 130.661C68.0345 129.488 69.3925 127.373 69.4862 124.699C69.6601 119.823 65.6127 117.478 61.7794 117.361C57.9729 117.243 53.7917 119.339 53.6177 124.215Z" fill="#0087EB"/>
<path d="M61.7075 114.191C60.2826 114.191 58.6435 114.16 56.7436 114.104L53.8268 114.018L53.5258 111.325C53.3719 109.936 53.218 108.72 53.0842 107.64L53.0709 107.535C52.3818 102.082 52.0406 99.3467 54.3955 96.152C55.1849 95.0788 56.1148 94.0987 57.2454 93.1558L57.6936 93.6148C56.6098 94.5267 55.7067 95.4696 54.9507 96.4993C52.7364 99.508 53.0709 102.163 53.7332 107.461L53.7465 107.566C53.8803 108.645 54.0342 109.867 54.1881 111.263L54.4289 113.416L56.7637 113.49C66.1697 113.782 69.053 113.434 70.7723 111.809C72.1103 110.544 72.0233 109.042 71.9631 107.944C71.9431 107.56 71.9163 107.132 71.9765 106.673L72.6388 106.741C72.5853 107.15 72.6121 107.535 72.6321 107.913C72.699 109.061 72.7927 110.792 71.2473 112.25C69.7354 113.664 67.5144 114.191 61.7075 114.191Z" fill="#0087EB"/>
<path d="M69.3765 83.1923L68.7209 83.0683C68.7811 82.7829 68.8146 82.4976 68.8146 82.2184C68.8146 81.6167 68.6674 81.0522 68.373 80.5435C67.6973 79.3711 66.2323 78.6143 64.3457 78.4592L64.4059 77.8389C66.5199 78.0126 68.179 78.8872 68.9617 80.2458C69.3096 80.8413 69.4836 81.505 69.4836 82.2122C69.4836 82.5348 69.4501 82.8636 69.3765 83.1923Z" fill="#0087EB"/>
<path d="M50.9775 81.8845C50.9173 81.8845 50.8571 81.8845 50.8036 81.8845C47.6125 81.7852 46.2745 79.7195 42.7088 74.2048C42.2539 73.4976 41.7454 72.7222 41.1902 71.8599L39.6582 69.5089L41.993 67.8153C47.8266 63.5785 54.396 60.9731 60.999 60.2783L61.0726 60.8924C54.5901 61.5748 48.1343 64.1368 42.4011 68.3054L40.5346 69.6639L41.7588 71.5435C42.3208 72.3996 42.8225 73.1812 43.2774 73.8884C46.7094 79.1984 47.9938 81.1835 50.8236 81.2703C52.1349 81.3262 53.2788 80.8113 54.6101 80.2344C55.1252 80.0111 55.6872 79.7691 56.3361 79.5148L56.597 80.0855C55.9615 80.3336 55.4062 80.5756 54.8978 80.7989C53.5464 81.3758 52.369 81.8845 50.9775 81.8845Z" fill="#0087EB"/>
<path d="M85.7113 94.3715L85.1895 93.9869C88.7485 89.8245 90.5548 85.4573 90.5548 80.9972C90.5548 79.9116 90.441 78.8198 90.2203 77.7404L90.8759 77.6226C91.1033 78.733 91.217 79.8682 91.217 80.991C91.217 85.6 89.364 90.0974 85.7113 94.3715Z" fill="#0087EB"/>
<path d="M61.1506 134.984C55.5779 134.81 49.9316 131.169 49.9316 124.525C49.9316 124.383 49.9316 124.24 49.9383 124.097C50.1925 116.939 56.3807 113.769 61.8999 113.949C66.1078 114.079 69.8943 116.095 71.7809 119.203L71.1988 119.507C69.426 116.579 65.8536 114.687 61.8798 114.569C56.6884 114.414 50.8482 117.379 50.6073 124.122C50.6006 124.259 50.6006 124.395 50.6006 124.532C50.6006 130.778 55.9191 134.209 61.1707 134.37L61.1506 134.984Z" fill="#0087EB"/>
<path d="M71.4283 40.0923C71.4283 42.4247 69.3879 44.3105 66.8792 44.3105C64.3638 44.3105 62.3301 42.4185 62.3301 40.0923C62.3301 37.766 64.3705 35.874 66.8792 35.874C69.3879 35.8678 71.4283 37.7598 71.4283 40.0923Z" fill="#00D6CA"/>
<path d="M69.909 20.3904C71.0248 20.3904 71.9294 19.5516 71.9294 18.517C71.9294 17.4823 71.0248 16.6436 69.909 16.6436C68.7932 16.6436 67.8887 17.4823 67.8887 18.517C67.8887 19.5516 68.7932 20.3904 69.909 20.3904Z" fill="#00D6CA"/>
<path d="M85.0809 3.7468C86.1967 3.7468 87.1013 2.90805 87.1013 1.8734C87.1013 0.838751 86.1967 0 85.0809 0C83.9651 0 83.0605 0.838751 83.0605 1.8734C83.0605 2.90805 83.9651 3.7468 85.0809 3.7468Z" fill="#00D6CA"/>
<path d="M97.8525 34.4596C99.0385 34.4596 100 33.5681 100 32.4683C100 31.3686 99.0385 30.4771 97.8525 30.4771C96.6665 30.4771 95.7051 31.3686 95.7051 32.4683C95.7051 33.5681 96.6665 34.4596 97.8525 34.4596Z" fill="#00D6CA"/>
<path d="M9.2244 114.532C9.2244 115.245 8.60225 115.822 7.83291 115.822C7.06357 115.822 6.44141 115.245 6.44141 114.532C6.44141 113.819 7.06357 113.242 7.83291 113.242C8.60225 113.242 9.2244 113.819 9.2244 114.532Z" fill="#00D6CA"/>
<path d="M40.0719 144.655C41.5387 144.655 42.7278 143.553 42.7278 142.193C42.7278 140.833 41.5387 139.73 40.0719 139.73C38.6051 139.73 37.416 140.833 37.416 142.193C37.416 143.553 38.6051 144.655 40.0719 144.655Z" fill="#00D6CA"/>
<path d="M16.0565 33.6403C16.0565 35.1291 14.752 36.3388 13.1464 36.3388C11.5409 36.3388 10.2363 35.1291 10.2363 33.6403C10.2363 32.1515 11.5409 30.9419 13.1464 30.9419C14.752 30.9481 16.0565 32.1515 16.0565 33.6403Z" fill="#00D6CA"/>
<path d="M28.9471 17.2332C28.9471 17.9465 28.3249 18.5235 27.5556 18.5235C26.7862 18.5235 26.1641 17.9465 26.1641 17.2332C26.1641 16.5198 26.7862 15.9429 27.5556 15.9429C28.3249 15.9429 28.9471 16.5198 28.9471 17.2332Z" fill="#00D6CA"/>
<path d="M81.7977 51.8098C82.9135 51.8098 83.818 50.971 83.818 49.9364C83.818 48.9017 82.9135 48.063 81.7977 48.063C80.6819 48.063 79.7773 48.9017 79.7773 49.9364C79.7773 50.971 80.6819 51.8098 81.7977 51.8098Z" fill="#0087EB"/>
<path d="M51.1969 4.45411C51.1969 5.88088 49.9525 7.03469 48.4139 7.03469C46.8752 7.03469 45.6309 5.88088 45.6309 4.45411C45.6309 3.02735 46.8752 1.87354 48.4139 1.87354C49.9525 1.87354 51.1969 3.02735 51.1969 4.45411Z" fill="#0087EB"/>
<path d="M54.2349 29.6578C54.2349 30.1106 53.8402 30.4766 53.3518 30.4766C52.8635 30.4766 52.4688 30.1106 52.4688 29.6578C52.4688 29.2049 52.8635 28.8389 53.3518 28.8389C53.8402 28.8327 54.2349 29.2049 54.2349 29.6578Z" fill="#0087EB"/>
<path d="M80.9078 110.897C82.3747 110.897 83.5637 109.794 83.5637 108.434C83.5637 107.074 82.3747 105.971 80.9078 105.971C79.441 105.971 78.252 107.074 78.252 108.434C78.252 109.794 79.441 110.897 80.9078 110.897Z" fill="#0087EB"/>
<path d="M80.5314 125.902C80.5314 126.293 80.1903 126.603 79.7755 126.603C79.354 126.603 79.0195 126.287 79.0195 125.902C79.0195 125.511 79.3607 125.201 79.7755 125.201C80.1903 125.195 80.5314 125.511 80.5314 125.902Z" fill="#0087EB"/>
<path d="M90.3928 138.092C90.3928 138.483 90.0516 138.793 89.6368 138.793C89.2153 138.793 88.8809 138.477 88.8809 138.092C88.8809 137.701 89.222 137.391 89.6368 137.391C90.0516 137.391 90.3928 137.701 90.3928 138.092Z" fill="#0087EB"/>
<path d="M69.2803 147C70.4663 147 71.4277 146.109 71.4277 145.009C71.4277 143.909 70.4663 143.018 69.2803 143.018C68.0943 143.018 67.1328 143.909 67.1328 145.009C67.1328 146.109 68.0943 147 69.2803 147Z" fill="#0087EB"/>
</g>
</svg>
