<svg width="14" height="14" viewBox="0 0 14 14" fill="none" xmlns="http://www.w3.org/2000/svg">
<path d="M7 13C10.3137 13 13 10.3137 13 7C13 3.68629 10.3137 1 7 1C3.68629 1 1 3.68629 1 7C1 10.3137 3.68629 13 7 13Z" stroke="white" stroke-linecap="round" stroke-linejoin="round"/>
<path d="M5.25403 5.20005C5.39509 4.79905 5.67352 4.46091 6.04 4.24553C6.40648 4.03014 6.83737 3.95141 7.25633 4.02328C7.6753 4.09514 8.05532 4.31296 8.32907 4.63817C8.60283 4.96337 8.75266 5.37496 8.75203 5.80005C8.75203 7.00005 6.95203 7.60005 6.95203 7.60005" stroke="white" stroke-linecap="round" stroke-linejoin="round"/>
<path d="M7 10H7.0055" stroke="white" stroke-linecap="round" stroke-linejoin="round"/>
</svg>
