<svg width="50" height="50" viewBox="0 0 50 50" fill="none" xmlns="http://www.w3.org/2000/svg">
    <circle cx="25" cy="25" r="25" fill="#23A462" fill-opacity="0.06"/>
    <path d="M25.0001 21.8968C24.3155 21.8968 23.6462 22.0788 23.077 22.4198C22.5077 22.7608 22.0641 23.2455 21.8021 23.8126C21.5401 24.3797 21.4715 25.0037 21.6051 25.6057C21.7387 26.2077 22.0683 26.7607 22.5524 27.1947C23.0365 27.6287 23.6533 27.9243 24.3248 28.0441C24.9963 28.1638 25.6923 28.1023 26.3248 27.8674C26.9573 27.6326 27.4979 27.2348 27.8783 26.7244C28.2586 26.2141 28.4617 25.614 28.4617 25.0002C28.4617 24.1772 28.097 23.3878 27.4478 22.8058C26.7986 22.2238 25.9182 21.8968 25.0001 21.8968ZM25.0001 26.552C24.6578 26.552 24.3232 26.461 24.0386 26.2904C23.7539 26.1199 23.5321 25.8776 23.4011 25.5941C23.2701 25.3105 23.2358 24.9985 23.3026 24.6975C23.3694 24.3965 23.5342 24.12 23.7763 23.903C24.0183 23.686 24.3267 23.5382 24.6625 23.4783C24.9982 23.4185 25.3462 23.4492 25.6625 23.5666C25.9787 23.6841 26.249 23.883 26.4392 24.1381C26.6294 24.3933 26.7309 24.6933 26.7309 25.0002C26.7309 25.4118 26.5485 25.8065 26.224 26.0975C25.8994 26.3885 25.4591 26.552 25.0001 26.552Z" fill="#23A462"/>
    <path d="M32.7474 26.5833L32.3773 26.37C32.5439 25.4637 32.5439 24.5346 32.3773 23.6283L32.7474 23.415C33.032 23.2508 33.2815 23.0323 33.4816 22.7717C33.6817 22.5112 33.8285 22.2138 33.9137 21.8965C33.9988 21.5792 34.0206 21.2483 33.9779 20.9226C33.9351 20.5969 33.8285 20.2829 33.6643 19.9983C33.5001 19.7138 33.2815 19.4644 33.0209 19.2643C32.7602 19.0643 32.4627 18.9175 32.1454 18.8324C31.828 18.7473 31.497 18.7255 31.1712 18.7682C30.8454 18.811 30.5312 18.9175 30.2466 19.0817L29.8757 19.2958C29.1751 18.6974 28.3699 18.2335 27.5008 17.9275V17.5C27.5008 16.837 27.2373 16.2011 26.7683 15.7322C26.2993 15.2634 25.6632 15 25 15C24.3368 15 23.7007 15.2634 23.2317 15.7322C22.7627 16.2011 22.4992 16.837 22.4992 17.5V17.9275C21.6301 18.2346 20.8253 18.6997 20.1252 19.2992L19.7526 19.0833C19.1777 18.7518 18.4947 18.6621 17.8538 18.8341C17.2128 19.006 16.6665 19.4254 16.3348 20C16.0032 20.5746 15.9135 21.2574 16.0855 21.8982C16.2574 22.5389 16.677 23.0851 17.2518 23.4167L17.6219 23.63C17.4553 24.5363 17.4553 25.4654 17.6219 26.3717L17.2518 26.585C16.677 26.9165 16.2574 27.4627 16.0855 28.1035C15.9135 28.7442 16.0032 29.427 16.3348 30.0017C16.6665 30.5763 17.2128 30.9957 17.8538 31.1676C18.4947 31.3395 19.1777 31.2499 19.7526 30.9183L20.1235 30.7042C20.8244 31.3027 21.6298 31.7666 22.4992 32.0725V32.5C22.4992 33.163 22.7627 33.7989 23.2317 34.2678C23.7007 34.7366 24.3368 35 25 35C25.6632 35 26.2993 34.7366 26.7683 34.2678C27.2373 33.7989 27.5008 33.163 27.5008 32.5V32.0725C28.3699 31.7654 29.1747 31.3003 29.8748 30.7008L30.2475 30.9158C30.8223 31.2474 31.5053 31.337 32.1462 31.1651C32.7872 30.9932 33.3335 30.5738 33.6652 29.9992C33.9968 29.4245 34.0865 28.7417 33.9145 28.101C33.7426 27.4602 33.323 26.914 32.7482 26.5825L32.7474 26.5833ZM30.6234 23.4367C30.9057 24.4592 30.9057 25.5391 30.6234 26.5617C30.5741 26.7396 30.5854 26.9289 30.6554 27.0998C30.7254 27.2707 30.8502 27.4135 31.0102 27.5058L31.9138 28.0275C32.1054 28.138 32.2452 28.3201 32.3025 28.5336C32.3598 28.7472 32.3298 28.9747 32.2193 29.1663C32.1088 29.3578 31.9267 29.4975 31.713 29.5548C31.4994 29.6121 31.2718 29.5822 31.0802 29.4717L30.1749 28.9483C30.0148 28.8556 29.8283 28.8188 29.645 28.8437C29.4616 28.8686 29.2917 28.9538 29.1621 29.0858C28.4201 29.843 27.4854 30.3833 26.4588 30.6483C26.2796 30.6944 26.1208 30.7987 26.0075 30.9449C25.8941 31.0911 25.8327 31.2709 25.8328 31.4558V32.5C25.8328 32.721 25.7449 32.933 25.5886 33.0893C25.4323 33.2455 25.2202 33.3333 24.9992 33.3333C24.7781 33.3333 24.5661 33.2455 24.4097 33.0893C24.2534 32.933 24.1656 32.721 24.1656 32.5V31.4567C24.1657 31.2717 24.1042 31.092 23.9909 30.9458C23.8775 30.7996 23.7187 30.6952 23.5396 30.6492C22.5129 30.3831 21.5784 29.8416 20.8371 29.0833C20.7074 28.9513 20.5376 28.8661 20.3542 28.8412C20.1708 28.8163 19.9844 28.8531 19.8242 28.9458L18.9206 29.4683C18.8258 29.5239 18.7209 29.5602 18.612 29.5751C18.503 29.59 18.3923 29.5832 18.286 29.5551C18.1797 29.527 18.08 29.4782 17.9927 29.4114C17.9054 29.3446 17.8321 29.2613 17.7771 29.1661C17.7222 29.0709 17.6866 28.9658 17.6724 28.8568C17.6582 28.7479 17.6658 28.6372 17.6946 28.5311C17.7234 28.425 17.7729 28.3257 17.8402 28.2389C17.9076 28.152 17.9915 28.0793 18.087 28.025L18.9906 27.5033C19.1507 27.411 19.2755 27.2682 19.3455 27.0973C19.4155 26.9264 19.4267 26.7371 19.3774 26.5592C19.0951 25.5366 19.0951 24.4567 19.3774 23.4342C19.4258 23.2566 19.4141 23.0679 19.3439 22.8977C19.2738 22.7275 19.1493 22.5853 18.9898 22.4933L18.0862 21.9717C17.8946 21.8612 17.7548 21.6791 17.6975 21.4655C17.6402 21.252 17.6702 21.0244 17.7807 20.8329C17.8912 20.6414 18.0733 20.5016 18.287 20.4444C18.5006 20.3871 18.7282 20.417 18.9198 20.5275L19.8251 21.0508C19.9848 21.1438 20.1708 21.181 20.354 21.1567C20.5372 21.1324 20.7071 21.048 20.8371 20.9167C21.579 20.1595 22.5138 19.6192 23.5404 19.3542C23.7201 19.308 23.8793 19.2031 23.9927 19.0563C24.1061 18.9094 24.1672 18.7289 24.1664 18.5433V17.5C24.1664 17.279 24.2542 17.067 24.4106 16.9107C24.5669 16.7545 24.7789 16.6667 25 16.6667C25.2211 16.6667 25.4331 16.7545 25.5894 16.9107C25.7458 17.067 25.8336 17.279 25.8336 17.5V18.5433C25.8335 18.7283 25.895 18.908 26.0083 19.0542C26.1216 19.2004 26.2804 19.3048 26.4596 19.3508C27.4866 19.6168 28.4214 20.1582 29.1629 20.9167C29.2926 21.0487 29.4624 21.1339 29.6458 21.1588C29.8292 21.1837 30.0156 21.1469 30.1758 21.0542L31.0794 20.5317C31.1742 20.4761 31.2791 20.4398 31.388 20.4249C31.497 20.41 31.6077 20.4168 31.714 20.4449C31.8203 20.473 31.92 20.5218 32.0073 20.5886C32.0946 20.6554 32.1679 20.7387 32.2229 20.8339C32.2778 20.9291 32.3134 21.0342 32.3276 21.1432C32.3418 21.2521 32.3342 21.3628 32.3054 21.4689C32.2766 21.575 32.2271 21.6743 32.1598 21.7611C32.0924 21.848 32.0085 21.9207 31.913 21.975L31.0094 22.4967C30.8502 22.5889 30.726 22.7312 30.6562 22.9014C30.5864 23.0716 30.5748 23.2601 30.6234 23.4375V23.4367Z" fill="#23A462"/>
</svg>
