<svg width="50" height="50" viewBox="0 0 50 50" fill="none" xmlns="http://www.w3.org/2000/svg">
    <circle cx="25" cy="25" r="25" fill="#23A462" fill-opacity="0.06"/>
    <path d="M28.75 35H20.25C17.9066 35 16 33.1308 16 30.8333V19.1667C16 16.8692 17.9066 15 20.25 15H28.75C31.0934 15 33 16.8692 33 19.1667V30.8333C33 33.1308 31.0934 35 28.75 35ZM20.25 16.6667C18.8441 16.6667 17.7 17.7883 17.7 19.1667V30.8333C17.7 32.2117 18.8441 33.3333 20.25 33.3333H28.75C30.1559 33.3333 31.3 32.2117 31.3 30.8333V19.1667C31.3 17.7883 30.1559 16.6667 28.75 16.6667H20.25ZM27.3333 20C27.3333 19.54 26.9525 19.1667 26.4833 19.1667H23.0833C22.6141 19.1667 22.2333 19.54 22.2333 20C22.2333 20.46 22.6141 20.8333 23.0833 20.8333H26.4833C26.9525 20.8333 27.3333 20.46 27.3333 20ZM27.3333 25C27.3333 24.54 26.9525 24.1667 26.4833 24.1667H23.0833C22.6141 24.1667 22.2333 24.54 22.2333 25C22.2333 25.46 22.6141 25.8333 23.0833 25.8333H26.4833C26.9525 25.8333 27.3333 25.46 27.3333 25ZM27.3333 30C27.3333 29.54 26.9525 29.1667 26.4833 29.1667H23.0833C22.6141 29.1667 22.2333 29.54 22.2333 30C22.2333 30.46 22.6141 30.8333 23.0833 30.8333H26.4833C26.9525 30.8333 27.3333 30.46 27.3333 30Z" fill="#23A462"/>
</svg>
