<svg width="16" height="13" viewBox="0 0 16 13" fill="none" xmlns="http://www.w3.org/2000/svg">
<path d="M15.7771 1.44281C15.2193 1.6875 14.6249 1.84969 14.0052 1.92844C14.6427 1.54781 15.1293 0.949687 15.358 0.22875C14.7637 0.583125 14.1074 0.833438 13.408 0.973125C12.8437 0.372188 12.0393 0 11.1618 0C9.45929 0 8.08866 1.38188 8.08866 3.07594C8.08866 3.31969 8.10929 3.55406 8.15991 3.77719C5.60335 3.6525 3.34116 2.42719 1.82147 0.560625C1.55616 1.02094 1.40054 1.54781 1.40054 2.115C1.40054 3.18 1.94897 4.12406 2.76647 4.67062C2.27241 4.66125 1.78772 4.51781 1.3771 4.29187C1.3771 4.30125 1.3771 4.31344 1.3771 4.32562C1.3771 5.82 2.44304 7.06125 3.84085 7.34719C3.59054 7.41563 3.31772 7.44844 3.0346 7.44844C2.83772 7.44844 2.63897 7.43719 2.45241 7.39594C2.85085 8.61375 3.98147 9.50906 5.32585 9.53813C4.2796 10.3566 2.95116 10.8497 1.51304 10.8497C1.26085 10.8497 1.01897 10.8384 0.7771 10.8075C2.13929 11.6859 3.75366 12.1875 5.4946 12.1875C11.1533 12.1875 14.2471 7.5 14.2471 3.43687C14.2471 3.30094 14.2424 3.16969 14.2358 3.03938C14.8462 2.60625 15.359 2.06531 15.7771 1.44281Z" fill="#23A462"/>
</svg>
