<svg width="14" height="14" viewBox="0 0 14 14" fill="none" xmlns="http://www.w3.org/2000/svg">
<path d="M11.6667 4.08333H10.6528C10.9827 3.7926 11.2445 3.43285 11.4197 3.0296C11.5949 2.62635 11.6792 2.18949 11.6667 1.75C11.6667 1.59529 11.6052 1.44692 11.4958 1.33752C11.3864 1.22812 11.238 1.16667 11.0833 1.16667C10.9286 1.16667 10.7802 1.22812 10.6709 1.33752C10.5615 1.44692 10.5 1.59529 10.5 1.75C10.5 3.2795 9.11692 3.80917 8.06517 3.99058C8.45336 3.30228 8.68705 2.53771 8.75 1.75C8.75 1.28587 8.56563 0.840752 8.23744 0.512563C7.90925 0.184374 7.46413 0 7 0C6.53587 0 6.09075 0.184374 5.76256 0.512563C5.43437 0.840752 5.25 1.28587 5.25 1.75C5.31295 2.53771 5.54663 3.30228 5.93483 3.99058C4.88308 3.80917 3.5 3.2795 3.5 1.75C3.5 1.59529 3.43854 1.44692 3.32915 1.33752C3.21975 1.22812 3.07138 1.16667 2.91667 1.16667C2.76196 1.16667 2.61358 1.22812 2.50419 1.33752C2.39479 1.44692 2.33333 1.59529 2.33333 1.75C2.3208 2.18949 2.40513 2.62635 2.58034 3.0296C2.75555 3.43285 3.01735 3.7926 3.34717 4.08333H2.33333C1.71449 4.08333 1.121 4.32917 0.683417 4.76675C0.245833 5.20434 0 5.79783 0 6.41667L0 7C0 7.30942 0.122916 7.60616 0.341709 7.82496C0.560501 8.04375 0.857247 8.16667 1.16667 8.16667V11.0833C1.16759 11.8566 1.47518 12.5979 2.02196 13.1447C2.56874 13.6915 3.31007 13.9991 4.08333 14H9.91667C10.6899 13.9991 11.4313 13.6915 11.978 13.1447C12.5248 12.5979 12.8324 11.8566 12.8333 11.0833V8.16667C13.1428 8.16667 13.4395 8.04375 13.6583 7.82496C13.8771 7.60616 14 7.30942 14 7V6.41667C14 5.79783 13.7542 5.20434 13.3166 4.76675C12.879 4.32917 12.2855 4.08333 11.6667 4.08333ZM7 1.16667C7.15471 1.16667 7.30308 1.22812 7.41248 1.33752C7.52187 1.44692 7.58333 1.59529 7.58333 1.75C7.51291 2.36998 7.31426 2.96853 7 3.50758C6.68574 2.96853 6.48708 2.36998 6.41667 1.75C6.41667 1.59529 6.47812 1.44692 6.58752 1.33752C6.69692 1.22812 6.84529 1.16667 7 1.16667ZM1.16667 6.41667C1.16667 6.10725 1.28958 5.8105 1.50838 5.59171C1.72717 5.37292 2.02391 5.25 2.33333 5.25H6.41667V7H1.16667V6.41667ZM2.33333 11.0833V8.16667H6.41667V12.8333H4.08333C3.6192 12.8333 3.17409 12.649 2.8459 12.3208C2.51771 11.9926 2.33333 11.5475 2.33333 11.0833ZM11.6667 11.0833C11.6667 11.5475 11.4823 11.9926 11.1541 12.3208C10.8259 12.649 10.3808 12.8333 9.91667 12.8333H7.58333V8.16667H11.6667V11.0833ZM7.58333 7V5.25H11.6667C11.9761 5.25 12.2728 5.37292 12.4916 5.59171C12.7104 5.8105 12.8333 6.10725 12.8333 6.41667V7H7.58333Z" fill="#23A462"/>
</svg>
