<svg width="25" height="24" viewBox="0 0 25 24" fill="none" xmlns="http://www.w3.org/2000/svg">
<path d="M15.0185 24C14.442 24 13.927 23.5862 13.4267 23.1844C13.121 22.9385 12.702 22.602 12.4997 22.602C12.2977 22.602 11.8787 22.9385 11.573 23.1844C11.025 23.6244 10.4034 24.1247 9.71903 23.9707C9.01278 23.813 8.66704 23.0836 8.36193 22.4404C8.20966 22.1187 7.97898 21.6323 7.81506 21.5544C7.64119 21.471 7.10142 21.5997 6.74432 21.6839C6.04915 21.8483 5.26165 22.0336 4.70483 21.5974C4.14602 21.159 4.15597 20.3607 4.16534 19.6567C4.16989 19.2975 4.1767 18.7551 4.05909 18.61C3.9429 18.4671 3.40511 18.3541 3.04915 18.2793C2.34517 18.1314 1.54801 17.9637 1.23551 17.3275C0.927557 16.701 1.28693 15.9906 1.60341 15.3638C1.7679 15.039 2.01619 14.5476 1.97273 14.3593C1.93352 14.1904 1.50568 13.8642 1.22273 13.6483C0.649716 13.2118 0 12.7162 0 11.9997C0 11.2831 0.649716 10.7878 1.22301 10.3508C1.50597 10.1351 1.93381 9.80887 1.97301 9.63977C2.01648 9.45142 1.76818 8.96002 1.60398 8.63493C1.28722 8.0082 0.928125 7.29803 1.23636 6.67101C1.54886 6.03507 2.34602 5.86736 3.04972 5.71947C3.40568 5.64468 3.94347 5.53167 4.05937 5.38908C4.17756 5.24369 4.17074 4.70095 4.16619 4.34182C4.1571 3.63779 4.14716 2.83972 4.70568 2.40134C5.26222 1.96491 6.05028 2.15076 6.74517 2.31484C7.10284 2.39911 7.64205 2.52663 7.81562 2.44459C7.97983 2.36674 8.21023 1.88064 8.36278 1.55862C8.66761 0.915144 9.01307 0.185999 9.71932 0.0283381C10.4028 -0.124021 11.0256 0.374354 11.5733 0.814688C11.8793 1.06053 12.2983 1.39706 12.5003 1.39706C12.7023 1.39706 13.1213 1.06053 13.427 0.814967C13.9753 0.374354 14.5966 -0.125137 15.2812 0.0283381C15.9872 0.185999 16.333 0.915423 16.6381 1.5589C16.7906 1.88064 17.021 2.36702 17.1852 2.44487C17.3594 2.52719 17.8983 2.39939 18.2554 2.31511C18.9506 2.15104 19.7384 1.96519 20.2952 2.40162C20.854 2.84 20.844 3.63807 20.8347 4.34238C20.8301 4.70151 20.8233 5.24425 20.9409 5.38908C21.0571 5.53167 21.5949 5.64496 21.9509 5.71975C22.6548 5.86764 23.452 6.03507 23.7645 6.67129C24.0724 7.29803 23.7131 8.00847 23.3966 8.63521C23.2321 8.9603 22.9838 9.45142 23.0273 9.63977C23.0665 9.80887 23.4943 10.1351 23.7773 10.3508C24.3503 10.7878 25 11.2831 25 11.9997C25 12.7162 24.3503 13.2116 23.777 13.6485C23.494 13.8642 23.0662 14.1902 23.027 14.3598C22.9835 14.5482 23.2318 15.0393 23.396 15.3644C23.7128 15.9911 24.0719 16.7013 23.7636 17.3283C23.4511 17.9643 22.654 18.132 21.9503 18.2796C21.5943 18.3546 21.0565 18.4676 20.9403 18.6102C20.8224 18.7556 20.8293 19.2984 20.8338 19.6575C20.8429 20.3612 20.8528 21.1593 20.2943 21.5977C19.7378 22.0341 18.9497 21.848 18.2548 21.6842C17.8972 21.5999 17.358 21.4718 17.1844 21.5547C17.0202 21.6323 16.7898 22.1187 16.6372 22.4404C16.3324 23.0842 15.9869 23.8133 15.2807 23.971C15.192 23.9908 15.1045 24 15.0185 24ZM7.6392 20.4129C7.87472 20.4129 8.10057 20.4503 8.30881 20.5488C8.83807 20.7994 9.11989 21.394 9.39233 21.9691C9.52727 22.2537 9.80795 22.8459 9.97074 22.8821C10.1222 22.9084 10.6165 22.5102 10.8534 22.3199C11.3642 21.9097 11.892 21.4855 12.4997 21.4855C13.1074 21.4855 13.6355 21.91 14.146 22.3199C14.383 22.5102 14.8625 22.9006 15.0293 22.8821C15.1915 22.8456 15.4724 22.2537 15.6071 21.9691C15.8793 21.394 16.1611 20.7999 16.6906 20.5488C17.2293 20.2934 17.8849 20.4489 18.5199 20.5987C18.8253 20.6707 19.4619 20.8211 19.5847 20.7251C19.7094 20.6275 19.7011 19.9815 19.6972 19.6712C19.6889 19.0316 19.6804 18.3705 20.052 17.9135C20.4213 17.4592 21.0773 17.3213 21.7119 17.1879C22.0227 17.1227 22.669 16.9868 22.7398 16.843C22.8057 16.7083 22.5165 16.1357 22.3776 15.8605C22.0864 15.2843 21.7849 14.6883 21.9185 14.1123C22.0477 13.5537 22.5724 13.1535 23.0795 12.7668C23.354 12.558 23.8636 12.1696 23.8636 11.9997C23.8636 11.8297 23.354 11.4413 23.0801 11.2323C22.5727 10.8455 22.048 10.4457 21.9187 9.88673C21.7855 9.31078 22.0869 8.71474 22.3781 8.13851C22.517 7.86337 22.8065 7.29105 22.7403 7.15599C22.6696 7.012 22.0233 6.87639 21.7128 6.81109C21.0781 6.67771 20.4219 6.53986 20.0526 6.08585C19.6812 5.62906 19.6898 4.96772 19.698 4.32843C19.702 4.01813 19.7102 3.37186 19.5855 3.27419C19.4634 3.1782 18.8264 3.32861 18.5205 3.4006C17.8858 3.55045 17.2301 3.7056 16.6912 3.45027C16.1619 3.19941 15.8801 2.60504 15.6077 2.03021C15.4727 1.74558 15.1923 1.15345 15.0293 1.11717C14.873 1.09066 14.3832 1.48914 14.1463 1.67917C13.6358 2.08965 13.108 2.51379 12.5003 2.51379C11.8926 2.51379 11.3648 2.08937 10.854 1.67917C10.617 1.48886 10.1227 1.09234 9.97074 1.11689C9.80824 1.15317 9.52727 1.7453 9.39261 2.02993C9.12017 2.60476 8.83864 3.19913 8.30937 3.44999C7.77074 3.70504 7.11506 3.55045 6.47983 3.40032C6.17443 3.32805 5.53722 3.17792 5.41506 3.27363C5.29034 3.37158 5.29858 4.01757 5.30256 4.32787C5.3108 4.96744 5.31932 5.62878 4.94773 6.08529C4.57841 6.53958 3.92244 6.67743 3.28778 6.81081C2.97699 6.87611 2.33068 7.012 2.25994 7.15571C2.19403 7.29049 2.48324 7.86309 2.62216 8.13823C2.91335 8.71446 3.21477 9.3105 3.08125 9.88645C2.95199 10.4451 2.42727 10.8452 1.92017 11.232C1.64602 11.4413 1.13636 11.8297 1.13636 11.9997C1.13636 12.1696 1.64602 12.5583 1.91989 12.767C2.42727 13.1538 2.95199 13.5534 3.08125 14.1123C3.21449 14.6883 2.91307 15.284 2.62188 15.8605C2.48295 16.1357 2.19347 16.708 2.25966 16.843C2.3304 16.9873 2.9767 17.1229 3.2875 17.1882C3.92187 17.3216 4.57812 17.4595 4.94744 17.9137C5.31875 18.3705 5.31023 19.0316 5.30199 19.6712C5.29801 19.9815 5.28977 20.6277 5.41449 20.7254C5.53665 20.82 6.17358 20.671 6.47955 20.5987C6.86847 20.5066 7.26591 20.4129 7.6392 20.4129ZM8.92443 16.3009L16.879 8.4876C17.1009 8.26966 17.1009 7.91639 16.879 7.69845C16.6571 7.48052 16.2974 7.48052 16.0756 7.69845L8.12102 15.5117C7.89915 15.7297 7.89915 16.0829 8.12102 16.3009C8.2321 16.41 8.37727 16.4644 8.52273 16.4644C8.66818 16.4644 8.81335 16.41 8.92443 16.3009ZM9.65909 11.1625C8.56278 11.1625 7.67045 10.2863 7.67045 9.20921C7.67045 8.13209 8.56278 7.25589 9.65909 7.25589C10.7554 7.25589 11.6477 8.13209 11.6477 9.20921C11.6477 10.2863 10.7554 11.1625 9.65909 11.1625ZM9.65909 8.37207C9.1892 8.37207 8.80682 8.74766 8.80682 9.20921C8.80682 9.67075 9.1892 10.0463 9.65909 10.0463C10.129 10.0463 10.5114 9.67075 10.5114 9.20921C10.5114 8.74766 10.129 8.37207 9.65909 8.37207ZM15.3409 16.7434C14.2446 16.7434 13.3523 15.8669 13.3523 14.7901C13.3523 13.7133 14.2446 12.8368 15.3409 12.8368C16.4372 12.8368 17.3295 13.7133 17.3295 14.7901C17.3295 15.8669 16.4372 16.7434 15.3409 16.7434ZM15.3409 13.953C14.871 13.953 14.4886 14.3286 14.4886 14.7901C14.4886 15.2517 14.871 15.6272 15.3409 15.6272C15.8108 15.6272 16.1932 15.2517 16.1932 14.7901C16.1932 14.3286 15.8108 13.953 15.3409 13.953Z" fill="#FF6767"/>
</svg>
